# This file uses centimeters as units for non-parametric coordinates.

v 0.147464 -0.002426 0.471950
v 0.147464 0.041116 0.508234
v 0.147464 0.153597 0.508234
v 0.147464 0.180811 0.301413
v 0.147464 0.262451 0.221587
v 0.147464 0.266079 -0.137629
v 0.147464 0.182625 -0.239226
v 0.147464 0.160854 -0.406134
v 0.147464 0.059258 -0.409763
v 0.147464 -0.000612 -0.353522
v -0.185642 -0.002426 0.471950
v -0.185642 0.041116 0.508234
v -0.185642 0.153597 0.508234
v -0.185642 0.180811 0.301413
v -0.185642 0.262451 0.221587
v -0.185642 0.266079 -0.137629
v -0.185642 0.182625 -0.239226
v -0.185642 0.160854 -0.406134
v -0.185642 0.059258 -0.409763
v -0.185642 -0.000612 -0.353522
vt 0.220470 0.030353
vt 0.254697 0.001830
vt 0.343120 0.001830
vt 0.364512 0.164412
vt 0.428689 0.227163
vt 0.431542 0.509544
vt 0.365938 0.589409
vt 0.348824 0.720616
vt 0.268959 0.723468
vt 0.221896 0.679257
vt 0.001992 0.694945
vt 0.003418 0.046041
vt 0.050482 0.001830
vt 0.130347 0.004682
vt 0.147461 0.135889
vt 0.213064 0.215754
vt 0.210212 0.498134
vt 0.146034 0.560885
vt 0.124642 0.723468
vt 0.036220 0.723468
vt 0.776522 0.654725
vt 0.864944 0.654725
vt 0.864944 0.916581
vt 0.776522 0.916581
vt 0.742294 0.654725
vt 0.742294 0.916581
vt 0.700608 0.001830
vt 0.700608 0.164412
vt 0.438752 0.164412
vt 0.438752 0.001830
vt 0.700608 0.227163
vt 0.438752 0.227163
vt 0.700608 0.509544
vt 0.438752 0.509544
vt 0.700608 0.589409
vt 0.438752 0.589409
vt 0.700608 0.720616
vt 0.438752 0.720616
vt 0.871080 0.654725
vt 0.950945 0.654725
vt 0.950945 0.916581
vt 0.871080 0.916581
vt 0.998008 0.654725
vt 0.998008 0.916581
vt 0.969563 0.001830
vt 0.969563 0.650734
vt 0.707708 0.650734
vt 0.707708 0.001830
vn -1.000000 -0.000000 0.000000
vn -1.000000 -0.000000 0.000000
vn -1.000000 -0.000000 0.000000
vn -1.000000 -0.000000 0.000000
vn -1.000000 -0.000000 0.000000
vn -1.000000 -0.000000 0.000000
vn -1.000000 -0.000000 0.000000
vn -1.000000 -0.000000 0.000000
vn -1.000000 -0.000000 0.000000
vn -1.000000 -0.000000 0.000000
vn 1.000000 -0.000000 0.000000
vn 1.000000 -0.000000 0.000000
vn 1.000000 -0.000000 0.000000
vn 1.000000 -0.000000 0.000000
vn 1.000000 -0.000000 0.000000
vn 1.000000 -0.000000 0.000000
vn 1.000000 -0.000000 0.000000
vn 1.000000 -0.000000 0.000000
vn 1.000000 -0.000000 0.000000
vn 1.000000 -0.000000 0.000000
vn 0.000000 -0.640184 0.768221
vn 0.000000 -0.640184 0.768221
vn 0.000000 -0.640184 0.768221
vn 0.000000 -0.640184 0.768221
vn 0.000000 0.000000 1.000000
vn 0.000000 0.000000 1.000000
vn 0.000000 0.000000 1.000000
vn 0.000000 0.000000 1.000000
vn 0.000000 0.991454 0.130454
vn 0.000000 0.991454 0.130454
vn 0.000000 0.991454 0.130454
vn 0.000000 0.991454 0.130454
vn 0.000000 0.699118 0.715007
vn 0.000000 0.699118 0.715007
vn 0.000000 0.699118 0.715007
vn 0.000000 0.699118 0.715007
vn 0.000000 0.999949 0.010100
vn 0.000000 0.999949 0.010100
vn 0.000000 0.999949 0.010100
vn 0.000000 0.999949 0.010100
vn 0.000000 0.772726 -0.634739
vn 0.000000 0.772726 -0.634739
vn 0.000000 0.772726 -0.634739
vn 0.000000 0.772726 -0.634739
vn 0.000000 0.991600 -0.129339
vn 0.000000 0.991600 -0.129339
vn 0.000000 0.991600 -0.129339
vn 0.000000 0.991600 -0.129339
vn 0.000000 0.035691 -0.999363
vn 0.000000 0.035691 -0.999363
vn 0.000000 0.035691 -0.999363
vn 0.000000 0.035691 -0.999363
vn 0.000000 -0.684676 -0.728848
vn 0.000000 -0.684676 -0.728848
vn 0.000000 -0.684676 -0.728848
vn 0.000000 -0.684676 -0.728848
vn 0.000000 -0.999998 -0.002198
vn 0.000000 -0.999998 -0.002198
vn 0.000000 -0.999998 -0.002198
vn 0.000000 -0.999998 -0.002198
f 11/1/1 12/2/2 13/3/3 14/4/4 15/5/5 16/6/6 17/7/7 18/8/8 19/9/9 20/10/10
f 1/11/11 10/12/12 9/13/13 8/14/14 7/15/15 6/16/16 5/17/17 4/18/18 3/19/19 2/20/20
f 1/25/21 2/21/22 12/24/23 11/26/24
f 2/21/25 3/22/26 13/23/27 12/24/28
f 3/27/29 4/28/30 14/29/31 13/30/32
f 4/28/33 5/31/34 15/32/35 14/29/36
f 5/31/37 6/33/38 16/34/39 15/32/40
f 6/33/41 7/35/42 17/36/43 16/34/44
f 7/35/45 8/37/46 18/38/47 17/36/48
f 8/39/49 9/40/50 19/41/51 18/42/52
f 9/40/53 10/43/54 20/44/55 19/41/56
f 10/45/57 1/46/58 11/47/59 20/48/60
