# This file uses centimeters as units for non-parametric coordinates.

v 0.250000 -0.951057 -0.181636
v 0.095491 -0.951057 -0.293893
v -0.095492 -0.951057 -0.293893
v -0.250000 -0.951057 -0.181636
v -0.309017 -0.951057 0.000000
v -0.250000 -0.951057 0.181636
v -0.095492 -0.951057 0.293893
v 0.095492 -0.951057 0.293893
v 0.250000 -0.951057 0.181636
v 0.309017 -0.951057 0.000000
v 0.475528 -0.809017 -0.345492
v 0.181636 -0.809017 -0.559017
v -0.181636 -0.809017 -0.559017
v -0.475528 -0.809017 -0.345491
v -0.587785 -0.809017 0.000000
v -0.475528 -0.809017 0.345492
v -0.181636 -0.809017 0.559017
v 0.181636 -0.809017 0.559017
v 0.475528 -0.809017 0.345491
v 0.587785 -0.809017 0.000000
v 0.654508 -0.587785 -0.475528
v 0.250000 -0.587785 -0.769421
v -0.250000 -0.587785 -0.769421
v -0.654509 -0.587785 -0.475528
v -0.809017 -0.587785 0.000000
v -0.654509 -0.587785 0.475528
v -0.250000 -0.587785 0.769421
v 0.250000 -0.587785 0.769421
v 0.654509 -0.587785 0.475528
v 0.809017 -0.587785 0.000000
v 0.769421 -0.309017 -0.559017
v 0.293893 -0.309017 -0.904509
v -0.293893 -0.309017 -0.904508
v -0.769421 -0.309017 -0.559017
v -0.951057 -0.309017 0.000000
v -0.769421 -0.309017 0.559017
v -0.293893 -0.309017 0.904509
v 0.293893 -0.309017 0.904509
v 0.769421 -0.309017 0.559017
v 0.951057 -0.309017 0.000000
v 0.809017 0.000000 -0.587785
v 0.309017 0.000000 -0.951057
v -0.309017 0.000000 -0.951056
v -0.809017 0.000000 -0.587785
v -1.000000 0.000000 0.000000
v -0.809017 0.000000 0.587785
v -0.309017 0.000000 0.951057
v 0.309017 0.000000 0.951057
v 0.809017 0.000000 0.587785
v 1.000000 0.000000 0.000000
v 0.769421 0.309017 -0.559017
v 0.293893 0.309017 -0.904509
v -0.293893 0.309017 -0.904508
v -0.769421 0.309017 -0.559017
v -0.951057 0.309017 0.000000
v -0.769421 0.309017 0.559017
v -0.293893 0.309017 0.904509
v 0.293893 0.309017 0.904509
v 0.769421 0.309017 0.559017
v 0.951057 0.309017 0.000000
v 0.654508 0.587785 -0.475528
v 0.250000 0.587785 -0.769421
v -0.250000 0.587785 -0.769421
v -0.654509 0.587785 -0.475528
v -0.809017 0.587785 0.000000
v -0.654509 0.587785 0.475528
v -0.250000 0.587785 0.769421
v 0.250000 0.587785 0.769421
v 0.654509 0.587785 0.475528
v 0.809017 0.587785 0.000000
v 0.475528 0.809017 -0.345492
v 0.181636 0.809017 -0.559017
v -0.181636 0.809017 -0.559017
v -0.475528 0.809017 -0.345491
v -0.587785 0.809017 0.000000
v -0.475528 0.809017 0.345492
v -0.181636 0.809017 0.559017
v 0.181636 0.809017 0.559017
v 0.475528 0.809017 0.345491
v 0.587785 0.809017 0.000000
v 0.250000 0.951057 -0.181636
v 0.095491 0.951057 -0.293893
v -0.095492 0.951057 -0.293893
v -0.250000 0.951057 -0.181636
v -0.309017 0.951057 0.000000
v -0.250000 0.951057 0.181636
v -0.095492 0.951057 0.293893
v 0.095492 0.951057 0.293893
v 0.250000 0.951057 0.181636
v 0.309017 0.951057 0.000000
v 0.000000 -1.000000 0.000000
v 0.000000 1.000000 0.000000
vt 0.000000 0.004402
vt 0.100000 0.004402
vt 0.200000 0.004402
vt 0.300000 0.004402
vt 0.400000 0.004402
vt 0.500000 0.004402
vt 0.600000 0.004402
vt 0.700000 0.004402
vt 0.800000 0.004402
vt 0.900000 0.004402
vt 1.000000 0.004402
vt 0.000000 0.004745
vt 0.100000 0.004745
vt 0.200000 0.004745
vt 0.300000 0.004745
vt 0.400000 0.004745
vt 0.500000 0.004745
vt 0.600000 0.004745
vt 0.700000 0.004745
vt 0.800000 0.004745
vt 0.900000 0.004745
vt 1.000000 0.004745
vt 0.000000 0.005087
vt 0.100000 0.005087
vt 0.200000 0.005087
vt 0.300000 0.005087
vt 0.400000 0.005087
vt 0.500000 0.005087
vt 0.600000 0.005087
vt 0.700000 0.005087
vt 0.800000 0.005087
vt 0.900000 0.005087
vt 1.000000 0.005087
vt 0.000000 0.005430
vt 0.100000 0.005430
vt 0.200000 0.005430
vt 0.300000 0.005430
vt 0.400000 0.005430
vt 0.500000 0.005430
vt 0.600000 0.005430
vt 0.700000 0.005430
vt 0.800000 0.005430
vt 0.900000 0.005430
vt 1.000000 0.005430
vt 0.000000 0.114233
vt 0.100000 0.114233
vt 0.200000 0.114233
vt 0.300000 0.114233
vt 0.400000 0.114233
vt 0.500000 0.114233
vt 0.600000 0.114233
vt 0.700000 0.114233
vt 0.800000 0.114233
vt 0.900000 0.114233
vt 1.000000 0.114233
vt 0.000000 0.304221
vt 0.100000 0.304221
vt 0.200000 0.304221
vt 0.300000 0.304221
vt 0.400000 0.304221
vt 0.500000 0.304221
vt 0.600000 0.304221
vt 0.700000 0.304221
vt 0.800000 0.304221
vt 0.900000 0.304221
vt 1.000000 0.304221
vt 0.000000 0.494208
vt 0.100000 0.494208
vt 0.200000 0.494208
vt 0.300000 0.494208
vt 0.400000 0.494208
vt 0.500000 0.494208
vt 0.600000 0.494208
vt 0.700000 0.494208
vt 0.800000 0.494208
vt 0.900000 0.494208
vt 1.000000 0.494208
vt 0.000000 0.684196
vt 0.100000 0.684196
vt 0.200000 0.684196
vt 0.300000 0.684196
vt 0.400000 0.684196
vt 0.500000 0.684196
vt 0.600000 0.684196
vt 0.700000 0.684196
vt 0.800000 0.684196
vt 0.900000 0.684196
vt 1.000000 0.684196
vt 0.000000 0.874183
vt 0.100000 0.874183
vt 0.200000 0.874183
vt 0.300000 0.874183
vt 0.400000 0.874183
vt 0.500000 0.874183
vt 0.600000 0.874183
vt 0.700000 0.874183
vt 0.800000 0.874183
vt 0.900000 0.874183
vt 1.000000 0.874183
vt 0.050000 0.004060
vt 0.150000 0.004060
vt 0.250000 0.004060
vt 0.350000 0.004060
vt 0.450000 0.004060
vt 0.550000 0.004060
vt 0.650000 0.004060
vt 0.750000 0.004060
vt 0.850000 0.004060
vt 0.950000 0.004060
vt 0.047703 0.997554
vt 0.147703 0.997554
vt 0.247703 0.997554
vt 0.347703 0.997554
vt 0.447703 0.997554
vt 0.547703 0.997554
vt 0.647703 0.997554
vt 0.747703 0.997554
vt 0.847703 0.997554
vt 0.947703 0.997554
vn -0.249423 0.951288 0.181216
vn -0.474753 0.809713 0.344928
vn -0.181339 0.809713 0.558105
vn -0.095271 0.951288 0.293214
vn 0.181339 0.809713 0.558105
vn 0.095271 0.951288 0.293214
vn 0.474753 0.809713 0.344928
vn 0.249423 0.951288 0.181216
vn 0.586827 0.809713 0.000000
vn 0.308303 0.951288 -0.000000
vn 0.474753 0.809713 -0.344928
vn 0.249423 0.951288 -0.181216
vn 0.181339 0.809713 -0.558105
vn 0.095271 0.951288 -0.293214
vn -0.181339 0.809713 -0.558105
vn -0.095271 0.951288 -0.293214
vn -0.474753 0.809713 -0.344928
vn -0.249423 0.951288 -0.181216
vn -0.586827 0.809713 0.000000
vn -0.308303 0.951288 0.000000
vn -0.653961 0.588715 0.475131
vn -0.249791 0.588715 0.768777
vn 0.249791 0.588715 0.768777
vn 0.653961 0.588715 0.475131
vn 0.808340 0.588715 0.000000
vn 0.653961 0.588715 -0.475131
vn 0.249791 0.588715 -0.768777
vn -0.249791 0.588715 -0.768777
vn -0.653961 0.588715 -0.475131
vn -0.808340 0.588715 0.000000
vn -0.769247 0.309677 0.558891
vn -0.293826 0.309677 0.904304
vn 0.293826 0.309677 0.904304
vn 0.769247 0.309677 0.558891
vn 0.950842 0.309677 -0.000000
vn 0.769247 0.309677 -0.558891
vn 0.293826 0.309677 -0.904304
vn -0.293826 0.309677 -0.904304
vn -0.769247 0.309677 -0.558891
vn -0.950842 0.309677 0.000000
vn -0.809017 0.000000 0.587785
vn -0.309017 0.000000 0.951057
vn 0.309017 -0.000000 0.951056
vn 0.809017 -0.000000 0.587785
vn 1.000000 0.000000 -0.000000
vn 0.809017 0.000000 -0.587785
vn 0.309017 -0.000000 -0.951057
vn -0.309017 0.000000 -0.951056
vn -0.809017 -0.000000 -0.587785
vn -1.000000 0.000000 0.000000
vn -0.769247 -0.309677 0.558891
vn -0.293826 -0.309677 0.904304
vn 0.293826 -0.309677 0.904304
vn 0.769247 -0.309677 0.558891
vn 0.950842 -0.309677 -0.000000
vn 0.769247 -0.309677 -0.558891
vn 0.293826 -0.309677 -0.904304
vn -0.293826 -0.309677 -0.904304
vn -0.769247 -0.309677 -0.558891
vn -0.950842 -0.309677 0.000000
vn -0.653961 -0.588715 0.475131
vn -0.249791 -0.588715 0.768777
vn 0.249791 -0.588715 0.768777
vn 0.653961 -0.588715 0.475131
vn 0.808340 -0.588715 0.000000
vn 0.653961 -0.588715 -0.475131
vn 0.249791 -0.588715 -0.768777
vn -0.249791 -0.588715 -0.768777
vn -0.653961 -0.588715 -0.475131
vn -0.808340 -0.588715 0.000000
vn -0.474753 -0.809713 0.344928
vn -0.181339 -0.809713 0.558105
vn 0.181339 -0.809713 0.558105
vn 0.474753 -0.809713 0.344928
vn 0.586827 -0.809713 0.000000
vn 0.474753 -0.809713 -0.344928
vn 0.181339 -0.809713 -0.558105
vn -0.181339 -0.809713 -0.558105
vn -0.474753 -0.809713 -0.344928
vn -0.586827 -0.809713 0.000000
vn -0.249423 -0.951288 0.181216
vn -0.095271 -0.951288 0.293214
vn 0.095271 -0.951288 0.293214
vn 0.249423 -0.951288 0.181216
vn 0.308303 -0.951288 0.000000
vn 0.249423 -0.951288 -0.181216
vn 0.095271 -0.951288 -0.293214
vn -0.095271 -0.951288 -0.293214
vn -0.249423 -0.951288 -0.181216
vn -0.308303 -0.951288 -0.000000
vn 0.000000 1.000000 0.000000
vn 0.000000 -1.000000 0.000000
f 1/1/1 11/12/2 12/13/3 2/2/4
f 2/2/4 12/13/3 13/14/5 3/3/6
f 3/3/6 13/14/5 14/15/7 4/4/8
f 4/4/8 14/15/7 15/16/9 5/5/10
f 5/5/10 15/16/9 16/17/11 6/6/12
f 6/6/12 16/17/11 17/18/13 7/7/14
f 7/7/14 17/18/13 18/19/15 8/8/16
f 8/8/16 18/19/15 19/20/17 9/9/18
f 9/9/18 19/20/17 20/21/19 10/10/20
f 10/10/20 20/21/19 11/22/2 1/11/1
f 11/12/2 21/23/21 22/24/22 12/13/3
f 12/13/3 22/24/22 23/25/23 13/14/5
f 13/14/5 23/25/23 24/26/24 14/15/7
f 14/15/7 24/26/24 25/27/25 15/16/9
f 15/16/9 25/27/25 26/28/26 16/17/11
f 16/17/11 26/28/26 27/29/27 17/18/13
f 17/18/13 27/29/27 28/30/28 18/19/15
f 18/19/15 28/30/28 29/31/29 19/20/17
f 19/20/17 29/31/29 30/32/30 20/21/19
f 20/21/19 30/32/30 21/33/21 11/22/2
f 21/23/21 31/34/31 32/35/32 22/24/22
f 22/24/22 32/35/32 33/36/33 23/25/23
f 23/25/23 33/36/33 34/37/34 24/26/24
f 24/26/24 34/37/34 35/38/35 25/27/25
f 25/27/25 35/38/35 36/39/36 26/28/26
f 26/28/26 36/39/36 37/40/37 27/29/27
f 27/29/27 37/40/37 38/41/38 28/30/28
f 28/30/28 38/41/38 39/42/39 29/31/29
f 29/31/29 39/42/39 40/43/40 30/32/30
f 30/32/30 40/43/40 31/44/31 21/33/21
f 31/34/31 41/45/41 42/46/42 32/35/32
f 32/35/32 42/46/42 43/47/43 33/36/33
f 33/36/33 43/47/43 44/48/44 34/37/34
f 34/37/34 44/48/44 45/49/45 35/38/35
f 35/38/35 45/49/45 46/50/46 36/39/36
f 36/39/36 46/50/46 47/51/47 37/40/37
f 37/40/37 47/51/47 48/52/48 38/41/38
f 38/41/38 48/52/48 49/53/49 39/42/39
f 39/42/39 49/53/49 50/54/50 40/43/40
f 40/43/40 50/54/50 41/55/41 31/44/31
f 41/45/41 51/56/51 52/57/52 42/46/42
f 42/46/42 52/57/52 53/58/53 43/47/43
f 43/47/43 53/58/53 54/59/54 44/48/44
f 44/48/44 54/59/54 55/60/55 45/49/45
f 45/49/45 55/60/55 56/61/56 46/50/46
f 46/50/46 56/61/56 57/62/57 47/51/47
f 47/51/47 57/62/57 58/63/58 48/52/48
f 48/52/48 58/63/58 59/64/59 49/53/49
f 49/53/49 59/64/59 60/65/60 50/54/50
f 50/54/50 60/65/60 51/66/51 41/55/41
f 51/56/51 61/67/61 62/68/62 52/57/52
f 52/57/52 62/68/62 63/69/63 53/58/53
f 53/58/53 63/69/63 64/70/64 54/59/54
f 54/59/54 64/70/64 65/71/65 55/60/55
f 55/60/55 65/71/65 66/72/66 56/61/56
f 56/61/56 66/72/66 67/73/67 57/62/57
f 57/62/57 67/73/67 68/74/68 58/63/58
f 58/63/58 68/74/68 69/75/69 59/64/59
f 59/64/59 69/75/69 70/76/70 60/65/60
f 60/65/60 70/76/70 61/77/61 51/66/51
f 61/67/61 71/78/71 72/79/72 62/68/62
f 62/68/62 72/79/72 73/80/73 63/69/63
f 63/69/63 73/80/73 74/81/74 64/70/64
f 64/70/64 74/81/74 75/82/75 65/71/65
f 65/71/65 75/82/75 76/83/76 66/72/66
f 66/72/66 76/83/76 77/84/77 67/73/67
f 67/73/67 77/84/77 78/85/78 68/74/68
f 68/74/68 78/85/78 79/86/79 69/75/69
f 69/75/69 79/86/79 80/87/80 70/76/70
f 70/76/70 80/87/80 71/88/71 61/77/61
f 71/78/71 81/89/81 82/90/82 72/79/72
f 72/79/72 82/90/82 83/91/83 73/80/73
f 73/80/73 83/91/83 84/92/84 74/81/74
f 74/81/74 84/92/84 85/93/85 75/82/75
f 75/82/75 85/93/85 86/94/86 76/83/76
f 76/83/76 86/94/86 87/95/87 77/84/77
f 77/84/77 87/95/87 88/96/88 78/85/78
f 78/85/78 88/96/88 89/97/89 79/86/79
f 79/86/79 89/97/89 90/98/90 80/87/80
f 80/87/80 90/98/90 81/99/81 71/88/71
f 2/2/4 91/100/91 1/1/1
f 3/3/6 91/101/91 2/2/4
f 4/4/8 91/102/91 3/3/6
f 5/5/10 91/103/91 4/4/8
f 6/6/12 91/104/91 5/5/10
f 7/7/14 91/105/91 6/6/12
f 8/8/16 91/106/91 7/7/14
f 9/9/18 91/107/91 8/8/16
f 10/10/20 91/108/91 9/9/18
f 1/11/1 91/109/91 10/10/20
f 81/89/81 92/110/92 82/90/82
f 82/90/82 92/111/92 83/91/83
f 83/91/83 92/112/92 84/92/84
f 84/92/84 92/113/92 85/93/85
f 85/93/85 92/114/92 86/94/86
f 86/94/86 92/115/92 87/95/87
f 87/95/87 92/116/92 88/96/88
f 88/96/88 92/117/92 89/97/89
f 89/97/89 92/118/92 90/98/90
f 90/98/90 92/119/92 81/99/81
