# This file uses centimeters as units for non-parametric coordinates.

v 0.099991 0.099990 0.000000
v 0.049995 0.099990 -0.013396
v 0.013397 0.099990 -0.049995
v 0.000001 0.099990 -0.099990
v 0.013397 0.049995 -0.099990
v 0.049995 0.013396 -0.099990
v 0.099991 0.000000 -0.099990
v 0.099991 0.013396 -0.049995
v 0.099991 0.049995 -0.013396
v 1.000001 0.099990 0.000000
v 1.000001 0.049995 -0.013396
v 1.000001 0.013396 -0.049995
v 1.000001 0.000000 -0.099990
v 0.000001 0.099990 -1.000000
v 0.013397 0.049995 -1.000000
v 0.049995 0.013396 -1.000000
v 0.099991 0.000000 -1.000000
v 2.000001 0.099990 -0.099990
v 1.986605 0.099990 -0.049995
v 1.950006 0.099990 -0.013396
v 1.900011 0.099990 0.000000
v 1.900011 0.049995 -0.013396
v 1.900011 0.013396 -0.049995
v 1.900011 0.000000 -0.099990
v 1.950006 0.013396 -0.099990
v 1.986605 0.049995 -0.099990
v 1.900011 0.099990 -1.000000
v 1.950006 0.099990 -0.986604
v 1.986605 0.099990 -0.950005
v 2.000001 0.099990 -0.900010
v 1.986605 0.049995 -0.900010
v 1.950006 0.013396 -0.900010
v 1.900011 0.000000 -0.900010
v 1.900011 0.013396 -0.950005
v 1.900011 0.049995 -0.986604
v 0.000001 0.099990 -2.000000
v 0.013397 0.049995 -2.000000
v 0.049995 0.013396 -2.000000
v 0.099991 0.000000 -2.000000
v 1.000001 0.099990 -1.099990
v 1.013397 0.099990 -1.049995
v 1.049995 0.099990 -1.013396
v 1.099991 0.099990 -1.000000
v 1.055356 0.055355 -0.994184
v 1.018757 0.018756 -0.957585
v 1.000001 0.000000 -0.900010
v 0.900011 0.000000 -1.000000
v 0.957586 0.018756 -1.018756
v 0.994184 0.055355 -1.055355
v 1.000001 0.099990 -2.000000
v 0.986605 0.049995 -2.000000
v 0.950006 0.013396 -2.000000
v 0.900011 0.000000 -2.000000
v 0.000001 0.099990 -2.900010
v 0.013397 0.099990 -2.950005
v 0.049996 0.099990 -2.986604
v 0.099991 0.099990 -3.000000
v 0.099991 0.049995 -2.986604
v 0.099991 0.013396 -2.950005
v 0.099991 0.000000 -2.900010
v 0.049995 0.013396 -2.900010
v 0.013397 0.049995 -2.900010
v 0.900011 0.099990 -3.000000
v 0.950006 0.099990 -2.986604
v 0.986605 0.099990 -2.950005
v 1.000001 0.099990 -2.900010
v 0.986605 0.049995 -2.900010
v 0.950006 0.013396 -2.900010
v 0.900011 0.000000 -2.900010
v 0.900011 0.013396 -2.950005
v 0.900011 0.049995 -2.986604
v 0.099991 1.000000 -0.099990
v 0.049995 0.986604 -0.099990
v 0.013397 0.950005 -0.099990
v 0.000001 0.900010 -0.099990
v 0.013397 0.900010 -0.049995
v 0.049995 0.900010 -0.013396
v 0.099991 0.900010 0.000000
v 0.099991 0.950005 -0.013396
v 0.099991 0.986604 -0.049995
v 1.000001 0.950005 -0.013396
v 1.000001 0.986604 -0.049995
v 1.000001 1.000000 -0.099990
v 1.000001 0.900010 0.000000
v 1.000001 0.900010 -1.099990
v 0.994184 0.944645 -1.055355
v 0.957586 0.981244 -1.018756
v 0.900011 1.000000 -1.000000
v 1.000001 1.000000 -0.900010
v 1.018757 0.981244 -0.957585
v 1.055356 0.944645 -0.994184
v 1.099991 0.900010 -1.000000
v 1.049995 0.900010 -1.013396
v 1.013397 0.900010 -1.049995
v 0.049995 0.986604 -1.000000
v 0.013397 0.950005 -1.000000
v 0.000001 0.900010 -1.000000
v 0.099991 1.000000 -1.000000
v 2.000001 0.900010 -0.099990
v 1.986605 0.950005 -0.099990
v 1.950006 0.986604 -0.099990
v 1.900011 1.000000 -0.099990
v 1.900011 0.986604 -0.049995
v 1.900011 0.950005 -0.013396
v 1.900011 0.900010 0.000000
v 1.950006 0.900010 -0.013396
v 1.986605 0.900010 -0.049995
v 1.900011 0.900010 -1.000000
v 1.900011 0.950005 -0.986604
v 1.900011 0.986604 -0.950005
v 1.900011 1.000000 -0.900010
v 1.950006 0.986604 -0.900010
v 1.986605 0.950005 -0.900010
v 2.000001 0.900010 -0.900010
v 1.986605 0.900010 -0.950005
v 1.950006 0.900010 -0.986604
v 0.986605 0.950005 -2.000000
v 0.950006 0.986604 -2.000000
v 0.900011 1.000000 -2.000000
v 1.000001 0.900010 -2.000000
v 0.049995 0.986604 -2.000000
v 0.013397 0.950005 -2.000000
v 0.000001 0.900010 -2.000000
v 0.099991 1.000000 -2.000000
v 0.900011 0.900010 -3.000000
v 0.900011 0.950005 -2.986604
v 0.900011 0.986604 -2.950005
v 0.900011 1.000000 -2.900010
v 0.950006 0.986604 -2.900010
v 0.986605 0.950005 -2.900010
v 1.000001 0.900010 -2.900010
v 0.986605 0.900010 -2.950005
v 0.950006 0.900010 -2.986604
v 0.000001 0.900010 -2.900010
v 0.013397 0.950005 -2.900010
v 0.049995 0.986604 -2.900010
v 0.099991 1.000000 -2.900010
v 0.099991 0.986604 -2.950005
v 0.099991 0.950005 -2.986604
v 0.099991 0.900010 -3.000000
v 0.049996 0.900010 -2.986604
v 0.013397 0.900010 -2.950005
v 0.053345 0.053344 -0.024997
v 0.024999 0.053344 -0.053344
v 0.053345 0.024998 -0.053344
v 1.975003 0.053344 -0.053344
v 1.946657 0.053344 -0.024997
v 1.946657 0.024998 -0.053344
v 1.946657 0.053276 -0.975002
v 1.975003 0.053310 -0.946611
v 1.946657 0.024998 -0.946566
v 1.004699 0.059106 -1.027563
v 1.027564 0.059109 -1.004697
v 0.996552 0.038416 -0.996552
v 0.024999 0.053344 -2.946656
v 0.053345 0.053344 -2.975003
v 0.053345 0.024998 -2.946656
v 0.946657 0.053344 -2.975003
v 0.975003 0.053344 -2.946656
v 0.946657 0.024998 -2.946656
v 0.053345 0.975002 -0.053344
v 0.024999 0.946656 -0.053344
v 0.053345 0.946656 -0.024997
v 1.004699 0.940894 -1.027563
v 0.996552 0.961584 -0.996552
v 1.027564 0.940891 -1.004697
v 1.975003 0.946656 -0.053344
v 1.946657 0.975002 -0.053344
v 1.946657 0.946656 -0.024997
v 1.946657 0.946724 -0.975002
v 1.946657 0.975002 -0.946566
v 1.975003 0.946690 -0.946611
v 0.946657 0.946656 -2.975003
v 0.946657 0.975002 -2.946656
v 0.975003 0.946656 -2.946656
v 0.024999 0.946656 -2.946656
v 0.053345 0.975002 -2.946656
v 0.053345 0.946656 -2.975003
vt 0.250000 0.125000
vt 0.000000 0.250000
vt 0.125000 0.250000
vt 0.000000 0.500000
vt 0.125000 0.500000
vt 0.250000 0.187500
vt 0.187500 0.250000
vt 0.187500 0.500000
vt 0.250000 0.125000
vt 0.125000 0.250000
vt 0.125000 0.250000
vt 0.250000 0.187500
vt 0.000000 0.250000
vt 0.062500 0.250000
vt 0.062500 0.250000
vt 0.125000 0.500000
vt 0.000000 0.500000
vt 0.062500 0.500000
vt 0.187500 0.187500
vt 0.156250 0.187500
vn -0.130525 0.991445 0.000000
vn -0.129498 0.983087 0.129499
vn 0.000000 0.991445 0.130526
vn 0.170045 0.958143 -0.230320
vn 0.195051 0.973469 -0.119641
vn -0.130525 0.991445 0.000000
vn 0.137676 0.990477 0.000377
vn 0.000000 -0.991445 0.130526
vn -0.129498 -0.983087 0.129499
vn -0.130525 -0.991445 -0.000000
vn 0.230313 -0.958139 -0.170078
vn 0.119598 -0.973472 -0.195060
vn -0.130525 -0.991445 -0.000000
vn 0.137676 -0.990477 0.000377
vn -0.991445 -0.130528 0.000000
vn -0.991445 -0.130528 0.000000
vn -0.991445 0.130527 0.000000
vn -0.991445 0.130527 0.000000
vn -0.983087 -0.129500 0.129500
vn -0.983087 0.129500 0.129500
vn 0.000000 0.130526 0.991445
vn -0.129498 0.129499 0.983087
vn -0.129498 -0.129499 0.983087
vn 0.000000 -0.130526 0.991445
vn 0.129498 -0.129499 0.983087
vn 0.129498 0.129499 0.983087
vn 0.129272 -0.982131 -0.136777
vn 0.129498 -0.983087 0.129499
vn 0.983085 -0.129507 -0.129507
vn 0.983085 0.129506 -0.129507
vn 0.983087 0.129500 0.129500
vn 0.983087 -0.129500 0.129500
vn 0.212851 -0.286074 -0.934268
vn 0.212851 0.286075 -0.934268
vn 0.130209 0.114485 -0.984855
vn 0.130209 -0.114485 -0.984855
vn -0.129498 -0.983087 -0.129499
vn 0.129498 -0.983087 -0.129499
vn 0.993291 0.115639 -0.000867
vn 0.934296 0.286042 -0.212771
vn 0.934296 -0.286042 -0.212771
vn 0.993291 -0.115639 -0.000867
vn 0.983087 -0.129500 -0.129500
vn 0.983087 0.129499 -0.129500
vn -0.129499 0.129498 -0.983087
vn 0.129498 0.129498 -0.983087
vn 0.129498 -0.129498 -0.983087
vn -0.129500 -0.129498 -0.983087
vn -0.983087 0.129500 -0.129500
vn -0.983087 -0.129500 -0.129500
vn 0.129498 0.983087 0.129499
vn 0.129272 0.982131 -0.136777
vn 0.129498 0.983087 -0.129499
vn -0.129498 0.983087 -0.129499
vn -0.859223 -0.122872 0.496627
vn -0.859223 0.122872 0.496627
vn -0.496633 -0.122872 0.859219
vn -0.496633 0.122872 0.859219
vn -0.496633 -0.859219 0.122872
vn -0.258817 -0.965926 0.000000
vn -0.859223 -0.496627 0.122872
vn -0.866027 -0.499997 0.000000
vn -0.707113 -0.707100 0.000000
vn -0.122871 -0.496630 0.859222
vn 0.000000 -0.258819 0.965926
vn -0.122871 -0.859221 0.496630
vn 0.000000 -0.707106 0.707108
vn 0.000000 -0.707106 0.707108
vn 0.000000 -0.965926 0.258819
vn 0.000000 -0.258819 0.965926
vn 0.122871 -0.496629 0.859222
vn 0.000000 -0.707106 0.707108
vn 0.000000 -0.707106 0.707108
vn 0.122871 -0.859221 0.496631
vn 0.000000 -0.965926 0.258819
vn -0.258817 -0.965926 0.000000
vn -0.258817 -0.965926 0.000000
vn -0.707113 -0.707100 0.000000
vn -0.866027 -0.499997 0.000000
vn -0.866027 -0.499997 0.000000
vn -0.707113 -0.707100 0.000000
vn 0.496633 -0.122873 0.859219
vn 0.496633 0.122872 0.859219
vn 0.859223 -0.122873 0.496627
vn 0.859223 0.122873 0.496627
vn 0.859223 -0.496627 0.122872
vn 0.859171 -0.496710 -0.122901
vn 0.496633 -0.859219 0.122872
vn 0.496604 -0.859226 -0.122943
vn 0.859270 -0.122899 -0.496540
vn 0.859270 0.122899 -0.496539
vn 0.496684 -0.122859 -0.859192
vn 0.496684 0.122860 -0.859192
vn 0.124887 -0.483856 -0.866191
vn 0.206032 -0.593665 -0.777890
vn 0.122765 -0.855763 -0.502592
vn 0.219022 -0.838199 -0.499451
vn -0.258817 -0.965926 0.000000
vn -0.496633 -0.859219 -0.122873
vn -0.707113 -0.707100 0.000000
vn -0.866027 -0.499997 0.000000
vn -0.859223 -0.496627 -0.122873
vn 0.500986 -0.345585 -0.793463
vn 0.500987 0.345585 -0.793463
vn 0.793468 -0.345585 -0.500979
vn 0.793468 0.345585 -0.500978
vn 0.777935 -0.593645 -0.205919
vn 0.979682 -0.200527 -0.003443
vn 0.499453 -0.838199 -0.219020
vn 0.512215 -0.858858 -0.000067
vn 0.706706 -0.707506 -0.001625
vn 0.866027 -0.499997 0.000000
vn 0.859223 -0.496627 -0.122873
vn 0.707114 -0.707100 0.000000
vn 0.496633 -0.859219 -0.122873
vn 0.258817 -0.965926 0.000000
vn -0.496631 -0.122870 -0.859221
vn -0.496629 0.122870 -0.859222
vn -0.859220 -0.122871 -0.496632
vn -0.859220 0.122871 -0.496632
vn -0.122873 -0.859221 -0.496630
vn 0.122872 -0.859221 -0.496630
vn -0.122875 -0.496629 -0.859221
vn 0.122873 -0.496630 -0.859221
vn 0.859222 -0.122873 -0.496629
vn 0.859221 0.122871 -0.496630
vn 0.496632 -0.122872 -0.859220
vn 0.496630 0.122870 -0.859222
vn -0.859223 0.496627 0.122872
vn -0.866027 0.499997 0.000000
vn -0.496633 0.859219 0.122872
vn -0.707113 0.707100 0.000000
vn -0.258817 0.965926 0.000000
vn -0.122871 0.859221 0.496630
vn 0.000000 0.866025 0.500000
vn -0.122871 0.496630 0.859222
vn 0.000000 0.707106 0.707108
vn 0.000000 0.258819 0.965926
vn 0.000000 0.866025 0.500000
vn 0.122871 0.859221 0.496631
vn 0.000000 0.707106 0.707108
vn 0.122871 0.496629 0.859222
vn 0.000000 0.258819 0.965926
vn 0.499453 0.838199 -0.219020
vn 0.512214 0.858858 -0.000067
vn 0.777935 0.593645 -0.205918
vn 0.706706 0.707506 -0.001625
vn 0.979682 0.200527 -0.003443
vn 0.206033 0.593665 -0.777890
vn 0.124887 0.483856 -0.866191
vn 0.219022 0.838199 -0.499451
vn 0.122764 0.855763 -0.502592
vn -0.866027 0.499997 0.000000
vn -0.866027 0.499997 0.000000
vn -0.707113 0.707100 0.000000
vn -0.707113 0.707100 0.000000
vn -0.258817 0.965926 0.000000
vn -0.258817 0.965926 0.000000
vn 0.496633 0.859219 0.122872
vn 0.496604 0.859226 -0.122943
vn 0.859223 0.496627 0.122872
vn 0.859171 0.496710 -0.122901
vn 0.258817 0.965926 0.000000
vn 0.496633 0.859220 -0.122872
vn 0.707113 0.707100 0.000000
vn 0.866027 0.499997 0.000000
vn 0.859223 0.496627 -0.122873
vn -0.866027 0.499997 0.000000
vn -0.859223 0.496627 -0.122872
vn -0.707113 0.707100 0.000000
vn -0.496633 0.859220 -0.122872
vn -0.258817 0.965926 0.000000
vn 0.122872 0.859221 -0.496630
vn -0.122872 0.859221 -0.496630
vn 0.122871 0.496629 -0.859222
vn -0.122873 0.496629 -0.859221
vn -0.458041 -0.458038 0.761840
vn -0.761845 -0.458035 0.458035
vn -0.458041 -0.761840 0.458038
vn 0.761845 -0.458036 0.458035
vn 0.458041 -0.458038 0.761840
vn 0.458041 -0.761840 0.458038
vn 0.458219 -0.458760 -0.761298
vn 0.761831 -0.458546 -0.457547
vn 0.457950 -0.762313 -0.457342
vn 0.666993 -0.625344 -0.405051
vn 0.405086 -0.625343 -0.666972
vn 0.414336 -0.810350 -0.414317
vn -0.761843 -0.458035 -0.458038
vn -0.458042 -0.458036 -0.761840
vn -0.458041 -0.761840 -0.458038
vn 0.458041 -0.458038 -0.761839
vn 0.761844 -0.458036 -0.458036
vn 0.458040 -0.761840 -0.458038
vn -0.458041 0.761840 0.458038
vn -0.761845 0.458035 0.458035
vn -0.458041 0.458038 0.761840
vn 0.666994 0.625342 -0.405052
vn 0.414337 0.810349 -0.414318
vn 0.405086 0.625342 -0.666973
vn 0.761845 0.458036 0.458034
vn 0.458041 0.761840 0.458038
vn 0.458041 0.458038 0.761840
vn 0.458218 0.458761 -0.761298
vn 0.457949 0.762313 -0.457342
vn 0.761831 0.458547 -0.457546
vn 0.458040 0.458036 -0.761841
vn 0.458041 0.761840 -0.458037
vn 0.761844 0.458034 -0.458037
vn -0.761844 0.458034 -0.458037
vn -0.458042 0.761840 -0.458037
vn -0.458041 0.458036 -0.761841
f 98/15/1 72/20/2 83/9/3 89/12/4 88/11/5
f 124/18/6 98/14/1 88/10/5 119/16/7
f 13/1/8 7/19/9 17/3/10 47/7/11 46/6/12
f 17/3/10 39/5/13 53/8/14 47/7/11
f 36/4/15 14/2/16 97/13/17 123/17/18
f 14//16 4//19 75//20 97//17
f 84//21 78//22 1//23 10//24
f 10//24 21//25 105//26 84//21
f 46//12 33//27 24//28 13//8
f 30//29 114//30 99//31 18//32
f 43//33 92//34 108//35 27//36
f 39//13 60//37 69//38 53//14
f 120//39 85//40 40//41 50//42
f 50//42 66//43 131//44 120//39
f 140//45 125//46 63//47 57//48
f 123//18 134//49 54//50 36//15
f 83//3 102//51 111//52 89//4
f 119//7 128//53 137//54 124//6
f 4//19 3//55 76//56 75//20
f 3//55 2//57 77//58 76//56
f 2//57 1//23 78//22 77//58
f 7//9 6//59 16//60 17//10
f 6//59 5//61 15//62 16//63
f 5//61 4//19 14//16 15//62
f 1//23 9//64 11//65 10//24
f 9//64 8//66 12//67 11//68
f 8//66 7//9 13//8 12//69
f 10//24 11//70 22//71 21//25
f 11//72 12//73 23//74 22//71
f 12//75 13//8 24//28 23//74
f 17//10 16//76 38//77 39//13
f 16//78 15//79 37//80 38//81
f 15//79 14//16 36//15 37//80
f 21//25 20//82 106//83 105//26
f 20//82 19//84 107//85 106//83
f 19//84 18//32 99//31 107//85
f 18//32 26//86 31//87 30//29
f 26//86 25//88 32//89 31//87
f 25//88 24//28 33//27 32//89
f 30//29 29//90 115//91 114//30
f 29//90 28//92 116//93 115//91
f 28//92 27//36 108//35 116//93
f 27//36 35//94 44//95 43//33
f 35//94 34//96 45//97 44//95
f 34//96 33//27 46//12 45//97
f 39//13 38//98 61//99 60//37
f 38//100 37//101 62//102 61//99
f 37//101 36//15 54//50 62//102
f 43//33 42//103 93//104 92//34
f 42//103 41//105 94//106 93//104
f 41//105 40//41 85//40 94//106
f 40//41 49//107 51//108 50//42
f 49//107 48//109 52//110 51//111
f 48//109 47//11 53//14 52//110
f 50//42 51//112 67//113 66//43
f 51//112 52//114 68//115 67//113
f 52//116 53//14 69//38 68//115
f 57//48 56//117 141//118 140//45
f 56//117 55//119 142//120 141//118
f 55//119 54//50 134//49 142//120
f 60//37 59//121 70//122 69//38
f 59//121 58//123 71//124 70//122
f 58//123 57//48 63//47 71//124
f 66//43 65//125 132//126 131//44
f 65//125 64//127 133//128 132//126
f 64//127 63//47 125//46 133//128
f 75//20 74//129 96//130 97//17
f 74//129 73//131 95//132 96//130
f 73//131 72//2 98//1 95//133
f 72//2 80//134 82//135 83//3
f 80//134 79//136 81//137 82//135
f 79//136 78//22 84//21 81//138
f 83//3 82//139 103//140 102//51
f 82//139 81//141 104//142 103//140
f 81//143 84//21 105//26 104//142
f 88//5 87//144 118//145 119//7
f 87//144 86//146 117//147 118//145
f 86//146 85//40 120//39 117//148
f 92//34 91//149 109//150 108//35
f 91//149 90//151 110//152 109//150
f 90//151 89//4 111//52 110//152
f 97//17 96//153 122//154 123//18
f 96//153 95//155 121//156 122//154
f 95//157 98//1 124//6 121//158
f 102//51 101//159 112//160 111//52
f 101//159 100//161 113//162 112//160
f 100//161 99//31 114//30 113//162
f 119//7 118//163 129//164 128//53
f 118//165 117//166 130//167 129//164
f 117//166 120//39 131//44 130//167
f 123//18 122//168 135//169 134//49
f 122//168 121//170 136//171 135//169
f 121//172 124//6 137//54 136//171
f 128//53 127//173 138//174 137//54
f 127//173 126//175 139//176 138//174
f 126//175 125//46 140//45 139//176
f 40//41 41//105 42//103 43//33 44//95 45//97 46//12 47//11 48//109 49//107
f 85//40 86//146 87//144 88//5 89//4 90//151 91//149 92//34 93//104 94//106
f 9//64 1//23 2//57 143//177
f 143//177 2//57 3//55 144//178
f 3//55 4//19 5//61 144//178
f 144//178 5//61 6//59 145//179
f 6//59 7//9 8//66 145//179
f 145//179 8//66 9//64 143//177
f 143//177 144//178 145//179
f 26//86 18//32 19//84 146//180
f 146//180 19//84 20//82 147//181
f 20//82 21//25 22//71 147//181
f 147//181 22//71 23//74 148//182
f 23//74 24//28 25//88 148//182
f 148//182 25//88 26//86 146//180
f 146//180 147//181 148//182
f 35//94 27//36 28//92 149//183
f 149//183 28//92 29//90 150//184
f 29//90 30//29 31//87 150//184
f 150//184 31//87 32//89 151//185
f 32//89 33//27 34//96 151//185
f 151//185 34//96 35//94 149//183
f 149//183 150//184 151//185
f 49//107 40//41 41//105 152//186
f 152//186 41//105 42//103 153//187
f 42//103 43//33 44//95 153//187
f 153//187 44//95 45//97 154//188
f 45//97 47//11 48//109 154//188
f 154//188 48//109 49//107 152//186
f 152//186 153//187 154//188
f 62//102 54//50 55//119 155//189
f 155//189 55//119 56//117 156//190
f 56//117 57//48 58//123 156//190
f 156//190 58//123 59//121 157//191
f 59//121 60//37 61//99 157//191
f 157//191 61//99 62//102 155//189
f 155//189 156//190 157//191
f 71//124 63//47 64//127 158//192
f 158//192 64//127 65//125 159//193
f 65//125 66//43 67//113 159//193
f 159//193 67//113 68//115 160//194
f 68//115 69//38 70//122 160//194
f 160//194 70//122 71//124 158//192
f 158//192 159//193 160//194
f 80//134 72//2 73//131 161//195
f 161//195 73//131 74//129 162//196
f 74//129 75//20 76//56 162//196
f 162//196 76//56 77//58 163//197
f 77//58 78//22 79//136 163//197
f 163//197 79//136 80//134 161//195
f 161//195 162//196 163//197
f 94//106 85//40 86//146 164//198
f 164//198 86//146 87//144 165//199
f 87//144 89//4 90//151 165//199
f 165//199 90//151 91//149 166//200
f 91//149 92//34 93//104 166//200
f 166//200 93//104 94//106 164//198
f 164//198 165//199 166//200
f 107//85 99//31 100//161 167//201
f 167//201 100//161 101//159 168//202
f 101//159 102//51 103//140 168//202
f 168//202 103//140 104//142 169//203
f 104//142 105//26 106//83 169//203
f 169//203 106//83 107//85 167//201
f 167//201 168//202 169//203
f 116//93 108//35 109//150 170//204
f 170//204 109//150 110//152 171//205
f 110//152 111//52 112//160 171//205
f 171//205 112//160 113//162 172//206
f 113//162 114//30 115//91 172//206
f 172//206 115//91 116//93 170//204
f 170//204 171//205 172//206
f 133//128 125//46 126//175 173//207
f 173//207 126//175 127//173 174//208
f 127//173 128//53 129//164 174//208
f 174//208 129//164 130//167 175//209
f 130//167 131//44 132//126 175//209
f 175//209 132//126 133//128 173//207
f 173//207 174//208 175//209
f 142//120 134//49 135//169 176//210
f 176//210 135//169 136//171 177//211
f 136//171 137//54 138//174 177//211
f 177//211 138//174 139//176 178//212
f 139//176 140//45 141//118 178//212
f 178//212 141//118 142//120 176//210
f 176//210 177//211 178//212
