# Blender v2.72 (sub 0) OBJ File: 'onescreen_proto2.blend'
# www.blender.org
o Sphere.001_Sphere.002
v -0.161477 0.933444 0.061272
v -0.225428 0.793334 0.045288
v -0.247209 0.599098 0.022908
v -0.222508 0.389207 -0.001434
v -0.099624 0.068392 -0.000000
v -0.132725 0.944909 -0.008411
v -0.173619 0.813994 -0.080278
v -0.182605 0.624860 -0.133670
v -0.187954 0.393053 -0.168752
v -0.126938 0.201031 -0.126938
v -0.070445 0.068392 -0.070445
v 0.061617 0.953579 -0.174923
v 0.042041 0.795740 -0.245632
v 0.014667 0.577489 -0.268484
v -0.015084 0.342054 -0.238955
v -0.000000 0.201031 -0.179517
v -0.000000 0.068392 -0.099624
v 0.069516 1.019745 -0.070365
v 0.140559 0.947726 -0.142053
v 0.184289 0.785193 -0.186401
v 0.192047 0.564337 -0.194624
v 0.162296 0.328902 -0.165095
v 0.126938 0.201031 -0.126938
v 0.070445 0.068392 -0.070445
v 0.174007 0.953372 -0.063339
v 0.244561 0.795367 -0.044563
v 0.267204 0.577024 -0.017756
v 0.237453 0.341588 0.011773
v 0.179517 0.201031 -0.000000
v 0.099624 0.068392 0.000000
v 0.142368 0.967209 0.015108
v 0.187549 0.820301 0.096794
v 0.196112 0.608116 0.158514
v 0.168003 0.393017 0.187019
v 0.126938 0.201031 0.126938
v 0.070445 0.068392 0.070445
v -0.062201 0.933533 0.161245
v -0.046540 0.793495 0.225431
v -0.024140 0.599298 0.247544
v 0.000561 0.389407 0.223202
v -0.000000 0.201031 0.179517
v -0.000000 0.068392 0.099624
v -0.016575 0.967502 -0.142696
v -0.132265 0.928732 0.131546
v -0.172790 0.784843 0.171917
v -0.181571 0.588510 0.180812
v -0.156870 0.378619 0.156470
v -0.126938 0.201031 0.126938
v -0.070445 0.068392 0.070445
v -0.179517 0.201031 -0.000000
v 0.099624 0.120160 -0.000000
v 0.126938 -0.012480 -0.126938
v 0.070445 0.120160 -0.070445
v -0.000000 -0.012480 -0.179517
v -0.000000 0.120160 -0.099624
v -0.126938 -0.012480 -0.126938
v -0.070445 0.120160 -0.070445
v -0.179517 -0.012480 -0.000000
v -0.099624 0.120160 0.000000
v -0.126938 -0.012480 0.126938
v -0.070445 0.120160 0.070445
v -0.000000 -0.012480 0.179517
v -0.000000 0.120160 0.099624
v 0.126938 -0.012480 0.126938
v 0.070445 0.120160 0.070445
v 0.179517 -0.012480 -0.000000
v -0.098856 0.820828 -0.187559
v -0.161029 0.608774 -0.196069
v 0.007671 0.945035 0.132971
v 0.079367 0.814221 0.174484
v 0.132863 0.625143 0.184013
v -0.068023 0.991677 0.067696
v -0.154607 0.924024 0.058600
v -0.215852 0.789842 0.043292
v -0.236712 0.603825 0.021859
v -0.213056 0.402814 -0.001453
v -0.127072 0.935004 -0.008135
v -0.166235 0.809628 -0.076961
v -0.174841 0.628497 -0.128094
v -0.179964 0.406498 -0.161692
v 0.059047 0.943307 -0.167602
v 0.040300 0.792146 -0.235318
v 0.014084 0.583129 -0.257204
v -0.014409 0.357656 -0.228924
v 0.066612 1.006674 -0.067467
v 0.134649 0.937702 -0.136122
v 0.176529 0.782046 -0.178593
v 0.183959 0.570535 -0.186469
v 0.155466 0.345061 -0.158189
v 0.166681 0.943109 -0.060739
v 0.234250 0.791789 -0.042757
v 0.255936 0.582684 -0.017084
v 0.227443 0.357210 0.011196
v 0.136381 0.956361 0.014390
v 0.179651 0.815668 0.092619
v 0.187852 0.612461 0.151728
v 0.160932 0.406463 0.179027
v -0.059532 0.924109 0.154343
v -0.044533 0.789996 0.215814
v -0.023081 0.604016 0.236990
v 0.000575 0.403006 0.213678
v -0.015837 0.956641 -0.136738
v -0.126631 0.919511 0.125901
v -0.165442 0.781711 0.164563
v -0.173851 0.593685 0.173082
v -0.150195 0.392674 0.149770
v -0.094636 0.816173 -0.179703
v -0.154179 0.613091 -0.187853
v 0.007384 0.935125 0.127265
v 0.076046 0.809845 0.167022
v 0.127279 0.628768 0.176148
v -0.065108 0.979793 0.064753
v 0.006981 0.984069 0.113830
v -0.050747 0.984069 0.016359
v 0.046724 0.984069 -0.041368
v 0.104451 0.984069 0.056102
v 0.083494 0.669778 0.092872
v 0.083494 0.669778 -0.020411
v -0.029789 0.669778 -0.020411
v -0.029789 0.669778 0.092872
v 0.123060 0.477362 0.132439
v 0.123060 0.477362 -0.059977
v -0.069356 0.477362 -0.059977
v -0.069356 0.477362 0.132439
v 0.090026 1.292845 0.036231
v -0.091477 0.848809 -0.125980
v -0.121548 0.832374 -0.170724
v -0.169216 0.842742 -0.142496
v -0.139144 0.859178 -0.097752
v -0.149006 0.679128 0.028769
v -0.035768 0.678031 0.025781
v -0.038951 0.638987 -0.080513
v -0.152189 0.640084 -0.077525
v -0.187446 0.512532 0.133282
v 0.004894 0.510668 0.128208
v -0.000512 0.444350 -0.052337
v -0.192852 0.446214 -0.047263
v -0.092204 1.167358 -0.181426
vt 0.090497 0.460908
vt 0.053065 0.468229
vt 0.035032 0.315486
vt 0.110938 0.587893
vt 0.080919 0.593765
vt 0.149083 0.677558
vt 0.132424 0.680816
vt 0.083110 0.189476
vt 0.121746 0.182077
vt 0.156884 0.098976
vt 0.088265 0.272162
vt 0.263443 0.706421
vt 0.290454 0.751769
vt 0.419665 0.748181
vt 0.147445 0.737549
vt 0.169107 0.773916
vt 0.067636 0.790052
vt 0.079657 0.810234
vt 0.206632 0.179329
vt 0.203992 0.097450
vt 0.207053 0.259748
vt 0.302879 0.853055
vt 0.179070 0.855141
vt 0.085187 0.855310
vt 0.288043 0.182840
vt 0.321410 0.272850
vt 0.293437 0.950947
vt 0.422649 0.947359
vt 0.171499 0.933644
vt 0.080985 0.898876
vt 0.318291 0.190554
vt 0.265958 0.103680
vt 0.364696 0.316966
vt 0.267662 0.988101
vt 0.150828 0.963439
vt 0.069514 0.915411
vt 0.279655 0.197952
vt 0.244517 0.107785
vt 0.299142 0.322900
vt 0.346277 0.469852
vt 0.297829 0.462055
vt 0.316057 0.595066
vt 0.277206 0.588813
vt 0.262916 0.681538
vt 0.241355 0.678068
vt 0.194769 0.200701
vt 0.197409 0.109311
vt 0.193194 0.319195
vt 0.191882 0.458350
vt 0.192242 0.585842
vt 0.194204 0.676420
vt 0.872984 0.601214
vt 0.872571 0.716306
vt 0.795754 0.723235
vt 0.113357 0.197190
vt 0.135443 0.103081
vt 0.091810 0.321753
vt 0.197378 0.712142
vt 0.870738 0.480284
vt 0.777195 0.609854
vt 0.039823 0.853530
vt 0.826950 0.806611
vt 0.806084 0.816284
vt 0.730310 0.631588
vt 0.774949 0.488925
vt 0.697473 0.343404
vt 0.745431 0.425766
vt 0.759037 0.421477
vt 0.702706 0.215064
vt 0.672133 0.224701
vt 0.655750 0.079995
vt 0.206632 0.039872
vt 0.121746 0.042621
vt 0.156884 0.132788
vt 0.083110 0.050019
vt 0.135443 0.136894
vt 0.113357 0.057734
vt 0.152229 0.141175
vt 0.194769 0.061245
vt 0.197409 0.143123
vt 0.279655 0.058496
vt 0.318291 0.051098
vt 0.265958 0.137492
vt 0.249172 0.133211
vt 0.288044 0.043383
vt 0.869581 0.802766
vt 0.959320 0.489799
vt 0.961566 0.610728
vt 0.943608 0.723936
vt 0.909003 0.807000
vt 0.989128 0.522398
vt 0.991050 0.632824
vt 0.967252 0.741656
vt 0.922125 0.816834
vt 0.966984 0.081922
vt 0.900706 0.084928
vt 0.898410 0.216461
vt 0.878934 0.336796
vt 0.919424 0.344988
vt 0.846133 0.422098
vt 0.868604 0.426645
vt 0.798729 0.080118
vt 0.796433 0.211651
vt 0.797154 0.332938
vt 0.800749 0.419958
vt 0.806506 0.455474
vt 0.864604 0.843468
vt 0.705002 0.083532
vt 0.721991 0.335676
vt 0.635844 0.724399
vt 0.716065 0.690424
vt 0.710598 0.472422
vt 0.547122 0.701184
vt 0.698751 0.492851
vt 0.486458 0.575939
vt 0.510960 0.565832
vt 0.493437 0.881474
vt 0.432055 0.562693
vt 0.407552 0.572800
vt 0.640433 0.491527
vt 0.652280 0.471098
vt 0.627343 0.667209
vt 0.580247 0.163149
vt 0.456313 0.255029
vt 0.517605 0.247932
vt 0.462200 0.240082
vt 0.400908 0.247178
vt 0.454257 0.063261
vt 0.558364 0.051207
vt 0.464256 0.037872
vt 0.360149 0.049926
vt 0.785128 0.877695
vt 0.634430 0.838264
vt 0.498172 0.895971
vt 0.648869 0.935402
vt 0.381840 0.703370
vt 0.432090 0.849467
vt 0.249172 0.099399
vt 0.385626 0.985012
vt 0.152229 0.107362
vt 0.758155 0.740665
vt 0.728473 0.520785
vt 0.203992 0.131262
vt 0.244517 0.141598
vt 0.948901 0.226676
vn -0.999500 0.014300 0.025700
vn -0.925000 0.110300 -0.363500
vn -0.747700 -0.180100 -0.639100
vn -0.967700 0.249900 0.032000
vn -0.904000 0.274500 -0.327800
vn -0.784400 0.615900 0.073800
vn -0.753700 0.623300 -0.208400
vn -0.632300 -0.427800 -0.645800
vn -0.000200 -0.434300 -0.900800
vn 0.000000 -0.516000 -0.856600
vn -0.060200 -0.265700 -0.962200
vn -0.376000 0.034700 -0.926000
vn 0.002400 -0.013600 -0.999900
vn -0.325100 0.271000 -0.906000
vn 0.034500 0.242300 -0.969600
vn -0.202200 0.619800 -0.758300
vn 0.079900 0.609200 -0.788900
vn 0.637100 -0.435100 -0.636200
vn 0.605700 -0.516000 -0.605700
vn 0.676000 -0.275000 -0.683600
vn 0.703000 -0.065500 -0.708200
vn 0.691400 0.193600 -0.696000
vn 0.578300 0.572300 -0.581400
vn 0.901900 -0.431800 0.001800
vn 0.964100 -0.260800 0.050100
vn 0.999800 -0.015400 -0.009600
vn 0.969700 0.240600 -0.041000
vn 0.789500 0.607900 -0.084400
vn 0.646700 -0.425200 0.633300
vn 0.605700 -0.516000 0.605700
vn 0.643000 -0.179400 0.744500
vn 0.928800 0.032100 0.369300
vn 0.908800 0.268800 0.319100
vn 0.760900 0.618000 0.197900
vn -0.023400 -0.383200 0.923400
vn -0.000000 -0.516000 0.856600
vn -0.073200 -0.172800 0.982200
vn 0.358000 0.105700 0.927700
vn -0.030800 0.013500 0.999400
vn 0.321200 0.275600 0.906000
vn -0.039000 0.250700 0.967300
vn 0.202600 0.624200 0.754600
vn -0.079800 0.616500 0.783300
vn -0.659400 -0.363000 0.658400
vn -0.605700 -0.516000 0.605700
vn -0.695600 -0.196500 0.690900
vn -0.708500 -0.053100 0.703600
vn -0.694400 0.205800 0.689400
vn -0.577000 0.582400 0.572500
vn -0.703000 0.065500 0.708200
vn -0.691400 -0.193600 0.696000
vn -0.034500 -0.242300 0.969600
vn -0.923600 -0.382400 0.025100
vn -0.605700 -0.516000 -0.605700
vn -0.982100 -0.172700 0.075000
vn -0.333000 0.883300 0.329900
vn -0.693500 0.175300 0.698800
vn -0.002400 0.013600 0.999900
vn 0.338800 0.877400 -0.339600
vn -0.079900 -0.609200 0.788900
vn 0.202200 -0.619800 0.758300
vn 0.376000 -0.034700 0.926000
vn -0.002000 0.125200 0.992100
vn 0.904000 -0.274500 0.327800
vn 0.753700 -0.623300 0.208400
vn 0.784400 -0.615900 -0.073800
vn 0.999500 -0.014300 -0.025700
vn 0.925000 -0.110300 0.363500
vn 0.960500 0.017800 0.277800
vn 0.605700 0.516000 -0.605700
vn 0.000000 0.516000 -0.856600
vn -0.605700 0.516000 -0.605700
vn -0.856600 0.516000 0.000000
vn -0.605700 0.516000 0.605700
vn 0.000000 0.516000 0.856600
vn 0.605700 0.516000 0.605700
vn 0.856600 0.516000 0.000000
vn -0.578300 -0.572300 0.581400
vn -0.991900 0.126900 0.009600
vn -0.999800 0.015400 0.009600
vn -0.969700 -0.240600 0.041000
vn -0.789500 -0.607900 0.084400
vn -0.920300 0.069200 -0.385000
vn -0.928800 -0.032100 -0.369300
vn -0.908800 -0.268800 -0.319100
vn -0.760900 -0.618000 -0.197900
vn -0.280400 0.020400 -0.959700
vn 0.075300 0.123600 -0.989500
vn 0.030800 -0.013500 -0.999400
vn 0.039000 -0.250700 -0.967300
vn -0.321200 -0.275600 -0.906000
vn 0.079800 -0.616500 -0.783300
vn -0.202600 -0.624200 -0.754600
vn 0.700000 0.163000 -0.695300
vn 0.708500 0.053100 -0.703600
vn 0.694400 -0.205800 -0.689400
vn 0.577000 -0.582400 -0.572500
vn 0.333000 -0.883300 -0.329900
vn -0.338800 -0.877400 0.339600
vn 0.989100 0.125300 -0.077000
vn 0.967700 -0.249900 -0.032000
vn 0.684900 0.037700 -0.727600
vn -0.706900 -0.109700 -0.698700
vn -0.942800 -0.002600 -0.333400
vn 0.691600 0.535000 0.485200
vn 0.144600 -0.277400 -0.949800
vn -0.278000 0.080400 0.957200
vn 0.965600 -0.036200 0.257400
vn 0.192500 0.981300 0.000000
vn 0.210300 0.038300 -0.976900
vn -0.962600 0.130900 -0.237300
vn 0.986100 0.160500 0.042700
vn -0.302500 0.497700 0.812800
vn -0.637500 0.467700 0.612300
vn 0.115500 0.982500 -0.146100
vn -0.691200 0.216700 0.689400
vn 0.689400 0.216700 0.691200
vn 0.691200 0.216700 -0.689400
vn -0.689400 0.216700 -0.691200
vn -0.679000 0.279200 0.679000
vn 0.679000 0.279200 0.679000
vn 0.679000 0.279200 -0.679000
vn -0.679000 0.279200 -0.679000
vn -0.697800 0.034700 -0.715500
vn -0.659600 0.502700 0.558700
vn 0.697800 0.489600 0.522900
vn 0.659600 0.021500 -0.751300
vn 0.856600 -0.516000 0.000000
vn -0.856600 -0.516000 0.000000
vn 0.325100 -0.271000 0.906000
vn 0.392400 0.067200 0.917400
vn -0.358000 -0.105700 -0.927700
s 1
f 3/1/1 8/2/2 9/3/3
f 2/4/4 7/5/5 8/2/2
f 1/6/6 6/7/7 7/5/5
f 10/8/8 16/9/9 17/10/10
f 9/3/3 15/11/11 16/9/9
f 68/12/12 14/13/13 15/14/11
f 68/12/12 67/15/14 13/16/15
f 43/17/16 12/18/17 13/16/15
f 16/9/9 23/19/18 24/20/19
f 15/11/11 22/21/20 23/19/18
f 15/14/11 14/13/13 21/22/21
f 13/16/15 20/23/22 21/22/21
f 12/18/17 19/24/23 20/23/22
f 24/20/19 23/19/18 29/25/24
f 23/19/18 22/21/20 28/26/25
f 21/22/21 27/27/26 28/28/25
f 21/22/21 20/23/22 26/29/27
f 20/23/22 19/24/23 25/30/28
f 29/25/24 35/31/29 36/32/30
f 29/25/24 28/26/25 34/33/31
f 28/28/25 27/27/26 33/34/32
f 26/29/27 32/35/33 33/34/32
f 26/29/27 25/30/28 31/36/34
f 35/31/29 41/37/35 42/38/36
f 34/33/31 40/39/37 41/37/35
f 34/33/31 71/40/38 39/41/39
f 70/42/40 38/43/41 39/41/39
f 70/42/40 69/44/42 37/45/43
f 41/37/35 48/46/44 49/47/45
f 40/39/37 47/48/46 48/46/44
f 40/39/37 39/41/39 46/49/47
f 38/43/41 45/50/48 46/49/47
f 38/43/41 37/45/43 44/51/49
f 88/52/50 87/53/51 82/54/52
f 50/55/53 10/8/8 11/56/54
f 50/55/53 4/57/55 9/3/3
f 1/6/6 72/58/56 6/7/7
f 89/59/57 88/52/50 83/60/58
f 43/17/16 18/61/59 12/18/17
f 82/54/52 81/62/60 102/63/61
f 12/18/17 18/61/59 19/24/23
f 108/64/62 83/60/58 82/54/52
f 19/24/23 18/61/59 25/30/28
f 84/65/63 83/60/58 108/64/62
f 25/30/28 18/61/59 31/36/34
f 78/66/64 77/67/65 73/68/66
f 69/44/42 72/58/56 37/45/43
f 75/69/67 79/70/68 78/66/64
f 37/45/43 72/58/56 44/51/49
f 80/71/69 79/70/68 75/69/67
f 49/47/45 48/46/44 50/55/53
f 48/46/44 47/48/46 4/57/55
f 46/49/47 3/1/1 4/57/55
f 45/50/48 2/4/4 3/1/1
f 45/50/48 44/51/49 1/6/6
f 44/51/49 72/58/56 1/6/6
f 52/72/70 54/73/71 55/74/71
f 54/73/71 56/75/72 57/76/72
f 56/75/72 58/77/73 59/78/73
f 58/77/73 60/79/74 61/80/74
f 61/80/74 60/79/74 62/81/75
f 62/81/75 64/82/76 65/83/76
f 51/84/77 66/85/77 52/72/70
f 64/82/76 66/85/77 51/84/77
f 87/53/51 86/86/78 81/62/60
f 93/87/79 92/88/80 88/52/50
f 88/52/50 92/88/80 91/89/81
f 91/89/81 90/90/82 86/86/78
f 93/87/79 97/91/83 96/92/84
f 96/92/84 95/93/85 91/89/81
f 91/89/81 95/93/85 94/94/86
f 97/95/87 101/96/88 100/97/89
f 100/97/89 99/98/90 110/99/91
f 99/98/90 98/100/92 109/101/93
f 101/96/88 106/102/94 105/103/95
f 100/97/89 105/103/95 104/104/96
f 104/104/96 103/105/97 98/100/92
f 73/68/66 77/67/65 112/106/98
f 102/63/61 81/62/60 85/107/99
f 81/62/60 86/86/78 85/107/99
f 86/86/78 90/90/82 85/107/99
f 90/90/82 94/94/86 85/107/99
f 109/101/93 98/100/92 112/106/98
f 98/100/92 103/105/97 112/106/98
f 106/102/94 76/108/100 75/69/67
f 75/69/67 74/109/101 104/104/96
f 104/104/96 74/109/101 73/68/66
f 103/105/97 73/68/66 112/106/98
f 132/110/102 133/111/103 128/112/104
f 131/113/105 132/110/102 127/114/106
f 113/115/107 116/116/108 125/117/109
f 116/116/108 115/118/110 125/117/109
f 115/118/110 114/119/111 125/117/109
f 114/119/111 113/115/107 125/117/109
f 131/113/105 126/120/112 129/121/113
f 130/122/114 129/121/113 128/112/104
f 127/114/106 128/112/104 138/123/115
f 126/120/112 127/114/106 138/123/115
f 129/121/113 126/120/112 138/123/115
f 120/124/116 117/125/117 116/116/108
f 117/125/117 118/126/118 115/118/110
f 118/126/118 119/127/119 114/119/111
f 119/127/119 120/124/116 113/115/107
f 128/112/104 129/121/113 138/123/115
f 117/125/117 120/124/116 124/128/120
f 118/126/118 117/125/117 121/129/121
f 118/126/118 122/130/122 123/131/123
f 119/127/119 123/131/123 124/128/120
f 130/122/114 133/111/103 137/132/124
f 130/122/114 134/133/125 135/134/126
f 132/110/102 131/113/105 135/134/126
f 132/110/102 136/135/127 137/132/124
f 4/57/55 3/1/1 9/3/3
f 3/1/1 2/4/4 8/2/2
f 2/4/4 1/6/6 7/5/5
f 11/56/54 10/8/8 17/10/10
f 10/8/8 9/3/3 16/9/9
f 9/136/3 68/12/12 15/14/11
f 14/13/13 68/12/12 13/16/15
f 67/15/14 43/17/16 13/16/15
f 17/10/10 16/9/9 24/20/19
f 16/9/9 15/11/11 23/19/18
f 22/137/20 15/14/11 21/22/21
f 14/13/13 13/16/15 21/22/21
f 13/16/15 12/18/17 20/23/22
f 30/138/128 24/20/19 29/25/24
f 29/25/24 23/19/18 28/26/25
f 22/137/20 21/22/21 28/28/25
f 27/27/26 21/22/21 26/29/27
f 26/29/27 20/23/22 25/30/28
f 30/138/128 29/25/24 36/32/30
f 35/31/29 29/25/24 34/33/31
f 34/139/31 28/28/25 33/34/32
f 27/27/26 26/29/27 33/34/32
f 32/35/33 26/29/27 31/36/34
f 36/32/30 35/31/29 42/38/36
f 35/31/29 34/33/31 41/37/35
f 40/39/37 34/33/31 39/41/39
f 71/40/38 70/42/40 39/41/39
f 38/43/41 70/42/40 37/45/43
f 42/38/36 41/37/35 49/47/45
f 41/37/35 40/39/37 48/46/44
f 47/48/46 40/39/37 46/49/47
f 39/41/39 38/43/41 46/49/47
f 45/50/48 38/43/41 44/51/49
f 83/60/58 88/52/50 82/54/52
f 5/140/129 50/55/53 11/56/54
f 10/8/8 50/55/53 9/3/3
f 84/65/63 89/59/57 83/60/58
f 107/141/130 82/54/52 102/63/61
f 107/141/130 108/64/62 82/54/52
f 80/142/131 84/65/63 108/64/62
f 74/109/101 78/66/64 73/68/66
f 74/109/101 75/69/67 78/66/64
f 76/108/100 80/71/69 75/69/67
f 5/140/129 49/47/45 50/55/53
f 50/55/53 48/46/44 4/57/55
f 47/48/46 46/49/47 4/57/55
f 46/49/47 45/50/48 3/1/1
f 2/4/4 45/50/48 1/6/6
f 53/143/70 52/72/70 55/74/71
f 55/74/71 54/73/71 57/76/72
f 57/76/72 56/75/72 59/78/73
f 59/78/73 58/77/73 61/80/74
f 63/144/75 61/80/74 62/81/75
f 63/144/75 62/81/75 65/83/76
f 53/143/70 51/84/77 52/72/70
f 65/83/76 64/82/76 51/84/77
f 82/54/52 87/53/51 81/62/60
f 89/59/57 93/87/79 88/52/50
f 87/53/51 88/52/50 91/89/81
f 87/53/51 91/89/81 86/86/78
f 92/88/80 93/87/79 96/92/84
f 92/88/80 96/92/84 91/89/81
f 90/90/82 91/89/81 94/94/86
f 111/145/132 97/95/87 100/97/89
f 111/145/132 100/97/89 110/99/91
f 110/99/91 99/98/90 109/101/93
f 100/97/89 101/96/88 105/103/95
f 99/98/90 100/97/89 104/104/96
f 99/98/90 104/104/96 98/100/92
f 105/103/95 106/102/94 75/69/67
f 105/103/95 75/69/67 104/104/96
f 103/105/97 104/104/96 73/68/66
f 127/114/106 132/110/102 128/112/104
f 126/120/112 131/113/105 127/114/106
f 130/122/114 131/113/105 129/121/113
f 133/111/103 130/122/114 128/112/104
f 113/115/107 120/124/116 116/116/108
f 116/116/108 117/125/117 115/118/110
f 115/118/110 118/126/118 114/119/111
f 114/119/111 119/127/119 113/115/107
f 121/129/121 117/125/117 124/128/120
f 122/130/122 118/126/118 121/129/121
f 119/127/119 118/126/118 123/131/123
f 120/124/116 119/127/119 124/128/120
f 134/133/125 130/122/114 137/132/124
f 131/113/105 130/122/114 135/134/126
f 136/135/127 132/110/102 135/134/126
f 133/111/103 132/110/102 137/132/124
