# Blender v2.72 (sub 0) OBJ File: 'onescreen_proto1.blend'
# www.blender.org
o Sphere_Sphere.001
v -0.247810 0.150132 0.001730
v -0.084012 0.294442 -0.058249
v -0.153998 0.236640 -0.109097
v -0.200761 0.150132 -0.143072
v -0.217182 0.101129 -0.155002
v -0.032991 0.294442 -0.095318
v -0.059723 0.236640 -0.177591
v -0.077585 0.150132 -0.232564
v -0.083857 0.101129 -0.251868
v 0.030075 0.294442 -0.095318
v 0.056807 0.236640 -0.177591
v 0.074669 0.150132 -0.232564
v 0.080941 0.101129 -0.251868
v -0.001458 0.314739 0.001730
v 0.081096 0.294442 -0.058249
v 0.151082 0.236640 -0.109097
v 0.197845 0.150132 -0.143072
v 0.214266 0.101129 -0.155002
v 0.100584 0.294442 0.001730
v 0.187092 0.236640 0.001730
v 0.244894 0.150132 0.001730
v 0.265191 0.101129 0.001730
v -0.140885 0.023943 0.201332
v -0.270861 0.040044 0.002722
v 0.081096 0.294442 0.061709
v 0.151082 0.236640 0.112557
v 0.197845 0.150132 0.146532
v 0.214266 0.101129 0.158463
v -0.219936 0.040044 0.159455
v -0.086611 0.040044 0.256321
v 0.078187 0.040044 0.256321
v 0.030075 0.294442 0.098778
v 0.056807 0.236640 0.181051
v 0.074669 0.150132 0.236024
v 0.080941 0.101129 0.255329
v 0.211512 0.040044 0.159455
v 0.262437 0.040044 0.002722
v -0.032991 0.294442 0.098778
v -0.059723 0.236640 0.181051
v -0.077585 0.150132 0.236024
v -0.083857 0.101129 0.255329
v 0.211511 0.040044 -0.154010
v -0.084012 0.294442 0.061709
v -0.153998 0.236640 0.112557
v -0.200761 0.150132 0.146532
v -0.217182 0.101129 0.158463
v 0.078187 0.040044 -0.250876
v -0.103500 0.294442 0.001730
v -0.190007 0.236640 0.001730
v -0.268107 0.101129 0.001730
v -0.086611 0.040044 -0.250876
v -0.219936 0.040044 -0.154010
v -0.269435 0.040777 -0.364718
v -0.002835 0.034857 -0.451333
v 0.263683 0.030183 -0.364605
v 0.428332 0.028536 -0.137869
v 0.428414 0.030538 0.142347
v 0.263765 0.035432 0.369170
v -0.002835 0.041352 0.455785
v -0.269354 0.046026 0.369058
v -0.434003 0.047673 0.142321
v -0.434084 0.045671 -0.137895
v -0.217182 0.101129 -0.155002
v -0.217182 0.101129 -0.155002
v -0.217182 0.101129 -0.155002
v -0.217182 0.101129 -0.155002
v -0.083857 0.101129 -0.251868
v -0.083857 0.101129 -0.251868
v -0.083857 0.101129 -0.251868
v -0.083857 0.101129 -0.251868
v 0.080941 0.101129 -0.251868
v 0.080941 0.101129 -0.251868
v 0.080941 0.101129 -0.251868
v 0.080941 0.101129 -0.251868
v 0.214266 0.101129 -0.155002
v 0.214266 0.101129 -0.155002
v 0.214266 0.101129 -0.155002
v 0.214266 0.101129 -0.155002
v 0.265191 0.101129 0.001730
v 0.265191 0.101129 0.001730
v 0.265191 0.101129 0.001730
v 0.265191 0.101129 0.001730
v 0.214266 0.101129 0.158463
v 0.214266 0.101129 0.158463
v 0.214266 0.101129 0.158463
v 0.214266 0.101129 0.158463
v -0.086611 0.040044 -0.250876
v 0.078187 0.040044 -0.250876
v 0.211511 0.040044 -0.154010
v 0.080941 0.101129 0.255329
v 0.080941 0.101129 0.255329
v 0.080941 0.101129 0.255329
v 0.080941 0.101129 0.255329
v 0.262437 0.040044 0.002722
v -0.083857 0.101129 0.255329
v -0.083857 0.101129 0.255329
v -0.083857 0.101129 0.255329
v -0.083857 0.101129 0.255329
v 0.211512 0.040044 0.159455
v -0.217182 0.101129 0.158463
v -0.217182 0.101129 0.158463
v -0.217182 0.101129 0.158463
v -0.217182 0.101129 0.158463
v 0.078187 0.040044 0.256321
v -0.086611 0.040044 0.256321
v -0.268107 0.101129 0.001730
v -0.268107 0.101129 0.001730
v -0.268107 0.101129 0.001730
v -0.268107 0.101129 0.001730
v -0.219936 0.040044 0.159455
v -0.219936 0.040044 -0.154010
v -0.270861 0.040044 0.002722
v -0.269435 0.040777 -0.364718
v -0.269435 0.040777 -0.364718
v -0.002835 0.034857 -0.451333
v -0.002835 0.034857 -0.451333
v 0.263683 0.030183 -0.364605
v 0.263683 0.030183 -0.364605
v 0.428332 0.028536 -0.137869
v 0.428332 0.028536 -0.137869
v 0.428414 0.030538 0.142347
v 0.428414 0.030538 0.142347
v 0.263765 0.035432 0.369170
v 0.263765 0.035432 0.369170
v -0.002835 0.041352 0.455785
v -0.002835 0.041352 0.455785
v -0.269354 0.046026 0.369058
v -0.269354 0.046026 0.369058
v -0.434003 0.047673 0.142321
v -0.434003 0.047673 0.142321
v -0.434084 0.045671 -0.137895
v -0.434084 0.045671 -0.137895
vt 0.270521 0.660175
vt 0.413333 0.758831
vt 0.406061 0.780112
vt 0.324739 0.622721
vt 0.434043 0.698229
vt 0.405882 0.566667
vt 0.465037 0.607532
vt 0.589860 0.758831
vt 0.569150 0.698229
vt 0.538156 0.607532
vt 0.597132 0.780112
vt 0.732673 0.660175
vt 0.678455 0.622721
vt 0.597312 0.566667
vt 0.751712 0.673328
vt 0.787222 0.500547
vt 0.720205 0.500547
vt 0.619907 0.500547
vt 0.810756 0.500547
vt 0.732673 0.340918
vt 0.678455 0.378372
vt 0.597312 0.434427
vt 0.751712 0.327766
vt 0.589860 0.242263
vt 0.569150 0.302865
vt 0.538156 0.393562
vt 0.597132 0.220982
vt 0.413333 0.242263
vt 0.434043 0.302865
vt 0.465037 0.393562
vt 0.406061 0.220982
vt 0.270521 0.340918
vt 0.324739 0.378372
vt 0.405882 0.434427
vt 0.383287 0.500547
vt 0.500000 1.000000
vt 0.192438 0.500547
vt 0.215971 0.500547
vt 0.282988 0.500547
vt 0.501597 0.500547
vt 0.809008 0.904392
vt 0.999905 0.654439
vt 1.000000 0.345531
vt 0.809102 0.095484
vt 0.500000 0.000000
vt 0.251482 0.327766
vt 0.190992 0.095608
vt 0.000095 0.345561
vt 0.251482 0.673328
vt 0.000000 0.654469
vt 0.190898 0.904516
vt 0.376367 0.856567
vt 0.178908 0.720162
vt 0.620439 0.856567
vt 0.817898 0.720162
vt 0.893321 0.499453
vt 0.817898 0.278745
vt 0.620439 0.142339
vt 0.376367 0.142339
vt 0.178908 0.278744
vt 0.103486 0.499453
vn -0.716800 0.463500 -0.520800
vn -0.273800 0.463500 -0.842700
vn -0.285500 0.382700 -0.878700
vn -0.586900 0.688300 -0.426400
vn -0.224200 0.688300 -0.689900
vn -0.335600 0.909800 -0.243900
vn -0.128200 0.909800 -0.394600
vn 0.273800 0.463500 -0.842700
vn 0.224200 0.688300 -0.689900
vn 0.128200 0.909800 -0.394600
vn 0.285500 0.382700 -0.878700
vn 0.716800 0.463500 -0.520800
vn 0.586900 0.688300 -0.426400
vn 0.335600 0.909800 -0.243900
vn 0.747400 0.382700 -0.543000
vn 0.886100 0.463500 0.000000
vn 0.725400 0.688300 0.000000
vn 0.414900 0.909800 0.000000
vn 0.923900 0.382700 -0.000000
vn 0.716800 0.463500 0.520800
vn 0.586900 0.688300 0.426400
vn 0.335600 0.909800 0.243900
vn 0.747400 0.382700 0.543000
vn 0.273800 0.463500 0.842700
vn 0.224200 0.688300 0.689900
vn 0.128200 0.909800 0.394600
vn 0.285500 0.382700 0.878700
vn -0.273800 0.463500 0.842700
vn -0.224200 0.688300 0.689900
vn -0.128200 0.909800 0.394600
vn -0.285500 0.382700 0.878700
vn -0.716800 0.463500 0.520800
vn -0.586900 0.688300 0.426400
vn -0.335600 0.909800 0.243900
vn -0.414900 0.909800 0.000000
vn 0.000000 0.949000 -0.315300
vn -0.923900 0.382700 0.000000
vn -0.886100 0.463500 0.000000
vn -0.725400 0.688300 0.000000
vn 0.000000 1.000000 0.000000
vn 0.197700 0.941700 -0.272100
vn 0.326900 0.939100 -0.106200
vn 0.318400 0.942300 0.103500
vn 0.183800 0.949900 0.253000
vn 0.000000 0.958300 0.285800
vn -0.155400 0.964400 0.213900
vn -0.244200 0.966500 0.079300
vn -0.253000 0.964000 -0.082200
vn -0.747400 0.382700 0.543000
vn -0.169500 0.957500 -0.233300
vn 0.528100 -0.037600 -0.848300
vn -0.972400 0.047600 0.228600
vn 0.926500 -0.047800 -0.373200
vn -0.921800 0.035300 -0.386100
vn 0.969500 -0.039800 0.242000
vn -0.522300 0.009700 -0.852700
vn 0.645800 -0.016700 0.763400
vn 0.073200 -0.019500 -0.997100
vn 0.079200 0.012600 0.996800
vn 0.641800 -0.041400 -0.765800
vn -0.518500 0.037300 0.854200
vn 0.969000 -0.047600 -0.242500
vn -0.921000 0.047800 0.386500
vn 0.925800 -0.035600 0.376300
vn -0.972300 0.040100 -0.230400
vn 0.524800 -0.009800 0.851200
vn -0.649600 0.016900 -0.760100
vn -0.079100 0.019800 0.996700
vn -0.075400 -0.012800 -0.997100
vn -0.651300 0.041700 0.757700
vn -0.747400 0.382700 -0.543000
s 1
f 4/1/1 8/2/2 9/3/3
f 4/1/1 3/4/4 7/5/5
f 2/6/6 6/7/7 7/5/5
f 9/3/3 8/2/2 12/8/8
f 7/5/5 11/9/9 12/8/8
f 6/7/7 10/10/10 11/9/9
f 13/11/11 12/8/8 17/12/12
f 11/9/9 16/13/13 17/12/12
f 10/10/10 15/14/14 16/13/13
f 18/15/15 17/12/12 21/16/16
f 16/13/13 20/17/17 21/16/16
f 16/13/13 15/14/14 19/18/18
f 22/19/19 21/16/16 27/20/20
f 20/17/17 26/21/21 27/20/20
f 20/17/17 19/18/18 25/22/22
f 28/23/23 27/20/20 34/24/24
f 26/21/21 33/25/25 34/24/24
f 26/21/21 25/22/22 32/26/26
f 35/27/27 34/24/24 40/28/28
f 33/25/25 39/29/29 40/28/28
f 33/25/25 32/26/26 38/30/30
f 41/31/31 40/28/28 45/32/32
f 39/29/29 44/33/33 45/32/32
f 39/29/29 38/30/30 43/34/34
f 44/33/33 43/34/34 48/35/35
f 69/3/36 72/11/36 54/36/36
f 106/37/37 1/38/38 4/1/1
f 49/39/39 3/4/4 4/1/1
f 49/39/39 48/35/35 2/6/6
f 48/35/35 14/40/40 2/6/6
f 73/11/41 76/15/41 55/41/41
f 2/6/6 14/40/40 6/7/7
f 77/15/42 80/19/42 56/42/42
f 6/7/7 14/40/40 10/10/10
f 81/19/43 84/23/43 57/43/43
f 10/10/10 14/40/40 15/14/14
f 85/23/44 91/27/44 58/44/44
f 15/14/14 14/40/40 19/18/18
f 92/27/45 96/31/45 59/45/45
f 19/18/18 14/40/40 25/22/22
f 97/31/46 102/46/46 60/47/46
f 25/22/22 14/40/40 32/26/26
f 100/46/47 50/37/47 61/48/47
f 32/26/26 14/40/40 38/30/30
f 108/37/48 65/49/48 62/50/48
f 38/30/30 14/40/40 43/34/34
f 46/46/49 45/32/32 1/38/38
f 44/33/33 49/39/39 1/38/38
f 43/34/34 14/40/40 48/35/35
f 64/49/50 68/3/50 53/51/50
f 67/3/51 51/52/51 113/51/51
f 52/53/52 63/49/52 114/51/52
f 71/11/53 47/54/53 115/36/53
f 87/52/54 70/3/54 116/36/54
f 75/15/55 42/55/55 117/41/55
f 88/54/56 74/11/56 118/41/56
f 79/19/57 37/56/57 119/42/57
f 89/55/58 78/15/58 120/42/58
f 83/23/59 36/57/59 121/43/59
f 94/56/60 82/19/60 122/43/60
f 90/27/61 31/58/61 123/44/61
f 99/57/62 86/23/62 124/44/62
f 95/31/63 30/59/63 125/45/63
f 104/58/64 93/27/64 126/45/64
f 101/46/65 29/60/65 127/47/65
f 105/59/66 98/31/66 128/47/66
f 107/37/67 24/61/67 129/48/67
f 110/60/68 103/46/68 130/48/68
f 66/49/69 111/53/69 131/50/69
f 112/61/70 109/37/70 132/50/70
f 5/49/71 4/1/1 9/3/3
f 8/2/2 4/1/1 7/5/5
f 3/4/4 2/6/6 7/5/5
f 13/11/11 9/3/3 12/8/8
f 8/2/2 7/5/5 12/8/8
f 7/5/5 6/7/7 11/9/9
f 18/15/15 13/11/11 17/12/12
f 12/8/8 11/9/9 17/12/12
f 11/9/9 10/10/10 16/13/13
f 22/19/19 18/15/15 21/16/16
f 17/12/12 16/13/13 21/16/16
f 20/17/17 16/13/13 19/18/18
f 28/23/23 22/19/19 27/20/20
f 21/16/16 20/17/17 27/20/20
f 26/21/21 20/17/17 25/22/22
f 35/27/27 28/23/23 34/24/24
f 27/20/20 26/21/21 34/24/24
f 33/25/25 26/21/21 32/26/26
f 41/31/31 35/27/27 40/28/28
f 34/24/24 33/25/25 40/28/28
f 39/29/29 33/25/25 38/30/30
f 46/46/49 41/31/31 45/32/32
f 40/28/28 39/29/29 45/32/32
f 44/33/33 39/29/29 43/34/34
f 49/39/39 44/33/33 48/35/35
f 5/49/71 106/37/37 4/1/1
f 1/38/38 49/39/39 4/1/1
f 3/4/4 49/39/39 2/6/6
f 106/37/37 46/46/49 1/38/38
f 45/32/32 44/33/33 1/38/38
