# Blender v2.72 (sub 0) OBJ File: 'onescreen_proto.blend'
# www.blender.org
o Icosphere
v 0.000000 -0.200000 0.000000
v 0.144720 -0.089443 0.105144
v -0.055277 -0.089443 0.170128
v -0.178885 -0.089443 0.000000
v -0.055277 -0.089443 -0.170128
v 0.144720 -0.089443 -0.105144
v 0.055277 0.089443 0.170128
v -0.144720 0.089443 0.105144
v -0.144720 0.089443 -0.105144
v 0.055277 0.089443 -0.170128
v 0.178885 0.089443 0.000000
v 0.000000 0.200000 0.000000
vt 0.075166 0.933385
vt 0.094735 0.917083
vt 0.094735 0.938818
vt 0.071823 0.907009
vt 0.066194 0.981890
vt 0.063465 0.960354
vt 0.084902 0.973664
vt 0.023320 0.938818
vt 0.042027 0.947044
vt 0.020590 0.960354
vt 0.057663 0.922517
vt 0.089327 0.896141
vt 0.044757 0.938818
vt 0.063465 0.947044
vt 0.042027 0.960354
vt 0.084902 0.947044
vt 0.042027 0.973664
vt 0.106339 0.973664
vt 0.087632 0.981890
vt 0.084902 0.960354
vt 0.063465 0.973664
vt 0.066194 0.938818
vt 0.052254 0.896141
vt 0.057663 0.917083
vt 0.034751 0.907009
vt 0.023320 0.981890
vt 0.106339 0.947044
vt 0.044757 0.981890
vt 0.057663 0.938818
vt 0.038093 0.933385
vt 0.020590 0.922517
vt 0.087632 0.938818
vn 0.187600 -0.794700 0.577400
vn 0.607100 -0.794700 0.000000
vn -0.491100 -0.794700 0.356800
vn -0.491100 -0.794700 -0.356800
vn 0.187600 -0.794700 -0.577400
vn 0.982200 -0.187600 0.000000
vn 0.303500 -0.187600 0.934200
vn -0.794600 -0.187600 0.577400
vn -0.794600 -0.187600 -0.577400
vn 0.303500 -0.187600 -0.934200
vn 0.794600 0.187600 0.577400
vn -0.303500 0.187600 0.934200
vn -0.982200 0.187600 0.000000
vn -0.303500 0.187600 -0.934200
vn 0.794600 0.187600 -0.577400
vn 0.491100 0.794700 0.356800
vn -0.187600 0.794700 0.577400
vn -0.607100 0.794700 0.000000
vn -0.187600 0.794700 -0.577400
vn 0.491100 0.794700 -0.356800
s off
f 1/1/1 2/2/1 3/3/1
f 2/2/2 1/1/2 6/4/2
f 1/5/3 3/6/3 4/7/3
f 1/8/4 4/9/4 5/10/4
f 1/1/5 5/11/5 6/4/5
f 2/2/6 6/4/6 11/12/6
f 3/13/7 2/14/7 7/15/7
f 4/7/8 3/6/8 8/16/8
f 5/10/9 4/9/9 9/17/9
f 6/18/10 5/19/10 10/20/10
f 2/14/11 11/21/11 7/15/11
f 3/6/12 7/22/12 8/16/12
f 4/23/13 8/24/13 9/25/13
f 5/10/14 9/17/14 10/26/14
f 6/18/15 10/20/15 11/27/15
f 7/15/16 11/21/16 12/28/16
f 8/24/17 7/29/17 12/30/17
f 9/25/18 8/24/18 12/30/18
f 10/31/19 9/25/19 12/30/19
f 11/27/20 10/20/20 12/32/20
