# Blender v2.72 (sub 0) OBJ File: 'onescreen_proto2.blend'
# www.blender.org
o Grid_Grid.001
v -2.500000 0.000000 2.500000
v -1.500000 0.000000 2.500000
v -0.500000 0.000000 2.500000
v 0.500000 0.000000 2.500000
v 1.500000 0.000000 2.500000
v 2.500000 0.000000 2.500000
v -2.500000 0.000000 1.500000
v -1.500000 0.000000 1.500000
v -0.500000 0.000000 1.500000
v 0.500000 0.000000 1.500000
v 1.500000 0.000000 1.500000
v 2.500000 0.000000 1.500000
v -2.500000 0.000000 0.500000
v -1.500000 0.000000 0.500000
v -0.500000 0.000000 0.500000
v 0.500000 0.000000 0.500000
v 1.500000 0.000000 0.500000
v 2.500000 0.000000 0.500000
v -2.500000 0.000000 -0.500000
v -1.500000 0.000000 -0.500000
v -0.500000 0.000000 -0.500000
v 0.500000 0.000000 -0.500000
v 1.500000 0.000000 -0.500000
v 2.500000 0.000000 -0.500000
v -2.500000 0.000000 -1.500000
v -1.500000 0.000000 -1.500000
v -0.500000 0.000000 -1.500000
v 0.500000 0.000000 -1.500000
v 1.500000 0.000000 -1.500000
v 2.500000 0.000000 -1.500000
v -2.500000 0.000000 -2.500000
v -1.500000 0.000000 -2.500000
v -0.500000 0.000000 -2.500000
v 0.500000 0.000000 -2.500000
v 1.500000 0.000000 -2.500000
v 2.500000 0.000000 -2.500000
v -2.500000 0.000000 2.500000
v -1.500000 0.000000 2.500000
v -0.500000 0.000000 2.500000
v 0.500000 0.000000 2.500000
v 1.500000 0.000000 2.500000
v 2.500000 0.000000 2.500000
v -2.500000 0.000000 1.500000
v 2.500000 0.000000 1.500000
v -2.500000 0.000000 0.500000
v 2.500000 0.000000 0.500000
v -2.500000 0.000000 -0.500000
v 2.500000 0.000000 -0.500000
v -2.500000 0.000000 -1.500000
v 2.500000 0.000000 -1.500000
v -2.500000 0.000000 -2.500000
v -1.500000 0.000000 -2.500000
v -0.500000 0.000000 -2.500000
v 0.500000 0.000000 -2.500000
v 1.500000 0.000000 -2.500000
v 2.500000 0.000000 -2.500000
v -1.886385 0.000000 -3.962420
v -1.256416 0.000000 -3.962420
v -0.377277 0.000000 -3.962420
v 0.377277 0.000000 -3.962420
v 1.333052 0.000000 -3.962420
v 1.886385 0.000000 -3.962420
v -3.788182 -0.405466 3.743338
v -2.254691 -0.405466 4.102008
v -0.721199 -0.405466 3.743338
v 0.812293 -0.918836 3.743338
v 2.345784 -0.405466 3.743338
v 3.879276 -0.405466 3.743338
v -4.341385 -0.405466 2.922103
v 4.379042 -0.405466 2.209846
v -3.788454 -0.405466 1.137017
v 3.879276 -0.405466 0.676355
v -3.788182 -0.405466 -0.857137
v 4.701962 -0.405466 -0.857137
v -4.450570 -0.405466 -2.390629
v 3.879276 -0.405466 -2.390629
v -3.788182 -0.405466 -3.924120
v 3.879276 -0.405466 -3.924120
v -2.847208 -0.405466 -4.482542
v 2.938302 -0.405466 -4.663105
v -1.131831 0.732474 -3.962420
v -0.377277 1.014195 -3.962420
v 0.377277 1.014195 -3.962420
v 1.131831 0.482949 -3.962420
v -1.335328 0.113582 -4.115255
v 1.630351 0.221159 -4.115255
v -1.335328 0.941716 -4.115255
v -0.482230 1.260230 -4.115255
v 0.462310 1.260230 -4.115255
v 1.392174 0.767180 -4.115255
v -0.276061 0.023406 -3.962420
v 0.276061 0.023406 -3.962420
v -0.276061 0.878150 -3.962420
v 0.276061 0.878150 -3.962420
v -0.276061 0.023406 -4.207503
v 0.276061 0.023406 -4.207503
v -0.276061 0.878150 -4.207503
v 0.276061 0.878150 -4.207503
vt 0.101156 0.501796
vt 0.101156 0.601797
vt 0.001156 0.601797
vt 0.201156 0.501796
vt 0.201156 0.601797
vt 0.301156 0.501796
vt 0.301156 0.601797
vt 0.401156 0.501796
vt 0.401156 0.601797
vt 0.501156 0.501796
vt 0.501156 0.601797
vt 0.101156 0.701796
vt 0.001156 0.701796
vt 0.201156 0.701796
vt 0.301156 0.701796
vt 0.401156 0.701796
vt 0.501156 0.701796
vt 0.101156 0.801797
vt 0.001156 0.801797
vt 0.201156 0.801797
vt 0.301156 0.801797
vt 0.401156 0.801797
vt 0.501156 0.801797
vt 0.101156 0.901796
vt 0.001156 0.901796
vt 0.201156 0.901796
vt 0.301156 0.901796
vt 0.401156 0.901796
vt 0.501156 0.901796
vt 0.101156 1.001796
vt 0.001156 1.001796
vt 0.201156 1.001796
vt 0.301156 1.001796
vt 0.401156 1.001796
vt 0.501156 1.001796
vt 0.539476 0.469698
vt 0.863124 0.585639
vt 0.937201 0.616235
vt 0.938064 0.646053
vt 0.864684 0.639526
vt 0.939555 0.697557
vt 0.866245 0.693413
vt 0.940733 0.738218
vt 0.869365 0.801187
vt 0.867805 0.747300
vt 0.870926 0.855074
vt 0.942105 0.785592
vt 0.617811 0.755743
vt 0.619372 0.809630
vt 0.539476 0.852946
vt 0.820927 0.856763
vt 0.943166 0.922029
vt 0.931201 0.508852
vt 0.969618 0.558310
vt 0.670931 0.861829
vt 0.601726 0.963400
vt 0.559802 0.934976
vt 0.770928 0.858452
vt 0.867527 0.960312
vt 0.789820 0.927207
vt 0.690115 0.930589
vt 0.720930 0.860140
vt 0.813125 0.587328
vt 0.854528 0.511441
vt 0.614690 0.647969
vt 0.550230 0.604434
vt 0.547837 0.521799
vt 0.555016 0.769705
vt 0.551389 0.686997
vt 0.620932 0.863518
vt 0.763126 0.589016
vt 0.776572 0.469698
vt 0.713127 0.590705
vt 0.701183 0.516620
vt 0.663129 0.592393
vt 0.623730 0.492278
vt 0.943088 0.819539
vt 0.969618 0.870379
vt 0.613130 0.594082
vt 0.616251 0.701856
vt 0.578766 0.150395
vt 0.542927 0.230780
vt 0.407522 0.320244
vt 0.271696 0.321714
vt 0.270895 0.153729
vt 0.289133 0.157408
vt 0.112643 0.155442
vt 0.546063 0.081615
vt 0.678014 0.080186
vt 0.715984 0.105353
vt 0.633560 0.190086
vt 0.591117 0.280991
vt 0.424125 0.364469
vt 0.254101 0.366310
vt 0.100285 0.315216
vt 0.391918 0.067846
vt 0.392362 0.108857
vt 0.238385 0.110525
vt 0.389194 0.297907
vt 0.388519 0.156332
vt 0.289809 0.298983
vt 0.406720 0.152258
vt 0.084423 0.019862
vt 0.236826 0.018212
vt 0.545896 0.066179
vt 0.715540 0.064342
vt 0.815002 0.063265
vt 0.815455 0.104276
vt 0.914463 0.062235
vt 0.001156 0.501796
vt 0.135648 0.276522
vt 0.566801 0.106969
vt 0.237941 0.069513
vt 0.085982 0.112175
vt 0.546340 0.107190
vt 0.815446 0.104276
vt 0.914916 0.103199
vn 0.000000 1.000000 0.000000
vn 0.000000 0.000000 1.000000
vn 0.000000 0.969400 0.245400
vn -0.300200 0.953900 0.000000
vn 0.124400 0.979500 -0.158400
vn -0.142700 0.985100 0.096100
vn -0.203500 0.979100 0.000000
vn -0.346300 0.932000 -0.107300
vn 0.282000 0.959400 0.000000
vn 0.000000 0.950700 0.310000
vn 0.298100 0.890600 0.343500
vn 0.166400 0.982000 -0.089200
vn 0.262600 0.954600 0.140900
vn 0.210900 0.977500 0.000000
vn -0.202600 0.917900 -0.341300
vn -0.250300 0.747500 0.615300
vn -0.536400 0.091200 0.839000
vn 0.357400 0.155900 0.920800
vn 0.177600 0.334900 0.925400
vn 0.000000 0.527700 0.849400
vn -0.173700 0.465100 0.868000
vn 1.000000 0.000000 0.000000
vn -1.000000 0.000000 0.000000
vn 0.000000 -1.000000 0.000000
vn 0.075100 0.944000 0.321200
vn -0.170600 0.982600 -0.073700
vn 0.286400 0.950600 -0.120200
vn -0.333200 0.931800 0.143900
vn -0.215000 0.976600 0.000000
vn 0.000000 0.804200 0.594300
vn -0.051900 0.973700 0.222000
vn 0.181100 0.983500 0.000000
vn 0.291900 0.951700 -0.095100
vn -0.209400 0.973900 -0.087900
vn 0.188300 0.980200 0.061400
vn -0.888600 0.000000 0.458800
vn 0.369700 0.154000 0.916300
vn 0.300200 0.426300 0.853300
s off
f 2/1/1 8/2/1 7/3/1
f 3/4/1 9/5/1 8/2/1
f 4/6/1 10/7/1 9/5/1
f 5/8/1 11/9/1 10/7/1
f 6/10/1 12/11/1 11/9/1
f 8/2/1 14/12/1 13/13/1
f 9/5/1 15/14/1 14/12/1
f 10/7/1 16/15/1 15/14/1
f 11/9/1 17/16/1 16/15/1
f 12/11/1 18/17/1 17/16/1
f 14/12/1 20/18/1 19/19/1
f 15/14/1 21/20/1 20/18/1
f 16/15/1 22/21/1 21/20/1
f 17/16/1 23/22/1 22/21/1
f 18/17/1 24/23/1 23/22/1
f 20/18/1 26/24/1 25/25/1
f 21/20/1 27/26/1 26/24/1
f 22/21/1 28/27/1 27/26/1
f 23/22/1 29/28/1 28/27/1
f 24/23/1 30/29/1 29/28/1
f 26/24/1 32/30/1 31/31/1
f 27/26/1 33/32/1 32/30/1
f 28/27/1 34/33/1 33/32/1
f 29/28/1 35/34/1 34/33/1
f 30/29/1 36/35/1 35/34/1
f 35/36/2 55/36/2 54/36/2
f 5/36/2 41/36/2 42/36/2
f 34/36/2 54/36/2 53/36/2
f 7/36/2 43/36/2 37/36/2
f 33/36/2 53/36/2 52/36/2
f 3/36/2 39/36/2 40/36/2
f 32/36/2 52/36/2 51/36/2
f 13/36/2 45/36/2 43/36/2
f 19/36/2 47/36/2 45/36/2
f 25/36/2 49/36/2 47/36/2
f 31/36/2 51/36/2 49/36/2
f 30/36/2 50/36/2 56/36/2
f 6/36/2 42/36/2 44/36/2
f 12/36/2 44/36/2 46/36/2
f 18/36/2 46/36/2 48/36/2
f 24/36/2 48/36/2 50/36/2
f 1/36/2 37/36/2 38/36/2
f 4/36/2 40/36/2 41/36/2
f 36/36/2 56/36/2 55/36/2
f 2/36/2 38/36/2 39/36/2
f 56/37/1 62/38/1 61/39/1
f 55/40/1 61/39/1 60/41/1
f 54/42/1 60/41/1 59/43/1
f 52/44/1 53/45/1 59/43/1
f 51/46/1 52/44/1 58/47/1
f 39/48/3 38/49/3 64/50/3
f 49/51/4 51/46/4 77/52/4
f 56/37/5 78/53/5 80/54/5
f 43/55/6 69/56/6 63/57/6
f 47/58/7 49/51/7 75/59/7
f 47/58/4 73/60/4 71/61/4
f 45/62/8 71/61/8 69/56/8
f 50/63/9 76/64/9 78/53/9
f 41/65/10 67/66/10 68/67/10
f 39/48/11 65/68/11 66/69/11
f 38/49/10 37/70/10 63/57/10
f 48/71/12 74/72/12 76/64/12
f 46/73/13 72/74/13 74/72/13
f 46/73/14 44/75/14 70/76/14
f 57/77/15 79/78/15 77/52/15
f 44/75/9 42/79/9 68/67/9
f 40/80/16 66/69/16 67/66/16
f 61/81/2 84/82/2 83/83/2
f 82/84/2 59/85/2 91/86/2
f 58/87/2 59/85/2 82/84/2
f 58/88/17 81/89/17 87/90/17
f 61/81/18 86/91/18 90/92/18
f 84/82/19 90/92/19 89/93/19
f 83/83/20 89/93/20 88/94/20
f 82/84/21 88/94/21 87/95/21
f 91/96/22 95/97/22 97/98/22
f 83/83/2 94/99/2 92/100/2
f 82/84/2 93/101/2 94/99/2
f 60/102/2 92/100/2 91/86/2
f 96/103/2 98/104/2 97/98/2
f 94/97/23 98/96/23 96/105/23
f 93/90/24 97/106/24 98/107/24
f 92/108/1 96/107/1 95/109/1
f 1/110/1 2/1/1 7/3/1
f 2/1/1 3/4/1 8/2/1
f 3/4/1 4/6/1 9/5/1
f 4/6/1 5/8/1 10/7/1
f 5/8/1 6/10/1 11/9/1
f 7/3/1 8/2/1 13/13/1
f 8/2/1 9/5/1 14/12/1
f 9/5/1 10/7/1 15/14/1
f 10/7/1 11/9/1 16/15/1
f 11/9/1 12/11/1 17/16/1
f 13/13/1 14/12/1 19/19/1
f 14/12/1 15/14/1 20/18/1
f 15/14/1 16/15/1 21/20/1
f 16/15/1 17/16/1 22/21/1
f 17/16/1 18/17/1 23/22/1
f 19/19/1 20/18/1 25/25/1
f 20/18/1 21/20/1 26/24/1
f 21/20/1 22/21/1 27/26/1
f 22/21/1 23/22/1 28/27/1
f 23/22/1 24/23/1 29/28/1
f 25/25/1 26/24/1 31/31/1
f 26/24/1 27/26/1 32/30/1
f 27/26/1 28/27/1 33/32/1
f 28/27/1 29/28/1 34/33/1
f 29/28/1 30/29/1 35/34/1
f 34/36/2 35/36/2 54/36/2
f 6/36/2 5/36/2 42/36/2
f 33/36/2 34/36/2 53/36/2
f 1/36/2 7/36/2 37/36/2
f 32/36/2 33/36/2 52/36/2
f 4/36/2 3/36/2 40/36/2
f 31/36/2 32/36/2 51/36/2
f 7/36/2 13/36/2 43/36/2
f 13/36/2 19/36/2 45/36/2
f 19/36/2 25/36/2 47/36/2
f 25/36/2 31/36/2 49/36/2
f 36/36/2 30/36/2 56/36/2
f 12/36/2 6/36/2 44/36/2
f 18/36/2 12/36/2 46/36/2
f 24/36/2 18/36/2 48/36/2
f 30/36/2 24/36/2 50/36/2
f 2/36/2 1/36/2 38/36/2
f 5/36/2 4/36/2 41/36/2
f 35/36/2 36/36/2 55/36/2
f 3/36/2 2/36/2 39/36/2
f 55/40/1 56/37/1 61/39/1
f 54/42/1 55/40/1 60/41/1
f 53/45/1 54/42/1 59/43/1
f 58/47/1 52/44/1 59/43/1
f 57/77/1 51/46/1 58/47/1
f 65/68/25 39/48/25 64/50/25
f 75/59/26 49/51/26 77/52/26
f 62/38/27 56/37/27 80/54/27
f 37/70/4 43/55/4 63/57/4
f 73/60/28 47/58/28 75/59/28
f 45/62/4 47/58/4 71/61/4
f 43/55/29 45/62/29 69/56/29
f 56/37/9 50/63/9 78/53/9
f 42/79/10 41/65/10 68/67/10
f 40/80/30 39/48/30 66/69/30
f 64/50/31 38/49/31 63/57/31
f 50/63/9 48/71/9 76/64/9
f 48/71/32 46/73/32 74/72/32
f 72/74/33 46/73/33 70/76/33
f 51/46/34 57/77/34 77/52/34
f 70/76/35 44/75/35 68/67/35
f 41/65/10 40/80/10 67/66/10
f 60/102/2 61/81/2 83/83/2
f 93/101/2 82/84/2 91/86/2
f 81/111/2 58/87/2 82/84/2
f 85/112/36 58/88/36 87/90/36
f 84/82/37 61/81/37 90/92/37
f 83/83/38 84/82/38 89/93/38
f 82/84/20 83/83/20 88/94/20
f 81/111/21 82/84/21 87/95/21
f 93/113/22 91/96/22 97/98/22
f 60/102/2 83/83/2 92/100/2
f 83/83/2 82/84/2 94/99/2
f 59/85/2 60/102/2 91/86/2
f 95/114/2 96/103/2 97/98/2
f 92/115/23 94/97/23 96/105/23
f 94/116/24 93/90/24 98/107/24
f 91/117/1 92/108/1 95/109/1
