# Blender v2.72 (sub 0) OBJ File: 'onescreen_proto1.blend'
# www.blender.org
o Grid_Grid.001
v -2.500000 0.000000 2.500000
v -1.500000 0.000000 2.500000
v -0.500000 0.000000 2.500000
v 0.500000 0.000000 2.500000
v 1.500000 0.000000 2.500000
v 2.500000 0.000000 2.500000
v -2.500000 0.000000 1.500000
v -1.500000 0.000000 1.500000
v -0.500000 0.000000 1.500000
v 0.500000 0.000000 1.500000
v 1.500000 0.000000 1.500000
v 2.500000 0.000000 1.500000
v -2.500000 0.000000 0.500000
v -1.500000 0.000000 0.500000
v -0.500000 0.000000 0.500000
v 0.500000 0.000000 0.500000
v 1.500000 0.000000 0.500000
v 2.500000 0.000000 0.500000
v -2.500000 0.000000 -0.500000
v -1.500000 0.000000 -0.500000
v -0.500000 0.000000 -0.500000
v 0.500000 0.000000 -0.500000
v 1.500000 0.000000 -0.500000
v 2.500000 0.000000 -0.500000
v -2.500000 0.000000 -1.500000
v -1.500000 0.000000 -1.500000
v -0.500000 0.000000 -1.500000
v 0.500000 0.000000 -1.500000
v 1.500000 0.000000 -1.500000
v 2.500000 0.000000 -1.500000
v -2.500000 0.000000 -2.500000
v -1.500000 0.000000 -2.500000
v -0.500000 0.000000 -2.500000
v 0.500000 0.000000 -2.500000
v 1.500000 0.000000 -2.500000
v 2.500000 0.000000 -2.500000
v -2.500000 0.000000 2.500000
v -1.500000 0.000000 2.500000
v -0.500000 0.000000 2.500000
v 0.500000 0.000000 2.500000
v 1.500000 0.000000 2.500000
v 2.500000 0.000000 2.500000
v -2.500000 0.000000 1.500000
v 2.500000 0.000000 1.500000
v -2.500000 0.000000 0.500000
v 2.500000 0.000000 0.500000
v -2.500000 0.000000 -0.500000
v 2.500000 0.000000 -0.500000
v -2.500000 0.000000 -1.500000
v 2.500000 0.000000 -1.500000
v -2.500000 0.000000 -2.500000
v -1.500000 0.000000 -2.500000
v -0.500000 0.000000 -2.500000
v 0.500000 0.000000 -2.500000
v 1.500000 0.000000 -2.500000
v 2.500000 0.000000 -2.500000
v -1.886385 0.000000 -3.625743
v -1.131831 0.000000 -3.625743
v -0.377277 0.000000 -3.625743
v 0.377277 0.000000 -3.625743
v 1.131831 0.000000 -3.625743
v 1.886385 0.000000 -3.625743
v -3.788182 -0.405466 3.743338
v -2.254691 -0.405466 4.102008
v -0.721199 -0.405466 3.743338
v 0.812293 -0.918836 3.743338
v 2.345784 -0.405466 3.743338
v 3.879276 -0.405466 3.743338
v -4.341385 -0.405466 2.922103
v 4.379042 -0.405466 2.209846
v -3.788454 -0.405466 1.137017
v 3.879276 -0.405466 0.676355
v -3.788182 -0.405466 -0.857137
v 4.701962 -0.405466 -0.857137
v -4.450570 -0.405466 -2.390629
v 3.879276 -0.405466 -2.390629
v -3.788182 -0.405466 -3.924120
v 3.879276 -0.405466 -3.924120
v -2.847208 -0.405466 -4.482542
v 2.938302 -0.405466 -4.663105
vt 0.200000 0.000000
vt 0.200000 0.200000
vt 0.000000 0.200000
vt 0.400000 0.000000
vt 0.400000 0.200000
vt 0.600000 0.000000
vt 0.600000 0.200000
vt 0.800000 0.000000
vt 0.800000 0.200000
vt 1.000000 0.000000
vt 1.000000 0.200000
vt 0.200000 0.400000
vt 0.000000 0.400000
vt 0.400000 0.400000
vt 0.600000 0.400000
vt 0.800000 0.400000
vt 1.000000 0.400000
vt 0.200000 0.600000
vt 0.000000 0.600000
vt 0.400000 0.600000
vt 0.600000 0.600000
vt 0.800000 0.600000
vt 1.000000 0.600000
vt 0.200000 0.800000
vt 0.000000 0.800000
vt 0.400000 0.800000
vt 0.600000 0.800000
vt 0.800000 0.800000
vt 1.000000 0.800000
vt 0.200000 1.000000
vt 0.000000 1.000000
vt 0.400000 1.000000
vt 0.600000 1.000000
vt 0.800000 1.000000
vt 1.000000 1.000000
vt 0.000000 0.000000
vn 0.000000 1.000000 0.000000
vn 0.000000 0.000000 1.000000
vn 0.000000 0.969400 0.245400
vn -0.300200 0.953900 0.000000
vn 0.124400 0.979500 -0.158400
vn -0.142700 0.985100 0.096100
vn -0.203500 0.979100 0.000000
vn -0.346300 0.932000 -0.107300
vn 0.282000 0.959400 0.000000
vn 0.000000 0.950700 0.310000
vn 0.298100 0.890600 0.343500
vn 0.166400 0.982000 -0.089200
vn 0.262600 0.954600 0.140900
vn 0.210900 0.977500 0.000000
vn -0.270200 0.951500 -0.147300
vn -0.250300 0.747500 0.615300
vn 0.075100 0.944000 0.321200
vn -0.170600 0.982600 -0.073700
vn 0.241100 0.961600 -0.131400
vn -0.333200 0.931800 0.143900
vn -0.215000 0.976600 0.000000
vn 0.000000 0.804200 0.594300
vn -0.051900 0.973700 0.222000
vn 0.181100 0.983500 0.000000
vn 0.291900 0.951700 -0.095100
vn -0.107500 0.977600 -0.181100
vn 0.188300 0.980200 0.061400
s off
f 2/1/1 8/2/1 7/3/1
f 3/4/1 9/5/1 8/2/1
f 4/6/1 10/7/1 9/5/1
f 5/8/1 11/9/1 10/7/1
f 6/10/1 12/11/1 11/9/1
f 8/2/1 14/12/1 13/13/1
f 9/5/1 15/14/1 14/12/1
f 10/7/1 16/15/1 15/14/1
f 11/9/1 17/16/1 16/15/1
f 12/11/1 18/17/1 17/16/1
f 14/12/1 20/18/1 19/19/1
f 15/14/1 21/20/1 20/18/1
f 16/15/1 22/21/1 21/20/1
f 17/16/1 23/22/1 22/21/1
f 18/17/1 24/23/1 23/22/1
f 20/18/1 26/24/1 25/25/1
f 21/20/1 27/26/1 26/24/1
f 22/21/1 28/27/1 27/26/1
f 23/22/1 29/28/1 28/27/1
f 24/23/1 30/29/1 29/28/1
f 26/24/1 32/30/1 31/31/1
f 27/26/1 33/32/1 32/30/1
f 28/27/1 34/33/1 33/32/1
f 29/28/1 35/34/1 34/33/1
f 30/29/1 36/35/1 35/34/1
f 35/34/2 55/34/2 54/33/2
f 5/8/2 41/8/2 42/10/2
f 34/33/2 54/33/2 53/32/2
f 7/3/2 43/3/2 37/36/2
f 33/32/2 53/32/2 52/30/2
f 3/4/2 39/4/2 40/6/2
f 32/30/2 52/30/2 51/31/2
f 13/13/2 45/13/2 43/3/2
f 19/19/2 47/19/2 45/13/2
f 25/25/2 49/25/2 47/19/2
f 31/31/2 51/31/2 49/25/2
f 30/29/2 50/29/2 56/35/2
f 6/10/2 42/10/2 44/11/2
f 12/11/2 44/11/2 46/17/2
f 18/17/2 46/17/2 48/23/2
f 24/23/2 48/23/2 50/29/2
f 1/36/2 37/36/2 38/1/2
f 4/6/2 40/6/2 41/8/2
f 36/35/2 56/35/2 55/34/2
f 2/1/2 38/1/2 39/4/2
f 56/35/1 62/35/1 61/34/1
f 55/34/1 61/34/1 60/33/1
f 54/33/1 60/33/1 59/32/1
f 52/30/1 53/32/1 59/32/1
f 51/31/1 52/30/1 58/30/1
f 39/4/3 38/1/3 64/1/3
f 49/25/4 51/31/4 77/31/4
f 56/35/5 78/35/5 80/35/5
f 43/3/6 69/3/6 63/36/6
f 47/19/7 49/25/7 75/25/7
f 47/19/4 73/19/4 71/13/4
f 45/13/8 71/13/8 69/3/8
f 50/29/9 76/29/9 78/35/9
f 41/8/10 67/8/10 68/10/10
f 39/4/11 65/4/11 66/6/11
f 38/1/10 37/36/10 63/36/10
f 48/23/12 74/23/12 76/29/12
f 46/17/13 72/17/13 74/23/13
f 46/17/14 44/11/14 70/11/14
f 51/31/15 57/31/15 79/31/15
f 44/11/9 42/10/9 68/10/9
f 40/6/16 66/6/16 67/8/16
f 1/36/1 2/1/1 7/3/1
f 2/1/1 3/4/1 8/2/1
f 3/4/1 4/6/1 9/5/1
f 4/6/1 5/8/1 10/7/1
f 5/8/1 6/10/1 11/9/1
f 7/3/1 8/2/1 13/13/1
f 8/2/1 9/5/1 14/12/1
f 9/5/1 10/7/1 15/14/1
f 10/7/1 11/9/1 16/15/1
f 11/9/1 12/11/1 17/16/1
f 13/13/1 14/12/1 19/19/1
f 14/12/1 15/14/1 20/18/1
f 15/14/1 16/15/1 21/20/1
f 16/15/1 17/16/1 22/21/1
f 17/16/1 18/17/1 23/22/1
f 19/19/1 20/18/1 25/25/1
f 20/18/1 21/20/1 26/24/1
f 21/20/1 22/21/1 27/26/1
f 22/21/1 23/22/1 28/27/1
f 23/22/1 24/23/1 29/28/1
f 25/25/1 26/24/1 31/31/1
f 26/24/1 27/26/1 32/30/1
f 27/26/1 28/27/1 33/32/1
f 28/27/1 29/28/1 34/33/1
f 29/28/1 30/29/1 35/34/1
f 34/33/2 35/34/2 54/33/2
f 6/10/2 5/8/2 42/10/2
f 33/32/2 34/33/2 53/32/2
f 1/36/2 7/3/2 37/36/2
f 32/30/2 33/32/2 52/30/2
f 4/6/2 3/4/2 40/6/2
f 31/31/2 32/30/2 51/31/2
f 7/3/2 13/13/2 43/3/2
f 13/13/2 19/19/2 45/13/2
f 19/19/2 25/25/2 47/19/2
f 25/25/2 31/31/2 49/25/2
f 36/35/2 30/29/2 56/35/2
f 12/11/2 6/10/2 44/11/2
f 18/17/2 12/11/2 46/17/2
f 24/23/2 18/17/2 48/23/2
f 30/29/2 24/23/2 50/29/2
f 2/1/2 1/36/2 38/1/2
f 5/8/2 4/6/2 41/8/2
f 35/34/2 36/35/2 55/34/2
f 3/4/2 2/1/2 39/4/2
f 55/34/1 56/35/1 61/34/1
f 54/33/1 55/34/1 60/33/1
f 53/32/1 54/33/1 59/32/1
f 58/30/1 52/30/1 59/32/1
f 57/31/1 51/31/1 58/30/1
f 65/4/17 39/4/17 64/1/17
f 75/25/18 49/25/18 77/31/18
f 62/35/19 56/35/19 80/35/19
f 37/36/4 43/3/4 63/36/4
f 73/19/20 47/19/20 75/25/20
f 45/13/4 47/19/4 71/13/4
f 43/3/21 45/13/21 69/3/21
f 56/35/9 50/29/9 78/35/9
f 42/10/10 41/8/10 68/10/10
f 40/6/22 39/4/22 66/6/22
f 64/1/23 38/1/23 63/36/23
f 50/29/9 48/23/9 76/29/9
f 48/23/24 46/17/24 74/23/24
f 72/17/25 46/17/25 70/11/25
f 77/31/26 51/31/26 79/31/26
f 70/11/27 44/11/27 68/10/27
f 41/8/10 40/6/10 67/8/10
