# Blender v2.72 (sub 0) OBJ File: 'onescreen_proto.blend'
# www.blender.org
o Grid_Grid.001
v -2.500000 0.000000 2.500000
v -1.500000 0.000000 2.500000
v -0.500000 0.000000 2.500000
v 0.500000 0.000000 2.500000
v 1.500000 0.000000 2.500000
v 2.500000 0.000000 2.500000
v -2.500000 0.000000 1.500000
v -1.500000 0.000000 1.500000
v -0.500000 0.000000 1.500000
v 0.500000 0.000000 1.500000
v 1.500000 0.000000 1.500000
v 2.500000 0.000000 1.500000
v -2.500000 0.000000 0.500000
v -1.500000 0.000000 0.500000
v -0.500000 0.000000 0.500000
v 0.500000 0.000000 0.500000
v 1.500000 0.000000 0.500000
v 2.500000 0.000000 0.500000
v -2.500000 0.000000 -0.500000
v -1.500000 0.000000 -0.500000
v -0.500000 0.000000 -0.500000
v 0.500000 0.000000 -0.500000
v 1.500000 0.000000 -0.500000
v 2.500000 0.000000 -0.500000
v -2.500000 0.000000 -1.500000
v -1.500000 0.000000 -1.500000
v -0.500000 0.000000 -1.500000
v 0.500000 0.000000 -1.500000
v 1.500000 0.000000 -1.500000
v 2.500000 0.000000 -1.500000
v -2.500000 0.000000 -2.500000
v -1.500000 0.000000 -2.500000
v -0.500000 0.000000 -2.500000
v 0.500000 0.000000 -2.500000
v 1.500000 0.000000 -2.500000
v 2.500000 0.000000 -2.500000
vt 0.200000 0.000000
vt 0.200000 0.200000
vt 0.000000 0.200000
vt 0.400000 0.000000
vt 0.400000 0.200000
vt 0.600000 0.000000
vt 0.600000 0.200000
vt 0.800000 0.000000
vt 0.800000 0.200000
vt 1.000000 0.000000
vt 1.000000 0.200000
vt 0.200000 0.400000
vt 0.000000 0.400000
vt 0.400000 0.400000
vt 0.600000 0.400000
vt 0.800000 0.400000
vt 1.000000 0.400000
vt 0.200000 0.600000
vt 0.000000 0.600000
vt 0.400000 0.600000
vt 0.600000 0.600000
vt 0.800000 0.600000
vt 1.000000 0.600000
vt 0.200000 0.800000
vt 0.000000 0.800000
vt 0.400000 0.800000
vt 0.600000 0.800000
vt 0.800000 0.800000
vt 1.000000 0.800000
vt 0.200000 1.000000
vt 0.000000 1.000000
vt 0.400000 1.000000
vt 0.600000 1.000000
vt 0.800000 1.000000
vt 1.000000 1.000000
vt 0.000000 0.000000
vn 0.000000 1.000000 0.000000
s off
f 2/1/1 8/2/1 7/3/1
f 3/4/1 9/5/1 8/2/1
f 4/6/1 10/7/1 9/5/1
f 5/8/1 11/9/1 10/7/1
f 6/10/1 12/11/1 11/9/1
f 8/2/1 14/12/1 13/13/1
f 9/5/1 15/14/1 14/12/1
f 10/7/1 16/15/1 15/14/1
f 11/9/1 17/16/1 16/15/1
f 12/11/1 18/17/1 17/16/1
f 14/12/1 20/18/1 19/19/1
f 15/14/1 21/20/1 20/18/1
f 16/15/1 22/21/1 21/20/1
f 17/16/1 23/22/1 22/21/1
f 18/17/1 24/23/1 23/22/1
f 20/18/1 26/24/1 25/25/1
f 21/20/1 27/26/1 26/24/1
f 22/21/1 28/27/1 27/26/1
f 23/22/1 29/28/1 28/27/1
f 24/23/1 30/29/1 29/28/1
f 26/24/1 32/30/1 31/31/1
f 27/26/1 33/32/1 32/30/1
f 28/27/1 34/33/1 33/32/1
f 29/28/1 35/34/1 34/33/1
f 30/29/1 36/35/1 35/34/1
f 1/36/1 2/1/1 7/3/1
f 2/1/1 3/4/1 8/2/1
f 3/4/1 4/6/1 9/5/1
f 4/6/1 5/8/1 10/7/1
f 5/8/1 6/10/1 11/9/1
f 7/3/1 8/2/1 13/13/1
f 8/2/1 9/5/1 14/12/1
f 9/5/1 10/7/1 15/14/1
f 10/7/1 11/9/1 16/15/1
f 11/9/1 12/11/1 17/16/1
f 13/13/1 14/12/1 19/19/1
f 14/12/1 15/14/1 20/18/1
f 15/14/1 16/15/1 21/20/1
f 16/15/1 17/16/1 22/21/1
f 17/16/1 18/17/1 23/22/1
f 19/19/1 20/18/1 25/25/1
f 20/18/1 21/20/1 26/24/1
f 21/20/1 22/21/1 27/26/1
f 22/21/1 23/22/1 28/27/1
f 23/22/1 24/23/1 29/28/1
f 25/25/1 26/24/1 31/31/1
f 26/24/1 27/26/1 32/30/1
f 27/26/1 28/27/1 33/32/1
f 28/27/1 29/28/1 34/33/1
f 29/28/1 30/29/1 35/34/1
