# Blender v2.78 (sub 0) OBJ File: 'blergh.blend'
# www.blender.org
o Grid
v -10.000000 0.000000 10.000000
v -7.777778 0.000000 10.000000
v -5.555555 0.000000 10.000000
v -3.333333 0.000000 10.000000
v -1.111111 0.000000 10.000000
v 1.111112 0.000000 10.000000
v 3.333334 0.000000 10.000000
v 5.555555 0.000000 10.000000
v 7.777778 0.000000 10.000000
v 10.000000 0.000000 10.000000
v -10.000000 0.000000 7.777778
v -7.777778 0.000000 7.777778
v -5.555555 0.000000 7.777778
v -3.333333 0.000000 7.777778
v -1.111111 0.000000 7.777778
v 1.111112 0.000000 7.777778
v 3.333334 0.000000 7.777778
v 5.555555 0.000000 7.777778
v 7.777778 0.000000 7.777778
v 10.000000 0.000000 7.777778
v -10.000000 0.000000 5.555555
v -7.777778 0.000000 5.555555
v -5.555555 0.000000 5.555555
v -3.333333 0.000000 5.555555
v -1.111111 0.000000 5.555555
v 1.111112 0.000000 5.555555
v 3.333334 0.000000 5.555555
v 5.555555 0.000000 5.555555
v 7.777778 0.000000 5.555555
v 10.000000 0.000000 5.555555
v -10.000000 0.000000 3.333333
v -7.777778 0.000000 3.333333
v -5.555555 0.000000 3.333333
v -3.333333 0.000000 3.333333
v -1.111111 0.000000 3.333333
v 1.111112 0.000000 3.333333
v 3.333334 0.000000 3.333333
v 5.555555 0.000000 3.333333
v 7.777778 0.000000 3.333333
v 10.000000 0.000000 3.333333
v -10.000000 0.000000 1.111111
v -7.777778 0.000000 1.111111
v -5.555555 0.000000 1.111111
v -3.333333 0.000000 1.111111
v -1.111111 0.000000 1.111111
v 1.111112 0.000000 1.111111
v 3.333334 0.000000 1.111111
v 5.555555 0.000000 1.111111
v 7.777778 0.000000 1.111111
v 10.000000 0.000000 1.111111
v -10.000000 0.000000 -1.111112
v -7.777778 0.000000 -1.111112
v -5.555555 0.000000 -1.111112
v -3.333333 0.000000 -1.111112
v -1.111111 0.000000 -1.111112
v 1.111112 0.000000 -1.111112
v 3.333334 0.000000 -1.111112
v 5.555555 0.000000 -1.111112
v 7.777778 0.000000 -1.111112
v 10.000000 0.000000 -1.111112
v -10.000000 0.000000 -3.333334
v -7.777778 0.000000 -3.333334
v -5.555555 0.000000 -3.333334
v -3.333333 0.000000 -3.333334
v -1.111111 0.000000 -3.333334
v 1.111112 0.000000 -3.333334
v 3.333334 0.000000 -3.333334
v 5.555555 0.000000 -3.333334
v 7.777778 0.000000 -3.333334
v 10.000000 0.000000 -3.333334
v -10.000000 0.000000 -5.555555
v -7.777778 0.000000 -5.555555
v -5.555555 0.000000 -5.555555
v -3.333333 0.000000 -5.555555
v -1.111111 0.000000 -5.555555
v 1.111112 0.000000 -5.555555
v 3.333334 0.000000 -5.555555
v 5.555555 0.000000 -5.555555
v 7.777778 0.000000 -5.555555
v 10.000000 0.000000 -5.555555
v -10.000000 0.000000 -7.777778
v -7.777778 0.000000 -7.777778
v -5.555555 0.000000 -7.777778
v -3.333333 0.000000 -7.777778
v -1.111111 0.000000 -7.777778
v 1.111112 0.000000 -7.777778
v 3.333334 0.000000 -7.777778
v 5.555555 0.000000 -7.777778
v 7.777778 0.000000 -7.777778
v 10.000000 0.000000 -7.777778
v -10.000000 0.000000 -10.000000
v -7.777778 0.000000 -10.000000
v -5.555555 0.000000 -10.000000
v -3.333333 0.000000 -10.000000
v -1.111111 0.000000 -10.000000
v 1.111112 0.000000 -10.000000
v 3.333334 0.000000 -10.000000
v 5.555555 0.000000 -10.000000
v 7.777778 0.000000 -10.000000
v 10.000000 0.000000 -10.000000
v -10.000000 1.835460 7.777778
v -10.000000 1.835460 10.000000
v -7.777778 1.835460 10.000000
v -7.777778 1.835460 7.777778
v -5.555555 1.835460 10.000000
v -5.555555 1.835460 7.777778
v -3.333333 1.835460 10.000000
v -3.333333 1.835460 7.777778
v -1.111111 1.835460 10.000000
v -1.111111 1.835460 7.777778
v 1.111112 1.835460 10.000000
v 1.111112 1.835460 7.777778
v 3.333334 1.835460 10.000000
v 3.333334 1.835460 7.777778
v 5.555555 1.835460 10.000000
v 5.555555 1.835460 7.777778
v 7.777778 1.835460 10.000000
v 7.777778 1.835460 7.777778
v 10.000000 1.835460 10.000000
v 10.000000 1.835460 7.777778
v -10.000000 1.835460 5.555555
v -7.777778 1.835460 5.555555
v 7.777778 1.835460 5.555555
v 10.000000 1.835460 5.555555
v -10.000000 1.835460 3.333333
v -7.777778 1.835460 3.333333
v 7.777778 1.835460 3.333333
v 10.000000 1.835460 3.333333
v -10.000000 1.835460 1.111111
v -7.777778 1.835460 1.111111
v 7.777778 1.835460 1.111111
v 10.000000 1.835460 1.111111
v -10.000000 1.835460 -1.111112
v -7.777778 1.835460 -1.111112
v 7.777778 1.835460 -1.111112
v 10.000000 1.835460 -1.111112
v -10.000000 1.835460 -3.333334
v -7.777778 1.835460 -3.333334
v 7.777778 1.835460 -3.333334
v 10.000000 1.835460 -3.333334
v -10.000000 1.835460 -5.555555
v -7.777778 1.835460 -5.555555
v 7.777778 1.835460 -5.555555
v 10.000000 1.835460 -5.555555
v -10.000000 1.835460 -7.777778
v -7.777778 1.835460 -7.777778
v -5.555555 1.835460 -7.777778
v -3.333333 1.835460 -7.777778
v -1.111111 1.835460 -7.777778
v 1.111112 1.835460 -7.777778
v 3.333334 1.835460 -7.777778
v 5.555555 1.835460 -7.777778
v 7.777778 1.835460 -7.777778
v 10.000000 1.835460 -7.777778
v -10.000000 1.835460 -10.000000
v -7.777778 1.835460 -10.000000
v -5.555555 1.835460 -10.000000
v -3.333333 1.835460 -10.000000
v -1.111111 1.835460 -10.000000
v 1.111112 1.835460 -10.000000
v 3.333334 1.835460 -10.000000
v 5.555555 1.835460 -10.000000
v 7.777778 1.835460 -10.000000
v 10.000000 1.835460 -10.000000
v 5.555555 -0.594783 -3.333334
v 3.333334 -0.594783 -3.333334
v 3.333334 -0.594783 -5.555555
v 5.555555 -0.594783 -5.555555
v 0.000000 -3.142569 0.000000
v 2.273986 -1.405418 1.652128
v -0.868568 -1.405419 2.673224
v -2.810796 -1.405406 0.000000
v -0.868568 -1.405419 -2.673224
v 2.273986 -1.405418 -1.652128
v 0.868568 1.405419 2.673224
v -2.273986 1.405418 1.652128
v -2.273986 1.405418 -1.652128
v 0.868568 1.405419 -2.673224
v 2.810796 1.405406 0.000000
v 0.000000 3.142569 0.000000
v -0.510528 -2.673240 1.571270
v 1.336606 -2.673239 0.971090
v 0.826083 -1.652167 2.542375
v 2.673219 -1.652161 0.000000
v 1.336606 -2.673239 -0.971090
v -1.652142 -2.673231 0.000000
v -2.162683 -1.652162 1.571275
v -0.510528 -2.673240 -1.571270
v -2.162683 -1.652162 -1.571275
v 0.826083 -1.652167 -2.542375
v 2.988765 -0.000000 0.971093
v 2.988765 -0.000000 -0.971093
v 0.000000 -0.000000 3.142569
v 1.847157 -0.000000 2.542391
v -2.988765 -0.000000 0.971093
v -1.847157 -0.000000 2.542391
v -1.847157 -0.000000 -2.542391
v -2.988765 -0.000000 -0.971093
v 1.847157 -0.000000 -2.542391
v 0.000000 -0.000000 -3.142569
v 2.162683 1.652162 1.571275
v -0.826083 1.652167 2.542375
v -2.673219 1.652161 0.000000
v -0.826083 1.652167 -2.542375
v 2.162683 1.652162 -1.571275
v 0.510528 2.673240 1.571270
v 1.652142 2.673231 0.000000
v -1.336606 2.673239 0.971090
v -1.336606 2.673239 -0.971090
v 0.510528 2.673240 -1.571270
vt 0.7488 0.2977
vt 0.8257 0.3595
vt 0.7603 0.3692
vt 0.2979 0.2494
vt 0.3631 0.1708
vt 0.3716 0.2380
vt 0.9875 0.7074
vt 0.9220 0.6111
vt 0.9965 0.6158
vt 0.1984 0.9583
vt 0.2970 0.9079
vt 0.2847 0.9784
vt 0.2329 0.5515
vt 0.1618 0.4734
vt 0.2289 0.4721
vt 0.7720 0.6027
vt 0.8301 0.6881
vt 0.7687 0.6771
vt 0.3413 0.0075
vt 0.2622 0.1020
vt 0.2438 0.0238
vt 0.0001 0.4746
vt 0.0794 0.5637
vt 0.0029 0.5695
vt 0.2413 0.2589
vt 0.2803 0.1841
vt 0.1217 0.9298
vt 0.2150 0.8944
vt 0.2316 0.3194
vt 0.3028 0.3188
vt 0.4502 0.2313
vt 0.3773 0.3141
vt 0.5297 0.2284
vt 0.4540 0.3096
vt 0.6075 0.2288
vt 0.5312 0.3065
vt 0.6804 0.2324
vt 0.6070 0.3048
vt 0.7355 0.2450
vt 0.6796 0.3036
vt 0.9970 0.4285
vt 0.9104 0.3456
vt 0.9866 0.3330
vt 0.1773 0.1273
vt 0.1455 0.0514
vt 0.2284 0.3935
vt 0.3049 0.3928
vt 0.3809 0.3899
vt 0.4574 0.3864
vt 0.5340 0.3832
vt 0.6100 0.3802
vt 0.6850 0.3764
vt 0.0664 0.8545
vt 0.1548 0.8804
vt 0.1900 0.2183
vt 0.3072 0.4694
vt 0.3841 0.4662
vt 0.4607 0.4629
vt 0.5373 0.4597
vt 0.6140 0.4561
vt 0.6905 0.4521
vt 0.8350 0.4415
vt 0.7680 0.4467
vt 0.0279 0.1993
vt 0.0867 0.2994
vt 0.0131 0.2898
vt 0.3110 0.5465
vt 0.3876 0.5427
vt 0.4641 0.5395
vt 0.5407 0.5363
vt 0.6183 0.5323
vt 0.6952 0.5290
vt 0.9728 0.7986
vt 0.9137 0.6978
vt 0.1101 0.1440
vt 0.0564 0.1079
vt 0.2405 0.6293
vt 0.3161 0.6223
vt 0.3912 0.6188
vt 0.4671 0.6163
vt 0.5435 0.6138
vt 0.6194 0.6080
vt 0.7721 0.5257
vt 0.6949 0.6061
vt 0.7586 0.7390
vt 0.7191 0.8143
vt 0.7008 0.7489
vt 0.1656 0.5566
vt 0.2520 0.7009
vt 0.3213 0.6953
vt 0.3938 0.6943
vt 0.4695 0.6931
vt 0.5466 0.6908
vt 0.6237 0.6836
vt 0.6802 0.6675
vt 0.6979 0.6801
vt 0.0989 0.2167
vt 0.8099 0.7797
vt 0.2652 0.7538
vt 0.3203 0.7664
vt 0.3930 0.7701
vt 0.4706 0.7706
vt 0.5496 0.7676
vt 0.6268 0.7604
vt 0.9341 0.1444
vt 0.8459 0.1184
vt 0.8790 0.0691
vt 0.0899 0.6529
vt 0.0135 0.6655
vt 0.6361 0.8276
vt 0.7857 0.1044
vt 0.8024 0.0404
vt 0.7760 0.1950
vt 0.9999 0.5229
vt 0.9208 0.4344
vt 0.5535 0.8350
vt 0.7036 0.0908
vt 0.7161 0.0201
vt 0.1702 0.3089
vt 0.8544 0.9472
vt 0.8902 0.8543
vt 0.9441 0.8905
vt 0.3516 0.0851
vt 0.4415 0.0769
vt 0.5307 0.0756
vt 0.4463 0.1636
vt 0.6184 0.0805
vt 0.5296 0.1616
vt 0.6116 0.1648
vt 0.6911 0.1749
vt 0.8658 0.1749
vt 0.8095 0.2793
vt 0.0783 0.3862
vt 0.8921 0.2580
vt 0.1630 0.3907
vt 0.0758 0.4744
vt 0.8388 0.5243
vt 0.9245 0.5232
vt 0.8374 0.6062
vt 0.1749 0.6389
vt 0.1083 0.7407
vt 0.1911 0.7193
vt 0.1348 0.8239
vt 0.2246 0.8038
vt 0.3095 0.8239
vt 0.3889 0.8339
vt 0.4706 0.8371
vt 0.3822 0.9181
vt 0.4695 0.9228
vt 0.5584 0.9215
vt 0.6479 0.9132
vt 0.7374 0.8964
vt 0.9014 0.7811
vt 0.8226 0.8710
vt 0.3749 0.9915
vt 0.4379 0.0001
vt 0.0336 0.7614
vt 0.9666 0.2374
vt 0.4675 0.9980
vt 0.5328 0.0001
vt 0.0038 0.3814
vt 0.5619 0.9980
vt 0.6581 0.9907
vt 0.6257 0.0069
vt 0.7557 0.9748
vt 0.6810 0.6244
vt 0.6374 0.6650
vt 0.6379 0.6211
vt 0.0000 0.0000
vt 0.0000 0.0000
vt 0.0000 0.0000
vt 0.0000 0.0000
vt 0.0000 0.0000
vt 0.0000 0.0000
vt 0.0000 0.0000
vt 0.0000 0.0000
vt 0.0000 0.0000
vt 0.0000 0.0000
vt 0.0000 0.0000
vt 0.0000 0.0000
vt 0.0000 0.0000
vt 0.0000 0.0000
vt 0.0000 0.0000
vt 0.0000 0.0000
vt 0.0000 0.0000
vt 0.0000 0.0000
vt 0.0000 0.0000
vt 0.0000 0.0000
vt 0.0000 0.0000
vt 0.0000 0.0000
vt 0.0000 0.0000
vt 0.0000 0.0000
vt 0.0000 0.0000
vt 0.0000 0.0000
vt 0.0000 0.0000
vt 0.0000 0.0000
vt 0.0000 0.0000
vt 0.0000 0.0000
vt 0.0000 0.0000
vt 0.0000 0.0000
vt 0.0000 0.0000
vt 0.0000 0.0000
vt 0.0000 0.0000
vt 0.0000 0.0000
vt 0.0000 0.0000
vt 0.0000 0.0000
vt 0.0000 0.0000
vt 0.0000 0.0000
vt 0.0000 0.0000
vt 0.0000 0.0000
vn -1.0000 0.0000 0.0000
vn 0.0000 0.0000 -1.0000
vn 1.0000 0.0000 0.0000
vn 0.0000 0.0000 1.0000
vn 0.0000 1.0000 0.0000
vn 0.1024 -0.9435 0.3151
vn 0.7002 -0.6617 0.2680
vn -0.2680 -0.9435 0.1947
vn -0.2680 -0.9435 -0.1947
vn 0.1024 -0.9435 -0.3151
vn 0.9050 -0.3304 0.2680
vn 0.0247 -0.3304 0.9435
vn -0.8897 -0.3304 0.3151
vn -0.5746 -0.3304 -0.7488
vn 0.5346 -0.3304 -0.7779
vn 0.8026 -0.1256 0.5831
vn -0.3066 -0.1256 0.9435
vn -0.9921 -0.1256 0.0000
vn -0.3066 -0.1256 -0.9435
vn 0.8026 -0.1256 -0.5831
vn 0.4089 0.6617 0.6284
vn -0.4713 0.6617 0.5831
vn -0.7002 0.6617 -0.2680
vn 0.0385 0.6617 -0.7488
vn 0.7240 0.6617 -0.1947
vn 0.2680 0.9435 -0.1947
vn 0.4911 0.7947 -0.3568
vn 0.4089 0.6617 -0.6284
vn -0.1024 0.9435 -0.3151
vn -0.1876 0.7947 -0.5773
vn -0.4713 0.6617 -0.5831
vn -0.3313 0.9435 0.0000
vn -0.6071 0.7947 0.0000
vn -0.7002 0.6617 0.2680
vn -0.1024 0.9435 0.3151
vn -0.1876 0.7947 0.5773
vn 0.0385 0.6617 0.7488
vn 0.2680 0.9435 0.1947
vn 0.4911 0.7947 0.3568
vn 0.7240 0.6617 0.1947
vn 0.8897 0.3304 -0.3151
vn 0.7947 0.1876 -0.5773
vn 0.5746 0.3304 -0.7488
vn -0.0247 0.3304 -0.9435
vn -0.3035 0.1876 -0.9342
vn -0.5346 0.3304 -0.7779
vn -0.9050 0.3304 -0.2680
vn -0.9822 0.1876 0.0000
vn -0.9050 0.3304 0.2680
vn -0.5346 0.3304 0.7779
vn -0.3035 0.1876 0.9342
vn -0.0247 0.3304 0.9435
vn 0.5746 0.3304 0.7488
vn 0.7947 0.1876 0.5773
vn 0.8897 0.3304 0.3151
vn 0.3066 0.1256 -0.9435
vn 0.3035 -0.1876 -0.9342
vn 0.0247 -0.3304 -0.9435
vn -0.8026 0.1256 -0.5831
vn -0.7947 -0.1876 -0.5773
vn -0.8897 -0.3304 -0.3151
vn -0.8026 0.1256 0.5831
vn -0.7947 -0.1876 0.5773
vn -0.5746 -0.3304 0.7488
vn 0.3066 0.1256 0.9435
vn 0.3035 -0.1876 0.9342
vn 0.5346 -0.3304 0.7779
vn 0.9921 0.1256 0.0000
vn 0.9822 -0.1876 0.0000
vn 0.9050 -0.3304 -0.2680
vn 0.4713 -0.6617 -0.5831
vn 0.1876 -0.7947 -0.5773
vn -0.0385 -0.6617 -0.7488
vn -0.4089 -0.6617 -0.6284
vn -0.4911 -0.7947 -0.3568
vn -0.7240 -0.6617 -0.1947
vn -0.7240 -0.6617 0.1947
vn -0.4911 -0.7947 0.3568
vn -0.4089 -0.6617 0.6284
vn 0.7002 -0.6617 -0.2680
vn 0.6071 -0.7947 0.0000
vn 0.3313 -0.9435 0.0000
vn -0.0385 -0.6617 0.7488
vn 0.1876 -0.7947 0.5773
vn 0.4713 -0.6617 0.5831
s off
f 29/1/1 127/2/1 39/3/1
f 13/4/2 108/5/2 14/6/2
f 80/7/3 140/8/3 70/9/3
f 92/10/2 157/11/2 93/12/2
f 52/13/3 130/14/3 42/15/3
f 69/16/1 143/17/1 79/18/1
f 4/19/4 105/20/4 3/21/4
f 41/22/1 133/23/1 51/24/1
f 12/25/2 106/26/2 13/4/2
f 91/27/2 156/28/2 92/10/2
f 13/4/5 22/29/5 12/25/5
f 14/6/5 23/30/5 13/4/5
f 15/31/5 24/32/5 14/6/5
f 16/33/5 25/34/5 15/31/5
f 17/35/5 26/36/5 16/33/5
f 18/37/5 27/38/5 17/35/5
f 19/39/5 28/40/5 18/37/5
f 50/41/3 128/42/3 40/43/3
f 3/21/4 103/44/4 2/45/4
f 23/30/5 32/46/5 22/29/5
f 24/32/5 33/47/5 23/30/5
f 25/34/5 34/48/5 24/32/5
f 26/36/5 35/49/5 25/34/5
f 27/38/5 36/50/5 26/36/5
f 28/40/5 37/51/5 27/38/5
f 29/1/5 38/52/5 28/40/5
f 81/53/1 155/54/1 91/27/1
f 22/29/3 104/55/3 12/25/3
f 33/47/5 42/15/5 32/46/5
f 34/48/5 43/56/5 33/47/5
f 35/49/5 44/57/5 34/48/5
f 36/50/5 45/58/5 35/49/5
f 37/51/5 46/59/5 36/50/5
f 38/52/5 47/60/5 37/51/5
f 39/3/5 48/61/5 38/52/5
f 39/3/1 131/62/1 49/63/1
f 11/64/1 121/65/1 21/66/1
f 43/56/5 52/13/5 42/15/5
f 44/57/5 53/67/5 43/56/5
f 45/58/5 54/68/5 44/57/5
f 46/59/5 55/69/5 45/58/5
f 47/60/5 56/70/5 46/59/5
f 48/61/5 57/71/5 47/60/5
f 49/63/5 58/72/5 48/61/5
f 90/73/3 144/74/3 80/7/3
f 2/45/4 102/75/4 1/76/4
f 53/67/5 62/77/5 52/13/5
f 54/68/5 63/78/5 53/67/5
f 55/69/5 64/79/5 54/68/5
f 56/70/5 65/80/5 55/69/5
f 57/71/5 66/81/5 56/70/5
f 58/72/5 67/82/5 57/71/5
f 59/83/5 68/84/5 58/72/5
f 89/85/4 152/86/4 88/87/4
f 62/77/3 134/88/3 52/13/3
f 63/78/5 72/89/5 62/77/5
f 64/79/5 73/90/5 63/78/5
f 65/80/5 74/91/5 64/79/5
f 66/81/5 75/92/5 65/80/5
f 67/82/5 76/93/5 66/81/5
f 77/94/4 168/95/4 78/96/4
f 69/16/5 78/96/5 68/84/5
f 1/76/1 101/97/1 11/64/1
f 79/18/1 153/98/1 89/85/1
f 73/90/5 82/99/5 72/89/5
f 74/91/5 83/100/5 73/90/5
f 75/92/5 84/101/5 74/91/5
f 76/93/5 85/102/5 75/92/5
f 77/94/5 86/103/5 76/93/5
f 78/96/5 87/104/5 77/94/5
f 79/18/5 88/87/5 78/96/5
f 20/105/3 119/106/3 10/107/3
f 51/24/1 137/108/1 61/109/1
f 88/87/4 151/110/4 87/104/4
f 10/107/4 117/111/4 9/112/4
f 18/37/2 118/113/2 19/39/2
f 60/114/3 132/115/3 50/41/3
f 87/104/4 150/116/4 86/103/4
f 9/112/4 115/117/4 8/118/4
f 32/46/3 122/119/3 22/29/3
f 99/120/2 164/121/2 100/122/2
f 103/44/5 101/97/5 102/75/5
f 105/20/5 104/55/5 103/44/5
f 107/123/5 106/26/5 105/20/5
f 109/124/5 108/5/5 107/123/5
f 111/125/5 110/126/5 109/124/5
f 113/127/5 112/128/5 111/125/5
f 115/117/5 114/129/5 113/127/5
f 117/111/5 116/130/5 115/117/5
f 119/106/5 118/113/5 117/111/5
f 104/55/5 121/65/5 101/97/5
f 120/131/5 123/132/5 118/113/5
f 122/119/5 125/133/5 121/65/5
f 124/134/5 127/2/5 123/132/5
f 126/135/5 129/136/5 125/133/5
f 128/42/5 131/62/5 127/2/5
f 130/14/5 133/23/5 129/136/5
f 132/115/5 135/137/5 131/62/5
f 134/88/5 137/108/5 133/23/5
f 136/138/5 139/139/5 135/137/5
f 138/140/5 141/141/5 137/108/5
f 140/8/5 143/17/5 139/139/5
f 142/142/5 145/143/5 141/141/5
f 144/74/5 153/98/5 143/17/5
f 146/144/5 155/54/5 145/143/5
f 147/145/5 156/28/5 146/144/5
f 148/146/5 157/11/5 147/145/5
f 149/147/5 158/148/5 148/146/5
f 150/116/5 159/149/5 149/147/5
f 151/110/5 160/150/5 150/116/5
f 152/86/5 161/151/5 151/110/5
f 153/98/5 162/152/5 152/86/5
f 154/153/5 163/154/5 153/98/5
f 93/12/2 158/148/2 94/155/2
f 5/156/4 107/123/4 4/19/4
f 71/157/1 145/143/1 81/53/1
f 40/43/3 124/134/3 30/158/3
f 94/155/2 159/149/2 95/159/2
f 14/6/2 110/126/2 15/31/2
f 82/99/3 142/142/3 72/89/3
f 6/160/4 109/124/4 5/156/4
f 31/161/1 129/136/1 41/22/1
f 95/159/2 160/150/2 96/162/2
f 59/83/1 139/139/1 69/16/1
f 42/15/3 126/135/3 32/46/3
f 15/31/2 112/128/2 16/33/2
f 83/100/4 146/144/4 82/99/4
f 96/162/2 161/151/2 97/163/2
f 7/164/4 111/125/4 6/160/4
f 70/9/3 136/138/3 60/114/3
f 19/39/1 123/132/1 29/1/1
f 84/101/4 147/145/4 83/100/4
f 97/163/2 162/152/2 98/165/2
f 16/33/2 114/129/2 17/35/2
f 61/109/1 141/141/1 71/157/1
f 30/158/3 120/131/3 20/105/3
f 8/118/4 113/127/4 7/164/4
f 85/102/4 148/146/4 84/101/4
f 72/89/3 138/140/3 62/77/3
f 98/165/2 163/154/2 99/120/2
f 100/122/3 154/153/3 90/73/3
f 21/66/1 125/133/1 31/161/1
f 17/35/2 116/130/2 18/37/2
f 86/103/4 149/147/4 85/102/4
f 49/63/1 135/137/1 59/83/1
f 165/166/5 167/167/5 166/168/5
f 68/84/2 166/168/2 67/82/2
f 78/96/1 165/166/1 68/84/1
f 67/82/3 167/167/3 77/94/3
f 169/169/6 182/170/6 181/171/6
f 170/172/7 182/170/7 184/173/7
f 169/169/8 181/171/8 186/174/8
f 169/169/9 186/174/9 188/175/9
f 169/169/10 188/175/10 185/176/10
f 170/172/11 184/173/11 191/177/11
f 171/178/12 183/179/12 193/180/12
f 172/181/13 187/182/13 195/183/13
f 173/184/14 189/185/14 197/186/14
f 174/187/15 190/188/15 199/189/15
f 170/172/16 191/177/16 194/190/16
f 171/178/17 193/180/17 196/191/17
f 172/181/18 195/183/18 198/192/18
f 173/184/19 197/186/19 200/193/19
f 174/187/20 199/189/20 192/194/20
f 175/195/21 201/196/21 206/197/21
f 176/198/22 202/199/22 208/200/22
f 177/201/23 203/202/23 209/203/23
f 178/204/24 204/205/24 210/206/24
f 179/207/25 205/208/25 207/209/25
f 207/209/26 210/206/26 180/210/26
f 207/209/27 205/208/27 210/206/27
f 205/208/28 178/204/28 210/206/28
f 210/206/29 209/203/29 180/210/29
f 210/206/30 204/205/30 209/203/30
f 204/205/31 177/201/31 209/203/31
f 209/203/32 208/200/32 180/210/32
f 209/203/33 203/202/33 208/200/33
f 203/202/34 176/198/34 208/200/34
f 208/200/35 206/197/35 180/210/35
f 208/200/36 202/199/36 206/197/36
f 202/199/37 175/195/37 206/197/37
f 206/197/38 207/209/38 180/210/38
f 206/197/39 201/196/39 207/209/39
f 201/196/40 179/207/40 207/209/40
f 192/194/41 205/208/41 179/207/41
f 192/194/42 199/189/42 205/208/42
f 199/189/43 178/204/43 205/208/43
f 200/193/44 204/205/44 178/204/44
f 200/193/45 197/186/45 204/205/45
f 197/186/46 177/201/46 204/205/46
f 198/192/47 203/202/47 177/201/47
f 198/192/48 195/183/48 203/202/48
f 195/183/49 176/198/49 203/202/49
f 196/191/50 202/199/50 176/198/50
f 196/191/51 193/180/51 202/199/51
f 193/180/52 175/195/52 202/199/52
f 194/190/53 201/196/53 175/195/53
f 194/190/54 191/177/54 201/196/54
f 191/177/55 179/207/55 201/196/55
f 199/189/56 200/193/56 178/204/56
f 199/189/57 190/188/57 200/193/57
f 190/188/58 173/184/58 200/193/58
f 197/186/59 198/192/59 177/201/59
f 197/186/60 189/185/60 198/192/60
f 189/185/61 172/181/61 198/192/61
f 195/183/62 196/191/62 176/198/62
f 195/183/63 187/182/63 196/191/63
f 187/182/64 171/178/64 196/191/64
f 193/180/65 194/190/65 175/195/65
f 193/180/66 183/179/66 194/190/66
f 183/179/67 170/172/67 194/190/67
f 191/177/68 192/194/68 179/207/68
f 191/177/69 184/173/69 192/194/69
f 184/173/70 174/187/70 192/194/70
f 185/176/71 190/188/71 174/187/71
f 185/176/72 188/175/72 190/188/72
f 188/175/73 173/184/73 190/188/73
f 188/175/74 189/185/74 173/184/74
f 188/175/75 186/174/75 189/185/75
f 186/174/76 172/181/76 189/185/76
f 186/174/77 187/182/77 172/181/77
f 186/174/78 181/171/78 187/182/78
f 181/171/79 171/178/79 187/182/79
f 184/173/80 185/176/80 174/187/80
f 184/173/81 182/170/81 185/176/81
f 182/170/82 169/169/82 185/176/82
f 181/171/83 183/179/83 171/178/83
f 181/171/84 182/170/84 183/179/84
f 182/170/85 170/172/85 183/179/85
f 29/1/1 123/132/1 127/2/1
f 13/4/2 106/26/2 108/5/2
f 80/7/3 144/74/3 140/8/3
f 92/10/2 156/28/2 157/11/2
f 52/13/3 134/88/3 130/14/3
f 69/16/1 139/139/1 143/17/1
f 4/19/4 107/123/4 105/20/4
f 41/22/1 129/136/1 133/23/1
f 12/25/2 104/55/2 106/26/2
f 91/27/2 155/54/2 156/28/2
f 13/4/5 23/30/5 22/29/5
f 14/6/5 24/32/5 23/30/5
f 15/31/5 25/34/5 24/32/5
f 16/33/5 26/36/5 25/34/5
f 17/35/5 27/38/5 26/36/5
f 18/37/5 28/40/5 27/38/5
f 19/39/5 29/1/5 28/40/5
f 50/41/3 132/115/3 128/42/3
f 3/21/4 105/20/4 103/44/4
f 23/30/5 33/47/5 32/46/5
f 24/32/5 34/48/5 33/47/5
f 25/34/5 35/49/5 34/48/5
f 26/36/5 36/50/5 35/49/5
f 27/38/5 37/51/5 36/50/5
f 28/40/5 38/52/5 37/51/5
f 29/1/5 39/3/5 38/52/5
f 81/53/1 145/143/1 155/54/1
f 22/29/3 122/119/3 104/55/3
f 33/47/5 43/56/5 42/15/5
f 34/48/5 44/57/5 43/56/5
f 35/49/5 45/58/5 44/57/5
f 36/50/5 46/59/5 45/58/5
f 37/51/5 47/60/5 46/59/5
f 38/52/5 48/61/5 47/60/5
f 39/3/5 49/63/5 48/61/5
f 39/3/1 127/2/1 131/62/1
f 11/64/1 101/97/1 121/65/1
f 43/56/5 53/67/5 52/13/5
f 44/57/5 54/68/5 53/67/5
f 45/58/5 55/69/5 54/68/5
f 46/59/5 56/70/5 55/69/5
f 47/60/5 57/71/5 56/70/5
f 48/61/5 58/72/5 57/71/5
f 49/63/5 59/83/5 58/72/5
f 90/73/3 154/153/3 144/74/3
f 2/45/4 103/44/4 102/75/4
f 53/67/5 63/78/5 62/77/5
f 54/68/5 64/79/5 63/78/5
f 55/69/5 65/80/5 64/79/5
f 56/70/5 66/81/5 65/80/5
f 57/71/5 67/82/5 66/81/5
f 58/72/5 68/84/5 67/82/5
f 59/83/5 69/16/5 68/84/5
f 89/85/4 153/98/4 152/86/4
f 62/77/3 138/140/3 134/88/3
f 63/78/5 73/90/5 72/89/5
f 64/79/5 74/91/5 73/90/5
f 65/80/5 75/92/5 74/91/5
f 66/81/5 76/93/5 75/92/5
f 67/82/5 77/94/5 76/93/5
f 77/94/4 167/167/4 168/95/4
f 69/16/5 79/18/5 78/96/5
f 1/76/1 102/75/1 101/97/1
f 79/18/1 143/17/1 153/98/1
f 73/90/5 83/100/5 82/99/5
f 74/91/5 84/101/5 83/100/5
f 75/92/5 85/102/5 84/101/5
f 76/93/5 86/103/5 85/102/5
f 77/94/5 87/104/5 86/103/5
f 78/96/5 88/87/5 87/104/5
f 79/18/5 89/85/5 88/87/5
f 20/105/3 120/131/3 119/106/3
f 51/24/1 133/23/1 137/108/1
f 88/87/4 152/86/4 151/110/4
f 10/107/4 119/106/4 117/111/4
f 18/37/2 116/130/2 118/113/2
f 60/114/3 136/138/3 132/115/3
f 87/104/4 151/110/4 150/116/4
f 9/112/4 117/111/4 115/117/4
f 32/46/3 126/135/3 122/119/3
f 99/120/2 163/154/2 164/121/2
f 103/44/5 104/55/5 101/97/5
f 105/20/5 106/26/5 104/55/5
f 107/123/5 108/5/5 106/26/5
f 109/124/5 110/126/5 108/5/5
f 111/125/5 112/128/5 110/126/5
f 113/127/5 114/129/5 112/128/5
f 115/117/5 116/130/5 114/129/5
f 117/111/5 118/113/5 116/130/5
f 119/106/5 120/131/5 118/113/5
f 104/55/5 122/119/5 121/65/5
f 120/131/5 124/134/5 123/132/5
f 122/119/5 126/135/5 125/133/5
f 124/134/5 128/42/5 127/2/5
f 126/135/5 130/14/5 129/136/5
f 128/42/5 132/115/5 131/62/5
f 130/14/5 134/88/5 133/23/5
f 132/115/5 136/138/5 135/137/5
f 134/88/5 138/140/5 137/108/5
f 136/138/5 140/8/5 139/139/5
f 138/140/5 142/142/5 141/141/5
f 140/8/5 144/74/5 143/17/5
f 142/142/5 146/144/5 145/143/5
f 144/74/5 154/153/5 153/98/5
f 146/144/5 156/28/5 155/54/5
f 147/145/5 157/11/5 156/28/5
f 148/146/5 158/148/5 157/11/5
f 149/147/5 159/149/5 158/148/5
f 150/116/5 160/150/5 159/149/5
f 151/110/5 161/151/5 160/150/5
f 152/86/5 162/152/5 161/151/5
f 153/98/5 163/154/5 162/152/5
f 154/153/5 164/121/5 163/154/5
f 93/12/2 157/11/2 158/148/2
f 5/156/4 109/124/4 107/123/4
f 71/157/1 141/141/1 145/143/1
f 40/43/3 128/42/3 124/134/3
f 94/155/2 158/148/2 159/149/2
f 14/6/2 108/5/2 110/126/2
f 82/99/3 146/144/3 142/142/3
f 6/160/4 111/125/4 109/124/4
f 31/161/1 125/133/1 129/136/1
f 95/159/2 159/149/2 160/150/2
f 59/83/1 135/137/1 139/139/1
f 42/15/3 130/14/3 126/135/3
f 15/31/2 110/126/2 112/128/2
f 83/100/4 147/145/4 146/144/4
f 96/162/2 160/150/2 161/151/2
f 7/164/4 113/127/4 111/125/4
f 70/9/3 140/8/3 136/138/3
f 19/39/1 118/113/1 123/132/1
f 84/101/4 148/146/4 147/145/4
f 97/163/2 161/151/2 162/152/2
f 16/33/2 112/128/2 114/129/2
f 61/109/1 137/108/1 141/141/1
f 30/158/3 124/134/3 120/131/3
f 8/118/4 115/117/4 113/127/4
f 85/102/4 149/147/4 148/146/4
f 72/89/3 142/142/3 138/140/3
f 98/165/2 162/152/2 163/154/2
f 100/122/3 164/121/3 154/153/3
f 21/66/1 121/65/1 125/133/1
f 17/35/2 114/129/2 116/130/2
f 86/103/4 150/116/4 149/147/4
f 49/63/1 131/62/1 135/137/1
f 165/166/5 168/95/5 167/167/5
f 68/84/2 165/166/2 166/168/2
f 78/96/1 168/95/1 165/166/1
f 67/82/3 166/168/3 167/167/3
