# Blender v2.78 (sub 0) OBJ File: 'blergh.blend'
# www.blender.org
o Cube.002_Cube.004
v 0.854150 1.173509 0.854151
v 0.854150 3.173509 0.854151
v -1.145850 1.173509 0.854151
v -1.145850 3.173509 0.854151
v 0.854151 1.173509 -1.145849
v 0.854151 3.173509 -1.145849
v -1.145849 1.173509 -1.145850
v -1.145849 3.173509 -1.145850
v -0.775890 0.898052 0.484191
v 0.484191 0.898052 0.484191
v -0.775890 0.898052 -0.775890
v 0.484191 0.898052 -0.775890
v -0.479183 1.173509 0.854150
v 0.187484 1.173509 0.854151
v 0.187484 3.567911 0.854151
v -0.479183 3.567911 0.854150
v 0.187484 1.173509 -1.145849
v -0.479183 1.173509 -1.145849
v -0.479183 3.567911 -1.145849
v 0.187484 3.567911 -1.145849
v -0.355863 0.898052 0.484191
v 0.064164 0.898052 0.484191
v 0.064164 0.898052 -0.775890
v -0.355863 0.898052 -0.775890
v 0.064164 -0.058808 0.484191
v 0.484191 -0.058808 0.484191
v -0.775890 -0.058808 -0.775890
v -0.775890 -0.058808 0.484191
v -0.355863 -0.058808 -0.775890
v 0.484191 -0.058808 -0.775890
v -0.355863 -0.058808 0.484191
v 0.064164 -0.058808 -0.775890
v 0.854150 1.704937 0.854151
v -1.145850 1.704937 0.854151
v -1.145849 1.704937 -1.145850
v 0.854151 1.704937 -1.145849
v -0.479183 1.809735 -1.559309
v 0.187484 1.809735 -1.559309
v 0.187484 1.809735 0.854151
v -0.479183 1.809735 0.854150
v -0.248426 0.982221 1.665225
v -0.043273 0.982221 1.665225
v -0.043273 1.178007 1.665225
v -0.248426 1.178007 1.665225
vt 0.1024 0.1680
vt 0.0079 0.3822
vt 0.0003 0.1526
vt 0.5816 0.7490
vt 0.3065 0.5470
vt 0.5816 0.5470
vt 0.4092 0.1697
vt 0.3074 0.3511
vt 0.3065 0.1443
vt 0.2753 0.7772
vt 0.0003 0.5752
vt 0.2753 0.5752
vt 0.4033 0.0672
vt 0.3608 0.0003
vt 0.4217 0.0008
vt 0.5821 0.5171
vt 0.8572 0.4105
vt 0.8572 0.5171
vt 0.5954 0.1319
vt 0.7687 0.0003
vt 0.7687 0.1319
vt 0.0003 0.5021
vt 0.2244 0.4387
vt 0.2753 0.5021
vt 0.3065 0.4740
vt 0.5307 0.4105
vt 0.5816 0.4740
vt 0.1044 0.0733
vt 0.0610 0.0003
vt 0.1264 0.0025
vt 0.2041 0.0733
vt 0.2510 0.0051
vt 0.3060 0.0769
vt 0.1891 0.0035
vt 0.8264 0.0003
vt 0.8264 0.1319
vt 0.7687 0.2489
vt 0.5954 0.3067
vt 0.5954 0.2489
vt 0.5821 0.7153
vt 0.8572 0.6087
vt 0.8572 0.7153
vt 0.5821 0.6087
vt 0.4993 0.0677
vt 0.5422 0.0016
vt 0.5949 0.0679
vt 0.4821 0.0012
vt 0.5943 0.3508
vt 0.4930 0.1676
vt 0.5949 0.1434
vt 0.4985 0.4100
vt 0.3014 0.3811
vt 0.2056 0.1696
vt 0.3060 0.1547
vt 0.2039 0.4379
vt 0.5954 0.1324
vt 0.7687 0.1901
vt 0.5954 0.1901
vt 0.7687 0.1906
vt 0.5954 0.2484
vt 0.5954 0.1906
vt 0.7692 0.3961
vt 0.8270 0.2645
vt 0.8270 0.3961
vt 0.4798 0.8811
vt 0.5376 0.7495
vt 0.5376 0.8811
vt 0.7692 0.2640
vt 0.8270 0.1324
vt 0.8270 0.2640
vt 0.3065 0.8811
vt 0.4798 0.7495
vt 0.7109 0.7495
vt 0.7109 0.8811
vt 0.9997 0.0003
vt 0.9997 0.1319
vt 0.1560 0.1103
vt 0.1560 0.1052
vt 0.3067 0.0672
vt 0.0014 0.0730
vt 0.1524 0.1039
vt 0.1501 0.1081
vt 0.1073 0.4382
vt 0.3065 0.7490
vt 0.4023 0.4097
vt 0.0003 0.7772
vt 0.5821 0.4105
vt 0.5954 0.0003
vt 0.0511 0.4387
vt 0.3574 0.4105
vt 0.7687 0.3067
vt 0.7687 0.1324
vt 0.7687 0.2484
vt 0.7692 0.2645
vt 0.7692 0.1324
vt 0.3065 0.7495
vn 0.0000 0.0000 1.0000
vn -1.0000 0.0000 -0.0000
vn 0.5271 0.0000 -0.8498
vn 1.0000 0.0000 0.0000
vn 0.0000 -0.8021 -0.5972
vn 0.5092 0.8607 0.0000
vn 0.5972 -0.8021 0.0000
vn -0.5972 -0.8021 -0.0000
vn 0.0000 -0.8021 0.5972
vn 0.0000 0.0000 -1.0000
vn 0.0000 -1.0000 0.0000
vn -0.5092 0.8607 0.0000
vn 0.0000 1.0000 0.0000
vn -0.5271 0.0000 -0.8498
vn -0.0000 0.2289 -0.9734
vn 0.9618 0.0000 0.2736
vn 0.0000 -0.5449 -0.8385
vn 0.0000 -0.9733 -0.2295
vn -0.9618 0.0000 0.2736
vn 0.0000 0.7889 0.6145
vn 0.1342 0.2268 -0.9646
vn -0.1342 0.2268 -0.9646
vn -0.3984 -0.4998 -0.7691
vn 0.3984 -0.4998 -0.7691
s off
f 40/1/1 4/2/1 34/3/1
f 4/4/2 35/5/2 34/6/2
f 38/7/3 6/8/3 36/9/3
f 6/10/4 33/11/4 36/12/4
f 17/13/5 12/14/5 23/15/5
f 15/16/6 6/17/6 20/18/6
f 21/19/4 29/20/4 24/21/4
f 1/22/7 12/23/7 5/24/7
f 7/25/8 9/26/8 3/27/8
f 13/28/9 9/29/9 21/30/9
f 14/31/9 10/32/9 1/33/9
f 13/28/9 22/34/9 14/31/9
f 24/21/10 27/35/10 11/36/10
f 24/37/11 22/38/11 21/39/11
f 4/40/12 19/41/12 8/42/12
f 16/43/13 20/18/13 19/41/13
f 18/44/5 11/45/5 7/46/5
f 17/13/5 24/47/5 18/44/5
f 8/48/14 37/49/14 35/50/14
f 19/51/15 38/7/15 37/49/15
f 2/52/1 39/53/1 33/54/1
f 15/55/1 40/1/1 39/53/1
f 25/56/11 30/57/11 26/58/11
f 27/59/11 31/60/11 28/61/11
f 22/62/1 26/63/1 10/64/1
f 12/65/10 32/66/10 23/67/10
f 9/68/1 31/69/1 21/70/1
f 10/71/4 30/72/4 12/65/4
f 23/67/2 25/73/2 22/74/2
f 11/36/2 28/75/2 9/76/2
f 14/31/16 43/77/16 42/78/16
f 33/54/1 14/31/1 1/33/1
f 37/49/17 17/13/17 18/44/17
f 35/50/10 18/44/10 7/46/10
f 36/12/4 1/22/4 5/24/4
f 17/13/10 36/9/10 5/79/10
f 34/6/2 7/25/2 3/27/2
f 13/28/1 34/3/1 3/80/1
f 43/77/1 41/81/1 42/78/1
f 14/31/18 41/81/18 13/28/18
f 13/28/19 44/82/19 40/1/19
f 40/1/20 43/77/20 39/53/20
f 40/1/1 16/83/1 4/2/1
f 4/4/2 8/84/2 35/5/2
f 38/7/21 20/85/21 6/8/21
f 6/10/4 2/86/4 33/11/4
f 17/13/5 5/79/5 12/14/5
f 15/16/6 2/87/6 6/17/6
f 21/19/4 31/88/4 29/20/4
f 1/22/7 10/89/7 12/23/7
f 7/25/8 11/90/8 9/26/8
f 13/28/9 3/80/9 9/29/9
f 14/31/9 22/34/9 10/32/9
f 13/28/9 21/30/9 22/34/9
f 24/21/10 29/20/10 27/35/10
f 24/37/11 23/91/11 22/38/11
f 4/40/12 16/43/12 19/41/12
f 16/43/13 15/16/13 20/18/13
f 18/44/5 24/47/5 11/45/5
f 17/13/5 23/15/5 24/47/5
f 8/48/22 19/51/22 37/49/22
f 19/51/15 20/85/15 38/7/15
f 2/52/1 15/55/1 39/53/1
f 15/55/1 16/83/1 40/1/1
f 25/56/11 32/92/11 30/57/11
f 27/59/11 29/93/11 31/60/11
f 22/62/1 25/94/1 26/63/1
f 12/65/10 30/72/10 32/66/10
f 9/68/1 28/95/1 31/69/1
f 10/71/4 26/96/4 30/72/4
f 23/67/2 32/66/2 25/73/2
f 11/36/2 27/35/2 28/75/2
f 14/31/16 39/53/16 43/77/16
f 33/54/1 39/53/1 14/31/1
f 37/49/17 38/7/17 17/13/17
f 35/50/23 37/49/23 18/44/23
f 36/12/4 33/11/4 1/22/4
f 17/13/24 38/7/24 36/9/24
f 34/6/2 35/5/2 7/25/2
f 13/28/1 40/1/1 34/3/1
f 43/77/1 44/82/1 41/81/1
f 14/31/18 42/78/18 41/81/18
f 13/28/19 41/81/19 44/82/19
f 40/1/20 44/82/20 43/77/20
