# Blender v2.78 (sub 0) OBJ File: 'blergh.blend'
# www.blender.org
o Cylinder.001
v 0.000000 -1.000000 4.000000
v 0.000000 -1.000000 -4.000000
v 0.195090 -0.980785 4.000000
v 0.195090 -0.980784 -4.000000
v 0.382683 -0.923880 4.000000
v 0.382683 -0.923879 -4.000000
v 0.555570 -0.831470 4.000000
v 0.555570 -0.831469 -4.000000
v 0.707107 -0.707107 4.000000
v 0.707107 -0.707106 -4.000000
v 0.831470 -0.555570 4.000000
v 0.831470 -0.555570 -4.000000
v 0.923880 -0.382683 4.000000
v 0.923880 -0.382683 -4.000000
v 0.980785 -0.195090 4.000000
v 0.980785 -0.195090 -4.000000
v 1.000000 0.000000 4.000000
v 1.000000 0.000000 -4.000000
v 0.980785 0.195090 4.000000
v 0.980785 0.195091 -4.000000
v 0.923880 0.382683 4.000000
v 0.923880 0.382684 -4.000000
v 0.831470 0.555570 4.000000
v 0.831470 0.555571 -4.000000
v 0.707107 0.707107 4.000000
v 0.707107 0.707107 -4.000000
v 0.555570 0.831470 4.000000
v 0.555570 0.831470 -4.000000
v 0.382683 0.923880 4.000000
v 0.382683 0.923880 -4.000000
v 0.195090 0.980785 4.000000
v 0.195090 0.980786 -4.000000
v -0.000000 1.000000 4.000000
v -0.000000 1.000001 -4.000000
v -0.195091 0.980785 4.000000
v -0.195091 0.980786 -4.000000
v -0.382684 0.923879 4.000000
v -0.382684 0.923880 -4.000000
v -0.555571 0.831470 4.000000
v -0.555571 0.831470 -4.000000
v -0.707107 0.707107 4.000000
v -0.707107 0.707107 -4.000000
v -0.831470 0.555570 4.000000
v -0.831470 0.555570 -4.000000
v -0.923880 0.382683 4.000000
v -0.923880 0.382683 -4.000000
v -0.980785 0.195089 4.000000
v -0.980785 0.195090 -4.000000
v -1.000000 -0.000001 4.000000
v -1.000000 -0.000000 -4.000000
v -0.980785 -0.195091 4.000000
v -0.980785 -0.195091 -4.000000
v -0.923879 -0.382684 4.000000
v -0.923879 -0.382684 -4.000000
v -0.831469 -0.555571 4.000000
v -0.831469 -0.555571 -4.000000
v -0.707106 -0.707108 4.000000
v -0.707106 -0.707107 -4.000000
v -0.555569 -0.831470 4.000000
v -0.555569 -0.831470 -4.000000
v -0.382682 -0.923880 4.000000
v -0.382682 -0.923880 -4.000000
v -0.195089 -0.980786 4.000000
v -0.195089 -0.980785 -4.000000
vt 0.5717 1.0036
vt 0.5095 0.4914
vt 0.5717 0.4914
vt 0.6338 1.0036
vt 0.5717 0.4914
vt 0.6338 0.4914
vt 0.6960 1.0036
vt 0.6338 0.4914
vt 0.6960 0.4914
vt 0.7581 1.0036
vt 0.6960 0.4914
vt 0.7581 0.4914
vt 0.8203 0.4914
vt 0.7581 1.0036
vt 0.7581 0.4914
vt 0.8825 1.0036
vt 0.8203 0.4914
vt 0.8825 0.4914
vt 0.9446 1.0036
vt 0.8825 0.4914
vt 0.9446 0.4914
vt 1.0068 1.0036
vt 0.9446 0.4914
vt 1.0068 0.4914
vt 1.0689 1.0036
vt 1.0068 0.4914
vt 1.0689 0.4914
vt 1.1311 1.0036
vt 1.0689 0.4914
vt 1.1311 0.4914
vt 1.1932 1.0036
vt 1.1311 0.4914
vt 1.1932 0.4914
vt 1.2554 1.0036
vt 1.1932 0.4914
vt 1.2554 0.4914
vt 1.3175 1.0036
vt 1.2554 0.4914
vt 1.3175 0.4914
vt 1.3797 1.0036
vt 1.3175 0.4914
vt 1.3797 0.4914
vt 1.4418 1.0036
vt 1.3797 0.4914
vt 1.4418 0.4914
vt 1.5040 1.0036
vt 1.4418 0.4914
vt 1.5040 0.4914
vt 1.5662 1.0036
vt 1.5040 0.4914
vt 1.5662 0.4914
vt 1.6283 1.0036
vt 1.5662 0.4914
vt 1.6283 0.4914
vt 1.6905 1.0036
vt 1.6283 0.4914
vt 1.6905 0.4914
vt 1.7526 1.0036
vt 1.6905 0.4914
vt 1.7526 0.4914
vt 1.8148 1.0036
vt 1.7526 0.4914
vt 1.8148 0.4914
vt 1.8769 0.4914
vt 1.8148 1.0036
vt 1.8148 0.4914
vt 1.9391 1.0036
vt 1.8769 0.4914
vt 1.9391 0.4914
vt 2.0012 0.4914
vt 1.9391 1.0036
vt 1.9391 0.4914
vt 2.0634 0.4914
vt 2.0012 1.0036
vt 2.0012 0.4914
vt 2.1255 1.0036
vt 2.0634 0.4914
vt 2.1255 0.4914
vt 2.1877 1.0036
vt 2.1255 0.4914
vt 2.1877 0.4914
vt 2.2499 1.0036
vt 2.1877 0.4914
vt 2.2499 0.4914
vt 2.3120 1.0036
vt 2.2499 0.4914
vt 2.3120 0.4914
vt 2.3742 1.0036
vt 2.3120 0.4914
vt 2.3742 0.4914
vt 0.1582 0.0283
vt 0.4717 0.1582
vt 0.3418 0.4717
vt 2.4363 1.0036
vt 2.3742 0.4914
vt 2.4363 0.4914
vt 2.4985 1.0036
vt 2.4363 0.4914
vt 2.4985 0.4914
vt 0.7968 0.0146
vt 0.5146 0.2032
vt 0.9854 0.2968
vt 0.5095 1.0036
vt 0.5717 1.0036
vt 0.6338 1.0036
vt 0.6960 1.0036
vt 0.8203 1.0036
vt 0.8203 1.0036
vt 0.8825 1.0036
vt 0.9446 1.0036
vt 1.0068 1.0036
vt 1.0689 1.0036
vt 1.1311 1.0036
vt 1.1932 1.0036
vt 1.2554 1.0036
vt 1.3175 1.0036
vt 1.3797 1.0036
vt 1.4418 1.0036
vt 1.5040 1.0036
vt 1.5662 1.0036
vt 1.6283 1.0036
vt 1.6905 1.0036
vt 1.7526 1.0036
vt 1.8769 1.0036
vt 1.8769 1.0036
vt 2.0012 1.0036
vt 2.0634 1.0036
vt 2.0634 1.0036
vt 2.1255 1.0036
vt 2.1877 1.0036
vt 2.2499 1.0036
vt 2.3120 1.0036
vt 0.2968 0.4854
vt 0.2500 0.4900
vt 0.2032 0.4854
vt 0.1582 0.4717
vt 0.1167 0.4496
vt 0.0803 0.4197
vt 0.0504 0.3833
vt 0.0283 0.3418
vt 0.0146 0.2968
vt 0.0100 0.2500
vt 0.0146 0.2032
vt 0.0283 0.1582
vt 0.0504 0.1167
vt 0.0803 0.0803
vt 0.1167 0.0504
vt 0.2032 0.0146
vt 0.2500 0.0100
vt 0.2968 0.0146
vt 0.3418 0.0283
vt 0.3833 0.0504
vt 0.4197 0.0803
vt 0.4496 0.1167
vt 0.4854 0.2032
vt 0.4900 0.2500
vt 0.4854 0.2968
vt 0.4717 0.3418
vt 0.4496 0.3833
vt 0.4197 0.4197
vt 0.3833 0.4496
vt 2.3742 1.0036
vt 2.4363 1.0036
vt 0.7032 0.4854
vt 0.7500 0.4900
vt 0.8833 0.4496
vt 0.7968 0.4854
vt 0.8418 0.4717
vt 0.9197 0.4197
vt 0.9496 0.3833
vt 0.9717 0.3418
vt 0.9900 0.2500
vt 0.9854 0.2032
vt 0.9717 0.1582
vt 0.9496 0.1167
vt 0.9197 0.0803
vt 0.8833 0.0504
vt 0.8418 0.0283
vt 0.7500 0.0100
vt 0.7032 0.0146
vt 0.6582 0.0283
vt 0.6167 0.0504
vt 0.5803 0.0803
vt 0.5504 0.1167
vt 0.5283 0.1582
vt 0.5100 0.2500
vt 0.5146 0.2968
vt 0.5283 0.3418
vt 0.5504 0.3833
vt 0.5803 0.4197
vt 0.6167 0.4496
vt 0.6582 0.4717
vn 0.0000 -0.7279 -0.6857
vn 0.1420 -0.7139 0.6857
vn 0.0000 -0.7279 0.6857
vn 0.1420 -0.7139 -0.6857
vn 0.2785 -0.6725 0.6857
vn 0.2785 -0.6725 -0.6857
vn 0.4044 -0.6052 0.6857
vn 0.4044 -0.6052 -0.6857
vn 0.5147 -0.5147 0.6857
vn 0.6052 -0.4044 -0.6857
vn 0.6052 -0.4044 0.6857
vn 0.6725 -0.2785 0.6857
vn 0.6725 -0.2785 -0.6857
vn 0.7139 -0.1420 0.6857
vn 0.7139 -0.1420 -0.6857
vn 0.7279 0.0000 0.6857
vn 0.7279 0.0000 -0.6857
vn 0.7139 0.1420 0.6857
vn 0.7139 0.1420 -0.6857
vn 0.6725 0.2785 0.6857
vn 0.6725 0.2785 -0.6857
vn 0.6052 0.4044 0.6857
vn 0.6052 0.4044 -0.6857
vn 0.5147 0.5147 0.6857
vn 0.5147 0.5147 -0.6857
vn 0.4044 0.6052 0.6857
vn 0.4044 0.6052 -0.6857
vn 0.2785 0.6725 0.6857
vn 0.2785 0.6725 -0.6857
vn 0.1420 0.7139 0.6857
vn 0.1420 0.7139 -0.6857
vn 0.0000 0.7279 0.6857
vn 0.0000 0.7279 -0.6857
vn -0.1420 0.7139 0.6857
vn -0.1420 0.7139 -0.6857
vn -0.2785 0.6725 0.6857
vn -0.2785 0.6725 -0.6857
vn -0.4044 0.6052 0.6857
vn -0.4044 0.6052 -0.6857
vn -0.5147 0.5147 0.6857
vn -0.5147 0.5147 -0.6857
vn -0.6052 0.4044 0.6857
vn -0.6725 0.2785 -0.6857
vn -0.6725 0.2785 0.6857
vn -0.7139 0.1420 0.6857
vn -0.7279 0.0000 -0.6857
vn -0.7279 0.0000 0.6857
vn -0.7139 -0.1420 -0.6857
vn -0.7139 -0.1420 0.6857
vn -0.6725 -0.2785 0.6857
vn -0.6725 -0.2785 -0.6857
vn -0.6052 -0.4044 0.6857
vn -0.6052 -0.4044 -0.6857
vn -0.5147 -0.5147 0.6857
vn -0.5147 -0.5147 -0.6857
vn -0.4044 -0.6052 0.6857
vn -0.4044 -0.6052 -0.6857
vn -0.2785 -0.6725 0.6857
vn -0.2785 -0.6725 -0.6857
vn -0.1420 -0.7139 0.6857
vn -0.1420 -0.7139 -0.6857
vn 0.5147 -0.5147 -0.6857
vn -0.6052 0.4044 -0.6857
vn -0.7139 0.1420 -0.6857
s 1
f 2/1/1 3/2/2 1/3/3
f 4/4/4 5/5/5 3/6/2
f 6/7/6 7/8/7 5/9/5
f 8/10/8 9/11/9 7/12/7
f 9/13/9 12/14/10 11/15/11
f 12/16/10 13/17/12 11/18/11
f 14/19/13 15/20/14 13/21/12
f 16/22/15 17/23/16 15/24/14
f 18/25/17 19/26/18 17/27/16
f 20/28/19 21/29/20 19/30/18
f 22/31/21 23/32/22 21/33/20
f 24/34/23 25/35/24 23/36/22
f 26/37/25 27/38/26 25/39/24
f 28/40/27 29/41/28 27/42/26
f 30/43/29 31/44/30 29/45/28
f 32/46/31 33/47/32 31/48/30
f 34/49/33 35/50/34 33/51/32
f 36/52/35 37/53/36 35/54/34
f 38/55/37 39/56/38 37/57/36
f 40/58/39 41/59/40 39/60/38
f 42/61/41 43/62/42 41/63/40
f 43/64/42 46/65/43 45/66/44
f 46/67/43 47/68/45 45/69/44
f 47/70/45 50/71/46 49/72/47
f 49/73/47 52/74/48 51/75/49
f 52/76/48 53/77/50 51/78/49
f 54/79/51 55/80/52 53/81/50
f 56/82/53 57/83/54 55/84/52
f 58/85/55 59/86/56 57/87/54
f 60/88/57 61/89/58 59/90/56
f 38/91/37 22/92/21 6/93/6
f 62/94/59 63/95/60 61/96/58
f 64/97/61 1/98/3 63/99/60
f 31/100/30 47/101/45 15/102/14
f 2/1/1 4/103/4 3/2/2
f 4/4/4 6/104/6 5/5/5
f 6/7/6 8/105/8 7/8/7
f 8/10/8 10/106/62 9/11/9
f 9/13/9 10/107/62 12/14/10
f 12/16/10 14/108/13 13/17/12
f 14/19/13 16/109/15 15/20/14
f 16/22/15 18/110/17 17/23/16
f 18/25/17 20/111/19 19/26/18
f 20/28/19 22/112/21 21/29/20
f 22/31/21 24/113/23 23/32/22
f 24/34/23 26/114/25 25/35/24
f 26/37/25 28/115/27 27/38/26
f 28/40/27 30/116/29 29/41/28
f 30/43/29 32/117/31 31/44/30
f 32/46/31 34/118/33 33/47/32
f 34/49/33 36/119/35 35/50/34
f 36/52/35 38/120/37 37/53/36
f 38/55/37 40/121/39 39/56/38
f 40/58/39 42/122/41 41/59/40
f 42/61/41 44/123/63 43/62/42
f 43/64/42 44/124/63 46/65/43
f 46/67/43 48/125/64 47/68/45
f 47/70/45 48/126/64 50/71/46
f 49/73/47 50/127/46 52/74/48
f 52/76/48 54/128/51 53/77/50
f 54/79/51 56/129/53 55/80/52
f 56/82/53 58/130/55 57/83/54
f 58/85/55 60/131/57 59/86/56
f 60/88/57 62/132/59 61/89/58
f 6/93/6 4/133/4 2/134/1
f 2/134/1 64/135/61 6/93/6
f 62/136/59 60/137/57 6/93/6
f 58/138/55 56/139/53 54/140/51
f 54/140/51 52/141/48 50/142/46
f 50/142/46 48/143/64 46/144/43
f 46/144/43 44/145/63 38/91/37
f 42/146/41 40/147/39 38/91/37
f 38/91/37 36/148/35 34/149/33
f 34/149/33 32/150/31 38/91/37
f 30/151/29 28/152/27 26/153/25
f 26/153/25 24/154/23 22/92/21
f 22/92/21 20/155/19 18/156/17
f 18/156/17 16/157/15 14/158/13
f 14/158/13 12/159/10 10/160/62
f 10/160/62 8/161/8 6/93/6
f 6/93/6 64/135/61 62/136/59
f 60/137/57 58/138/55 54/140/51
f 54/140/51 50/142/46 38/91/37
f 44/145/63 42/146/41 38/91/37
f 38/91/37 32/150/31 30/151/29
f 30/151/29 26/153/25 38/91/37
f 22/92/21 18/156/17 6/93/6
f 14/158/13 10/160/62 6/93/6
f 6/93/6 60/137/57 54/140/51
f 50/142/46 46/144/43 38/91/37
f 38/91/37 26/153/25 22/92/21
f 18/156/17 14/158/13 6/93/6
f 6/93/6 54/140/51 38/91/37
f 62/94/59 64/162/61 63/95/60
f 64/97/61 2/163/1 1/98/3
f 63/164/60 1/165/3 7/166/7
f 3/167/2 5/168/5 7/166/7
f 7/166/7 9/169/9 11/170/11
f 11/170/11 13/171/12 7/166/7
f 15/102/14 17/172/16 19/173/18
f 19/173/18 21/174/20 15/102/14
f 23/175/22 25/176/24 27/177/26
f 27/177/26 29/178/28 31/100/30
f 31/100/30 33/179/32 35/180/34
f 35/180/34 37/181/36 31/100/30
f 39/182/38 41/183/40 43/184/42
f 43/184/42 45/185/44 47/101/45
f 47/101/45 49/186/47 51/187/49
f 51/187/49 53/188/50 55/189/52
f 55/189/52 57/190/54 63/164/60
f 59/191/56 61/192/58 63/164/60
f 1/165/3 3/167/2 7/166/7
f 7/166/7 13/171/12 15/102/14
f 15/102/14 21/174/20 23/175/22
f 23/175/22 27/177/26 15/102/14
f 31/100/30 37/181/36 47/101/45
f 39/182/38 43/184/42 47/101/45
f 47/101/45 51/187/49 63/164/60
f 57/190/54 59/191/56 63/164/60
f 63/164/60 7/166/7 15/102/14
f 15/102/14 27/177/26 31/100/30
f 37/181/36 39/182/38 47/101/45
f 51/187/49 55/189/52 63/164/60
f 63/164/60 15/102/14 47/101/45
