# Blender v2.72 (sub 0) OBJ File: 'brick1.blend'
# www.blender.org
o Cube
v 0.672215 -0.422215 -0.250000
v 0.750000 -0.422215 -0.211108
v 0.672215 -0.500000 -0.211108
v 0.672215 -0.500000 0.211108
v 0.750000 -0.422215 0.211108
v 0.672215 -0.422215 0.250000
v -0.672215 -0.500000 0.211108
v -0.672215 -0.422215 0.250000
v -0.750000 -0.422215 0.211108
v -0.750000 -0.422215 -0.211108
v -0.672215 -0.422215 -0.250000
v -0.672215 -0.500000 -0.211108
v 0.750000 0.422215 -0.211107
v 0.672216 0.422215 -0.250000
v 0.672215 0.500000 -0.211107
v 0.672215 0.500000 0.211108
v 0.672215 0.422215 0.250000
v 0.750000 0.422215 0.211108
v -0.672215 0.500000 0.211108
v -0.750000 0.422215 0.211108
v -0.672216 0.422215 0.250000
v -0.672215 0.422215 -0.250000
v -0.750000 0.422215 -0.211108
v -0.672215 0.500000 -0.211108
v 0.628901 -0.395009 0.222304
v 0.628900 0.395010 0.222304
v -0.628901 0.395010 0.222304
v -0.628901 -0.395009 0.222304
vt 0.933786 0.772459
vt 0.933786 0.227541
vt 0.066214 0.227541
vt 0.363771 0.772459
vt 0.636229 0.772459
vt 0.636230 0.227541
vt 0.933786 0.636229
vt 0.066214 0.636229
vt 0.066214 0.363771
vt 0.983981 0.227541
vt 0.933786 0.177346
vt 0.066214 0.177346
vt 0.016019 0.227541
vt 0.983981 0.772459
vt 0.933786 0.822654
vt 0.066214 0.822654
vt 0.016019 0.772459
vt 0.066214 0.772459
vt 0.363771 0.227541
vt 0.363771 0.177346
vt 0.636229 0.177346
vt 0.016019 0.363771
vt 0.016019 0.636230
vt 0.933786 0.363770
vt 0.983981 0.363770
vt 0.983981 0.636229
vt 0.905835 0.245097
vt 0.905834 0.754903
vt 0.094165 0.754903
vt 0.094165 0.356546
vt 0.905834 0.356546
vt 0.933786 0.338673
vt 0.094165 0.245097
vt 0.066214 0.338673
vn 0.000000 0.000000 -1.000000
vn -1.000000 -0.000000 -0.000000
vn 0.000000 1.000000 0.000000
vn 1.000000 -0.000000 0.000000
vn 0.408200 -0.408200 -0.816500
vn 0.408200 -0.408200 0.816500
vn -0.408200 -0.408200 0.816500
vn -0.408200 -0.408200 -0.816500
vn 0.408200 0.408200 -0.816500
vn 0.408200 0.408200 0.816500
vn -0.408200 0.408200 0.816500
vn -0.408200 0.408200 -0.816500
vn 0.707100 -0.707100 0.000000
vn 0.000000 -0.447200 -0.894400
vn 0.447200 0.000000 -0.894400
vn -0.000000 -0.447200 0.894400
vn 0.447200 0.000000 0.894400
vn -0.707100 -0.707100 -0.000000
vn -0.447200 -0.000000 0.894400
vn -0.447200 0.000000 -0.894400
vn 0.707100 0.707100 0.000000
vn 0.000000 0.447200 -0.894400
vn -0.000000 0.447200 0.894400
vn -0.707100 0.707100 -0.000000
vn 0.000000 -1.000000 0.000000
vn -0.000000 -0.000000 1.000000
vn -0.538700 -0.000000 0.842500
vn -0.000000 -0.713400 0.700800
vn 0.538700 0.000000 0.842500
vn -0.000000 0.713400 0.700800
s off
f 14/1/1 1/2/1 11/3/1
f 20/4/2 23/5/2 10/6/2
f 15/7/3 24/8/3 19/9/3
f 2/6/4 13/5/4 18/4/4
f 1/2/5 2/10/5 3/11/5
f 4/11/6 5/10/6 6/2/6
f 7/12/7 8/3/7 9/13/7
f 10/13/8 11/3/8 12/12/8
f 13/14/9 14/1/9 15/15/9
f 16/15/10 17/1/10 18/14/10
f 19/16/11 20/17/11 21/18/11
f 22/18/12 23/17/12 24/16/12
f 5/19/13 4/20/13 3/21/13
f 12/12/14 11/3/14 1/2/14
f 14/1/15 13/14/15 2/10/15
f 8/3/16 7/12/16 4/11/16
f 18/14/17 17/1/17 6/2/17
f 9/22/18 10/23/18 12/8/18
f 21/18/19 20/17/19 9/13/19
f 23/17/20 22/18/20 11/3/20
f 16/24/21 18/25/21 13/26/21
f 22/18/22 24/16/22 15/15/22
f 16/15/23 19/16/23 21/18/23
f 24/8/24 23/23/24 20/22/24
f 3/7/25 4/24/25 7/9/25
f 25/27/26 26/28/26 27/29/26
f 26/28/27 25/27/27 6/2/27
f 27/30/28 26/31/28 17/32/28
f 8/3/29 28/33/29 27/29/29
f 25/31/30 28/30/30 8/34/30
f 22/18/1 14/1/1 11/3/1
f 9/19/2 20/4/2 10/6/2
f 16/24/3 15/7/3 19/9/3
f 5/19/4 2/6/4 18/4/4
f 2/6/13 5/19/13 3/21/13
f 3/11/14 12/12/14 1/2/14
f 1/2/15 14/1/15 2/10/15
f 6/2/16 8/3/16 4/11/16
f 5/10/17 18/14/17 6/2/17
f 7/9/18 9/22/18 12/8/18
f 8/3/19 21/18/19 9/13/19
f 10/13/20 23/17/20 11/3/20
f 15/7/21 16/24/21 13/26/21
f 14/1/22 22/18/22 15/15/22
f 17/1/23 16/15/23 21/18/23
f 19/9/24 24/8/24 20/22/24
f 12/8/25 3/7/25 7/9/25
f 28/33/26 25/27/26 27/29/26
f 17/1/27 26/28/27 6/2/27
f 21/34/28 27/30/28 17/32/28
f 21/18/29 8/3/29 27/29/29
f 6/32/30 25/31/30 8/34/30
