# Blender v2.72 (sub 0) OBJ File: ''
# www.blender.org
o Cube
v 0.952000 -0.952000 -1.000000
v 1.000000 -0.952000 -0.952000
v 0.952000 -1.000000 -0.952000
v 0.952000 -1.000000 0.952000
v 1.000000 -0.952000 0.952000
v 0.952000 -0.952000 1.000000
v -0.952000 -1.000000 0.952000
v -0.952000 -0.952000 1.000000
v -1.000000 -0.952000 0.952000
v -1.000000 -0.952000 -0.952000
v -0.952000 -0.952000 -1.000000
v -0.952000 -1.000000 -0.952000
v 1.000000 0.952000 -0.951999
v 0.952000 0.952000 -0.999999
v 0.952000 1.000000 -0.951999
v 0.951999 1.000000 0.952001
v 0.951999 0.952000 1.000001
v 0.999999 0.952000 0.952001
v -0.952000 1.000000 0.952000
v -1.000000 0.952000 0.952000
v -0.952000 0.952000 1.000000
v -0.952000 0.952000 -1.000000
v -1.000000 0.952000 -0.952000
v -0.952000 1.000000 -0.952000
vt -0.024000 -0.976000
vt -0.976000 -0.976000
vt -0.976000 -0.024000
vt -0.024000 0.976000
vt -0.976000 0.976000
vt -0.976000 0.024000
vt 0.024000 0.976000
vt 0.976000 0.976000
vt 0.976000 0.024000
vt -0.024000 0.024000
vt 0.000000 -0.976000
vt -0.024000 -1.000000
vt -0.976000 -1.000000
vt -1.000000 -0.976000
vt 1.000000 0.024000
vt 0.976000 0.000000
vt -0.000000 0.976000
vt -0.024000 1.000000
vt -0.024000 -0.000000
vt -0.000000 0.024000
vt -1.000000 0.024000
vt -0.976000 0.000000
vt -1.000000 -0.024000
vt -0.024000 -0.024000
vt 0.000000 -0.024000
vt -1.000000 0.976000
vt 0.024000 0.024000
vt 1.000000 0.976000
vt 0.024000 0.000000
vn 0.000000 0.000000 -1.000000
vn -0.000000 0.000000 1.000000
vn -1.000000 -0.000000 -0.000000
vn 0.000000 1.000000 0.000000
vn 1.000000 0.000000 0.000000
vn 0.577300 -0.577400 -0.577400
vn 0.577400 -0.577400 0.577400
vn -0.577300 -0.577300 0.577400
vn -0.577300 -0.577300 -0.577400
vn 0.577400 0.577400 -0.577400
vn 0.577300 0.577300 0.577400
vn -0.577300 0.577300 0.577400
vn -0.577400 0.577300 -0.577400
vn 0.707100 -0.707100 0.000000
vn 0.000000 -0.707100 -0.707100
vn 0.707100 0.000000 -0.707100
vn -0.000000 -0.707100 0.707100
vn 0.707100 0.000000 0.707100
vn -0.707100 -0.707100 -0.000000
vn -0.707100 0.000000 0.707100
vn -0.707100 0.000000 -0.707100
vn 0.707100 0.707100 0.000000
vn 0.000000 0.707100 -0.707100
vn -0.000000 0.707100 0.707100
vn -0.707100 0.707100 -0.000000
vn 0.000000 -1.000000 0.000000
s off
f 1/1/1 11/2/1 22/3/1
f 17/4/2 21/5/2 8/6/2
f 20/7/3 23/8/3 10/9/3
f 24/5/4 19/6/4 16/10/4
f 13/4/5 18/5/5 5/6/5
f 1/1/6 2/11/6 3/12/6
f 4/1/7 5/11/7 6/12/7
f 7/2/8 8/13/8 9/14/8
f 10/9/9 11/15/9 12/16/9
f 13/4/10 14/17/10 15/18/10
f 16/10/11 17/19/11 18/20/11
f 19/6/12 20/21/12 21/22/12
f 22/3/13 23/23/13 24/22/13
f 5/6/14 4/22/14 3/19/14
f 12/3/15 11/22/15 1/19/15
f 14/24/16 13/25/16 2/11/16
f 8/6/17 7/22/17 4/19/17
f 18/5/18 17/26/18 6/21/18
f 9/27/19 10/9/19 12/16/19
f 21/5/20 20/26/20 9/21/20
f 23/8/21 22/28/21 11/15/21
f 16/10/22 18/20/22 13/17/22
f 14/24/23 22/3/23 24/22/23
f 19/6/24 21/22/24 17/19/24
f 24/5/25 23/26/25 20/21/25
f 4/1/26 7/2/26 12/3/26
f 14/24/1 1/1/1 22/3/1
f 6/10/2 17/4/2 8/6/2
f 9/27/3 20/7/3 10/9/3
f 15/4/4 24/5/4 16/10/4
f 2/10/5 13/4/5 5/6/5
f 2/10/14 5/6/14 3/19/14
f 3/24/15 12/3/15 1/19/15
f 1/1/16 14/24/16 2/11/16
f 6/10/17 8/6/17 4/19/17
f 5/6/18 18/5/18 6/21/18
f 7/29/19 9/27/19 12/16/19
f 8/6/20 21/5/20 9/21/20
f 10/9/21 23/8/21 11/15/21
f 15/4/22 16/10/22 13/17/22
f 15/19/23 14/24/23 24/22/23
f 16/10/24 19/6/24 17/19/24
f 19/6/25 24/5/25 20/21/25
f 3/24/26 4/1/26 12/3/26
