# This file uses centimeters as units for non-parametric coordinates.

v 0.168727 0.302770 -0.018640
v 0.161505 0.298601 -0.026695
v 0.098556 0.372942 -0.018640
v 0.094386 0.365719 -0.026695
v 0.002700 0.398626 -0.018640
v 0.002700 0.390286 -0.026695
v -0.093155 0.372942 -0.018640
v -0.088986 0.365719 -0.026695
v -0.163327 0.302770 -0.018640
v -0.156104 0.298601 -0.026695
v -0.189011 0.206915 -0.018640
v -0.180671 0.206915 -0.026695
v -0.163327 0.111059 -0.018640
v -0.156104 0.115229 -0.026695
v -0.093155 0.040888 -0.018640
v -0.088986 0.048110 -0.026695
v 0.002700 0.015204 -0.018640
v 0.002700 0.023543 -0.026695
v 0.098556 0.040888 -0.018640
v 0.094386 0.048110 -0.026695
v 0.168727 0.111059 -0.018640
v 0.161505 0.115229 -0.026695
v 0.194412 0.206915 -0.018640
v 0.186072 0.206915 -0.026695
v 0.168727 0.302770 0.020166
v 0.162588 0.299226 0.027013
v 0.098556 0.372942 0.020166
v 0.095011 0.366803 0.027013
v 0.002700 0.398626 0.020166
v 0.002700 0.391537 0.027013
v -0.093155 0.372942 0.020166
v -0.089611 0.366803 0.027013
v -0.163327 0.302770 0.020166
v -0.157187 0.299226 0.027013
v -0.189011 0.206915 0.020166
v -0.181922 0.206915 0.027013
v -0.163327 0.111059 0.020166
v -0.157187 0.114604 0.027013
v -0.093155 0.040888 0.020166
v -0.089611 0.047027 0.027013
v 0.002700 0.015204 0.020166
v 0.002700 0.022292 0.027013
v 0.098556 0.040888 0.020166
v 0.095011 0.047027 0.027013
v 0.168727 0.111059 0.020166
v 0.162588 0.114604 0.027013
v 0.194412 0.206915 0.020166
v 0.187323 0.206915 0.027013
vt 0.933013 0.750000
vt 0.750000 0.933013
vt 0.750000 0.933013
vt 0.933013 0.750000
vt 0.500000 1.000000
vt 0.500000 1.000000
vt 0.250000 0.933013
vt 0.250000 0.933013
vt 0.066987 0.750000
vt 0.066987 0.750000
vt 0.000000 0.500000
vt 0.000000 0.500000
vt 0.066987 0.250000
vt 0.066987 0.250000
vt 0.250000 0.066987
vt 0.250000 0.066987
vt 0.500000 0.000000
vt 0.500000 0.000000
vt 0.750000 0.066987
vt 0.750000 0.066987
vt 0.933013 0.250000
vt 0.933013 0.250000
vt 1.000000 0.500000
vt 1.000000 0.500000
vt 0.978249 0.500000
vt 0.914176 0.260875
vt 0.739125 0.085824
vt 0.500000 0.021751
vt 0.260875 0.085824
vt 0.085824 0.260875
vt 0.021751 0.500000
vt 0.085824 0.739125
vt 0.260875 0.914176
vt 0.500000 0.978249
vt 0.739125 0.914176
vt 0.914176 0.739125
vt 0.740756 0.917001
vt 0.500000 0.981512
vt 0.259244 0.917001
vt 0.082999 0.740756
vt 0.018488 0.500000
vt 0.082999 0.259244
vt 0.259244 0.082999
vt 0.500000 0.018488
vt 0.740756 0.082999
vt 0.917001 0.259244
vt 0.981512 0.500000
vt 0.917001 0.740756
vn 0.707107 0.707107 0.000000
vn 0.707107 0.707107 0.000000
vn 0.707107 0.707107 0.000000
vn 0.707107 0.707107 0.000000
vn 0.258819 0.965926 0.000000
vn 0.258819 0.965926 0.000000
vn 0.258819 0.965926 0.000000
vn 0.258819 0.965926 0.000000
vn -0.258819 0.965926 0.000000
vn -0.258819 0.965926 0.000000
vn -0.258819 0.965926 0.000000
vn -0.258819 0.965926 0.000000
vn -0.707107 0.707107 0.000000
vn -0.707107 0.707107 0.000000
vn -0.707107 0.707107 0.000000
vn -0.707107 0.707107 0.000000
vn -0.965926 0.258819 0.000000
vn -0.965926 0.258819 0.000000
vn -0.965926 0.258819 0.000000
vn -0.965926 0.258819 0.000000
vn -0.965926 -0.258819 0.000000
vn -0.965926 -0.258819 0.000000
vn -0.965926 -0.258819 0.000000
vn -0.965926 -0.258819 0.000000
vn -0.707107 -0.707107 0.000000
vn -0.707107 -0.707107 0.000000
vn -0.707107 -0.707107 0.000000
vn -0.707107 -0.707107 0.000000
vn -0.258819 -0.965926 0.000000
vn -0.258819 -0.965926 0.000000
vn -0.258819 -0.965926 0.000000
vn -0.258819 -0.965926 0.000000
vn 0.258819 -0.965926 0.000000
vn 0.258819 -0.965926 0.000000
vn 0.258819 -0.965926 0.000000
vn 0.258819 -0.965926 0.000000
vn 0.707107 -0.707107 0.000000
vn 0.707107 -0.707107 0.000000
vn 0.707107 -0.707107 0.000000
vn 0.707107 -0.707107 0.000000
vn 0.965926 -0.258819 0.000000
vn 0.965926 -0.258819 0.000000
vn 0.965926 -0.258819 0.000000
vn 0.965926 -0.258819 0.000000
vn 0.965926 0.258819 0.000000
vn 0.965926 0.258819 0.000000
vn 0.965926 0.258819 0.000000
vn 0.965926 0.258819 0.000000
vn 0.000000 0.000000 -1.000000
vn 0.000000 0.000000 -1.000000
vn 0.000000 0.000000 -1.000000
vn 0.000000 0.000000 -1.000000
vn 0.000000 0.000000 -1.000000
vn 0.000000 0.000000 -1.000000
vn 0.000000 0.000000 -1.000000
vn 0.000000 0.000000 -1.000000
vn 0.000000 0.000000 -1.000000
vn 0.000000 0.000000 -1.000000
vn 0.000000 0.000000 -1.000000
vn 0.000000 0.000000 -1.000000
vn 0.601668 0.347373 -0.719255
vn 0.601668 0.347373 -0.719255
vn 0.694747 0.000000 -0.719255
vn 0.694747 0.000000 -0.719255
vn 0.347373 0.601669 -0.719254
vn 0.347373 0.601669 -0.719254
vn -0.000000 0.694748 -0.719253
vn -0.000000 0.694748 -0.719253
vn -0.347373 0.601669 -0.719254
vn -0.347373 0.601669 -0.719254
vn -0.601668 0.347373 -0.719255
vn -0.601668 0.347373 -0.719255
vn -0.694746 0.000000 -0.719255
vn -0.694746 0.000000 -0.719255
vn -0.601668 -0.347373 -0.719255
vn -0.601668 -0.347373 -0.719255
vn -0.347373 -0.601668 -0.719255
vn -0.347373 -0.601668 -0.719255
vn 0.000000 -0.694746 -0.719255
vn 0.000000 -0.694746 -0.719255
vn 0.347373 -0.601668 -0.719255
vn 0.347373 -0.601668 -0.719255
vn 0.601668 -0.347373 -0.719255
vn 0.601668 -0.347373 -0.719255
vn -0.000000 0.000000 1.000000
vn -0.000000 0.000000 1.000000
vn -0.000000 0.000000 1.000000
vn -0.000000 0.000000 1.000000
vn -0.000000 0.000000 1.000000
vn -0.000000 0.000000 1.000000
vn -0.000000 0.000000 1.000000
vn -0.000000 0.000000 1.000000
vn -0.000000 0.000000 1.000000
vn -0.000000 0.000000 1.000000
vn -0.000000 0.000000 1.000000
vn -0.000000 0.000000 1.000000
vn 0.601668 0.347373 0.719255
vn 0.601668 0.347373 0.719255
vn 0.347373 0.601668 0.719255
vn 0.347373 0.601668 0.719255
vn 0.694746 0.000000 0.719255
vn 0.694746 0.000000 0.719255
vn -0.000000 0.694746 0.719255
vn -0.000000 0.694746 0.719255
vn -0.347373 0.601668 0.719255
vn -0.347373 0.601668 0.719255
vn -0.601668 0.347373 0.719255
vn -0.601668 0.347373 0.719255
vn -0.694746 0.000000 0.719255
vn -0.694746 0.000000 0.719255
vn -0.601668 -0.347373 0.719255
vn -0.601668 -0.347373 0.719255
vn -0.347373 -0.601668 0.719255
vn -0.347373 -0.601668 0.719255
vn 0.000000 -0.694746 0.719255
vn 0.000000 -0.694746 0.719255
vn 0.347373 -0.601668 0.719255
vn 0.347373 -0.601668 0.719255
vn 0.601668 -0.347373 0.719255
vn 0.601668 -0.347373 0.719255
f 1/1/1 3/2/2 27/3/3 25/4/4
f 3/2/5 5/5/6 29/6/7 27/3/8
f 5/5/9 7/7/10 31/8/11 29/6/12
f 7/7/13 9/9/14 33/10/15 31/8/16
f 9/9/17 11/11/18 35/12/19 33/10/20
f 11/11/21 13/13/22 37/14/23 35/12/24
f 13/13/25 15/15/26 39/16/27 37/14/28
f 15/15/29 17/17/30 41/18/31 39/16/32
f 17/17/33 19/19/34 43/20/35 41/18/36
f 19/19/37 21/21/38 45/22/39 43/20/40
f 21/21/41 23/23/42 47/24/43 45/22/44
f 23/23/45 1/1/46 25/4/47 47/24/48
f 24/25/49 22/26/50 20/27/51 18/28/52 16/29/53 14/30/54 12/31/55 10/32/56 8/33/57 6/34/58 4/35/59 2/36/60
f 2/36/61 1/1/62 23/23/63 24/25/64
f 1/1/62 2/36/61 4/35/65 3/2/66
f 3/2/66 4/35/65 6/34/67 5/5/68
f 5/5/68 6/34/67 8/33/69 7/7/70
f 7/7/70 8/33/69 10/32/71 9/9/72
f 9/9/72 10/32/71 12/31/73 11/11/74
f 11/11/74 12/31/73 14/30/75 13/13/76
f 13/13/76 14/30/75 16/29/77 15/15/78
f 15/15/78 16/29/77 18/28/79 17/17/80
f 17/17/80 18/28/79 20/27/81 19/19/82
f 19/19/82 20/27/81 22/26/83 21/21/84
f 21/21/84 22/26/83 24/25/64 23/23/63
f 28/37/85 30/38/86 32/39/87 34/40/88 36/41/89 38/42/90 40/43/91 42/44/92 44/45/93 46/46/94 48/47/95 26/48/96
f 26/48/97 25/4/98 27/3/99 28/37/100
f 25/4/98 26/48/97 48/47/101 47/24/102
f 28/37/100 27/3/99 29/6/103 30/38/104
f 30/38/104 29/6/103 31/8/105 32/39/106
f 32/39/106 31/8/105 33/10/107 34/40/108
f 34/40/108 33/10/107 35/12/109 36/41/110
f 36/41/110 35/12/109 37/14/111 38/42/112
f 38/42/112 37/14/111 39/16/113 40/43/114
f 40/43/114 39/16/113 41/18/115 42/44/116
f 42/44/116 41/18/115 43/20/117 44/45/118
f 44/45/118 43/20/117 45/22/119 46/46/120
f 46/46/120 45/22/119 47/24/102 48/47/101
