# This file uses centimeters as units for non-parametric coordinates.

v 0.099990 0.099990 0.000000
v 0.049995 0.099990 -0.013396
v 0.013396 0.099990 -0.049995
v 0.000000 0.099990 -0.099990
v 0.013396 0.049995 -0.099990
v 0.049995 0.013396 -0.099990
v 0.099990 -0.000000 -0.099990
v 0.099990 0.013396 -0.049995
v 0.099990 0.049995 -0.013396
v 1.000000 0.099990 -0.099990
v 0.986604 0.099990 -0.049995
v 0.950005 0.099990 -0.013396
v 0.900010 0.099990 0.000000
v 0.900010 0.049995 -0.013396
v 0.900010 0.013396 -0.049995
v 0.900010 -0.000000 -0.099990
v 0.950005 0.013396 -0.099990
v 0.986604 0.049995 -0.099990
v 0.000000 0.099990 -1.000000
v 0.013396 0.049995 -1.000000
v 0.049995 0.013396 -1.000000
v 0.099990 -0.000000 -1.000000
v 1.099990 0.099990 -1.000000
v 1.049995 0.099990 -0.986604
v 1.013396 0.099990 -0.950005
v 1.000000 0.099990 -0.900010
v 0.994184 0.055355 -0.944645
v 0.957585 0.018756 -0.981244
v 0.900010 -0.000000 -1.000000
v 1.000000 -0.000000 -1.099990
v 1.018756 0.018756 -1.042415
v 1.055355 0.055355 -1.005816
v 0.000000 0.099990 -2.000000
v 0.013396 0.049995 -2.000000
v 0.049995 0.013396 -2.000000
v 0.099990 0.000000 -2.000000
v 2.000000 0.099990 -1.099990
v 1.986604 0.099990 -1.049995
v 1.950005 0.099990 -1.013396
v 1.900010 0.099990 -1.000000
v 1.900010 0.049995 -1.013396
v 1.900010 0.013396 -1.049995
v 1.900010 -0.000000 -1.099990
v 1.950005 0.013396 -1.099990
v 1.986604 0.049995 -1.099990
v 1.900010 0.099990 -2.000000
v 1.950005 0.099990 -1.986604
v 1.986604 0.099990 -1.950005
v 2.000000 0.099990 -1.900010
v 1.986604 0.049995 -1.900010
v 1.950005 0.013396 -1.900010
v 1.900010 -0.000000 -1.900010
v 1.900010 0.013396 -1.950005
v 1.900010 0.049995 -1.986604
v 0.000000 0.099990 -2.900010
v 0.013396 0.099990 -2.950005
v 0.049995 0.099990 -2.986604
v 0.099990 0.099990 -3.000000
v 0.099990 0.049995 -2.986604
v 0.099990 0.013396 -2.950005
v 0.099990 0.000000 -2.900010
v 0.049995 0.013396 -2.900010
v 0.013396 0.049995 -2.900010
v 1.000000 0.099990 -2.099990
v 1.013396 0.099990 -2.049995
v 1.049995 0.099990 -2.013396
v 1.099990 0.099990 -2.000000
v 1.055355 0.055355 -1.994184
v 1.018756 0.018756 -1.957585
v 1.000000 -0.000000 -1.900010
v 0.900010 0.000000 -2.000000
v 0.957585 0.018756 -2.018756
v 0.994184 0.055355 -2.055355
v 0.900010 0.099990 -3.000000
v 0.950005 0.099990 -2.986604
v 0.986604 0.099990 -2.950005
v 1.000000 0.099990 -2.900010
v 0.986604 0.049995 -2.900010
v 0.950005 0.013396 -2.900010
v 0.900010 0.000000 -2.900010
v 0.900010 0.013396 -2.950005
v 0.900010 0.049995 -2.986604
v 0.099990 1.000000 -0.099990
v 0.049995 0.986604 -0.099990
v 0.013396 0.950005 -0.099990
v 0.000000 0.900010 -0.099990
v 0.013396 0.900010 -0.049995
v 0.049995 0.900010 -0.013396
v 0.099990 0.900010 0.000000
v 0.099990 0.950005 -0.013396
v 0.099990 0.986604 -0.049995
v 1.000000 0.900010 -0.099990
v 0.986604 0.950005 -0.099990
v 0.950005 0.986604 -0.099990
v 0.900010 1.000000 -0.099990
v 0.900010 0.986604 -0.049995
v 0.900010 0.950005 -0.013396
v 0.900010 0.900010 0.000000
v 0.950005 0.900010 -0.013396
v 0.986604 0.900010 -0.049995
v 1.099990 0.900010 -1.000000
v 1.055355 0.944645 -1.005816
v 1.018756 0.981244 -1.042415
v 1.000000 1.000000 -1.099990
v 0.900010 1.000000 -1.000000
v 0.957585 0.981244 -0.981244
v 0.994184 0.944645 -0.944645
v 1.000000 0.900010 -0.900010
v 1.013396 0.900010 -0.950005
v 1.049995 0.900010 -0.986604
v 0.049995 0.986604 -1.000000
v 0.013396 0.950005 -1.000000
v 0.000000 0.900010 -1.000000
v 0.099990 1.000000 -1.000000
v 1.000000 0.900010 -2.099990
v 0.994184 0.944645 -2.055355
v 0.957585 0.981244 -2.018756
v 0.900010 1.000000 -2.000000
v 1.000000 1.000000 -1.900010
v 1.018756 0.981244 -1.957585
v 1.055355 0.944645 -1.994184
v 1.099990 0.900010 -2.000000
v 1.049995 0.900010 -2.013396
v 1.013396 0.900010 -2.049995
v 0.049995 0.986604 -2.000000
v 0.013396 0.950005 -2.000000
v 0.000000 0.900010 -2.000000
v 0.099990 1.000000 -2.000000
v 2.000000 0.900010 -1.099990
v 1.986604 0.950005 -1.099990
v 1.950005 0.986604 -1.099990
v 1.900010 1.000000 -1.099990
v 1.900010 0.986604 -1.049995
v 1.900010 0.950005 -1.013396
v 1.900010 0.900010 -1.000000
v 1.950005 0.900010 -1.013396
v 1.986604 0.900010 -1.049995
v 1.900010 0.900010 -2.000000
v 1.900010 0.950005 -1.986604
v 1.900010 0.986604 -1.950005
v 1.900010 1.000000 -1.900010
v 1.950005 0.986604 -1.900010
v 1.986604 0.950005 -1.900010
v 2.000000 0.900010 -1.900010
v 1.986604 0.900010 -1.950005
v 1.950005 0.900010 -1.986604
v 0.900010 0.900010 -3.000000
v 0.900010 0.950005 -2.986604
v 0.900010 0.986604 -2.950005
v 0.900010 1.000000 -2.900010
v 0.950005 0.986604 -2.900010
v 0.986604 0.950005 -2.900010
v 1.000000 0.900010 -2.900010
v 0.986604 0.900010 -2.950005
v 0.950005 0.900010 -2.986604
v 0.000000 0.900010 -2.900010
v 0.013396 0.950005 -2.900010
v 0.049995 0.986604 -2.900010
v 0.099990 1.000000 -2.900010
v 0.099990 0.986604 -2.950005
v 0.099990 0.950005 -2.986604
v 0.099990 0.900010 -3.000000
v 0.049995 0.900010 -2.986604
v 0.013396 0.900010 -2.950005
v 0.053344 0.053344 -0.024997
v 0.024997 0.053344 -0.053344
v 0.053344 0.024998 -0.053344
v 0.975002 0.053276 -0.053344
v 0.946611 0.053310 -0.024998
v 0.946566 0.024998 -0.053344
v 1.027563 0.059111 -0.995302
v 1.004697 0.059111 -0.972437
v 0.996552 0.038415 -1.003448
v 1.975002 0.053310 -1.053389
v 1.946656 0.053276 -1.024998
v 1.946656 0.024998 -1.053434
v 1.946656 0.053276 -1.975002
v 1.975002 0.053310 -1.946611
v 1.946656 0.024998 -1.946566
v 0.024997 0.053344 -2.946656
v 0.053344 0.053344 -2.975003
v 0.053344 0.024998 -2.946656
v 1.004697 0.059111 -2.027563
v 1.027563 0.059111 -2.004698
v 0.996552 0.038415 -1.996552
v 0.946611 0.053310 -2.975002
v 0.975002 0.053276 -2.946656
v 0.946566 0.024998 -2.946656
v 0.053344 0.975002 -0.053344
v 0.024997 0.946656 -0.053344
v 0.053344 0.946656 -0.024997
v 0.975002 0.946724 -0.053344
v 0.946566 0.975002 -0.053344
v 0.946611 0.946690 -0.024998
v 1.027563 0.940889 -0.995302
v 0.996552 0.961585 -1.003448
v 1.004697 0.940889 -0.972437
v 1.004697 0.940889 -2.027563
v 0.996552 0.961585 -1.996552
v 1.027563 0.940889 -2.004698
v 1.975002 0.946690 -1.053389
v 1.946656 0.975002 -1.053434
v 1.946656 0.946724 -1.024998
v 1.946656 0.946724 -1.975002
v 1.946656 0.975002 -1.946566
v 1.975002 0.946690 -1.946611
v 0.946611 0.946690 -2.975002
v 0.946566 0.975002 -2.946656
v 0.975002 0.946724 -2.946656
v 0.024997 0.946656 -2.946656
v 0.053344 0.975002 -2.946656
v 0.053344 0.946656 -2.975003
vt 0.000000 0.250000
vt 0.125000 0.250000
vt 0.187500 0.250000
vt 0.250000 0.375000
vt 0.000000 0.500000
vt 0.125000 0.500000
vt 0.250000 0.437500
vt 0.187500 0.500000
vt 0.250000 0.375000
vt 0.125000 0.250000
vt 0.000000 0.250000
vt 0.062500 0.250000
vt 0.125000 0.500000
vt 0.250000 0.437500
vt 0.000000 0.500000
vt 0.062500 0.500000
vn -0.130527 0.991445 0.000000
vn -0.130527 0.991445 0.000000
vn 0.230319 0.958143 0.170043
vn 0.119599 0.973472 0.195060
vn 0.170043 0.958143 -0.230319
vn 0.195060 0.973472 -0.119598
vn -0.130527 -0.991445 -0.000000
vn -0.130527 -0.991445 -0.000000
vn 0.230319 -0.958143 -0.170043
vn 0.119598 -0.973472 -0.195060
vn 0.170043 -0.958143 0.230319
vn 0.195060 -0.973472 0.119598
vn -0.991445 -0.130525 0.000000
vn -0.991445 -0.130525 0.000000
vn -0.991445 0.130525 0.000000
vn -0.991445 0.130525 0.000000
vn -0.983087 -0.129498 0.129498
vn -0.983087 0.129498 0.129498
vn 0.136778 -0.982131 0.129273
vn -0.129499 -0.983087 0.129499
vn 0.129507 -0.129507 0.983085
vn 0.129507 0.129507 0.983085
vn -0.129499 0.129499 0.983087
vn -0.129499 -0.129499 0.983087
vn 0.934267 -0.286076 0.212850
vn 0.934267 0.286076 0.212850
vn 0.984855 0.114484 0.130210
vn 0.984855 -0.114484 0.130210
vn 0.130210 -0.114485 0.984855
vn 0.130210 0.114485 0.984855
vn 0.212851 0.286076 0.934267
vn 0.212850 -0.286076 0.934267
vn -0.129499 -0.983087 -0.129499
vn 0.136777 -0.982131 -0.129273
vn 0.129273 -0.982131 -0.136777
vn 0.129273 -0.982131 0.136777
vn 0.983085 -0.129507 -0.129507
vn 0.983085 0.129507 -0.129507
vn 0.983085 0.129507 0.129507
vn 0.983085 -0.129507 0.129507
vn 0.212850 -0.286076 -0.934268
vn 0.212850 0.286076 -0.934268
vn 0.130210 0.114485 -0.984855
vn 0.130210 -0.114485 -0.984855
vn -0.129498 0.129498 -0.983087
vn 0.129506 0.129506 -0.983085
vn 0.129507 -0.129506 -0.983085
vn -0.129499 -0.129498 -0.983087
vn -0.983087 0.129498 -0.129498
vn -0.983087 -0.129499 -0.129498
vn 0.984855 -0.114485 -0.130210
vn 0.984855 0.114484 -0.130210
vn 0.934267 0.286076 -0.212850
vn 0.934267 -0.286076 -0.212850
vn -0.129499 0.983087 0.129499
vn 0.136777 0.982131 0.129273
vn 0.129273 0.982131 0.136777
vn 0.129273 0.982131 -0.136777
vn 0.136777 0.982131 -0.129273
vn -0.129499 0.983087 -0.129499
vn -0.859222 -0.122871 0.496629
vn -0.859222 0.122871 0.496630
vn -0.496630 -0.122871 0.859221
vn -0.496630 0.122871 0.859222
vn -0.496630 -0.859221 0.122872
vn -0.500000 -0.866025 0.000000
vn -0.859222 -0.496630 0.122872
vn -0.707106 -0.707107 0.000000
vn -0.965926 -0.258817 0.000000
vn -0.122872 -0.496630 0.859222
vn 0.122903 -0.496714 0.859169
vn -0.122872 -0.859221 0.496630
vn 0.122945 -0.859228 0.496601
vn 0.496543 -0.122901 0.859267
vn 0.496543 0.122901 0.859268
vn 0.859194 -0.122860 0.496681
vn 0.859194 0.122860 0.496681
vn 0.866191 -0.483856 0.124888
vn 0.777892 -0.593662 0.206031
vn 0.502592 -0.855763 0.122765
vn 0.499454 -0.838197 0.219022
vn -0.500000 -0.866025 0.000000
vn -0.500000 -0.866025 0.000000
vn -0.707106 -0.707107 0.000000
vn -0.707106 -0.707107 0.000000
vn -0.965926 -0.258817 0.000000
vn -0.965926 -0.258817 0.000000
vn 0.793465 -0.345595 0.500976
vn 0.793465 0.345595 0.500976
vn 0.500978 -0.345595 0.793464
vn 0.500978 0.345594 0.793464
vn 0.206032 -0.593662 0.777892
vn 0.124887 -0.483857 0.866190
vn 0.219022 -0.838197 0.499454
vn 0.122765 -0.855763 0.502591
vn -0.500000 -0.866025 0.000000
vn -0.496630 -0.859221 -0.122872
vn -0.707106 -0.707107 0.000000
vn -0.859222 -0.496629 -0.122872
vn -0.965926 -0.258817 0.000000
vn 0.496682 -0.122859 0.859193
vn 0.496682 0.122859 0.859193
vn 0.859268 -0.122899 0.496542
vn 0.859268 0.122900 0.496542
vn 0.859169 -0.496713 0.122901
vn 0.859169 -0.496713 -0.122902
vn 0.496602 -0.859227 0.122943
vn 0.496602 -0.859227 -0.122943
vn 0.859268 -0.122900 -0.496542
vn 0.859268 0.122899 -0.496542
vn 0.496682 -0.122859 -0.859193
vn 0.496683 0.122859 -0.859193
vn 0.124887 -0.483857 -0.866190
vn 0.206032 -0.593662 -0.777892
vn 0.122765 -0.855763 -0.502591
vn 0.219022 -0.838197 -0.499454
vn -0.496631 -0.122872 -0.859221
vn -0.496628 0.122872 -0.859222
vn -0.859222 -0.122872 -0.496629
vn -0.859221 0.122872 -0.496630
vn -0.122873 -0.859221 -0.496630
vn 0.122945 -0.859228 -0.496600
vn -0.122874 -0.496629 -0.859221
vn 0.122904 -0.496713 -0.859168
vn 0.500978 -0.345594 -0.793465
vn 0.500978 0.345594 -0.793464
vn 0.793466 -0.345594 -0.500976
vn 0.793466 0.345594 -0.500975
vn 0.777893 -0.593661 -0.206031
vn 0.866190 -0.483856 -0.124888
vn 0.499456 -0.838196 -0.219022
vn 0.502592 -0.855763 -0.122766
vn 0.859193 -0.122861 -0.496681
vn 0.859193 0.122861 -0.496681
vn 0.496543 -0.122901 -0.859267
vn 0.496542 0.122901 -0.859268
vn -0.859222 0.496630 0.122871
vn -0.965926 0.258817 0.000000
vn -0.496630 0.859221 0.122871
vn -0.500000 0.866025 0.000000
vn -0.707106 0.707107 0.000000
vn -0.122872 0.859221 0.496630
vn 0.122944 0.859228 0.496601
vn -0.122872 0.496630 0.859221
vn 0.122903 0.496714 0.859168
vn 0.502591 0.855763 0.122765
vn 0.499455 0.838197 0.219022
vn 0.866191 0.483856 0.124887
vn 0.777893 0.593662 0.206031
vn 0.219023 0.838197 0.499454
vn 0.122766 0.855763 0.502592
vn 0.206033 0.593662 0.777892
vn 0.124888 0.483856 0.866191
vn -0.965926 0.258817 0.000000
vn -0.965926 0.258817 0.000000
vn -0.707106 0.707107 0.000000
vn -0.500000 0.866025 0.000000
vn -0.500000 0.866025 0.000000
vn -0.707106 0.707107 0.000000
vn 0.499456 0.838197 -0.219022
vn 0.502592 0.855763 -0.122765
vn 0.777893 0.593661 -0.206031
vn 0.866191 0.483856 -0.124888
vn 0.206032 0.593662 -0.777892
vn 0.124887 0.483856 -0.866191
vn 0.219022 0.838197 -0.499454
vn 0.122765 0.855763 -0.502591
vn -0.965926 0.258817 0.000000
vn -0.859221 0.496630 -0.122872
vn -0.707106 0.707107 0.000000
vn -0.500000 0.866025 0.000000
vn -0.496629 0.859222 -0.122872
vn 0.496601 0.859228 0.122943
vn 0.496602 0.859227 -0.122943
vn 0.859169 0.496713 0.122901
vn 0.859169 0.496713 -0.122901
vn 0.122945 0.859228 -0.496600
vn -0.122873 0.859221 -0.496630
vn 0.122903 0.496714 -0.859168
vn -0.122873 0.496630 -0.859221
vn -0.458038 -0.458037 0.761842
vn -0.761842 -0.458038 0.458038
vn -0.458038 -0.761842 0.458038
vn 0.761298 -0.458762 0.458216
vn 0.457550 -0.458550 0.761827
vn 0.457342 -0.762314 0.457947
vn 0.405073 -0.625324 0.666997
vn 0.666998 -0.625324 0.405071
vn 0.414352 -0.810324 0.414351
vn 0.761828 -0.458549 0.457549
vn 0.458217 -0.458761 0.761299
vn 0.457947 -0.762314 0.457341
vn 0.458216 -0.458762 -0.761299
vn 0.761827 -0.458549 -0.457550
vn 0.457947 -0.762314 -0.457342
vn -0.761841 -0.458038 -0.458038
vn -0.458039 -0.458038 -0.761841
vn -0.458038 -0.761841 -0.458038
vn 0.666998 -0.625324 -0.405072
vn 0.405071 -0.625324 -0.666999
vn 0.414351 -0.810324 -0.414352
vn 0.457551 -0.458550 -0.761826
vn 0.761298 -0.458762 -0.458217
vn 0.457343 -0.762314 -0.457947
vn -0.458038 0.761842 0.458037
vn -0.761842 0.458038 0.458038
vn -0.458037 0.458038 0.761842
vn 0.761299 0.458762 0.458216
vn 0.457342 0.762314 0.457947
vn 0.457550 0.458550 0.761827
vn 0.405073 0.625324 0.666997
vn 0.414352 0.810324 0.414351
vn 0.666998 0.625324 0.405072
vn 0.666998 0.625324 -0.405072
vn 0.414351 0.810325 -0.414352
vn 0.405071 0.625325 -0.666998
vn 0.761827 0.458549 0.457550
vn 0.457947 0.762314 0.457342
vn 0.458216 0.458761 0.761299
vn 0.458216 0.458761 -0.761299
vn 0.457947 0.762314 -0.457342
vn 0.761828 0.458549 -0.457550
vn 0.457551 0.458550 -0.761826
vn 0.457344 0.762313 -0.457946
vn 0.761299 0.458762 -0.458216
vn -0.761841 0.458038 -0.458038
vn -0.458039 0.761841 -0.458037
vn -0.458039 0.458038 -0.761841
f 128/16/1 114/12/2 105/10/3 104/9/4 119/14/5 118/13/6
f 22/2/7 36/6/8 71/8/9 70/7/10 30/4/11 29/3/12
f 33/5/13 19/1/14 113/11/15 127/15/16
f 19//14 4//17 86//18 113//15
f 29//12 16//19 7//20 22//7
f 13//21 98//22 89//23 1//24
f 26//25 108//26 92//27 10//28
f 40//29 135//30 101//31 23//32
f 36//8 61//33 80//34 71//9
f 70//10 52//35 43//36 30//11
f 49//37 144//38 129//39 37//40
f 67//41 122//42 138//43 46//44
f 162//45 147//46 74//47 58//48
f 127//16 156//49 55//50 33//13
f 77//51 153//52 115//53 64//54
f 114//2 83//55 95//56 105//3
f 104//4 132//57 141//58 119//5
f 118//6 150//59 159//60 128//1
f 4//17 3//61 87//62 86//18
f 3//61 2//63 88//64 87//62
f 2//63 1//24 89//23 88//64
f 7//20 6//65 21//66 22//7
f 6//65 5//67 20//68 21//66
f 5//67 4//17 19//14 20//69
f 1//24 9//70 14//71 13//21
f 9//70 8//72 15//73 14//71
f 8//72 7//20 16//19 15//73
f 13//21 12//74 99//75 98//22
f 12//74 11//76 100//77 99//75
f 11//76 10//28 92//27 100//77
f 10//28 18//78 27//79 26//25
f 18//78 17//80 28//81 27//79
f 17//80 16//19 29//12 28//81
f 22//7 21//82 35//83 36//8
f 21//82 20//84 34//85 35//83
f 20//86 19//14 33//13 34//87
f 26//25 25//88 109//89 108//26
f 25//88 24//90 110//91 109//89
f 24//90 23//32 101//31 110//91
f 23//32 32//92 41//93 40//29
f 32//92 31//94 42//95 41//93
f 31//94 30//11 43//36 42//95
f 36//8 35//96 62//97 61//33
f 35//96 34//98 63//99 62//97
f 34//100 33//13 55//50 63//99
f 40//29 39//101 136//102 135//30
f 39//101 38//103 137//104 136//102
f 38//103 37//40 129//39 137//104
f 37//40 45//105 50//106 49//37
f 45//105 44//107 51//108 50//106
f 44//107 43//36 52//35 51//108
f 49//37 48//109 145//110 144//38
f 48//109 47//111 146//112 145//110
f 47//111 46//44 138//43 146//112
f 46//44 54//113 68//114 67//41
f 54//113 53//115 69//116 68//114
f 53//115 52//35 70//10 69//116
f 58//48 57//117 163//118 162//45
f 57//117 56//119 164//120 163//118
f 56//119 55//50 156//49 164//120
f 61//33 60//121 81//122 80//34
f 60//121 59//123 82//124 81//122
f 59//123 58//48 74//47 82//124
f 67//41 66//125 123//126 122//42
f 66//125 65//127 124//128 123//126
f 65//127 64//54 115//53 124//128
f 64//54 73//129 78//130 77//51
f 73//129 72//131 79//132 78//130
f 72//131 71//9 80//34 79//132
f 77//51 76//133 154//134 153//52
f 76//133 75//135 155//136 154//134
f 75//135 74//47 147//46 155//136
f 86//18 85//137 112//138 113//15
f 85//137 84//139 111//140 112//141
f 84//139 83//55 114//2 111//140
f 83//55 91//142 96//143 95//56
f 91//142 90//144 97//145 96//143
f 90//144 89//23 98//22 97//145
f 95//56 94//146 106//147 105//3
f 94//146 93//148 107//149 106//147
f 93//148 92//27 108//26 107//149
f 104//4 103//150 133//151 132//57
f 103//150 102//152 134//153 133//151
f 102//152 101//31 135//30 134//153
f 113//15 112//154 126//155 127//16
f 112//156 111//157 125//158 126//159
f 111//157 114//2 128//1 125//158
f 118//6 117//160 151//161 150//59
f 117//160 116//162 152//163 151//161
f 116//162 115//53 153//52 152//163
f 122//42 121//164 139//165 138//43
f 121//164 120//166 140//167 139//165
f 120//166 119//5 141//58 140//167
f 127//16 126//168 157//169 156//49
f 126//170 125//171 158//172 157//169
f 125//171 128//1 159//60 158//172
f 132//57 131//173 142//174 141//58
f 131//173 130//175 143//176 142//174
f 130//175 129//39 144//38 143//176
f 150//59 149//177 160//178 159//60
f 149//177 148//179 161//180 160//178
f 148//179 147//46 162//45 161//180
f 23//32 24//90 25//88 26//25 27//79 28//81 29//12 30//11 31//94 32//92
f 64//54 65//127 66//125 67//41 68//114 69//116 70//10 71//9 72//131 73//129
f 101//31 102//152 103//150 104//4 105//3 106//147 107//149 108//26 109//89 110//91
f 115//53 116//162 117//160 118//6 119//5 120//166 121//164 122//42 123//126 124//128
f 9//70 1//24 2//63 165//181
f 165//181 2//63 3//61 166//182
f 3//61 4//17 5//67 166//182
f 166//182 5//67 6//65 167//183
f 6//65 7//20 8//72 167//183
f 167//183 8//72 9//70 165//181
f 165//181 166//182 167//183
f 18//78 10//28 11//76 168//184
f 168//184 11//76 12//74 169//185
f 12//74 13//21 14//71 169//185
f 169//185 14//71 15//73 170//186
f 15//73 16//19 17//80 170//186
f 170//186 17//80 18//78 168//184
f 168//184 169//185 170//186
f 32//92 23//32 24//90 171//187
f 171//187 24//90 25//88 172//188
f 25//88 26//25 27//79 172//188
f 172//188 27//79 28//81 173//189
f 28//81 30//11 31//94 173//189
f 173//189 31//94 32//92 171//187
f 171//187 172//188 173//189
f 45//105 37//40 38//103 174//190
f 174//190 38//103 39//101 175//191
f 39//101 40//29 41//93 175//191
f 175//191 41//93 42//95 176//192
f 42//95 43//36 44//107 176//192
f 176//192 44//107 45//105 174//190
f 174//190 175//191 176//192
f 54//113 46//44 47//111 177//193
f 177//193 47//111 48//109 178//194
f 48//109 49//37 50//106 178//194
f 178//194 50//106 51//108 179//195
f 51//108 52//35 53//115 179//195
f 179//195 53//115 54//113 177//193
f 177//193 178//194 179//195
f 63//99 55//50 56//119 180//196
f 180//196 56//119 57//117 181//197
f 57//117 58//48 59//123 181//197
f 181//197 59//123 60//121 182//198
f 60//121 61//33 62//97 182//198
f 182//198 62//97 63//99 180//196
f 180//196 181//197 182//198
f 73//129 64//54 65//127 183//199
f 183//199 65//127 66//125 184//200
f 66//125 67//41 68//114 184//200
f 184//200 68//114 69//116 185//201
f 69//116 71//9 72//131 185//201
f 185//201 72//131 73//129 183//199
f 183//199 184//200 185//201
f 82//124 74//47 75//135 186//202
f 186//202 75//135 76//133 187//203
f 76//133 77//51 78//130 187//203
f 187//203 78//130 79//132 188//204
f 79//132 80//34 81//122 188//204
f 188//204 81//122 82//124 186//202
f 186//202 187//203 188//204
f 91//142 83//55 84//139 189//205
f 189//205 84//139 85//137 190//206
f 85//137 86//18 87//62 190//206
f 190//206 87//62 88//64 191//207
f 88//64 89//23 90//144 191//207
f 191//207 90//144 91//142 189//205
f 189//205 190//206 191//207
f 100//77 92//27 93//148 192//208
f 192//208 93//148 94//146 193//209
f 94//146 95//56 96//143 193//209
f 193//209 96//143 97//145 194//210
f 97//145 98//22 99//75 194//210
f 194//210 99//75 100//77 192//208
f 192//208 193//209 194//210
f 110//91 101//31 102//152 195//211
f 195//211 102//152 103//150 196//212
f 103//150 105//3 106//147 196//212
f 196//212 106//147 107//149 197//213
f 107//149 108//26 109//89 197//213
f 197//213 109//89 110//91 195//211
f 195//211 196//212 197//213
f 124//128 115//53 116//162 198//214
f 198//214 116//162 117//160 199//215
f 117//160 119//5 120//166 199//215
f 199//215 120//166 121//164 200//216
f 121//164 122//42 123//126 200//216
f 200//216 123//126 124//128 198//214
f 198//214 199//215 200//216
f 137//104 129//39 130//175 201//217
f 201//217 130//175 131//173 202//218
f 131//173 132//57 133//151 202//218
f 202//218 133//151 134//153 203//219
f 134//153 135//30 136//102 203//219
f 203//219 136//102 137//104 201//217
f 201//217 202//218 203//219
f 146//112 138//43 139//165 204//220
f 204//220 139//165 140//167 205//221
f 140//167 141//58 142//174 205//221
f 205//221 142//174 143//176 206//222
f 143//176 144//38 145//110 206//222
f 206//222 145//110 146//112 204//220
f 204//220 205//221 206//222
f 155//136 147//46 148//179 207//223
f 207//223 148//179 149//177 208//224
f 149//177 150//59 151//161 208//224
f 208//224 151//161 152//163 209//225
f 152//163 153//52 154//134 209//225
f 209//225 154//134 155//136 207//223
f 207//223 208//224 209//225
f 164//120 156//49 157//169 210//226
f 210//226 157//169 158//172 211//227
f 158//172 159//60 160//178 211//227
f 211//227 160//178 161//180 212//228
f 161//180 162//45 163//118 212//228
f 212//228 163//118 164//120 210//226
f 210//226 211//227 212//228
