# This file uses centimeters as units for non-parametric coordinates.

v 0.099990 0.099990 0.000000
v 0.049995 0.099990 -0.013396
v 0.013396 0.099990 -0.049995
v 0.000000 0.099990 -0.099990
v 0.013396 0.049995 -0.099990
v 0.049995 0.013396 -0.099990
v 0.099990 0.000000 -0.099990
v 0.099990 0.013396 -0.049995
v 0.099990 0.049995 -0.013396
v 1.000000 0.099990 -0.099990
v 0.986604 0.099990 -0.049995
v 0.950005 0.099990 -0.013396
v 0.900010 0.099990 0.000000
v 0.900010 0.049995 -0.013396
v 0.900010 0.013396 -0.049995
v 0.900010 0.000000 -0.099990
v 0.950005 0.013396 -0.099990
v 0.986604 0.049995 -0.099990
v 0.000000 0.099990 -1.000000
v 0.013396 0.049995 -1.000000
v 0.049995 0.013396 -1.000000
v 0.099990 0.000000 -1.000000
v 1.099990 0.099990 -1.000000
v 1.049995 0.099990 -0.986604
v 1.013396 0.099990 -0.950005
v 1.000000 0.099990 -0.900010
v 0.994184 0.055355 -0.944645
v 0.957585 0.018756 -0.981244
v 0.900010 0.000000 -1.000000
v 1.000000 0.000000 -1.099990
v 1.018756 0.018756 -1.042415
v 1.055355 0.055355 -1.005816
v 0.000000 0.099990 -1.900010
v 0.013396 0.099990 -1.950005
v 0.049995 0.099990 -1.986604
v 0.099990 0.099990 -2.000000
v 0.099990 0.049995 -1.986604
v 0.099990 0.013396 -1.950005
v 0.099990 0.000000 -1.900010
v 0.049995 0.013396 -1.900010
v 0.013396 0.049995 -1.900010
v 2.000000 0.099990 -1.099990
v 1.986604 0.099990 -1.049995
v 1.950005 0.099990 -1.013396
v 1.900010 0.099990 -1.000000
v 1.900010 0.049995 -1.013396
v 1.900010 0.013396 -1.049995
v 1.900010 0.000000 -1.099990
v 1.950005 0.013396 -1.099990
v 1.986604 0.049995 -1.099990
v 2.000000 0.099990 -2.000000
v 1.986604 0.049995 -2.000000
v 1.950005 0.013396 -2.000000
v 1.900010 0.000000 -2.000000
v 0.900010 0.099990 -2.000000
v 0.950005 0.099990 -2.013396
v 0.986604 0.099990 -2.049995
v 1.000000 0.099990 -2.099990
v 1.005816 0.055355 -2.055355
v 1.042415 0.018756 -2.018756
v 1.099990 0.000000 -2.000000
v 1.000000 0.000000 -1.900010
v 0.981244 0.018756 -1.957585
v 0.944645 0.055355 -1.994184
v 1.000000 0.099990 -2.900010
v 1.013396 0.099990 -2.950005
v 1.049995 0.099990 -2.986604
v 1.099990 0.099990 -3.000000
v 1.099990 0.049995 -2.986604
v 1.099990 0.013396 -2.950005
v 1.099990 0.000000 -2.900010
v 1.049995 0.013396 -2.900010
v 1.013396 0.049995 -2.900010
v 1.900010 0.099990 -3.000000
v 1.950005 0.099990 -2.986604
v 1.986604 0.099990 -2.950005
v 2.000000 0.099990 -2.900010
v 1.986604 0.049995 -2.900010
v 1.950005 0.013396 -2.900010
v 1.900010 0.000000 -2.900010
v 1.900010 0.013396 -2.950005
v 1.900010 0.049995 -2.986604
v 0.099990 1.000000 -0.099990
v 0.049995 0.986604 -0.099990
v 0.013396 0.950005 -0.099990
v 0.000000 0.900010 -0.099990
v 0.013396 0.900010 -0.049995
v 0.049995 0.900010 -0.013396
v 0.099990 0.900010 0.000000
v 0.099990 0.950005 -0.013396
v 0.099990 0.986604 -0.049995
v 1.000000 0.900010 -0.099990
v 0.986604 0.950005 -0.099990
v 0.950005 0.986604 -0.099990
v 0.900010 1.000000 -0.099990
v 0.900010 0.986604 -0.049995
v 0.900010 0.950005 -0.013396
v 0.900010 0.900010 0.000000
v 0.950005 0.900010 -0.013396
v 0.986604 0.900010 -0.049995
v 1.099990 0.900010 -1.000000
v 1.055355 0.944645 -1.005816
v 1.018756 0.981244 -1.042415
v 1.000000 1.000000 -1.099990
v 0.900010 1.000000 -1.000000
v 0.957585 0.981244 -0.981244
v 0.994184 0.944645 -0.944645
v 1.000000 0.900010 -0.900010
v 1.013396 0.900010 -0.950005
v 1.049995 0.900010 -0.986604
v 0.049995 0.986604 -1.000000
v 0.013396 0.950005 -1.000000
v 0.000000 0.900010 -1.000000
v 0.099990 1.000000 -1.000000
v 1.042415 0.981244 -2.018756
v 1.005816 0.944645 -2.055355
v 1.000000 0.900010 -2.099990
v 0.986604 0.900010 -2.049995
v 0.950005 0.900010 -2.013396
v 0.900010 0.900010 -2.000000
v 0.944645 0.944645 -1.994184
v 0.981244 0.981244 -1.957585
v 1.000000 1.000000 -1.900010
v 1.099990 1.000000 -2.000000
v 0.000000 0.900010 -1.900010
v 0.013396 0.950005 -1.900010
v 0.049995 0.986604 -1.900010
v 0.099990 1.000000 -1.900010
v 0.099990 0.986604 -1.950005
v 0.099990 0.950005 -1.986604
v 0.099990 0.900010 -2.000000
v 0.049995 0.900010 -1.986604
v 0.013396 0.900010 -1.950005
v 2.000000 0.900010 -1.099990
v 1.986604 0.950005 -1.099990
v 1.950005 0.986604 -1.099990
v 1.900010 1.000000 -1.099990
v 1.900010 0.986604 -1.049995
v 1.900010 0.950005 -1.013396
v 1.900010 0.900010 -1.000000
v 1.950005 0.900010 -1.013396
v 1.986604 0.900010 -1.049995
v 1.986604 0.950005 -2.000000
v 1.950005 0.986604 -2.000000
v 1.900010 1.000000 -2.000000
v 2.000000 0.900010 -2.000000
v 1.900010 0.900010 -3.000000
v 1.900010 0.950005 -2.986603
v 1.900010 0.986604 -2.950005
v 1.900010 1.000000 -2.900010
v 1.950005 0.986604 -2.900010
v 1.986604 0.950005 -2.900010
v 2.000000 0.900010 -2.900010
v 1.986604 0.900010 -2.950005
v 1.950005 0.900010 -2.986603
v 1.000000 0.900010 -2.900010
v 1.013396 0.950005 -2.900010
v 1.049995 0.986604 -2.900010
v 1.099990 1.000000 -2.900010
v 1.099990 0.986604 -2.950005
v 1.099990 0.950005 -2.986604
v 1.099990 0.900010 -3.000000
v 1.049995 0.900010 -2.986604
v 1.013396 0.900010 -2.950005
v 0.053344 0.053344 -0.024997
v 0.024998 0.053344 -0.053344
v 0.053344 0.024998 -0.053344
v 0.975002 0.053276 -0.053344
v 0.946611 0.053310 -0.024998
v 0.946566 0.024998 -0.053344
v 1.027563 0.059111 -0.995303
v 1.004697 0.059111 -0.972437
v 0.996552 0.038415 -1.003448
v 0.024998 0.053310 -1.946611
v 0.053344 0.053276 -1.975002
v 0.053344 0.024998 -1.946566
v 1.975002 0.053310 -1.053389
v 1.946656 0.053276 -1.024998
v 1.946656 0.024998 -1.053434
v 0.972437 0.059111 -2.004697
v 0.995303 0.059111 -2.027563
v 1.003448 0.038415 -1.996552
v 1.024998 0.053276 -2.946656
v 1.053389 0.053310 -2.975002
v 1.053434 0.024998 -2.946656
v 1.946656 0.053344 -2.975003
v 1.975002 0.053344 -2.946656
v 1.946656 0.024998 -2.946656
v 0.053344 0.975002 -0.053344
v 0.024998 0.946656 -0.053344
v 0.053344 0.946656 -0.024997
v 0.975002 0.946724 -0.053344
v 0.946566 0.975002 -0.053344
v 0.946611 0.946690 -0.024998
v 1.027563 0.940889 -0.995303
v 0.996552 0.961585 -1.003448
v 1.004697 0.940889 -0.972437
v 1.003448 0.961585 -1.996552
v 0.995302 0.940889 -2.027563
v 0.972437 0.940889 -2.004697
v 0.024998 0.946690 -1.946611
v 0.053344 0.975002 -1.946566
v 0.053344 0.946724 -1.975002
v 1.975002 0.946690 -1.053389
v 1.946656 0.975002 -1.053434
v 1.946656 0.946724 -1.024998
v 1.946656 0.946656 -2.975002
v 1.946656 0.975002 -2.946656
v 1.975002 0.946656 -2.946656
v 1.024998 0.946724 -2.946656
v 1.053434 0.975002 -2.946656
v 1.053389 0.946690 -2.975002
vt 0.125000 0.250000
vt 0.187500 0.250000
vt 0.250000 0.375000
vt 0.375000 0.500000
vt 0.312500 0.500000
vt 0.250000 0.437500
vt 0.250000 0.375000
vt 0.125000 0.250000
vt 0.062500 0.250000
vt 0.250000 0.437500
vt 0.375000 0.500000
vt 0.437500 0.500000
vt 0.187500 0.343750
vt 0.312500 0.437500
vt 0.343750 0.437500
vt 0.156250 0.343750
vn -0.119598 0.973472 -0.195059
vn -0.129273 0.982131 -0.136777
vn -0.130527 0.991445 0.000000
vn 0.230319 0.958143 0.170043
vn 0.119598 0.973472 0.195060
vn 0.129273 0.982131 0.136777
vn 0.130526 0.991445 0.000000
vn -0.230319 0.958143 -0.170043
vn -0.130526 -0.991445 -0.000000
vn -0.129273 -0.982131 -0.136777
vn -0.170043 -0.958143 -0.230319
vn 0.170043 -0.958143 0.230319
vn 0.195060 -0.973472 0.119598
vn 0.130526 -0.991445 -0.000000
vn 0.129273 -0.982131 0.136777
vn -0.195060 -0.973472 -0.119598
vn -0.991445 -0.130528 0.000000
vn -0.983087 -0.129500 0.129500
vn -0.983087 0.129500 0.129500
vn -0.991445 0.130528 0.000000
vn 0.136777 -0.982131 0.129273
vn -0.129499 -0.983087 0.129499
vn 0.129507 -0.129507 0.983085
vn 0.129507 0.129507 0.983085
vn -0.129499 0.129499 0.983087
vn -0.129499 -0.129499 0.983087
vn 0.934267 -0.286078 0.212851
vn 0.934267 0.286078 0.212851
vn 0.984854 0.114485 0.130211
vn 0.984854 -0.114485 0.130211
vn 0.130211 -0.114485 0.984855
vn 0.130211 0.114485 0.984855
vn 0.212850 0.286076 0.934267
vn 0.212850 -0.286076 0.934267
vn -0.130210 0.114485 -0.984855
vn -0.212849 0.286076 -0.934267
vn -0.212849 -0.286076 -0.934268
vn -0.130210 -0.114485 -0.984855
vn -0.983085 0.129507 -0.129507
vn -0.983085 -0.129507 -0.129507
vn 0.991445 0.130528 0.000000
vn 0.983085 0.129507 0.129507
vn 0.983085 -0.129507 0.129507
vn 0.991445 -0.130528 0.000000
vn 0.983087 -0.129500 -0.129500
vn 0.983087 0.129500 -0.129501
vn -0.934267 0.286076 -0.212851
vn -0.984854 0.114484 -0.130212
vn -0.984854 -0.114485 -0.130211
vn -0.934267 -0.286077 -0.212851
vn -0.136778 -0.982131 -0.129273
vn 0.129499 -0.983087 -0.129499
vn -0.129505 0.129506 -0.983085
vn 0.129498 0.129498 -0.983087
vn 0.129498 -0.129498 -0.983087
vn -0.129505 -0.129506 -0.983085
vn -0.129499 0.983087 0.129498
vn 0.136778 0.982131 0.129273
vn 0.129499 0.983087 -0.129499
vn -0.136777 0.982131 -0.129273
vn -0.859221 -0.122872 0.496630
vn -0.859221 0.122872 0.496630
vn -0.496631 -0.122871 0.859221
vn -0.496631 0.122871 0.859221
vn -0.496631 -0.859220 0.122871
vn -0.258819 -0.965926 0.000000
vn -0.859222 -0.496629 0.122872
vn -0.866025 -0.500000 0.000000
vn -0.707108 -0.707105 0.000000
vn -0.122871 -0.496630 0.859222
vn 0.122902 -0.496714 0.859168
vn -0.122871 -0.859221 0.496630
vn 0.122944 -0.859228 0.496601
vn 0.496544 -0.122900 0.859267
vn 0.496544 0.122900 0.859267
vn 0.859194 -0.122860 0.496681
vn 0.859194 0.122859 0.496681
vn 0.866191 -0.483856 0.124888
vn 0.777892 -0.593663 0.206032
vn 0.502593 -0.855762 0.122765
vn 0.499455 -0.838197 0.219022
vn -0.258819 -0.965926 0.000000
vn -0.496602 -0.859227 -0.122943
vn -0.707108 -0.707105 0.000000
vn -0.866025 -0.500000 0.000000
vn -0.859169 -0.496713 -0.122901
vn 0.793464 -0.345596 0.500977
vn 0.793464 0.345596 0.500977
vn 0.500977 -0.345595 0.793464
vn 0.500977 0.345595 0.793465
vn 0.206032 -0.593662 0.777892
vn 0.124887 -0.483857 0.866190
vn 0.219022 -0.838197 0.499454
vn 0.122765 -0.855764 0.502591
vn -0.496683 -0.122860 -0.859193
vn -0.496682 0.122859 -0.859193
vn -0.859268 -0.122900 -0.496542
vn -0.859268 0.122900 -0.496542
vn -0.122764 -0.855763 -0.502591
vn -0.219022 -0.838197 -0.499454
vn -0.124887 -0.483857 -0.866190
vn -0.206031 -0.593661 -0.777893
vn 0.496682 -0.122859 0.859193
vn 0.496682 0.122859 0.859193
vn 0.859268 -0.122899 0.496542
vn 0.859268 0.122899 0.496543
vn 0.859169 -0.496714 0.122902
vn 0.866025 -0.500000 0.000000
vn 0.496601 -0.859228 0.122943
vn 0.707110 -0.707104 0.000000
vn 0.258819 -0.965926 0.000000
vn 0.866025 -0.500000 0.000000
vn 0.859222 -0.496629 -0.122872
vn 0.707110 -0.707104 0.000000
vn 0.496632 -0.859220 -0.122871
vn 0.258819 -0.965926 0.000000
vn -0.793465 -0.345595 -0.500976
vn -0.793466 0.345594 -0.500976
vn -0.500977 -0.345594 -0.793465
vn -0.500978 0.345595 -0.793464
vn -0.499456 -0.838197 -0.219022
vn -0.502593 -0.855762 -0.122765
vn -0.777892 -0.593662 -0.206032
vn -0.866191 -0.483855 -0.124887
vn -0.496543 -0.122900 -0.859268
vn -0.496543 0.122900 -0.859267
vn -0.859194 -0.122860 -0.496681
vn -0.859194 0.122860 -0.496680
vn -0.122944 -0.859228 -0.496600
vn 0.122872 -0.859222 -0.496629
vn -0.122902 -0.496714 -0.859169
vn 0.122872 -0.496630 -0.859221
vn 0.859222 -0.122872 -0.496628
vn 0.859222 0.122872 -0.496628
vn 0.496632 -0.122871 -0.859220
vn 0.496632 0.122872 -0.859220
vn -0.859222 0.496630 0.122871
vn -0.866025 0.500000 0.000000
vn -0.496632 0.859220 0.122871
vn -0.707108 0.707105 0.000000
vn -0.258820 0.965926 0.000000
vn -0.122872 0.859221 0.496630
vn 0.122944 0.859228 0.496600
vn -0.122871 0.496630 0.859222
vn 0.122903 0.496714 0.859168
vn 0.502593 0.855762 0.122765
vn 0.499455 0.838197 0.219022
vn 0.866191 0.483856 0.124887
vn 0.777892 0.593663 0.206032
vn 0.219022 0.838197 0.499455
vn 0.122766 0.855764 0.502590
vn 0.206032 0.593662 0.777892
vn 0.124888 0.483857 0.866190
vn -0.866025 0.500000 0.000000
vn -0.859169 0.496713 -0.122901
vn -0.707108 0.707105 0.000000
vn -0.496602 0.859227 -0.122943
vn -0.258820 0.965926 0.000000
vn -0.777892 0.593662 -0.206032
vn -0.866191 0.483856 -0.124888
vn -0.499454 0.838198 -0.219021
vn -0.502592 0.855763 -0.122765
vn -0.219022 0.838198 -0.499454
vn -0.122765 0.855764 -0.502591
vn -0.206032 0.593662 -0.777892
vn -0.124887 0.483857 -0.866190
vn 0.496602 0.859227 0.122943
vn 0.258819 0.965926 0.000000
vn 0.859169 0.496713 0.122901
vn 0.866025 0.500000 0.000000
vn 0.707110 0.707104 0.000000
vn 0.258819 0.965926 0.000000
vn 0.496631 0.859221 -0.122871
vn 0.707108 0.707105 0.000000
vn 0.866026 0.500000 0.000000
vn 0.859221 0.496630 -0.122872
vn 0.122872 0.859221 -0.496630
vn -0.122945 0.859228 -0.496600
vn 0.122871 0.496630 -0.859221
vn -0.122903 0.496714 -0.859168
vn -0.458040 -0.458037 0.761841
vn -0.761844 -0.458036 0.458036
vn -0.458040 -0.761841 0.458037
vn 0.761299 -0.458763 0.458215
vn 0.457551 -0.458551 0.761825
vn 0.457342 -0.762315 0.457945
vn 0.405071 -0.625325 0.666998
vn 0.666997 -0.625326 0.405072
vn 0.414351 -0.810324 0.414352
vn -0.761827 -0.458550 -0.457549
vn -0.458216 -0.458762 -0.761299
vn -0.457946 -0.762315 -0.457342
vn 0.761828 -0.458549 0.457549
vn 0.458217 -0.458761 0.761298
vn 0.457947 -0.762315 0.457341
vn -0.405072 -0.625324 -0.666998
vn -0.666998 -0.625325 -0.405071
vn -0.414352 -0.810324 -0.414352
vn -0.761299 -0.458762 -0.458215
vn -0.457550 -0.458551 -0.761826
vn -0.457343 -0.762314 -0.457945
vn 0.458042 -0.458037 -0.761840
vn 0.761845 -0.458035 -0.458035
vn 0.458042 -0.761840 -0.458036
vn -0.458040 0.761841 0.458037
vn -0.761844 0.458036 0.458036
vn -0.458040 0.458036 0.761841
vn 0.761299 0.458762 0.458214
vn 0.457343 0.762315 0.457945
vn 0.457551 0.458551 0.761826
vn 0.405071 0.625324 0.666998
vn 0.414351 0.810324 0.414353
vn 0.666997 0.625325 0.405072
vn -0.414351 0.810325 -0.414351
vn -0.666998 0.625324 -0.405071
vn -0.405074 0.625324 -0.666997
vn -0.761827 0.458550 -0.457549
vn -0.457947 0.762315 -0.457341
vn -0.458216 0.458762 -0.761298
vn 0.761828 0.458549 0.457549
vn 0.457948 0.762315 0.457340
vn 0.458217 0.458762 0.761298
vn 0.458042 0.458037 -0.761840
vn 0.458041 0.761841 -0.458036
vn 0.761844 0.458036 -0.458035
vn -0.761300 0.458762 -0.458214
vn -0.457344 0.762314 -0.457945
vn -0.457553 0.458550 -0.761825
f 123/10/1 128/16/2 114/9/3 105/8/4 104/7/5
f 104/7/5 137/15/6 145/12/7 124/11/8 123/10/1
f 22/1/9 39/13/10 62/6/11 30/3/12 29/2/13
f 54/4/14 48/14/15 30/3/12 62/6/11 61/5/16
f 19//17 4//18 86//19 113//20
f 29//13 16//21 7//22 22//9
f 13//23 98//24 89//25 1//26
f 26//27 108//28 92//29 10//30
f 45//31 140//32 101//33 23//34
f 131//35 120//36 55//37 36//38
f 113//20 125//39 33//40 19//17
f 146//41 134//42 42//43 51//44
f 51//44 77//45 153//46 146//41
f 117//47 156//48 65//49 58//50
f 61//16 71//51 80//52 54//14
f 162//53 147//54 74//55 68//56
f 114//3 83//57 95//58 105//4
f 145//7 150//59 159//60 124//8
f 4//18 3//61 87//62 86//19
f 3//61 2//63 88//64 87//62
f 2//63 1//26 89//25 88//64
f 7//22 6//65 21//66 22//9
f 6//65 5//67 20//68 21//69
f 5//67 4//18 19//17 20//68
f 1//26 9//70 14//71 13//23
f 9//70 8//72 15//73 14//71
f 8//72 7//22 16//21 15//73
f 13//23 12//74 99//75 98//24
f 12//74 11//76 100//77 99//75
f 11//76 10//30 92//29 100//77
f 10//30 18//78 27//79 26//27
f 18//78 17//80 28//81 27//79
f 17//80 16//21 29//13 28//81
f 22//9 21//82 40//83 39//10
f 21//84 20//85 41//86 40//83
f 20//85 19//17 33//40 41//86
f 26//27 25//87 109//88 108//28
f 25//87 24//89 110//90 109//88
f 24//89 23//34 101//33 110//90
f 23//34 32//91 46//92 45//31
f 32//91 31//93 47//94 46//92
f 31//93 30//12 48//15 47//94
f 36//38 35//95 132//96 131//35
f 35//95 34//97 133//98 132//96
f 34//97 33//40 125//39 133//98
f 39//10 38//99 63//100 62//11
f 38//99 37//101 64//102 63//100
f 37//101 36//38 55//37 64//102
f 45//31 44//103 141//104 140//32
f 44//103 43//105 142//106 141//104
f 43//105 42//43 134//42 142//106
f 42//43 50//107 52//108 51//44
f 50//107 49//109 53//110 52//108
f 49//109 48//15 54//14 53//111
f 51//44 52//112 78//113 77//45
f 52//112 53//114 79//115 78//113
f 53//116 54//14 80//52 79//115
f 58//50 57//117 118//118 117//47
f 57//117 56//119 119//120 118//118
f 56//119 55//37 120//36 119//120
f 61//16 60//121 72//122 71//51
f 60//121 59//123 73//124 72//122
f 59//123 58//50 65//49 73//124
f 68//56 67//125 163//126 162//53
f 67//125 66//127 164//128 163//126
f 66//127 65//49 156//48 164//128
f 71//51 70//129 81//130 80//52
f 70//129 69//131 82//132 81//130
f 69//131 68//56 74//55 82//132
f 77//45 76//133 154//134 153//46
f 76//133 75//135 155//136 154//134
f 75//135 74//55 147//54 155//136
f 86//19 85//137 112//138 113//20
f 85//137 84//139 111//140 112//138
f 84//139 83//57 114//3 111//141
f 83//57 91//142 96//143 95//58
f 91//142 90//144 97//145 96//143
f 90//144 89//25 98//24 97//145
f 95//58 94//146 106//147 105//4
f 94//146 93//148 107//149 106//147
f 93//148 92//29 108//28 107//149
f 104//5 103//150 138//151 137//6
f 103//150 102//152 139//153 138//151
f 102//152 101//33 140//32 139//153
f 113//20 112//154 126//155 125//39
f 112//154 111//156 127//157 126//155
f 111//158 114//3 128//2 127//157
f 117//47 116//159 157//160 156//48
f 116//159 115//161 158//162 157//160
f 115//161 124//8 159//60 158//162
f 123//1 122//163 129//164 128//2
f 122//163 121//165 130//166 129//164
f 121//165 120//36 131//35 130//166
f 137//6 136//167 144//168 145//7
f 136//167 135//169 143//170 144//171
f 135//169 134//42 146//41 143//170
f 145//7 144//172 151//173 150//59
f 144//174 143//175 152//176 151//173
f 143//175 146//41 153//46 152//176
f 150//59 149//177 160//178 159//60
f 149//177 148//179 161//180 160//178
f 148//179 147//54 162//53 161//180
f 23//34 24//89 25//87 26//27 27//79 28//81 29//13 30//12 31//93 32//91
f 55//37 56//119 57//117 58//50 59//123 60//121 61//16 62//11 63//100 64//102
f 101//33 102//152 103//150 104//5 105//4 106//147 107//149 108//28 109//88 110//90
f 115//161 116//159 117//47 118//118 119//120 120//36 121//165 122//163 123//1 124//8
f 9//70 1//26 2//63 165//181
f 165//181 2//63 3//61 166//182
f 3//61 4//18 5//67 166//182
f 166//182 5//67 6//65 167//183
f 6//65 7//22 8//72 167//183
f 167//183 8//72 9//70 165//181
f 165//181 166//182 167//183
f 18//78 10//30 11//76 168//184
f 168//184 11//76 12//74 169//185
f 12//74 13//23 14//71 169//185
f 169//185 14//71 15//73 170//186
f 15//73 16//21 17//80 170//186
f 170//186 17//80 18//78 168//184
f 168//184 169//185 170//186
f 32//91 23//34 24//89 171//187
f 171//187 24//89 25//87 172//188
f 25//87 26//27 27//79 172//188
f 172//188 27//79 28//81 173//189
f 28//81 30//12 31//93 173//189
f 173//189 31//93 32//91 171//187
f 171//187 172//188 173//189
f 41//86 33//40 34//97 174//190
f 174//190 34//97 35//95 175//191
f 35//95 36//38 37//101 175//191
f 175//191 37//101 38//99 176//192
f 38//99 39//10 40//83 176//192
f 176//192 40//83 41//86 174//190
f 174//190 175//191 176//192
f 50//107 42//43 43//105 177//193
f 177//193 43//105 44//103 178//194
f 44//103 45//31 46//92 178//194
f 178//194 46//92 47//94 179//195
f 47//94 48//15 49//109 179//195
f 179//195 49//109 50//107 177//193
f 177//193 178//194 179//195
f 64//102 55//37 56//119 180//196
f 180//196 56//119 57//117 181//197
f 57//117 58//50 59//123 181//197
f 181//197 59//123 60//121 182//198
f 60//121 62//11 63//100 182//198
f 182//198 63//100 64//102 180//196
f 180//196 181//197 182//198
f 73//124 65//49 66//127 183//199
f 183//199 66//127 67//125 184//200
f 67//125 68//56 69//131 184//200
f 184//200 69//131 70//129 185//201
f 70//129 71//51 72//122 185//201
f 185//201 72//122 73//124 183//199
f 183//199 184//200 185//201
f 82//132 74//55 75//135 186//202
f 186//202 75//135 76//133 187//203
f 76//133 77//45 78//113 187//203
f 187//203 78//113 79//115 188//204
f 79//115 80//52 81//130 188//204
f 188//204 81//130 82//132 186//202
f 186//202 187//203 188//204
f 91//142 83//57 84//139 189//205
f 189//205 84//139 85//137 190//206
f 85//137 86//19 87//62 190//206
f 190//206 87//62 88//64 191//207
f 88//64 89//25 90//144 191//207
f 191//207 90//144 91//142 189//205
f 189//205 190//206 191//207
f 100//77 92//29 93//148 192//208
f 192//208 93//148 94//146 193//209
f 94//146 95//58 96//143 193//209
f 193//209 96//143 97//145 194//210
f 97//145 98//24 99//75 194//210
f 194//210 99//75 100//77 192//208
f 192//208 193//209 194//210
f 110//90 101//33 102//152 195//211
f 195//211 102//152 103//150 196//212
f 103//150 105//4 106//147 196//212
f 196//212 106//147 107//149 197//213
f 107//149 108//28 109//88 197//213
f 197//213 109//88 110//90 195//211
f 195//211 196//212 197//213
f 122//163 124//8 115//161 198//214
f 198//214 115//161 116//159 199//215
f 116//159 117//47 118//118 199//215
f 199//215 118//118 119//120 200//216
f 119//120 120//36 121//165 200//216
f 200//216 121//165 122//163 198//214
f 198//214 199//215 200//216
f 133//98 125//39 126//155 201//217
f 201//217 126//155 127//157 202//218
f 127//157 128//2 129//164 202//218
f 202//218 129//164 130//166 203//219
f 130//166 131//35 132//96 203//219
f 203//219 132//96 133//98 201//217
f 201//217 202//218 203//219
f 142//106 134//42 135//169 204//220
f 204//220 135//169 136//167 205//221
f 136//167 137//6 138//151 205//221
f 205//221 138//151 139//153 206//222
f 139//153 140//32 141//104 206//222
f 206//222 141//104 142//106 204//220
f 204//220 205//221 206//222
f 155//136 147//54 148//179 207//223
f 207//223 148//179 149//177 208//224
f 149//177 150//59 151//173 208//224
f 208//224 151//173 152//176 209//225
f 152//176 153//46 154//134 209//225
f 209//225 154//134 155//136 207//223
f 207//223 208//224 209//225
f 164//128 156//48 157//160 210//226
f 210//226 157//160 158//162 211//227
f 158//162 159//60 160//178 211//227
f 211//227 160//178 161//180 212//228
f 161//180 162//53 163//126 212//228
f 212//228 163//126 164//128 210//226
f 210//226 211//227 212//228
