# This file uses centimeters as units for non-parametric coordinates.

v 0.099990 0.099990 0.000000
v 0.049995 0.099990 -0.013396
v 0.013396 0.099990 -0.049995
v 0.000000 0.099990 -0.099990
v 0.013396 0.049995 -0.099990
v 0.049995 0.013396 -0.099990
v 0.099990 0.000000 -0.099990
v 0.099990 0.013396 -0.049995
v 0.099990 0.049995 -0.013396
v 1.000000 0.099990 -0.099990
v 0.986604 0.099990 -0.049995
v 0.950005 0.099990 -0.013396
v 0.900010 0.099990 0.000000
v 0.900010 0.049995 -0.013396
v 0.900010 0.013396 -0.049995
v 0.900010 0.000000 -0.099990
v 0.950005 0.013396 -0.099990
v 0.986604 0.049995 -0.099990
v 0.000000 0.099990 -1.000000
v 0.013396 0.049995 -1.000000
v 0.049995 0.013396 -1.000000
v 0.099990 0.000000 -1.000000
v 1.000000 0.099990 -1.000000
v 0.986604 0.049995 -1.000000
v 0.950005 0.013396 -1.000000
v 0.900010 0.000000 -1.000000
v 0.000000 0.099990 -2.000000
v 0.013396 0.049995 -2.000000
v 0.049995 0.013396 -2.000000
v 0.099990 0.000000 -2.000000
v 1.000000 0.099990 -2.000000
v 0.986604 0.049995 -2.000000
v 0.950005 0.013396 -2.000000
v 0.900010 0.000000 -2.000000
v 0.000000 0.099990 -3.000000
v 0.013396 0.049995 -3.000000
v 0.049995 0.013396 -3.000000
v 0.099990 0.000000 -3.000000
v 1.000000 0.099990 -3.000000
v 0.986604 0.049995 -3.000000
v 0.950005 0.013396 -3.000000
v 0.900010 0.000000 -3.000000
v 0.000000 0.099990 -3.900010
v 0.013396 0.099990 -3.950005
v 0.049995 0.099990 -3.986604
v 0.099990 0.099990 -4.000000
v 0.099990 0.049995 -3.986604
v 0.099990 0.013396 -3.950005
v 0.099990 0.000000 -3.900010
v 0.049995 0.013396 -3.900010
v 0.013396 0.049995 -3.900010
v 0.900010 0.099990 -4.000000
v 0.950005 0.099990 -3.986604
v 0.986604 0.099990 -3.950005
v 1.000000 0.099990 -3.900010
v 0.986604 0.049995 -3.900010
v 0.950005 0.013396 -3.900010
v 0.900010 0.000000 -3.900010
v 0.900010 0.013396 -3.950005
v 0.900010 0.049995 -3.986604
v 0.099990 1.000000 -0.099990
v 0.049995 0.986604 -0.099990
v 0.013396 0.950005 -0.099990
v 0.000000 0.900010 -0.099990
v 0.013396 0.900010 -0.049995
v 0.049995 0.900010 -0.013396
v 0.099990 0.900010 0.000000
v 0.099990 0.950005 -0.013396
v 0.099990 0.986604 -0.049995
v 1.000000 0.900010 -0.099990
v 0.986604 0.950005 -0.099990
v 0.950005 0.986604 -0.099990
v 0.900010 1.000000 -0.099990
v 0.900010 0.986604 -0.049995
v 0.900010 0.950005 -0.013396
v 0.900010 0.900010 0.000000
v 0.950005 0.900010 -0.013396
v 0.986604 0.900010 -0.049995
v 0.986604 0.950005 -1.000000
v 0.950005 0.986604 -1.000000
v 0.900010 1.000000 -1.000000
v 1.000000 0.900010 -1.000000
v 0.049995 0.986604 -1.000000
v 0.013396 0.950005 -1.000000
v 0.000000 0.900010 -1.000000
v 0.099990 1.000000 -1.000000
v 0.986604 0.950005 -2.000000
v 0.950005 0.986604 -2.000000
v 0.900010 1.000000 -2.000000
v 1.000000 0.900010 -2.000000
v 0.049995 0.986604 -2.000000
v 0.013396 0.950005 -2.000000
v 0.000000 0.900010 -2.000000
v 0.099990 1.000000 -2.000000
v 0.986604 0.950005 -3.000000
v 0.950005 0.986604 -3.000000
v 0.900010 1.000000 -3.000000
v 1.000000 0.900010 -3.000000
v 0.049995 0.986604 -3.000000
v 0.013396 0.950005 -3.000000
v 0.000000 0.900010 -3.000000
v 0.099990 1.000000 -3.000000
v 0.900010 0.900010 -4.000000
v 0.900010 0.950005 -3.986604
v 0.900010 0.986604 -3.950005
v 0.900010 1.000000 -3.900010
v 0.950005 0.986604 -3.900010
v 0.986604 0.950005 -3.900010
v 1.000000 0.900010 -3.900010
v 0.986604 0.900010 -3.950005
v 0.950005 0.900010 -3.986604
v 0.000000 0.900010 -3.900010
v 0.013396 0.950005 -3.900010
v 0.049995 0.986604 -3.900010
v 0.099990 1.000000 -3.900010
v 0.099990 0.986604 -3.950005
v 0.099990 0.950005 -3.986604
v 0.099990 0.900010 -4.000000
v 0.049995 0.900010 -3.986604
v 0.013396 0.900010 -3.950005
v 0.053344 0.053344 -0.024997
v 0.024997 0.053344 -0.053344
v 0.053344 0.024998 -0.053344
v 0.975002 0.053344 -0.053344
v 0.946656 0.053344 -0.024997
v 0.946656 0.024998 -0.053344
v 0.024998 0.053344 -3.946656
v 0.053344 0.053344 -3.975003
v 0.053344 0.024998 -3.946656
v 0.946656 0.053344 -3.975003
v 0.975002 0.053344 -3.946656
v 0.946656 0.024998 -3.946656
v 0.053344 0.975002 -0.053344
v 0.024997 0.946656 -0.053344
v 0.053344 0.946656 -0.024997
v 0.975002 0.946656 -0.053344
v 0.946656 0.975002 -0.053344
v 0.946656 0.946656 -0.024997
v 0.946656 0.946656 -3.975003
v 0.946656 0.975002 -3.946656
v 0.975002 0.946656 -3.946656
v 0.024998 0.946656 -3.946656
v 0.053344 0.975002 -3.946656
v 0.053344 0.946656 -3.975003
vt 0.000000 0.250000
vt 0.125000 0.250000
vt 0.250000 0.250000
vt 0.187500 0.250000
vt 0.000000 0.500000
vt 0.125000 0.500000
vt 0.250000 0.500000
vt 0.187500 0.500000
vt 0.000000 0.750000
vt 0.125000 0.750000
vt 0.250000 0.750000
vt 0.187500 0.750000
vt 0.125000 0.250000
vt 0.250000 0.250000
vt 0.000000 0.250000
vt 0.062500 0.250000
vt 0.125000 0.500000
vt 0.250000 0.500000
vt 0.000000 0.500000
vt 0.062500 0.500000
vt 0.125000 0.750000
vt 0.250000 0.750000
vt 0.000000 0.750000
vt 0.062500 0.750000
vn -0.130526 0.991445 0.000000
vn -0.130526 0.991445 0.000000
vn 0.130526 0.991445 0.000000
vn 0.130526 0.991445 0.000000
vn -0.130526 0.991445 0.000000
vn 0.130526 0.991445 0.000000
vn -0.130526 -0.991445 -0.000000
vn -0.130526 -0.991445 -0.000000
vn 0.130526 -0.991445 -0.000000
vn 0.130526 -0.991445 -0.000000
vn -0.130526 -0.991445 -0.000000
vn 0.130526 -0.991445 -0.000000
vn 0.991445 -0.130526 0.000000
vn 0.991445 -0.130526 0.000000
vn 0.991445 0.130526 0.000000
vn 0.991445 0.130526 0.000000
vn -0.991445 -0.130526 0.000000
vn -0.991445 -0.130526 0.000000
vn -0.991445 0.130526 0.000000
vn -0.991445 0.130526 0.000000
vn 0.991445 -0.130526 0.000000
vn 0.991445 0.130526 0.000000
vn -0.991445 -0.130526 0.000000
vn -0.991445 0.130526 0.000000
vn -0.983087 -0.129499 0.129499
vn -0.983087 0.129499 0.129498
vn 0.129499 -0.983087 0.129499
vn -0.129499 -0.983087 0.129498
vn 0.129498 -0.129499 0.983087
vn 0.129497 0.129499 0.983087
vn -0.129498 0.129498 0.983087
vn -0.129498 -0.129499 0.983087
vn 0.983087 0.129499 0.129499
vn 0.983087 -0.129499 0.129499
vn -0.129499 -0.983087 -0.129499
vn 0.129499 -0.983087 -0.129499
vn 0.983087 -0.129499 -0.129499
vn 0.983087 0.129499 -0.129499
vn -0.129497 0.129498 -0.983087
vn 0.129498 0.129498 -0.983087
vn 0.129498 -0.129498 -0.983087
vn -0.129498 -0.129498 -0.983087
vn -0.983087 0.129499 -0.129499
vn -0.983087 -0.129499 -0.129499
vn -0.129499 0.983087 0.129498
vn 0.129499 0.983087 0.129498
vn 0.129499 0.983087 -0.129499
vn -0.129499 0.983087 -0.129499
vn -0.859222 -0.122871 0.496629
vn -0.859222 0.122871 0.496629
vn -0.496629 -0.122871 0.859222
vn -0.496629 0.122871 0.859222
vn -0.496630 -0.859221 0.122871
vn -0.258819 -0.965926 0.000000
vn -0.859222 -0.496629 0.122871
vn -0.707107 -0.707107 0.000000
vn -0.707107 -0.707107 0.000000
vn -0.965926 -0.258819 0.000000
vn -0.122870 -0.496629 0.859222
vn 0.122870 -0.496630 0.859222
vn -0.122871 -0.859221 0.496630
vn 0.122871 -0.859221 0.496630
vn 0.496629 -0.122871 0.859222
vn 0.496629 0.122871 0.859222
vn 0.859222 -0.122871 0.496629
vn 0.859222 0.122871 0.496629
vn 0.859221 -0.496630 0.122871
vn 0.866025 -0.500000 0.000000
vn 0.496630 -0.859221 0.122871
vn 0.707107 -0.707107 0.000000
vn 0.258819 -0.965926 0.000000
vn -0.258819 -0.965926 0.000000
vn -0.258819 -0.965926 0.000000
vn -0.707107 -0.707107 0.000000
vn -0.707107 -0.707107 0.000000
vn -0.707107 -0.707107 0.000000
vn -0.707107 -0.707107 0.000000
vn -0.965926 -0.258819 0.000000
vn -0.965926 -0.258819 0.000000
vn 0.866025 -0.500000 0.000000
vn 0.866025 -0.500000 0.000000
vn 0.707107 -0.707107 0.000000
vn 0.707107 -0.707107 0.000000
vn 0.258819 -0.965926 0.000000
vn 0.258819 -0.965926 0.000000
vn -0.258819 -0.965926 0.000000
vn -0.258819 -0.965926 0.000000
vn -0.707107 -0.707107 0.000000
vn -0.707107 -0.707107 0.000000
vn -0.707107 -0.707107 0.000000
vn -0.707107 -0.707107 0.000000
vn -0.965926 -0.258819 0.000000
vn -0.965926 -0.258819 0.000000
vn 0.866025 -0.500000 0.000000
vn 0.866025 -0.500000 0.000000
vn 0.707107 -0.707107 0.000000
vn 0.707107 -0.707107 0.000000
vn 0.258819 -0.965926 0.000000
vn 0.258819 -0.965926 0.000000
vn -0.258819 -0.965926 0.000000
vn -0.496630 -0.859221 -0.122872
vn -0.707107 -0.707107 0.000000
vn -0.707107 -0.707107 0.000000
vn -0.859222 -0.496629 -0.122872
vn -0.965926 -0.258819 0.000000
vn 0.866025 -0.500000 0.000000
vn 0.859221 -0.496630 -0.122872
vn 0.707107 -0.707107 0.000000
vn 0.496630 -0.859221 -0.122872
vn 0.258819 -0.965926 0.000000
vn -0.496630 -0.122871 -0.859221
vn -0.496630 0.122871 -0.859221
vn -0.859222 -0.122871 -0.496629
vn -0.859222 0.122871 -0.496629
vn -0.122872 -0.859221 -0.496630
vn 0.122872 -0.859221 -0.496630
vn -0.122872 -0.496630 -0.859221
vn 0.122872 -0.496630 -0.859222
vn 0.859222 -0.122872 -0.496629
vn 0.859222 0.122872 -0.496629
vn 0.496630 -0.122872 -0.859221
vn 0.496630 0.122871 -0.859221
vn -0.859222 0.496629 0.122871
vn -0.965926 0.258819 0.000000
vn -0.496631 0.859221 0.122871
vn -0.500000 0.866025 0.000000
vn -0.707106 0.707107 0.000000
vn -0.122871 0.859221 0.496630
vn 0.122871 0.859222 0.496630
vn -0.122870 0.496630 0.859222
vn 0.122869 0.496630 0.859222
vn 0.496631 0.859221 0.122871
vn 0.500000 0.866025 0.000000
vn 0.859222 0.496629 0.122871
vn 0.866025 0.500000 0.000000
vn 0.500000 0.866025 0.000000
vn 0.500000 0.866025 0.000000
vn 0.866025 0.500000 0.000000
vn 0.866025 0.500000 0.000000
vn -0.965926 0.258819 0.000000
vn -0.965926 0.258819 0.000000
vn -0.707107 0.707107 0.000000
vn -0.500000 0.866025 0.000000
vn -0.500000 0.866025 0.000000
vn -0.707107 0.707107 0.000000
vn 0.500000 0.866025 0.000000
vn 0.500000 0.866025 0.000000
vn 0.866025 0.500000 0.000000
vn 0.866025 0.500000 0.000000
vn -0.965926 0.258819 0.000000
vn -0.965926 0.258819 0.000000
vn -0.707107 0.707107 0.000000
vn -0.500000 0.866025 0.000000
vn -0.500000 0.866025 0.000000
vn -0.707107 0.707107 0.000000
vn 0.500000 0.866025 0.000000
vn 0.496630 0.859221 -0.122871
vn 0.866025 0.500000 0.000000
vn 0.859221 0.496630 -0.122871
vn -0.965926 0.258819 0.000000
vn -0.859221 0.496630 -0.122872
vn -0.707106 0.707107 0.000000
vn -0.500000 0.866025 0.000000
vn -0.496630 0.859221 -0.122872
vn 0.122871 0.859222 -0.496630
vn -0.122871 0.859222 -0.496629
vn 0.122871 0.496630 -0.859222
vn -0.122871 0.496630 -0.859222
vn -0.458036 -0.458037 0.761843
vn -0.761842 -0.458037 0.458037
vn -0.458037 -0.761842 0.458038
vn 0.761842 -0.458038 0.458037
vn 0.458037 -0.458038 0.761842
vn 0.458037 -0.761842 0.458038
vn -0.761842 -0.458037 -0.458037
vn -0.458038 -0.458038 -0.761841
vn -0.458038 -0.761842 -0.458037
vn 0.458038 -0.458038 -0.761841
vn 0.761842 -0.458038 -0.458038
vn 0.458038 -0.761842 -0.458038
vn -0.458037 0.761842 0.458038
vn -0.761843 0.458037 0.458037
vn -0.458036 0.458038 0.761843
vn 0.761843 0.458037 0.458037
vn 0.458038 0.761842 0.458038
vn 0.458036 0.458038 0.761843
vn 0.458037 0.458038 -0.761842
vn 0.458037 0.761842 -0.458038
vn 0.761842 0.458038 -0.458037
vn -0.761842 0.458037 -0.458037
vn -0.458038 0.761842 -0.458037
vn -0.458038 0.458038 -0.761841
f 94/20/1 86/16/2 81/13/3 89/17/4
f 102/24/5 94/20/1 89/17/4 97/21/6
f 22/2/7 30/6/8 34/8/9 26/4/10
f 30/6/8 38/10/11 42/12/12 34/8/9
f 23/3/13 31/7/14 90/18/15 82/14/16
f 27/5/17 19/1/18 85/15/19 93/19/20
f 31/7/14 39/11/21 98/22/22 90/18/15
f 35/9/23 27/5/17 93/19/20 101/23/24
f 19//18 4//25 64//26 85//19
f 26//10 16//27 7//28 22//7
f 13//29 76//30 67//31 1//32
f 82//16 70//33 10//34 23//13
f 38//11 49//35 58//36 42//12
f 39//21 55//37 109//38 98//22
f 118//39 103//40 52//41 46//42
f 101//24 112//43 43//44 35//23
f 86//2 61//45 73//46 81//3
f 97//6 106//47 115//48 102//5
f 4//25 3//49 65//50 64//26
f 3//49 2//51 66//52 65//50
f 2//51 1//32 67//31 66//52
f 7//28 6//53 21//54 22//7
f 6//53 5//55 20//56 21//57
f 5//55 4//25 19//18 20//58
f 1//32 9//59 14//60 13//29
f 9//59 8//61 15//62 14//60
f 8//61 7//28 16//27 15//62
f 13//29 12//63 77//64 76//30
f 12//63 11//65 78//66 77//64
f 11//65 10//34 70//33 78//66
f 10//34 18//67 24//68 23//13
f 18//67 17//69 25//70 24//68
f 17//69 16//27 26//10 25//71
f 22//7 21//72 29//73 30//8
f 21//74 20//75 28//76 29//77
f 20//78 19//18 27//17 28//79
f 23//13 24//80 32//81 31//14
f 24//80 25//82 33//83 32//81
f 25//84 26//10 34//9 33//85
f 30//8 29//86 37//87 38//11
f 29//88 28//89 36//90 37//91
f 28//92 27//17 35//23 36//93
f 31//14 32//94 40//95 39//21
f 32//94 33//96 41//97 40//95
f 33//98 34//9 42//12 41//99
f 38//11 37//100 50//101 49//35
f 37//102 36//103 51//104 50//101
f 36//105 35//23 43//44 51//104
f 39//21 40//106 56//107 55//37
f 40//106 41//108 57//109 56//107
f 41//110 42//12 58//36 57//109
f 46//42 45//111 119//112 118//39
f 45//111 44//113 120//114 119//112
f 44//113 43//44 112//43 120//114
f 49//35 48//115 59//116 58//36
f 48//115 47//117 60//118 59//116
f 47//117 46//42 52//41 60//118
f 55//37 54//119 110//120 109//38
f 54//119 53//121 111//122 110//120
f 53//121 52//41 103//40 111//122
f 64//26 63//123 84//124 85//19
f 63//123 62//125 83//126 84//127
f 62//125 61//45 86//2 83//126
f 61//45 69//128 74//129 73//46
f 69//128 68//130 75//131 74//129
f 68//130 67//31 76//30 75//131
f 73//46 72//132 80//133 81//3
f 72//132 71//134 79//135 80//133
f 71//134 70//33 82//16 79//135
f 81//3 80//136 88//137 89//4
f 80//136 79//138 87//139 88//137
f 79//138 82//16 90//15 87//139
f 85//19 84//140 92//141 93//20
f 84//142 83//143 91//144 92//145
f 83//143 86//2 94//1 91//144
f 89//4 88//146 96//147 97//6
f 88//146 87//148 95//149 96//147
f 87//148 90//15 98//22 95//149
f 93//20 92//150 100//151 101//24
f 92//152 91//153 99//154 100//155
f 91//153 94//1 102//5 99//154
f 97//6 96//156 107//157 106//47
f 96//156 95//158 108//159 107//157
f 95//158 98//22 109//38 108//159
f 101//24 100//160 113//161 112//43
f 100//162 99//163 114//164 113//161
f 99//163 102//5 115//48 114//164
f 106//47 105//165 116//166 115//48
f 105//165 104//167 117//168 116//166
f 104//167 103//40 118//39 117//168
f 9//59 1//32 2//51 121//169
f 121//169 2//51 3//49 122//170
f 3//49 4//25 5//55 122//170
f 122//170 5//55 6//53 123//171
f 6//53 7//28 8//61 123//171
f 123//171 8//61 9//59 121//169
f 121//169 122//170 123//171
f 18//67 10//34 11//65 124//172
f 124//172 11//65 12//63 125//173
f 12//63 13//29 14//60 125//173
f 125//173 14//60 15//62 126//174
f 15//62 16//27 17//69 126//174
f 126//174 17//69 18//67 124//172
f 124//172 125//173 126//174
f 51//104 43//44 44//113 127//175
f 127//175 44//113 45//111 128//176
f 45//111 46//42 47//117 128//176
f 128//176 47//117 48//115 129//177
f 48//115 49//35 50//101 129//177
f 129//177 50//101 51//104 127//175
f 127//175 128//176 129//177
f 60//118 52//41 53//121 130//178
f 130//178 53//121 54//119 131//179
f 54//119 55//37 56//107 131//179
f 131//179 56//107 57//109 132//180
f 57//109 58//36 59//116 132//180
f 132//180 59//116 60//118 130//178
f 130//178 131//179 132//180
f 69//128 61//45 62//125 133//181
f 133//181 62//125 63//123 134//182
f 63//123 64//26 65//50 134//182
f 134//182 65//50 66//52 135//183
f 66//52 67//31 68//130 135//183
f 135//183 68//130 69//128 133//181
f 133//181 134//182 135//183
f 78//66 70//33 71//134 136//184
f 136//184 71//134 72//132 137//185
f 72//132 73//46 74//129 137//185
f 137//185 74//129 75//131 138//186
f 75//131 76//30 77//64 138//186
f 138//186 77//64 78//66 136//184
f 136//184 137//185 138//186
f 111//122 103//40 104//167 139//187
f 139//187 104//167 105//165 140//188
f 105//165 106//47 107//157 140//188
f 140//188 107//157 108//159 141//189
f 108//159 109//38 110//120 141//189
f 141//189 110//120 111//122 139//187
f 139//187 140//188 141//189
f 120//114 112//43 113//161 142//190
f 142//190 113//161 114//164 143//191
f 114//164 115//48 116//166 143//191
f 143//191 116//166 117//168 144//192
f 117//168 118//39 119//112 144//192
f 144//192 119//112 120//114 142//190
f 142//190 143//191 144//192
