# Blender v2.74 (sub 0) OBJ File: 'ld32_foodfight_env.blend'
# www.blender.org
o Cylinder.003_Cylinder.005
v 0.000000 0.784964 0.121824
v 0.308878 1.086633 0.244441
v -0.117979 1.137336 0.373537
v -0.381797 1.004596 0.035563
v -0.117979 0.871855 -0.302412
v 0.308878 0.922558 -0.173315
v 0.117979 1.492709 0.233963
v -0.308878 1.442006 0.104866
v -0.308878 1.277931 -0.312889
v 0.117979 1.227228 -0.441986
v 0.381797 1.359968 -0.104011
v 0.000000 1.579600 -0.190272
v 0.000035 0.135653 -0.396868
v 0.000000 0.902328 -0.334224
v 0.150046 0.135653 -0.365532
v 0.122021 0.902328 -0.308288
v 0.274118 0.135653 -0.276944
v 0.222943 0.902328 -0.234964
v 0.350798 0.135653 -0.146420
v 0.285317 0.902328 -0.126929
v 0.366829 0.135653 0.003471
v 0.298357 0.902328 -0.002866
v 0.319438 0.135653 0.146810
v 0.259808 0.902328 0.115776
v 0.216819 0.135653 0.258814
v 0.176336 0.902328 0.208481
v 0.076716 0.135653 0.320116
v 0.062373 0.902328 0.259220
v -0.076645 0.135653 0.320115
v -0.062374 0.902328 0.259220
v -0.216748 0.135653 0.258814
v -0.176336 0.902328 0.208481
v -0.319367 0.135653 0.146810
v -0.259808 0.902328 0.115776
v -0.366758 0.135653 0.003470
v -0.298357 0.902328 -0.002866
v -0.350728 0.135653 -0.146420
v -0.285317 0.902328 -0.126930
v -0.274047 0.135653 -0.276944
v -0.222943 0.902328 -0.234964
v -0.149975 0.135653 -0.365532
v -0.122021 0.902328 -0.308288
v -0.405087 0.004734 0.091950
v -0.405087 0.089030 0.091950
v -0.405087 0.004734 -0.396868
v -0.405087 0.089030 -0.396868
v 0.405158 0.004734 0.091950
v 0.405158 0.089030 0.091950
v 0.405158 0.004734 -0.396868
v 0.405158 0.089030 -0.396868
v -0.001618 0.089030 0.460005
v -0.005897 0.004734 0.460005
v 0.000035 0.391211 -0.396868
v 0.000000 0.646769 -0.334224
v 0.122021 0.646769 -0.308288
v 0.150046 0.391211 -0.365532
v 0.222943 0.646769 -0.234964
v 0.274118 0.391211 -0.276944
v 0.285317 0.646769 -0.126929
v 0.350798 0.391211 -0.146420
v 0.298357 0.646769 -0.002866
v 0.366829 0.391211 0.003471
v 0.259808 0.646769 0.115776
v 0.319438 0.391211 0.146810
v 0.176336 0.646769 0.208481
v 0.216819 0.391211 0.258814
v 0.062373 0.646769 0.259220
v 0.076716 0.391211 0.320116
v -0.062374 0.646769 0.259220
v -0.076645 0.391211 0.320115
v -0.176336 0.646769 0.208481
v -0.216748 0.391211 0.258814
v -0.259808 0.646769 0.115776
v -0.319367 0.391211 0.146810
v -0.298357 0.646769 -0.002866
v -0.366758 0.391211 0.003470
v -0.285317 0.646769 -0.126930
v -0.350728 0.391211 -0.146420
v -0.222943 0.646769 -0.234964
v -0.274047 0.391211 -0.276944
v -0.122021 0.646769 -0.308288
v -0.149975 0.391211 -0.365532
vt 0.314897 0.537097
vt 0.392085 0.648355
vt 0.312898 0.668285
vt 0.492314 0.557307
vt 0.182121 0.657710
vt 0.144058 0.482416
vt 0.421108 0.393555
vt 0.495438 0.735845
vt 0.364661 0.725270
vt 0.285474 0.745200
vt 0.029064 0.749682
vt 0.185245 0.836248
vt 0.645371 0.465335
vt 0.648495 0.643873
vt 0.032189 0.928220
vt 0.362662 0.856457
vt 0.256451 1.000000
vt 0.533501 0.911138
vt 1.000000 0.383976
vt 0.933333 0.383976
vt 0.933333 0.256197
vt 0.866667 0.383976
vt 0.866667 0.256197
vt 0.800000 0.383976
vt 0.800000 0.256197
vt 0.733333 0.383976
vt 0.733333 0.256197
vt 0.666667 0.383976
vt 0.666667 0.256197
vt 0.600000 0.383976
vt 0.600000 0.256197
vt 0.533333 0.383976
vt 0.533333 0.256197
vt 0.466667 0.383976
vt 0.466667 0.256197
vt 0.400000 0.383976
vt 0.400000 0.256197
vt 0.333333 0.383976
vt 0.333333 0.256197
vt 0.266667 0.383976
vt 0.266667 0.256197
vt 0.200000 0.383976
vt 0.200000 0.256197
vt 0.133333 0.383976
vt 0.133333 0.256197
vt 0.000000 0.000000
vt 0.066667 0.383976
vt 0.000000 0.383976
vt 0.000000 0.256197
vt 0.066667 0.256197
vt 0.921733 0.570472
vt 0.960866 0.570472
vt 0.960866 0.809975
vt 1.000000 0.570472
vt 1.000000 0.960614
vt 0.881397 0.837942
vt 0.920526 0.838227
vt 0.921733 1.000000
vt 0.882582 0.571707
vt 0.432010 0.935276
vt 0.432010 0.985630
vt 0.344762 0.935276
vt 0.881397 0.750805
vt 0.881397 0.990308
vt 0.575433 0.750805
vt 0.921733 0.809975
vt 0.960866 0.990308
vt 0.133333 0.128418
vt 0.066667 0.128418
vt 0.066667 0.000639
vt 0.000000 0.128418
vt 0.000000 0.000639
vt 0.200000 0.128418
vt 0.133333 0.000639
vt 0.266667 0.128418
vt 0.200000 0.000639
vt 0.333333 0.128418
vt 0.266667 0.000639
vt 0.400000 0.128418
vt 0.333333 0.000639
vt 0.466667 0.128418
vt 0.400000 0.000639
vt 0.533333 0.128418
vt 0.466667 0.000639
vt 0.600000 0.128418
vt 0.533333 0.000639
vt 0.666667 0.128418
vt 0.600000 0.000639
vt 0.733333 0.128418
vt 0.666667 0.000639
vt 0.800000 0.128418
vt 0.733333 0.000639
vt 0.866667 0.128418
vt 0.800000 0.000639
vt 0.933333 0.128418
vt 0.866667 0.000639
vt 1.000000 0.128418
vt 0.933333 0.000639
vt 1.000000 0.256197
vt 0.960867 0.960614
vt 0.882604 0.999715
vt 0.389025 0.897362
vt 0.344762 0.985630
vt 0.727791 0.570472
vt 0.575433 0.990308
vt 0.921733 0.990308
vt 1.000000 0.000639
vn 0.187600 -0.528600 0.827900
vn 0.607100 -0.739700 0.290500
vn -0.491100 -0.609200 0.622600
vn -0.491100 -0.870100 -0.041600
vn 0.187600 -0.950700 -0.246900
vn 0.982200 -0.174600 0.068600
vn 0.303500 0.166900 0.938100
vn -0.794600 0.036500 0.606000
vn -0.794600 -0.385700 -0.468800
vn 0.303500 -0.516100 -0.800900
vn 0.794600 0.385700 0.468800
vn -0.303500 0.516100 0.800900
vn -0.982200 0.174600 -0.068600
vn -0.303500 -0.166900 -0.938100
vn 0.794600 -0.036500 -0.606000
vn 0.491100 0.870100 0.041600
vn -0.187600 0.950700 0.246900
vn -0.607100 0.739600 -0.290500
vn -0.187600 0.528600 -0.827900
vn 0.491100 0.609200 -0.622600
vn 0.207900 0.000000 -0.978100
vn 0.587800 0.000000 -0.809000
vn 0.866000 0.000000 -0.500000
vn 0.994500 0.000000 -0.104500
vn 0.951100 0.000000 0.309000
vn 0.743100 0.000000 0.669100
vn 0.406700 0.000000 0.913500
vn -0.000000 0.000000 1.000000
vn -0.406700 0.000000 0.913500
vn -0.743100 0.000000 0.669100
vn -0.951100 0.000000 0.309000
vn -0.994500 0.000000 -0.104500
vn -0.866000 0.000000 -0.500000
vn 0.000000 1.000000 -0.000000
vn -0.207900 0.000000 -0.978100
vn -0.587800 0.000000 -0.809000
vn 0.000000 -1.000000 0.000000
vn -1.000000 0.000000 0.000000
vn 0.000000 0.000000 -1.000000
vn 1.000000 0.000000 0.000000
vn 0.666700 -0.033800 0.744600
vn -0.677900 0.000000 0.735200
vn -0.581100 0.000000 -0.813800
vn -0.570800 0.238400 -0.785700
vn -0.204500 0.000000 -0.978900
vn -0.202200 0.233100 -0.951200
vn -0.862200 0.000000 -0.506500
vn -0.839100 0.247400 -0.484500
vn -0.994300 0.000000 -0.106300
vn -0.961900 0.253900 -0.101100
vn -0.949500 0.000000 0.313900
vn -0.920600 0.250900 0.299100
vn -0.737300 0.000000 0.675500
vn -0.721100 0.241900 0.649300
vn -0.400900 0.000000 0.916100
vn -0.395500 0.233700 0.888200
vn -0.000000 0.231800 0.972800
vn 0.400900 0.000000 0.916100
vn 0.395500 0.233800 0.888200
vn 0.737300 0.000000 0.675500
vn 0.721000 0.242100 0.649200
vn 0.949500 0.000000 0.313900
vn 0.920600 0.251100 0.299100
vn 0.994300 0.000000 -0.106300
vn 0.961900 0.254200 -0.101100
vn 0.862200 0.000000 -0.506500
vn 0.839100 0.247600 -0.484400
vn 0.581100 0.000000 -0.813800
vn 0.570800 0.238600 -0.785700
vn 0.204500 0.000000 -0.978900
vn 0.202200 0.233200 -0.951200
vn 0.670900 0.000000 0.741500
vn -0.673500 0.034200 0.738400
vn -0.563800 0.242400 -0.789600
vn -0.198800 0.234900 -0.951500
vn -0.834600 0.251000 -0.490300
vn -0.961500 0.254800 -0.102800
vn -0.918500 0.253400 0.303700
vn -0.714700 0.246100 0.654800
vn -0.389400 0.236900 0.890100
vn 0.389400 0.237000 0.890000
vn 0.714600 0.246300 0.654700
vn 0.918400 0.253600 0.303600
vn 0.961400 0.255100 -0.102800
vn 0.834600 0.251200 -0.490300
vn 0.563700 0.242600 -0.789500
vn 0.198800 0.234900 -0.951500
s off
f 1/1/1 2/2/1 3/3/1
f 2/2/2 1/1/2 6/4/2
f 1/1/3 3/3/3 4/5/3
f 1/1/4 4/5/4 5/6/4
f 1/1/5 5/7/5 6/4/5
f 2/2/6 6/4/6 11/8/6
f 3/3/7 2/2/7 7/9/7
f 4/5/8 3/3/8 8/10/8
f 5/11/9 4/5/9 9/12/9
f 6/4/10 5/13/10 10/14/10
f 2/2/11 11/8/11 7/9/11
f 3/3/12 7/9/12 8/10/12
f 4/5/13 8/10/13 9/12/13
f 5/11/14 9/12/14 10/15/14
f 6/4/15 10/14/15 11/8/15
f 7/9/16 11/8/16 12/16/16
f 8/10/17 7/9/17 12/16/17
f 9/12/18 8/10/18 12/16/18
f 10/17/19 9/12/19 12/16/19
f 11/8/20 10/18/20 12/16/20
f 14/19/21 16/20/21 55/21/21
f 16/20/22 18/22/22 57/23/22
f 18/22/23 20/24/23 59/25/23
f 20/24/24 22/26/24 61/27/24
f 22/26/25 24/28/25 63/29/25
f 24/28/26 26/30/26 65/31/26
f 26/30/27 28/32/27 67/33/27
f 28/32/28 30/34/28 69/35/28
f 30/34/29 32/36/29 71/37/29
f 32/36/30 34/38/30 73/39/30
f 34/38/31 36/40/31 75/41/31
f 36/40/32 38/42/32 77/43/32
f 38/42/33 40/44/33 79/45/33
f 14/46/34 36/46/34 32/46/34
f 42/47/35 14/48/35 54/49/35
f 40/44/36 42/47/36 81/50/36
f 15/46/37 17/46/37 25/46/37
f 46/51/38 45/52/38 43/53/38
f 50/52/39 49/54/39 45/55/39
f 48/56/40 47/57/40 49/58/40
f 51/59/41 52/51/41 47/57/41
f 43/60/37 45/61/37 47/62/37
f 48/63/34 50/64/34 44/65/34
f 44/66/42 43/53/42 52/67/42
f 80/68/43 82/69/43 41/70/43
f 79/45/44 81/50/44 82/69/44
f 82/69/45 53/71/45 13/72/45
f 81/50/46 54/49/46 53/71/46
f 78/73/47 80/68/47 39/74/47
f 77/43/48 79/45/48 80/68/48
f 76/75/49 78/73/49 37/76/49
f 75/41/50 77/43/50 78/73/50
f 74/77/51 76/75/51 35/78/51
f 74/77/52 73/39/52 75/41/52
f 72/79/53 74/77/53 33/80/53
f 72/79/54 71/37/54 73/39/54
f 70/81/55 72/79/55 31/82/55
f 70/81/56 69/35/56 71/37/56
f 68/83/28 70/81/28 29/84/28
f 67/33/57 69/35/57 70/81/57
f 66/85/58 68/83/58 27/86/58
f 65/31/59 67/33/59 68/83/59
f 64/87/60 66/85/60 25/88/60
f 63/29/61 65/31/61 66/85/61
f 62/89/62 64/87/62 23/90/62
f 61/27/63 63/29/63 64/87/63
f 60/91/64 62/89/64 21/92/64
f 60/91/65 59/25/65 61/27/65
f 58/93/66 60/91/66 19/94/66
f 58/93/67 57/23/67 59/25/67
f 56/95/68 58/93/68 17/96/68
f 56/95/69 55/21/69 57/23/69
f 53/97/70 56/95/70 15/98/70
f 53/97/71 54/99/71 55/21/71
f 54/99/21 14/19/21 55/21/21
f 55/21/22 16/20/22 57/23/22
f 57/23/23 18/22/23 59/25/23
f 59/25/24 20/24/24 61/27/24
f 61/27/25 22/26/25 63/29/25
f 63/29/26 24/28/26 65/31/26
f 65/31/27 26/30/27 67/33/27
f 67/33/28 28/32/28 69/35/28
f 69/35/29 30/34/29 71/37/29
f 71/37/30 32/36/30 73/39/30
f 73/39/31 34/38/31 75/41/31
f 75/41/32 36/40/32 77/43/32
f 77/43/33 38/42/33 79/45/33
f 14/46/34 18/46/34 16/46/34
f 24/46/34 22/46/34 20/46/34
f 28/46/34 26/46/34 24/46/34
f 32/46/34 30/46/34 28/46/34
f 36/46/34 34/46/34 32/46/34
f 14/46/34 38/46/34 36/46/34
f 14/46/34 42/46/34 40/46/34
f 20/46/34 18/46/34 14/46/34
f 28/46/34 24/46/34 20/46/34
f 14/46/34 32/46/34 28/46/34
f 14/46/34 40/46/34 38/46/34
f 28/46/34 20/46/34 14/46/34
f 81/50/35 42/47/35 54/49/35
f 79/45/36 40/44/36 81/50/36
f 29/46/37 41/46/37 13/46/37
f 33/46/37 37/46/37 39/46/37
f 37/46/37 33/46/37 35/46/37
f 41/46/37 29/46/37 31/46/37
f 15/46/37 25/46/37 27/46/37
f 19/46/37 21/46/37 23/46/37
f 23/46/37 17/46/37 19/46/37
f 27/46/37 13/46/37 15/46/37
f 31/46/37 33/46/37 39/46/37
f 13/46/37 27/46/37 29/46/37
f 25/46/37 17/46/37 23/46/37
f 31/46/37 39/46/37 41/46/37
f 44/66/38 46/51/38 43/53/38
f 46/100/39 50/52/39 45/55/39
f 50/101/40 48/56/40 49/58/40
f 48/56/72 51/59/72 47/57/72
f 47/62/37 52/102/37 43/60/37
f 45/61/37 49/103/37 47/62/37
f 44/65/34 51/104/34 48/63/34
f 50/64/34 46/105/34 44/65/34
f 51/106/73 44/66/73 52/67/73
f 39/74/43 80/68/43 41/70/43
f 80/68/74 79/45/74 82/69/74
f 41/70/45 82/69/45 13/72/45
f 82/69/75 81/50/75 53/71/75
f 37/76/47 78/73/47 39/74/47
f 78/73/76 77/43/76 80/68/76
f 35/78/49 76/75/49 37/76/49
f 76/75/77 75/41/77 78/73/77
f 33/80/51 74/77/51 35/78/51
f 76/75/78 74/77/78 75/41/78
f 31/82/53 72/79/53 33/80/53
f 74/77/79 72/79/79 73/39/79
f 29/84/55 70/81/55 31/82/55
f 72/79/80 70/81/80 71/37/80
f 27/86/28 68/83/28 29/84/28
f 68/83/57 67/33/57 70/81/57
f 25/88/58 66/85/58 27/86/58
f 66/85/81 65/31/81 68/83/81
f 23/90/60 64/87/60 25/88/60
f 64/87/82 63/29/82 66/85/82
f 21/92/62 62/89/62 23/90/62
f 62/89/83 61/27/83 64/87/83
f 19/94/64 60/91/64 21/92/64
f 62/89/84 60/91/84 61/27/84
f 17/96/66 58/93/66 19/94/66
f 60/91/85 58/93/85 59/25/85
f 15/98/68 56/95/68 17/96/68
f 58/93/86 56/95/86 57/23/86
f 13/107/70 53/97/70 15/98/70
f 56/95/87 53/97/87 55/21/87
