# Blender v2.74 (sub 0) OBJ File: 'ld32_foodfight_env.blend'
# www.blender.org
o Grid
v -10.000000 0.000000 -10.000000
v -10.000000 0.000000 -7.777778
v -10.000000 0.000000 -5.555556
v -10.000000 0.000000 -3.333333
v -10.000000 0.000000 -1.111111
v -10.000000 0.000000 1.111112
v -10.000000 0.000000 3.333334
v -10.000000 0.000000 5.555556
v -10.000000 0.000000 7.777778
v -10.000000 0.000000 10.000000
v -7.777778 0.000000 -10.000000
v -7.777778 0.000000 -7.777778
v -7.777778 0.000000 -5.555556
v -7.777778 0.000000 -3.333333
v -7.777778 0.000000 -1.111111
v -7.777778 0.000000 1.111112
v -7.777778 0.000000 3.333334
v -7.777778 0.000000 5.555556
v -7.777778 0.000000 7.777778
v -7.777778 0.000000 10.000000
v -5.555556 0.000000 -10.000000
v -5.555556 0.000000 -7.777778
v -5.555556 0.000000 -5.555556
v -5.555556 0.000000 -3.333333
v -5.555556 0.000000 -1.111111
v -5.555556 0.000000 1.111112
v -5.555556 0.000000 3.333334
v -5.555556 0.000000 5.555556
v -5.555556 0.000000 7.777778
v -5.555556 0.000000 10.000000
v -3.333333 0.000000 -10.000000
v -3.333333 0.000000 -7.777778
v -3.333333 0.000000 -5.555556
v -3.333333 0.000000 -3.333333
v -3.333333 0.000000 -1.111111
v -3.333333 0.000000 1.111112
v -3.333333 0.000000 3.333334
v -3.333333 0.000000 5.555556
v -3.333333 0.000000 7.777778
v -3.333333 0.000000 10.000000
v -1.111111 0.000000 -10.000000
v -1.111111 0.000000 -7.777778
v -1.111111 0.000000 -5.555556
v -1.111111 0.000000 -3.333333
v -1.111111 0.000000 -1.111111
v -1.111111 0.000000 1.111112
v -1.111111 0.000000 3.333334
v -1.111111 0.000000 5.555556
v -1.111111 0.000000 7.777778
v -1.111111 0.000000 10.000000
v 1.111112 0.000000 -10.000000
v 1.111112 0.000000 -7.777778
v 1.111112 0.000000 -5.555556
v 1.111112 0.000000 -3.333333
v 1.111112 0.000000 -1.111111
v 1.111112 0.000000 1.111112
v 1.111112 0.000000 3.333334
v 1.111112 0.000000 5.555556
v 1.111112 0.000000 7.777778
v 1.111112 0.000000 10.000000
v 3.333334 0.000000 -10.000000
v 3.333334 0.000000 -7.777778
v 3.333334 0.000000 -5.555556
v 3.333334 0.000000 -3.333333
v 3.333334 0.000000 -1.111111
v 3.333334 0.000000 1.111112
v 3.333334 0.000000 3.333334
v 3.333334 0.000000 5.555556
v 3.333334 0.000000 7.777778
v 3.333334 0.000000 10.000000
v 5.555556 0.000000 -10.000000
v 5.555556 0.000000 -7.777778
v 5.555556 0.000000 -5.555556
v 5.555556 0.000000 -3.333333
v 5.555556 0.000000 -1.111111
v 5.555556 0.000000 1.111112
v 5.555556 0.000000 3.333334
v 5.555556 0.000000 5.555556
v 5.555556 0.000000 7.777778
v 5.555556 0.000000 10.000000
v 7.777778 0.000000 -10.000000
v 7.777778 0.000000 -7.777778
v 7.777778 0.000000 -5.555556
v 7.777778 0.000000 -3.333333
v 7.777778 0.000000 -1.111111
v 7.777778 0.000000 1.111112
v 7.777778 0.000000 3.333334
v 7.777778 0.000000 5.555556
v 7.777778 0.000000 7.777778
v 7.777778 0.000000 10.000000
v 10.000000 0.000000 -10.000000
v 10.000000 0.000000 -7.777778
v 10.000000 0.000000 -5.555556
v 10.000000 0.000000 -3.333333
v 10.000000 0.000000 -1.111111
v 10.000000 0.000000 1.111112
v 10.000000 0.000000 3.333334
v 10.000000 0.000000 5.555556
v 10.000000 0.000000 7.777778
v 10.000000 0.000000 10.000000
v -10.000000 3.756761 -10.000000
v -10.000000 3.756761 -7.777778
v -10.000000 3.756761 -5.555556
v -10.000000 3.756761 -3.333333
v -10.000000 3.756761 -1.111111
v -10.000000 3.756761 1.111112
v -10.000000 3.756761 3.333334
v -10.000000 3.756761 5.555556
v -10.000000 3.756761 7.777778
v -10.000000 3.756761 10.000000
v -7.777778 3.756761 -10.000000
v -5.555556 3.756761 -10.000000
v -3.333333 3.756761 -10.000000
v -1.111111 3.756761 -10.000000
v 1.111112 3.756761 -10.000000
v 3.333334 3.756761 -10.000000
v 5.555556 3.756761 -10.000000
v 7.777778 3.756761 -10.000000
v 10.000000 3.756761 -10.000000
v 10.000000 3.756761 -7.777778
v 10.000000 3.756761 -5.555556
v 10.000000 3.756761 -3.333333
v 10.000000 3.756761 -1.111111
v 10.000000 3.756761 1.111112
v 10.000000 3.756761 3.333334
v 10.000000 3.756761 5.555556
v 10.000000 3.756761 7.777778
v 10.000000 3.756761 10.000000
vt 0.062670 0.000000
vt 0.062670 0.055556
vt 0.000000 0.055556
vt 0.125339 0.000000
vt 0.125339 0.055556
vt 0.188009 0.000000
vt 0.188009 0.055556
vt 0.250679 0.000000
vt 0.250679 0.055556
vt 0.313348 0.000000
vt 0.313348 0.055556
vt 0.376018 0.000000
vt 0.376018 0.055556
vt 0.438687 0.000000
vt 0.438687 0.055556
vt 0.501357 0.000000
vt 0.501357 0.055556
vt 0.564027 0.000000
vt 0.564027 0.055556
vt 0.062670 0.111111
vt 0.000000 0.111111
vt 0.125339 0.111111
vt 0.188009 0.111111
vt 0.250679 0.111111
vt 0.313348 0.111111
vt 0.376018 0.111111
vt 0.438687 0.111111
vt 0.501357 0.111111
vt 0.564027 0.111111
vt 0.062670 0.166667
vt 0.000000 0.166667
vt 0.125339 0.166667
vt 0.188009 0.166667
vt 0.250679 0.166667
vt 0.313348 0.166667
vt 0.376018 0.166667
vt 0.438687 0.166667
vt 0.501357 0.166667
vt 0.564027 0.166667
vt 0.062670 0.222222
vt 0.000000 0.222222
vt 0.125339 0.222222
vt 0.188009 0.222222
vt 0.250679 0.222222
vt 0.313348 0.222222
vt 0.376018 0.222222
vt 0.438688 0.222222
vt 0.501357 0.222222
vt 0.564027 0.222222
vt 0.062670 0.277778
vt 0.000000 0.277778
vt 0.125339 0.277778
vt 0.188009 0.277778
vt 0.250679 0.277778
vt 0.313348 0.277778
vt 0.376018 0.277778
vt 0.438688 0.277778
vt 0.501357 0.277778
vt 0.564027 0.277778
vt 0.062670 0.333333
vt 0.000000 0.333333
vt 0.125339 0.333333
vt 0.188009 0.333333
vt 0.250679 0.333333
vt 0.313348 0.333333
vt 0.376018 0.333333
vt 0.438688 0.333333
vt 0.501357 0.333333
vt 0.564027 0.333333
vt 0.062670 0.388889
vt 0.000000 0.388889
vt 0.125339 0.388889
vt 0.188009 0.388889
vt 0.250679 0.388889
vt 0.313348 0.388889
vt 0.376018 0.388889
vt 0.438688 0.388889
vt 0.501357 0.388889
vt 0.564027 0.388889
vt 0.062670 0.444444
vt 0.000000 0.444444
vt 0.125339 0.444444
vt 0.188009 0.444444
vt 0.250679 0.444444
vt 0.313348 0.444444
vt 0.376018 0.444444
vt 0.438688 0.444444
vt 0.501357 0.444444
vt 0.564027 0.444444
vt 0.062670 0.500000
vt 0.000000 0.500000
vt 0.125339 0.500000
vt 0.188009 0.500000
vt 0.250679 0.500000
vt 0.313348 0.500000
vt 0.376018 0.500000
vt 0.438688 0.500000
vt 0.501357 0.500000
vt 0.564027 0.500000
vt 0.782013 0.444444
vt 0.782013 0.166667
vt 1.000000 0.277778
vt 0.782013 0.277778
vt 0.782013 0.222222
vt 0.000000 0.666667
vt 0.217986 0.666667
vt 0.217986 0.722222
vt 1.000000 0.333333
vt 0.782013 0.333333
vt 0.000000 0.944444
vt 0.217987 0.944444
vt 0.217987 1.000000
vt 0.782013 0.055556
vt 0.000000 0.555556
vt 0.217986 0.555556
vt 0.217986 0.611111
vt 1.000000 0.388889
vt 0.782013 0.388889
vt 0.000000 0.833333
vt 0.217987 0.833333
vt 0.217987 0.888889
vt 1.000000 0.444444
vt 0.782013 0.111111
vt 1.000000 0.500000
vt 0.782014 0.500000
vt 0.000000 0.722222
vt 0.217986 0.777778
vt 1.000000 0.055556
vt 0.782013 0.000000
vt 0.000000 0.611111
vt 1.000000 0.111111
vt 0.000000 0.888889
vt 1.000000 0.166667
vt 0.217986 0.500000
vt 1.000000 0.222222
vt 0.000000 0.777778
vt 0.000000 0.000000
vt 0.000000 1.000000
vt 1.000000 0.000000
vn 0.000000 1.000000 0.000000
vn 0.000000 0.000000 1.000000
vn 1.000000 0.000000 0.000000
vn -1.000000 0.000000 0.000000
s off
f 2/1/1 12/2/1 11/3/1
f 3/4/1 13/5/1 12/2/1
f 4/6/1 14/7/1 13/5/1
f 5/8/1 15/9/1 14/7/1
f 6/10/1 16/11/1 15/9/1
f 7/12/1 17/13/1 16/11/1
f 8/14/1 18/15/1 17/13/1
f 9/16/1 19/17/1 18/15/1
f 10/18/1 20/19/1 19/17/1
f 12/2/1 22/20/1 21/21/1
f 13/5/1 23/22/1 22/20/1
f 14/7/1 24/23/1 23/22/1
f 15/9/1 25/24/1 24/23/1
f 16/11/1 26/25/1 25/24/1
f 17/13/1 27/26/1 26/25/1
f 18/15/1 28/27/1 27/26/1
f 19/17/1 29/28/1 28/27/1
f 20/19/1 30/29/1 29/28/1
f 22/20/1 32/30/1 31/31/1
f 23/22/1 33/32/1 32/30/1
f 24/23/1 34/33/1 33/32/1
f 25/24/1 35/34/1 34/33/1
f 26/25/1 36/35/1 35/34/1
f 27/26/1 37/36/1 36/35/1
f 28/27/1 38/37/1 37/36/1
f 29/28/1 39/38/1 38/37/1
f 30/29/1 40/39/1 39/38/1
f 32/30/1 42/40/1 41/41/1
f 33/32/1 43/42/1 42/40/1
f 34/33/1 44/43/1 43/42/1
f 35/34/1 45/44/1 44/43/1
f 36/35/1 46/45/1 45/44/1
f 37/36/1 47/46/1 46/45/1
f 38/37/1 48/47/1 47/46/1
f 39/38/1 49/48/1 48/47/1
f 40/39/1 50/49/1 49/48/1
f 42/40/1 52/50/1 51/51/1
f 43/42/1 53/52/1 52/50/1
f 44/43/1 54/53/1 53/52/1
f 45/44/1 55/54/1 54/53/1
f 46/45/1 56/55/1 55/54/1
f 47/46/1 57/56/1 56/55/1
f 48/47/1 58/57/1 57/56/1
f 49/48/1 59/58/1 58/57/1
f 50/49/1 60/59/1 59/58/1
f 52/50/1 62/60/1 61/61/1
f 53/52/1 63/62/1 62/60/1
f 54/53/1 64/63/1 63/62/1
f 55/54/1 65/64/1 64/63/1
f 56/55/1 66/65/1 65/64/1
f 57/56/1 67/66/1 66/65/1
f 58/57/1 68/67/1 67/66/1
f 59/58/1 69/68/1 68/67/1
f 60/59/1 70/69/1 69/68/1
f 62/60/1 72/70/1 71/71/1
f 63/62/1 73/72/1 72/70/1
f 64/63/1 74/73/1 73/72/1
f 65/64/1 75/74/1 74/73/1
f 66/65/1 76/75/1 75/74/1
f 67/66/1 77/76/1 76/75/1
f 68/67/1 78/77/1 77/76/1
f 69/68/1 79/78/1 78/77/1
f 70/69/1 80/79/1 79/78/1
f 72/70/1 82/80/1 81/81/1
f 73/72/1 83/82/1 82/80/1
f 74/73/1 84/83/1 83/82/1
f 75/74/1 85/84/1 84/83/1
f 76/75/1 86/85/1 85/84/1
f 77/76/1 87/86/1 86/85/1
f 78/77/1 88/87/1 87/86/1
f 79/78/1 89/88/1 88/87/1
f 80/79/1 90/89/1 89/88/1
f 82/80/1 92/90/1 91/91/1
f 83/82/1 93/92/1 92/90/1
f 84/83/1 94/93/1 93/92/1
f 85/84/1 95/94/1 94/93/1
f 86/85/1 96/95/1 95/94/1
f 87/86/1 97/96/1 96/95/1
f 88/87/1 98/97/1 97/96/1
f 89/88/1 99/98/1 98/97/1
f 90/89/1 100/99/1 99/98/1
f 81/100/2 118/89/2 117/79/2
f 31/101/2 113/39/2 112/29/2
f 5/102/3 105/103/3 106/104/3
f 97/105/4 125/106/4 124/107/4
f 4/108/3 104/109/3 105/103/3
f 92/110/4 120/111/4 119/112/4
f 51/103/2 115/59/2 114/49/2
f 11/113/2 111/19/2 101/18/2
f 99/114/4 127/115/4 126/116/4
f 3/117/3 103/118/3 104/109/3
f 94/119/4 122/120/4 121/121/4
f 71/118/2 117/79/2 116/69/2
f 2/122/3 102/100/3 103/118/3
f 21/123/2 112/29/2 111/19/2
f 1/124/3 101/125/3 102/100/3
f 96/126/4 124/107/4 123/127/4
f 9/128/3 109/113/3 110/129/3
f 91/125/2 119/99/2 118/89/2
f 41/104/2 114/49/2 113/39/2
f 98/130/4 126/116/4 125/106/4
f 8/131/3 108/123/3 109/113/3
f 93/132/4 121/121/4 120/111/4
f 7/133/3 107/101/3 108/123/3
f 61/109/2 116/69/2 115/59/2
f 100/91/4 128/134/4 127/115/4
f 6/135/3 106/104/3 107/101/3
f 95/136/4 123/127/4 122/120/4
f 1/137/1 2/1/1 11/3/1
f 2/1/1 3/4/1 12/2/1
f 3/4/1 4/6/1 13/5/1
f 4/6/1 5/8/1 14/7/1
f 5/8/1 6/10/1 15/9/1
f 6/10/1 7/12/1 16/11/1
f 7/12/1 8/14/1 17/13/1
f 8/14/1 9/16/1 18/15/1
f 9/16/1 10/18/1 19/17/1
f 11/3/1 12/2/1 21/21/1
f 12/2/1 13/5/1 22/20/1
f 13/5/1 14/7/1 23/22/1
f 14/7/1 15/9/1 24/23/1
f 15/9/1 16/11/1 25/24/1
f 16/11/1 17/13/1 26/25/1
f 17/13/1 18/15/1 27/26/1
f 18/15/1 19/17/1 28/27/1
f 19/17/1 20/19/1 29/28/1
f 21/21/1 22/20/1 31/31/1
f 22/20/1 23/22/1 32/30/1
f 23/22/1 24/23/1 33/32/1
f 24/23/1 25/24/1 34/33/1
f 25/24/1 26/25/1 35/34/1
f 26/25/1 27/26/1 36/35/1
f 27/26/1 28/27/1 37/36/1
f 28/27/1 29/28/1 38/37/1
f 29/28/1 30/29/1 39/38/1
f 31/31/1 32/30/1 41/41/1
f 32/30/1 33/32/1 42/40/1
f 33/32/1 34/33/1 43/42/1
f 34/33/1 35/34/1 44/43/1
f 35/34/1 36/35/1 45/44/1
f 36/35/1 37/36/1 46/45/1
f 37/36/1 38/37/1 47/46/1
f 38/37/1 39/38/1 48/47/1
f 39/38/1 40/39/1 49/48/1
f 41/41/1 42/40/1 51/51/1
f 42/40/1 43/42/1 52/50/1
f 43/42/1 44/43/1 53/52/1
f 44/43/1 45/44/1 54/53/1
f 45/44/1 46/45/1 55/54/1
f 46/45/1 47/46/1 56/55/1
f 47/46/1 48/47/1 57/56/1
f 48/47/1 49/48/1 58/57/1
f 49/48/1 50/49/1 59/58/1
f 51/51/1 52/50/1 61/61/1
f 52/50/1 53/52/1 62/60/1
f 53/52/1 54/53/1 63/62/1
f 54/53/1 55/54/1 64/63/1
f 55/54/1 56/55/1 65/64/1
f 56/55/1 57/56/1 66/65/1
f 57/56/1 58/57/1 67/66/1
f 58/57/1 59/58/1 68/67/1
f 59/58/1 60/59/1 69/68/1
f 61/61/1 62/60/1 71/71/1
f 62/60/1 63/62/1 72/70/1
f 63/62/1 64/63/1 73/72/1
f 64/63/1 65/64/1 74/73/1
f 65/64/1 66/65/1 75/74/1
f 66/65/1 67/66/1 76/75/1
f 67/66/1 68/67/1 77/76/1
f 68/67/1 69/68/1 78/77/1
f 69/68/1 70/69/1 79/78/1
f 71/71/1 72/70/1 81/81/1
f 72/70/1 73/72/1 82/80/1
f 73/72/1 74/73/1 83/82/1
f 74/73/1 75/74/1 84/83/1
f 75/74/1 76/75/1 85/84/1
f 76/75/1 77/76/1 86/85/1
f 77/76/1 78/77/1 87/86/1
f 78/77/1 79/78/1 88/87/1
f 79/78/1 80/79/1 89/88/1
f 81/81/1 82/80/1 91/91/1
f 82/80/1 83/82/1 92/90/1
f 83/82/1 84/83/1 93/92/1
f 84/83/1 85/84/1 94/93/1
f 85/84/1 86/85/1 95/94/1
f 86/85/1 87/86/1 96/95/1
f 87/86/1 88/87/1 97/96/1
f 88/87/1 89/88/1 98/97/1
f 89/88/1 90/89/1 99/98/1
f 71/118/2 81/100/2 117/79/2
f 21/123/2 31/101/2 112/29/2
f 6/135/3 5/102/3 106/104/3
f 96/126/4 97/105/4 124/107/4
f 5/102/3 4/108/3 105/103/3
f 91/138/4 92/110/4 119/112/4
f 41/104/2 51/103/2 114/49/2
f 1/129/2 11/113/2 101/18/2
f 98/130/4 99/114/4 126/116/4
f 4/108/3 3/117/3 104/109/3
f 93/132/4 94/119/4 121/121/4
f 61/109/2 71/118/2 116/69/2
f 3/117/3 2/122/3 103/118/3
f 11/113/2 21/123/2 111/19/2
f 2/122/3 1/124/3 102/100/3
f 95/136/4 96/126/4 123/127/4
f 10/139/3 9/128/3 110/129/3
f 81/100/2 91/125/2 118/89/2
f 31/101/2 41/104/2 113/39/2
f 97/105/4 98/130/4 125/106/4
f 9/128/3 8/131/3 109/113/3
f 92/110/4 93/132/4 120/111/4
f 8/131/3 7/133/3 108/123/3
f 51/103/2 61/109/2 115/59/2
f 99/114/4 100/91/4 127/115/4
f 7/133/3 6/135/3 107/101/3
f 94/119/4 95/136/4 122/120/4
