# Blender v2.66 (sub 1) OBJ File: 'ground_tile.blend'
# www.blender.org
o block_sm_tri_Cube.003
v 0.070402 0.000000 -0.929598
v 0.934217 0.000000 -0.934217
v 0.934217 0.000000 -0.065782
v 0.070402 0.000000 -0.070402
v 0.953558 0.046589 -0.065782
v 0.953558 0.046589 -0.934217
v 0.049595 0.953412 -0.934217
v 0.049594 0.953412 -0.065782
v 0.000222 0.070401 -0.929598
v 0.000222 0.070401 -0.070402
v 0.002945 0.934218 -0.065782
v 0.002946 0.934218 -0.934217
v 0.070624 0.070402 -1.000000
v 0.068435 0.841334 -0.999999
v 0.841541 0.065782 -1.000000
v 0.070624 0.070402 -0.000000
v 0.841541 0.065782 -0.000000
v 0.068435 0.841334 0.000000
v 0.023857 0.958584 -0.934217
v 0.017591 0.956005 -0.934217
v 0.017590 0.956005 -0.065782
v 0.023857 0.958584 -0.065782
v 0.025887 0.944744 -0.041944
v 0.025887 0.944744 -0.041944
v 0.025887 0.944744 -0.041944
v 0.929969 0.054445 -0.961159
v 0.882834 0.062521 -0.988840
v 0.065304 0.882637 -0.988840
v 0.057376 0.929798 -0.961159
v 0.025888 0.944744 -0.958056
v 0.025888 0.944744 -0.958056
v 0.025888 0.944744 -0.958056
v 0.070514 0.035574 -0.014426
v 0.070447 0.014426 -0.035574
v 0.912000 0.011160 -0.038840
v 0.873003 0.038840 -0.011160
v 0.014035 0.911965 -0.961159
v 0.041593 0.872881 -0.988840
v 0.035796 0.070402 -0.985574
v 0.014648 0.070401 -0.964426
v 0.070447 0.014426 -0.964426
v 0.070514 0.035574 -0.985574
v 0.873003 0.038840 -0.988840
v 0.912000 0.011160 -0.961159
v 0.041592 0.872881 -0.011160
v 0.014035 0.911965 -0.038840
v 0.014648 0.070401 -0.035574
v 0.035796 0.070402 -0.014426
v 0.033430 0.033324 -0.033351
v 0.033430 0.033324 -0.033351
v 0.033430 0.033324 -0.033351
v 0.033430 0.033324 -0.966649
v 0.033430 0.033324 -0.966649
v 0.033430 0.033324 -0.966649
v 0.944816 0.022909 -0.041944
v 0.944816 0.022909 -0.041944
v 0.944816 0.022909 -0.041944
v 0.944816 0.022909 -0.958056
v 0.944816 0.022909 -0.958056
v 0.944816 0.022909 -0.958056
v 0.035597 0.014449 -0.070402
v 0.014561 0.035551 -0.070402
v 0.014561 0.035551 -0.929598
v 0.035597 0.014449 -0.929598
v 0.882834 0.062521 -0.011160
v 0.929969 0.054445 -0.038840
v 0.057376 0.929798 -0.038840
v 0.065304 0.882637 -0.011160
v 0.958649 0.020835 -0.065782
v 0.956051 0.014576 -0.065782
v 0.956051 0.014576 -0.934217
v 0.958649 0.020835 -0.934217
vn 0.000000 -1.000000 0.000000
vn 0.708223 0.705989 0.000000
vn -0.999995 0.003153 -0.000000
vn 0.000000 0.000000 -1.000000
vn -0.000000 -0.000000 1.000000
vn -0.380500 0.924781 -0.000000
vn -0.000000 1.000000 0.000000
vn 0.500789 0.499210 -0.707107
vn 0.000000 0.000000 0.000000
vn -0.000000 -0.707107 0.707107
vn -0.707103 0.002230 -0.707107
vn 0.000000 -0.707106 -0.707108
vn -0.707103 0.002229 0.707107
vn 0.707107 0.707107 0.000000
vn 1.000000 -0.000000 0.000000
vn -0.708221 -0.705991 -0.000000
vn 0.500789 0.499210 0.707107
vn 0.923580 -0.383406 -0.000000
vn 0.654312 0.652249 0.382683
vn -0.674869 -0.672744 0.303261
vn -0.674869 -0.672744 -0.303262
vn 0.555242 -0.831689 -0.000000
vn -0.103724 0.252095 0.962128
vn 0.654313 0.652249 -0.382682
vn 0.981016 0.193928 0.000000
vn -0.303258 -0.673328 -0.674288
vn 0.164033 0.519694 -0.838457
vn -0.379662 -0.378467 0.844168
vn -0.482271 0.253776 -0.838458
vn 0.252325 0.801392 0.542313
vn -0.383661 -0.001037 -0.923473
vn 0.389425 -0.744478 0.542310
vn 0.271025 0.270170 0.923880
vn -0.303258 -0.673329 0.674287
vn -0.743246 0.391769 -0.542312
vn -0.148828 0.361718 0.920332
vn -0.379908 -0.843545 0.379607
vn -0.330664 0.803671 -0.494746
vn 0.802626 -0.333195 0.494744
vn 0.252326 0.801392 -0.542312
vn -0.743246 0.391769 0.542312
vn 0.765162 0.151258 0.625817
vn 0.164031 0.519693 0.838458
vn -0.924142 0.000841 -0.382048
vn -0.674281 -0.301134 -0.674288
vn -0.844738 -0.377247 -0.379608
vn -0.002247 -0.383656 -0.923473
vn 0.271025 0.270171 -0.923879
vn 0.520211 0.162389 -0.838457
vn 0.802187 0.249793 -0.542309
vn -0.924782 -0.380498 -0.000000
vn -0.829934 0.557862 -0.000000
vn -0.379662 -0.378467 -0.844168
vn -0.133632 0.324786 -0.936299
vn -0.379908 -0.843545 -0.379607
vn 0.824782 0.344138 0.448669
vn 0.324365 -0.134656 0.936298
vn -0.482272 0.253775 0.838458
vn 0.324365 -0.134656 -0.936298
vn -0.844739 -0.377247 0.379607
vn 0.802627 -0.333195 -0.494744
vn 0.389426 -0.744478 -0.542310
vn 0.197024 0.980399 0.000000
vn -0.002247 -0.383656 0.923473
vn -0.383411 -0.923578 -0.000000
vn -0.924142 0.000840 0.382047
vn -0.330670 0.803669 0.494746
vn -0.002073 -0.924140 0.382047
vn 0.520211 0.162390 0.838457
vn -0.002073 -0.924140 -0.382048
vn -0.383661 -0.001038 0.923473
vn -0.674282 -0.301134 0.674286
vn 0.252255 -0.483070 -0.838457
vn 0.252255 -0.483072 0.838456
s off
f 2//1 3//1 4//1 1//1
f 6//2 7//2 8//2 5//2
f 10//3 11//3 12//3 9//3
f 14//4 15//4 13//4
f 17//5 18//5 16//5
f 20//6 21//6 22//6 19//6
f 24//7 25//7 23//7
f 27//8 28//8 29//8 26//8
f 31//9 32//9 30//9
f 34//10 35//10 36//10 33//10
f 38//11 39//11 40//11 37//11
f 42//12 43//12 44//12 41//12
f 46//13 47//13 48//13 45//13
f 50//14 51//14 49//14
f 53//4 54//4 52//4
f 56//15 57//15 55//15
f 59//9 60//9 58//9
f 62//16 63//16 64//16 61//16
f 66//17 67//17 68//17 65//17
f 70//18 71//18 72//18 69//18
f 5//19 8//19 67//19 66//19
f 51//20 50//20 62//20 61//20
f 53//21 52//21 64//21 63//21
f 71//22 70//22 3//22 2//22
f 18//23 68//23 45//23
f 7//24 6//24 26//24 29//24
f 69//25 72//25 6//25 5//25
f 52//26 54//26 42//26 41//26
f 29//27 28//27 30//27 32//27
f 33//28 16//28 48//28 49//28
f 38//29 37//29 31//29 30//29
f 8//30 22//30 23//30 67//30
f 14//31 13//31 39//31 38//31
f 35//32 3//32 70//32 55//32
f 18//33 17//33 65//33 68//33
f 49//34 51//34 34//34 33//34
f 31//35 37//35 12//35 20//35
f 25//36 45//36 68//36
f 51//37 61//37 4//37 34//37
f 20//38 19//38 32//38 31//38
f 70//39 69//39 56//39 55//39
f 19//40 7//40 29//40 32//40
f 21//41 11//41 46//41 24//41
f 66//42 69//42 5//42
f 23//43 25//43 68//43 67//43
f 37//44 40//44 9//44 12//44
f 54//45 53//45 40//45 39//45
f 40//46 53//46 63//46 9//46
f 13//47 15//47 43//47 42//47
f 28//48 27//48 15//48 14//48
f 27//49 26//49 60//49 59//49
f 60//50 26//50 6//50 72//50
f 10//51 9//51 63//51 62//51
f 21//52 20//52 12//52 11//52
f 42//53 54//53 39//53 13//53
f 28//54 14//54 38//54 30//54
f 52//55 41//55 1//55 64//55
f 66//56 56//56 69//56
f 65//57 17//57 36//57 57//57
f 25//58 24//58 46//58 45//58
f 27//59 59//59 43//59 15//59
f 50//60 47//60 10//60 62//60
f 58//61 60//61 72//61 71//61
f 58//62 71//62 2//62 44//62
f 8//63 7//63 19//63 22//63
f 33//64 36//64 17//64 16//64
f 61//65 64//65 1//65 4//65
f 47//66 46//66 11//66 10//66
f 22//67 21//67 24//67 23//67
f 35//68 34//68 4//68 3//68
f 57//69 56//69 66//69 65//69
f 41//70 44//70 2//70 1//70
f 45//71 48//71 16//71 18//71
f 48//72 47//72 50//72 49//72
f 44//73 43//73 59//73 58//73
f 36//74 35//74 55//74 57//74
