# Blender v2.66 (sub 1) OBJ File: 'ground_tile.blend'
# www.blender.org
o Cube.002
v 0.070413 0.000000 -0.929587
v 0.929587 0.000000 -0.929587
v 0.929587 0.000000 -0.070412
v 0.070412 0.000000 -0.070413
v 0.000000 1.929588 -0.929587
v 0.000000 1.085355 -0.914644
v -0.000000 1.074118 -0.074118
v -0.000000 1.929588 -0.070413
v 1.000000 0.070412 -0.070412
v 1.000000 0.070412 -0.929587
v 1.000000 0.914645 -0.914644
v 0.999999 0.914645 -0.085355
v 0.070412 0.070412 -0.000000
v 0.929587 0.070412 0.000000
v 0.914644 0.914645 0.000000
v 0.074118 0.925882 -0.000000
v 0.000000 0.070412 -0.929587
v -0.000000 0.070412 -0.070413
v -0.000000 0.925882 -0.074118
v 0.000000 0.914645 -0.914644
v 0.085355 0.914645 -1.000000
v 0.914644 0.914645 -0.999999
v 0.929587 0.070412 -1.000000
v 0.070413 0.070412 -1.000000
v 0.929587 2.000000 -0.070412
v 0.929587 2.000000 -0.929587
v 0.070412 2.000000 -0.929587
v 0.070412 2.000000 -0.070413
v 0.999999 1.929588 -0.070412
v 0.999999 1.085355 -0.085355
v 1.000000 1.085355 -0.914644
v 1.000000 1.929588 -0.929587
v 0.929587 1.929588 -0.999999
v 0.914644 1.085355 -0.999999
v 0.085355 1.085355 -1.000000
v 0.070412 1.929588 -1.000000
v 0.070412 1.929588 -0.000000
v 0.074118 1.074118 -0.000000
v 0.914644 1.085355 0.000000
v 0.929587 1.929588 0.000000
v 0.014434 0.070412 -0.035566
v 0.035566 0.070412 -0.014434
v 0.032946 0.925882 -0.017054
v 0.017054 0.925882 -0.032946
v 0.032946 0.974118 -0.017054
v 0.032946 0.974118 -0.017054
v 0.032946 0.974118 -0.017054
v 0.964433 1.985566 -0.070412
v 0.985565 1.964434 -0.070412
v 0.985566 1.964434 -0.929587
v 0.964433 1.985566 -0.929587
v 0.033334 0.033333 -0.966666
v 0.033333 0.033333 -0.966666
v 0.033334 0.033333 -0.966666
v 0.033333 0.033333 -0.033333
v 0.033333 0.033333 -0.033333
v 0.033333 0.033333 -0.033333
v 0.070412 0.035566 -0.014434
v 0.070412 0.014434 -0.035566
v 0.929587 0.014434 -0.035566
v 0.929587 0.035566 -0.014434
v 0.914644 1.014645 -0.999999
v 0.914644 0.985355 -0.999999
v 0.085355 0.985355 -1.000000
v 0.085355 1.014645 -1.000000
v 0.929587 0.035566 -0.985566
v 0.929587 0.014434 -0.964433
v 0.070413 0.014434 -0.964433
v 0.070413 0.035566 -0.985566
v 0.035566 0.014434 -0.070413
v 0.014434 0.035566 -0.070413
v 0.014434 0.035566 -0.929587
v 0.035566 0.014434 -0.929587
v 0.000000 1.014645 -0.914644
v 0.000000 0.985355 -0.914644
v -0.000000 0.974118 -0.074118
v -0.000000 1.025882 -0.074118
v 0.964433 0.070412 -0.014434
v 0.985566 0.070412 -0.035566
v 0.974999 0.914645 -0.025000
v 0.974999 0.914645 -0.025000
v 1.000000 0.985355 -0.914644
v 1.000000 1.014645 -0.914644
v 0.999999 1.014645 -0.085355
v 0.999999 0.985355 -0.085355
v 0.025000 0.914645 -0.975000
v 0.025000 0.914645 -0.975000
v 0.035566 0.070412 -0.985566
v 0.014434 0.070412 -0.964433
v 0.025000 0.985355 -0.974999
v 0.025000 1.014645 -0.974999
v 0.025000 1.014645 -0.975000
v 0.025000 0.985355 -0.975000
v 0.033333 1.966667 -0.966666
v 0.033333 1.966667 -0.966666
v 0.033333 1.966667 -0.966666
v 0.985566 0.070412 -0.964433
v 0.964433 0.070412 -0.985566
v 0.975000 0.914645 -0.974999
v 0.975000 0.914645 -0.974999
v 0.966666 1.966667 -0.966666
v 0.966666 1.966667 -0.966666
v 0.966666 1.966667 -0.966666
v 0.035566 1.985566 -0.929587
v 0.014434 1.964434 -0.929587
v 0.014434 1.964434 -0.070413
v 0.035566 1.985566 -0.070413
v 0.966666 1.966667 -0.033333
v 0.966666 1.966667 -0.033333
v 0.966666 1.966667 -0.033333
v 0.035566 1.929588 -0.014434
v 0.014434 1.929588 -0.035566
v 0.017054 1.074118 -0.032946
v 0.032946 1.074118 -0.017054
v 0.070412 1.964434 -0.985566
v 0.070412 1.985566 -0.964433
v 0.929587 1.985566 -0.964433
v 0.929587 1.964434 -0.985566
v 0.017054 1.025882 -0.032946
v 0.017054 1.025882 -0.032946
v 0.017054 1.025882 -0.032946
v 0.033333 1.966667 -0.033334
v 0.033333 1.966667 -0.033334
v 0.033333 1.966667 -0.033334
v 0.966666 0.033333 -0.033333
v 0.966666 0.033333 -0.033333
v 0.966666 0.033333 -0.033333
v 0.974999 0.985355 -0.025000
v 0.974999 1.014645 -0.025000
v 0.974999 1.014645 -0.025000
v 0.974999 0.985355 -0.025000
v 0.070412 1.985566 -0.035566
v 0.070412 1.964434 -0.014434
v 0.929587 1.964434 -0.014433
v 0.929587 1.985566 -0.035566
v 0.914644 0.985355 0.000000
v 0.914644 1.014645 0.000000
v 0.074118 1.025882 -0.000000
v 0.074118 0.974118 -0.000000
v 0.964433 1.929588 -0.985566
v 0.985566 1.929588 -0.964433
v 0.975000 1.085355 -0.974999
v 0.975000 1.085355 -0.974999
v 0.974999 1.085355 -0.025000
v 0.974999 1.085355 -0.025000
v 0.985565 1.929588 -0.035566
v 0.964433 1.929588 -0.014433
v 0.975000 0.985355 -0.974999
v 0.975000 0.985355 -0.974999
v 0.975000 1.014645 -0.974999
v 0.975000 1.014645 -0.974999
v 0.966666 0.033333 -0.966666
v 0.966666 0.033333 -0.966666
v 0.966666 0.033333 -0.966666
v 0.025000 1.085355 -0.975000
v 0.025000 1.085355 -0.974999
v 0.014434 1.929588 -0.964433
v 0.035566 1.929588 -0.985566
v 0.985566 0.035566 -0.070412
v 0.964433 0.014434 -0.070412
v 0.964433 0.014434 -0.929587
v 0.985566 0.035566 -0.929587
vn 0.000000 -1.000000 0.000000
vn -1.000000 0.000000 -0.000000
vn 1.000000 0.000000 0.000000
vn -0.000000 -0.000000 1.000000
vn 0.000000 0.000000 -1.000000
vn 0.000000 1.000000 0.000000
vn 1.000000 0.000000 0.000001
vn -0.707107 -0.000000 0.707107
vn 0.707107 0.707107 0.000000
vn 0.000000 0.000000 0.000000
vn 0.534522 0.267261 -0.801784
vn -0.000000 -0.707107 0.707107
vn 0.000000 -0.707108 -0.707106
vn -0.707107 -0.707107 -0.000000
vn 0.707106 0.000000 0.707108
vn -0.707107 0.000000 -0.707106
vn -0.998903 -0.000000 -0.046824
vn 0.707107 0.000000 -0.707107
vn -0.707107 0.707107 -0.000000
vn 0.000000 0.707108 -0.707106
vn -0.000000 0.707107 0.707107
vn 0.707108 0.000000 -0.707106
vn 0.707105 0.000000 0.707108
vn -0.707108 -0.000000 -0.707106
vn 0.707106 -0.707108 0.000000
vn -0.923880 0.382683 -0.000000
vn -0.673887 -0.673887 0.302905
vn -0.673887 -0.673887 -0.302906
vn -0.982872 0.000000 -0.184289
vn 0.923859 0.006773 -0.382674
vn 0.357407 0.357407 0.862856
vn 0.382674 0.006773 0.923859
vn -0.000000 -0.382684 0.923879
vn -0.357407 0.357406 -0.862856
vn -0.379336 0.379335 0.843925
vn 0.382683 -0.000000 0.923880
vn -0.382683 0.000000 -0.923880
vn 0.923879 -0.000000 0.382684
vn -0.673887 0.302905 0.673887
vn -0.923880 0.000000 -0.382684
vn 0.000000 0.923880 -0.382684
vn -0.397571 0.826967 -0.397572
vn -0.923880 -0.000000 0.382683
vn -1.000000 -0.000001 0.000000
vn 0.843925 0.379336 0.379336
vn 0.923858 -0.006773 0.382675
vn -0.379336 -0.379336 0.843925
vn 0.843925 -0.379336 0.379336
vn 0.923880 0.000000 -0.382683
vn 0.945732 0.315244 0.078811
vn -0.397571 -0.826967 0.397571
vn -0.673887 -0.302905 0.673887
vn 0.923880 -0.382683 -0.000000
vn -0.496873 0.111670 0.860609
vn -0.923858 0.006773 -0.382675
vn 0.382674 -0.006773 0.923858
vn -0.357406 -0.357406 -0.862857
vn 0.382683 0.923880 0.000000
vn 0.379336 0.843925 -0.379336
vn -0.000000 0.382683 0.923880
vn 0.923880 0.382683 0.000001
vn -0.000000 -0.923880 0.382683
vn 0.382675 0.006774 -0.923858
vn 0.673888 0.302906 -0.673886
vn 0.673887 -0.302906 -0.673887
vn 0.382683 -0.923880 -0.000000
vn -0.923879 -0.000000 -0.382684
vn -0.923878 0.001658 0.382683
vn 0.382683 0.000000 -0.923880
vn -0.923878 -0.001658 0.382683
vn -0.397572 0.397572 -0.826966
vn -0.397572 -0.397572 -0.826966
vn -0.382674 0.006774 -0.923858
vn 0.673886 -0.302906 0.673888
vn -0.923858 -0.006773 -0.382675
vn 0.379335 -0.379336 0.843925
vn 0.397571 0.397571 0.826967
vn -0.862856 -0.357406 -0.357407
vn 0.923858 0.006774 0.382675
vn -0.923879 -0.382684 -0.000000
vn 0.379335 0.843925 0.379336
vn -0.382683 0.001658 0.923878
vn -0.452429 -0.071899 0.888897
vn -0.881657 -0.000000 0.471891
vn -0.826967 0.397571 -0.397572
vn 0.000000 0.382683 -0.923880
vn 0.673886 -0.673888 0.302906
vn 0.397572 0.397572 -0.826966
vn 0.357407 0.357406 -0.862856
vn 0.673887 0.673887 -0.302906
vn -0.673888 -0.302906 -0.673887
vn -0.302906 0.673888 -0.673886
vn -0.673887 0.302906 -0.673887
vn 0.000000 -0.923879 -0.382684
vn -0.382684 0.000000 0.923879
vn -0.357406 -0.862856 -0.357407
vn 0.843925 0.379335 -0.379336
vn -0.862856 0.357407 -0.357407
vn -0.843925 -0.379336 0.379335
vn 0.379336 -0.379336 -0.843924
vn -0.382683 -0.001658 0.923878
vn -0.302905 -0.673887 0.673887
vn 0.379335 -0.843925 0.379335
vn 0.923858 -0.006773 -0.382674
vn 0.673886 0.302905 0.673889
vn -0.382683 0.923880 -0.000000
vn 0.673887 0.673887 0.302906
vn 0.673887 -0.673888 -0.302906
vn -0.673887 0.673888 0.302905
vn 0.379336 -0.843925 -0.379336
vn -0.379336 0.843925 0.379335
vn 0.302905 -0.673888 0.673887
vn 0.382675 -0.006773 -0.923858
vn -0.000000 0.923880 0.382683
vn -0.397571 -0.826967 -0.397572
vn -0.357407 -0.862856 0.357407
vn -0.302906 -0.673888 -0.673887
vn 0.000000 -0.382683 -0.923880
vn 0.923879 0.000001 0.382684
vn -0.826967 -0.397571 -0.397572
vn -0.382674 -0.006773 -0.923858
vn -0.843925 0.379335 0.379335
vn -0.302906 0.673887 0.673887
vn 0.843925 -0.379336 -0.379336
vn 0.302905 0.673888 0.673887
vn -0.357406 0.862856 -0.357407
vn -0.382683 -0.923880 -0.000000
vn -0.673887 0.673888 -0.302906
vn 0.302906 -0.673888 -0.673887
vn 0.302906 0.673888 -0.673886
s off
f 2//1 3//1 4//1 1//1
f 6//2 7//2 8//2 5//2
f 10//3 11//3 12//3 9//3
f 14//4 15//4 16//4 13//4
f 18//2 19//2 20//2 17//2
f 22//5 23//5 24//5 21//5
f 26//6 27//6 28//6 25//6
f 30//7 31//7 32//7 29//7
f 34//5 35//5 36//5 33//5
f 38//4 39//4 40//4 37//4
f 42//8 43//8 44//8 41//8
f 46//6 47//6 45//6
f 49//9 50//9 51//9 48//9
f 53//10 54//10 52//10
f 56//11 57//11 55//11
f 59//12 60//12 61//12 58//12
f 63//5 64//5 65//5 62//5
f 67//13 68//13 69//13 66//13
f 71//14 72//14 73//14 70//14
f 75//2 76//2 77//2 74//2
f 79//15 80//15 81//15 78//15
f 83//7 84//7 85//7 82//7
f 87//16 88//16 89//16 86//16
f 91//17 92//17 93//17 90//17
f 95//10 96//10 94//10
f 98//18 99//18 100//18 97//18
f 102//10 103//10 101//10
f 105//19 106//19 107//19 104//19
f 109//10 110//10 108//10
f 112//8 113//8 114//8 111//8
f 116//20 117//20 118//20 115//20
f 120//10 121//10 119//10
f 123//10 124//10 122//10
f 126//10 127//10 125//10
f 129//3 130//3 131//3 128//3
f 133//21 134//21 135//21 132//21
f 137//4 138//4 139//4 136//4
f 141//22 142//22 143//22 140//22
f 145//23 146//23 147//23 144//23
f 149//3 150//3 151//3 148//3
f 153//10 154//10 152//10
f 156//24 157//24 158//24 155//24
f 160//25 161//25 162//25 159//25
f 5//26 8//26 106//26 105//26
f 71//27 70//27 55//27 57//27
f 53//28 52//28 73//28 72//28
f 90//29 93//29 87//29 86//29
f 11//30 10//30 97//30 100//30
f 40//31 147//31 134//31
f 15//32 14//32 78//32 81//32
f 58//33 61//33 14//33 13//33
f 36//34 158//34 115//34
f 92//2 91//2 156//2 155//2
f 111//35 37//35 133//35 124//35
f 130//36 144//36 137//36
f 131//36 130//36 137//36 136//36
f 92//37 155//37 35//37 65//37
f 84//38 30//38 145//38 129//38
f 22//5 21//5 64//5 63//5
f 112//39 111//39 124//39 123//39
f 86//40 20//40 75//40 90//40
f 117//41 116//41 27//41 26//41
f 116//42 95//42 104//42
f 77//43 76//43 120//43 119//43
f 81//44 80//44 128//44 131//44
f 110//45 146//45 29//45 49//45
f 30//46 29//46 146//46 145//46
f 42//47 56//47 58//47 13//47
f 79//48 126//48 159//48 9//48
f 35//5 34//5 62//5 65//5
f 82//49 11//49 100//49 148//49
f 121//50 120//50 47//50 46//50
f 59//51 55//51 70//51
f 138//4 137//4 39//4 38//4
f 42//52 41//52 57//52 56//52
f 159//53 162//53 10//53 9//53
f 121//54 46//54 138//54
f 86//55 89//55 17//55 20//55
f 40//56 39//56 144//56 147//56
f 137//36 144//36 39//36
f 24//57 69//57 88//57
f 48//58 51//58 26//58 25//58
f 103//59 117//59 26//59 51//59
f 37//60 40//60 134//60 133//60
f 29//61 32//61 50//61 49//61
f 60//62 59//62 4//62 3//62
f 76//2 75//2 20//2 19//2
f 44//8 43//8 45//8 47//8
f 151//3 150//3 143//3 142//3
f 99//63 98//63 23//63 22//63
f 141//64 140//64 102//64 101//64
f 152//65 154//65 98//65 97//65
f 161//66 160//66 3//66 2//66
f 91//67 90//67 75//67 74//67
f 19//68 18//68 41//68 44//68
f 63//69 62//69 150//69 149//69
f 113//70 112//70 8//70 7//70
f 96//71 115//71 158//71
f 88//72 69//72 54//72
f 21//73 24//73 88//73 87//73
f 79//74 78//74 127//74 126//74
f 6//75 5//75 157//75 156//75
f 78//76 14//76 61//76 127//76
f 134//77 147//77 109//77
f 114//8 113//8 119//8 121//8
f 72//78 17//78 89//78
f 9//79 12//79 80//79 79//79
f 18//80 17//80 72//80 71//80
f 108//81 48//81 25//81 135//81
f 13//82 16//82 43//82 42//82
f 62//69 34//69 143//69 150//69
f 91//67 74//67 6//67 156//67
f 121//83 138//83 38//83 114//83
f 47//84 120//84 76//84 19//84 44//84
f 105//85 94//85 157//85
f 115//86 118//86 33//86 36//86
f 160//87 159//87 126//87 125//87
f 140//88 118//88 102//88
f 118//89 140//89 33//89
f 51//90 50//90 101//90 103//90
f 89//91 88//91 54//91 53//91
f 85//38 84//38 129//38 128//38
f 96//92 95//92 116//92 115//92
f 94//93 96//93 158//93 157//93
f 2//94 1//94 68//94 67//94
f 81//36 131//36 136//36 15//36
f 93//37 64//37 21//37 87//37
f 45//95 43//95 16//95 139//95
f 68//96 1//96 73//96
f 141//97 101//97 50//97 32//97
f 157//98 5//98 105//98
f 99//69 22//69 63//69 149//69
f 57//99 41//99 18//99 71//99
f 66//100 23//100 98//100 154//100
f 111//101 114//101 38//101 37//101
f 59//102 58//102 56//102 55//102
f 60//103 3//103 160//103 125//103
f 142//104 141//104 32//104 31//104
f 147//105 146//105 110//105 109//105
f 28//106 27//106 104//106 107//106
f 108//107 110//107 49//107 48//107
f 153//108 152//108 162//108 161//108
f 16//4 15//4 136//4 139//4
f 12//7 11//7 82//7 85//7
f 107//109 106//109 123//109 122//109
f 153//110 161//110 2//110 67//110
f 107//111 122//111 132//111 28//111
f 61//112 60//112 125//112 127//112
f 142//49 31//49 83//49 151//49
f 140//113 143//113 34//113 33//113
f 132//114 135//114 25//114 28//114
f 52//115 68//115 73//115
f 46//95 45//95 139//95 138//95
f 59//116 70//116 4//116
f 52//117 54//117 69//117 68//117
f 24//118 23//118 66//118 69//118
f 85//119 128//119 80//119 12//119
f 89//120 53//120 72//120
f 36//121 35//121 155//121 158//121
f 112//122 123//122 106//122 8//122
f 130//3 129//3 145//3 144//3
f 84//7 83//7 31//7 30//7
f 77//43 119//43 113//43 7//43
f 133//123 132//123 122//123 124//123
f 148//49 151//49 83//49 82//49
f 152//124 97//124 10//124 162//124
f 109//125 108//125 135//125 134//125
f 104//126 27//126 116//126
f 70//127 73//127 1//127 4//127
f 93//37 92//37 65//37 64//37
f 7//2 6//2 74//2 77//2
f 105//128 104//128 95//128 94//128
f 100//3 99//3 149//3 148//3
f 67//129 66//129 154//129 153//129
f 118//130 117//130 103//130 102//130
