# Blender v2.66 (sub 1) OBJ File: 'ground_tile.blend'
# www.blender.org
o block_tall_tri_Cube.004
v 0.070407 0.000000 -0.929593
v 0.931557 0.000000 -0.931557
v 0.931557 0.000000 -0.068442
v 0.070407 0.000000 -0.070407
v 0.969469 0.061255 -0.068442
v 0.969469 0.061255 -0.931557
v 0.030261 1.945612 -0.939230
v 0.030261 1.945612 -0.060769
v 0.000111 0.070407 -0.929593
v 0.000111 0.070407 -0.070407
v 0.003057 1.939231 -0.060769
v 0.003057 1.939231 -0.939230
v 0.070518 0.070407 -1.000000
v 0.063517 1.742663 -0.999999
v 0.889414 0.068442 -1.000000
v 0.070518 0.070407 -0.000000
v 0.889414 0.068442 -0.000000
v 0.063516 1.742663 0.000000
v 0.014973 1.952791 -0.939230
v 0.013559 1.952459 -0.939230
v 0.013558 1.952459 -0.060769
v 0.014972 1.952791 -0.060769
v 0.016623 1.942572 -0.046942
v 0.016623 1.942572 -0.046942
v 0.016623 1.942572 -0.046942
v 0.953469 0.064121 -0.963040
v 0.925492 0.066633 -0.986959
v 0.060639 1.789648 -0.992384
v 0.041612 1.905768 -0.957614
v 0.016624 1.942572 -0.953058
v 0.016624 1.942572 -0.953058
v 0.016624 1.942572 -0.953058
v 0.070463 0.035570 -0.014430
v 0.070430 0.014430 -0.035570
v 0.921855 0.013041 -0.036959
v 0.907127 0.036959 -0.013041
v 0.010608 1.898496 -0.957614
v 0.045201 1.786026 -0.992384
v 0.035681 0.070407 -0.985570
v 0.014541 0.070407 -0.964430
v 0.070430 0.014430 -0.964430
v 0.070463 0.035570 -0.985570
v 0.907127 0.036959 -0.986959
v 0.921855 0.013041 -0.963040
v 0.045200 1.786026 -0.007615
v 0.010608 1.898496 -0.042385
v 0.014541 0.070407 -0.035570
v 0.035681 0.070407 -0.014430
v 0.033381 0.033329 -0.033342
v 0.033381 0.033329 -0.033342
v 0.033381 0.033329 -0.033342
v 0.033382 0.033329 -0.966658
v 0.033382 0.033329 -0.966658
v 0.033382 0.033329 -0.966658
v 0.952492 0.029402 -0.037280
v 0.952492 0.029402 -0.037280
v 0.952492 0.029402 -0.037280
v 0.952492 0.029402 -0.962719
v 0.952492 0.029402 -0.962719
v 0.952492 0.029402 -0.962719
v 0.035581 0.014441 -0.070407
v 0.014497 0.035559 -0.070407
v 0.014498 0.035559 -0.929593
v 0.035582 0.014441 -0.929593
v 0.925492 0.066633 -0.013041
v 0.953469 0.064121 -0.036959
v 0.041611 1.905768 -0.042385
v 0.060639 1.789648 -0.007615
v 0.967990 0.029068 -0.068442
v 0.959705 0.015682 -0.068442
v 0.959705 0.015682 -0.931557
v 0.967990 0.029068 -0.931557
vn 0.000000 -1.000000 0.000000
vn 0.894991 0.446084 0.000000
vn -0.999999 0.001576 -0.000000
vn 0.000000 0.000000 -1.000000
vn -0.000000 -0.000000 1.000000
vn -0.228388 0.973570 -0.000000
vn -0.000000 1.000000 0.000000
vn 0.632854 0.315429 -0.707107
vn 0.000000 0.000000 0.000000
vn -0.000000 -0.707107 0.707107
vn -0.707105 0.001115 -0.707107
vn 0.000000 -0.707107 -0.707107
vn -0.707106 0.001115 0.707107
vn -0.577350 -0.577350 0.577350
vn 1.000000 -0.000000 0.000000
vn -0.707664 -0.706549 -0.000000
vn 0.632854 0.315429 0.707107
vn 0.850321 -0.526265 -0.000000
vn 0.827770 0.411003 0.381934
vn -0.674378 -0.673316 0.303083
vn -0.674379 -0.673316 -0.303083
vn 0.486689 -0.873576 -0.000000
vn -0.036985 0.157668 0.986799
vn 0.827770 0.411003 -0.381933
vn 0.998946 -0.045895 -0.000000
vn -0.303082 -0.673608 -0.674087
vn 0.305875 0.318748 -0.897129
vn -0.379499 -0.378902 0.844046
vn -0.415709 0.149486 -0.897129
vn 0.529864 0.551924 0.643913
vn -0.384197 -0.001571 -0.923250
vn 0.429224 -0.782913 0.450350
vn 0.343796 0.169627 0.923597
vn -0.303082 -0.673608 0.674087
vn -0.720021 0.258739 -0.643913
vn -0.054854 0.233848 0.970725
vn -0.379622 -0.843735 0.379471
vn -0.182994 0.780065 -0.598340
vn 0.781580 -0.483721 0.393888
vn 0.529863 0.551925 -0.643913
vn -0.720022 0.258739 0.643912
vn 0.889237 -0.040855 0.455618
vn 0.305876 0.318749 0.897128
vn -0.924418 -0.000538 -0.381380
vn -0.674085 -0.302020 -0.674087
vn -0.844332 -0.378292 -0.379471
vn -0.000908 -0.382890 -0.923794
vn 0.343796 0.169627 -0.923597
vn 0.648307 -0.025277 -0.760959
vn 0.892170 -0.034907 -0.450349
vn -0.924331 -0.381591 -0.000000
vn -0.783211 0.621756 -0.000000
vn -0.379499 -0.378902 -0.844046
vn -0.050895 0.216971 -0.974850
vn -0.379622 -0.843735 -0.379471
vn 0.894876 -0.029298 0.445352
vn 0.381824 -0.236313 0.893514
vn -0.415710 0.149486 0.897128
vn 0.381825 -0.236312 -0.893514
vn -0.844333 -0.378292 0.379471
vn 0.781580 -0.483721 -0.393887
vn 0.429224 -0.782913 -0.450350
vn 0.425039 0.905175 0.000000
vn -0.000908 -0.382890 0.923794
vn -0.383047 -0.923729 -0.000000
vn -0.924418 -0.000538 0.381380
vn -0.182997 0.780065 0.598340
vn -0.000878 -0.923924 0.382574
vn 0.648308 -0.025277 0.760959
vn -0.000878 -0.923925 -0.382574
vn -0.384196 -0.001572 0.923250
vn -0.674086 -0.302020 0.674087
vn 0.311823 -0.568954 -0.760959
vn 0.311823 -0.568953 0.760959
s off
f 2//1 3//1 4//1 1//1
f 6//2 7//2 8//2 5//2
f 10//3 11//3 12//3 9//3
f 14//4 15//4 13//4
f 17//5 18//5 16//5
f 20//6 21//6 22//6 19//6
f 24//7 25//7 23//7
f 27//8 28//8 29//8 26//8
f 31//9 32//9 30//9
f 34//10 35//10 36//10 33//10
f 38//11 39//11 40//11 37//11
f 42//12 43//12 44//12 41//12
f 46//13 47//13 48//13 45//13
f 50//14 51//14 49//14
f 53//5 54//5 52//5
f 56//15 57//15 55//15
f 59//9 60//9 58//9
f 62//16 63//16 64//16 61//16
f 66//17 67//17 68//17 65//17
f 70//18 71//18 72//18 69//18
f 5//19 8//19 67//19 66//19
f 51//20 50//20 62//20 61//20
f 53//21 52//21 64//21 63//21
f 71//22 70//22 3//22 2//22
f 18//23 68//23 45//23
f 7//24 6//24 26//24 29//24
f 69//25 72//25 6//25 5//25
f 52//26 54//26 42//26 41//26
f 29//27 28//27 30//27 32//27
f 33//28 16//28 48//28 49//28
f 38//29 37//29 31//29 30//29
f 8//30 22//30 23//30 67//30
f 14//31 13//31 39//31 38//31
f 35//32 3//32 70//32 55//32
f 18//33 17//33 65//33 68//33
f 49//34 51//34 34//34 33//34
f 31//35 37//35 12//35 20//35
f 25//36 45//36 68//36
f 51//37 61//37 4//37 34//37
f 20//38 19//38 32//38 31//38
f 70//39 69//39 56//39 55//39
f 19//40 7//40 29//40 32//40
f 21//41 11//41 46//41 24//41
f 66//42 69//42 5//42
f 23//43 25//43 68//43 67//43
f 37//44 40//44 9//44 12//44
f 54//45 53//45 40//45 39//45
f 40//46 53//46 63//46 9//46
f 13//47 15//47 43//47 42//47
f 28//48 27//48 15//48 14//48
f 27//49 26//49 60//49 59//49
f 60//50 26//50 6//50 72//50
f 10//51 9//51 63//51 62//51
f 21//52 20//52 12//52 11//52
f 42//53 54//53 39//53 13//53
f 28//54 14//54 38//54 30//54
f 52//55 41//55 1//55 64//55
f 66//56 56//56 69//56
f 65//57 17//57 36//57 57//57
f 25//58 24//58 46//58 45//58
f 27//59 59//59 43//59 15//59
f 50//60 47//60 10//60 62//60
f 58//61 60//61 72//61 71//61
f 58//62 71//62 2//62 44//62
f 8//63 7//63 19//63 22//63
f 33//64 36//64 17//64 16//64
f 61//65 64//65 1//65 4//65
f 47//66 46//66 11//66 10//66
f 22//67 21//67 24//67 23//67
f 35//68 34//68 4//68 3//68
f 57//69 56//69 66//69 65//69
f 41//70 44//70 2//70 1//70
f 45//71 48//71 16//71 18//71
f 48//72 47//72 50//72 49//72
f 44//73 43//73 59//73 58//73
f 36//74 35//74 55//74 57//74
