# Blender v2.66 (sub 1) OBJ File: 'ground_tile.blend'
# www.blender.org
o Cube_Cube.077
v -0.120038 -0.387336 0.120038
v -0.120038 -0.387336 -0.120038
v 0.120038 -0.387336 -0.120038
v 0.120038 -0.387336 0.120038
v -0.120038 -0.147261 0.120038
v -0.120038 -0.147261 -0.120038
v 0.120038 -0.147261 -0.120038
v 0.120038 -0.147261 0.120038
v -0.208219 -0.076007 0.208219
v -0.208219 -0.076007 -0.208219
v 0.208219 -0.076007 -0.208219
v 0.208219 -0.076007 0.208219
v -0.208219 0.115742 0.208219
v -0.208219 0.115742 -0.208219
v 0.208219 0.115742 -0.208219
v 0.208219 0.115742 0.208219
v -0.124840 0.224915 0.124840
v -0.124840 0.224915 -0.124840
v 0.124840 0.224915 -0.124840
v 0.124840 0.224915 0.124840
vn -1.000000 0.000000 0.000000
vn 0.000000 0.000000 -1.000000
vn 1.000000 -0.000000 0.000000
vn 0.000000 -0.000000 1.000000
vn -0.000000 -1.000000 0.000000
vn 0.000000 -0.777807 0.628504
vn 0.628504 -0.777807 0.000000
vn -0.628504 -0.777807 0.000000
vn 0.000000 -0.777807 -0.628504
vn -0.794733 0.606960 0.000000
vn -0.000000 1.000000 0.000000
vn 0.000000 0.606960 -0.794733
vn 0.794733 0.606960 0.000000
vn 0.000000 0.606960 0.794733
s off
f 5//1 6//1 2//1 1//1
f 6//2 7//2 3//2 2//2
f 7//3 8//3 4//3 3//3
f 8//4 5//4 1//4 4//4
f 1//5 2//5 3//5 4//5
f 5//6 8//6 12//6 9//6
f 11//2 10//2 14//2 15//2
f 8//7 7//7 11//7 12//7
f 6//8 5//8 9//8 10//8
f 7//9 6//9 10//9 11//9
f 14//10 13//10 17//10 18//10
f 12//3 11//3 15//3 16//3
f 9//4 12//4 16//4 13//4
f 10//1 9//1 13//1 14//1
f 20//11 19//11 18//11 17//11
f 15//12 14//12 18//12 19//12
f 16//13 15//13 19//13 20//13
f 13//14 16//14 20//14 17//14
