# Blender v2.66 (sub 1) OBJ File: 'ground_tile.blend'
# www.blender.org
o Sphere
v -0.143880 2.227232 0.000000
v -0.265855 2.145731 0.000000
v -0.347356 2.023756 0.000000
v -0.347356 1.735997 0.000000
v -0.143880 1.532521 0.000000
v -0.124603 2.227232 -0.071940
v -0.230237 2.145731 -0.132927
v -0.300819 2.023756 -0.173678
v -0.325604 1.879877 -0.187988
v -0.300819 1.735997 -0.173678
v -0.230237 1.614022 -0.132927
v -0.124603 1.532521 -0.071940
v -0.000000 1.503901 0.000000
v -0.071940 2.227232 -0.124603
v -0.132927 2.145731 -0.230237
v -0.173678 2.023756 -0.300819
v -0.187988 1.879877 -0.325604
v -0.173678 1.735997 -0.300819
v -0.132927 1.614022 -0.230237
v -0.071940 1.532521 -0.124603
v -0.000000 2.227232 -0.143879
v -0.000000 2.145731 -0.265855
v -0.000000 2.023756 -0.347356
v -0.000000 1.879877 -0.375975
v -0.000000 1.735997 -0.347356
v -0.000000 1.614022 -0.265855
v -0.000000 1.532521 -0.143879
v 0.071940 2.227232 -0.124603
v 0.132927 2.145731 -0.230237
v 0.173678 2.023756 -0.300819
v 0.187988 1.879877 -0.325604
v 0.173678 1.735997 -0.300819
v 0.132927 1.614022 -0.230237
v 0.071940 1.532521 -0.124603
v -0.000000 2.255852 0.000000
v 0.124603 2.227232 -0.071940
v 0.230237 2.145731 -0.132927
v 0.300819 2.023756 -0.173678
v 0.325604 1.879877 -0.187988
v 0.300819 1.735997 -0.173678
v 0.230237 1.614022 -0.132927
v 0.124603 1.532521 -0.071940
v 0.143879 2.227232 0.000000
v 0.265855 2.145731 0.000000
v 0.347356 2.023756 0.000000
v 0.375975 1.879877 0.000000
v 0.347356 1.735997 0.000000
v 0.265855 1.614022 0.000000
v 0.143879 1.532521 0.000000
v 0.124603 2.227232 0.071940
v 0.230237 2.145731 0.132927
v 0.300819 2.023756 0.173678
v 0.325604 1.879877 0.187988
v 0.300819 1.735997 0.173678
v 0.230237 1.614022 0.132927
v 0.124603 1.532521 0.071940
v 0.071940 2.227232 0.124603
v 0.132927 2.145731 0.230237
v 0.173678 2.023756 0.300819
v 0.187988 1.879877 0.325604
v 0.173678 1.735997 0.300819
v 0.132927 1.614022 0.230237
v 0.071940 1.532521 0.124603
v -0.000000 2.227232 0.143879
v -0.000000 2.145731 0.265855
v -0.000000 2.023756 0.347356
v -0.000000 1.879877 0.375975
v -0.000000 1.735997 0.347356
v -0.000000 1.614022 0.265855
v -0.000000 1.532521 0.143879
v -0.071940 2.227232 0.124603
v -0.132927 2.145731 0.230237
v -0.173678 2.023756 0.300819
v -0.187988 1.879877 0.325604
v -0.173678 1.735997 0.300819
v -0.132927 1.614022 0.230237
v -0.071940 1.532521 0.124603
v -0.124603 2.227232 0.071940
v -0.230237 2.145731 0.132927
v -0.300819 2.023756 0.173678
v -0.325604 1.879877 0.187988
v -0.300819 1.735997 0.173678
v -0.230237 1.614022 0.132927
v -0.124603 1.532521 0.071940
v -0.375975 1.879877 0.000000
v -0.265855 1.614022 0.000000
v -0.183999 1.520805 0.000000
v -0.339985 1.436814 0.000000
v -0.444212 1.311113 0.000000
v -0.159347 1.520805 -0.091999
v -0.294436 1.436814 -0.169992
v -0.384699 1.311113 -0.222106
v -0.416395 1.162838 -0.240406
v -0.091999 1.520805 -0.159347
v -0.169992 1.436814 -0.294436
v -0.222106 1.311113 -0.384699
v -0.240406 1.162838 -0.416395
v -0.000000 1.520805 -0.183998
v -0.000000 1.436814 -0.339985
v -0.000000 1.311113 -0.444212
v -0.000000 1.162838 -0.480811
v 0.091999 1.520805 -0.159347
v 0.169992 1.436814 -0.294436
v 0.222106 1.311113 -0.384699
v 0.240406 1.162838 -0.416395
v -0.000000 1.550299 0.000000
v 0.159347 1.520805 -0.091999
v 0.294435 1.436814 -0.169992
v 0.384698 1.311113 -0.222106
v 0.416395 1.162838 -0.240406
v 0.183998 1.520805 0.000000
v 0.339985 1.436814 0.000000
v 0.444212 1.311113 0.000000
v 0.480811 1.162838 0.000000
v 0.159347 1.520805 0.091999
v 0.294435 1.436814 0.169992
v 0.384698 1.311113 0.222106
v 0.416395 1.162838 0.240406
v 0.091999 1.520805 0.159347
v 0.169992 1.436814 0.294436
v 0.222106 1.311113 0.384699
v 0.240406 1.162838 0.416395
v -0.480811 0.001678 0.000000
v -0.416395 0.001678 0.240406
v -0.000000 1.520805 0.183998
v -0.000000 1.436814 0.339985
v -0.000000 1.311113 0.444212
v -0.000000 1.162838 0.480811
v -0.240406 0.001678 0.416395
v -0.000000 0.001678 0.480811
v 0.240406 0.001678 0.416395
v -0.091999 1.520805 0.159347
v -0.169992 1.436814 0.294436
v -0.222106 1.311113 0.384699
v -0.240406 1.162838 0.416395
v 0.416395 0.001678 0.240406
v 0.480811 0.001678 0.000000
v 0.416395 0.001678 -0.240406
v -0.159347 1.520805 0.091999
v -0.294436 1.436814 0.169992
v -0.384699 1.311113 0.222106
v -0.416395 1.162838 0.240406
v 0.240406 0.001678 -0.416395
v -0.000000 0.001678 -0.480811
v -0.240406 0.001678 -0.416395
v -0.480811 1.162838 0.000000
v -0.416395 0.001678 -0.240406
vt 0.169218 0.888304
vt 0.169218 0.941888
vt 0.086237 0.941888
vt 0.086237 0.888304
vt 0.169218 0.977692
vt 0.086237 0.977692
vt 0.003256 0.941888
vt 0.003256 0.888304
vt 0.086237 0.708307
vt 0.086237 0.761891
vt 0.003256 0.761891
vt 0.003256 0.708307
vt 0.003256 0.977692
vt 0.086237 0.825098
vt 0.003256 0.825098
vt 0.086237 0.672503
vt 0.003256 0.672503
vt 0.999028 0.888304
vt 0.999028 0.941888
vt 0.916047 0.941888
vt 0.916047 0.888304
vt 0.999028 0.708307
vt 0.999028 0.761891
vt 0.916047 0.761891
vt 0.916047 0.708307
vt 0.999028 0.977692
vt 0.916047 0.977692
vt 0.999028 0.825098
vt 0.916047 0.825098
vt 0.999028 0.672503
vt 0.916047 0.672503
vt 0.833066 0.941888
vt 0.833066 0.888304
vt 0.833066 0.761891
vt 0.833066 0.708307
vt 0.833066 0.977692
vt 0.833066 0.825098
vt 0.833066 0.672503
vt 0.750085 0.941888
vt 0.750085 0.888304
vt 0.750085 0.761891
vt 0.750085 0.708307
vt 0.750085 0.977692
vt 0.750085 0.825098
vt 0.750085 0.672503
vt 0.667104 0.941888
vt 0.667104 0.888304
vt 0.667104 0.761891
vt 0.667104 0.708307
vt 0.667104 0.977692
vt 0.667104 0.825098
vt 0.667104 0.672503
vt 0.584123 0.941888
vt 0.584123 0.888304
vt 0.584123 0.761891
vt 0.584123 0.708307
vt 0.584123 0.977692
vt 0.584123 0.825098
vt 0.584123 0.672503
vt 0.501142 0.941888
vt 0.501142 0.888304
vt 0.501142 0.761891
vt 0.501142 0.708307
vt 0.501142 0.977692
vt 0.501142 0.825098
vt 0.501142 0.672503
vt 0.418161 0.941888
vt 0.418161 0.888304
vt 0.418161 0.761891
vt 0.418161 0.708307
vt 0.418161 0.977692
vt 0.418161 0.825098
vt 0.418161 0.672503
vt 0.335180 0.941888
vt 0.335180 0.888304
vt 0.335180 0.761891
vt 0.335180 0.708307
vt 0.335180 0.977692
vt 0.335180 0.825098
vt 0.335180 0.672503
vt 0.252199 0.941888
vt 0.252199 0.888304
vt 0.252199 0.761891
vt 0.252199 0.708307
vt 0.252199 0.977692
vt 0.252199 0.825098
vt 0.252199 0.672503
vt 0.169218 0.825098
vt 0.169218 0.672503
vt 0.169218 0.708307
vt 0.169218 0.761891
vt 0.405929 0.659105
vt 0.734318 0.671677
vt 0.651337 0.671677
vt 0.495956 0.977692
vt 0.840261 0.990265
vt 0.412975 0.977692
vt 0.836600 0.659931
vt 0.579144 0.672503
vt 0.828087 0.672503
vt 0.661918 0.977692
vt 0.900280 0.671677
vt 0.817299 0.671677
vt 0.578937 0.977692
vt 0.169218 0.575238
vt 0.169218 0.630459
vt 0.086237 0.630459
vt 0.086237 0.575238
vt 0.169218 0.667357
vt 0.086237 0.667357
vt 0.003256 0.630459
vt 0.003256 0.575238
vt 0.003256 0.667357
vt 0.086237 0.510101
vt 0.003256 0.510101
vt 0.999028 0.575238
vt 0.999028 0.630459
vt 0.916047 0.630459
vt 0.916047 0.575238
vt 0.999028 0.667357
vt 0.916047 0.667357
vt 1.000000 0.510101
vt 1.000000 0.575238
vt 0.917019 0.575238
vt 0.917019 0.510101
vt 0.833066 0.630459
vt 0.833066 0.575238
vt 0.833066 0.667357
vt 0.916047 0.510101
vt 0.833066 0.510101
vt 0.750085 0.630459
vt 0.750085 0.575238
vt 0.750085 0.667357
vt 0.750085 0.510101
vt 0.667104 0.630459
vt 0.667104 0.575238
vt 0.667104 0.667357
vt 0.667104 0.510101
vt 0.584123 0.630459
vt 0.584123 0.575238
vt 0.584123 0.667357
vt 0.584123 0.510101
vt 0.501142 0.630459
vt 0.501142 0.575238
vt 0.501142 0.667357
vt 0.501142 0.510101
vt 0.418161 0.630459
vt 0.418161 0.575238
vt 0.418161 0.667357
vt 0.418161 0.510101
vt 0.335180 0.630459
vt 0.335180 0.575238
vt 0.335180 0.667357
vt 0.335180 0.510101
vt 0.252199 0.630459
vt 0.252199 0.575238
vt 0.252199 0.667357
vt 0.252199 0.510101
vt 0.169218 0.510101
vt 0.734318 0.666531
vt 0.454935 0.679487
vt 0.651337 0.666531
vt 0.579144 0.667357
vt 0.885607 0.680313
vt 0.833066 0.000000
vt 0.916047 0.000000
vt 0.252199 0.000000
vt 0.335180 0.000000
vt 0.917019 0.000000
vt 1.000000 0.000000
vt 0.418161 0.000000
vt 0.003256 0.000000
vt 0.086237 0.000000
vt 0.501142 0.000000
vt 0.169218 0.000000
vt 0.828087 0.667357
vt 0.584123 0.000000
vt 0.900280 0.666531
vt 0.817299 0.666531
vt 0.667104 0.000000
vt 0.750085 0.000000
vn -0.928312 0.371746 0.000000
vn -0.722556 0.691275 0.000000
vn -0.625751 0.691275 -0.361278
vn -0.803949 0.371746 -0.464156
vn -0.409680 0.912198 0.000000
vn -0.354808 0.912198 -0.204840
vn -0.361278 0.691275 -0.625751
vn -0.464156 0.371746 -0.803949
vn -0.625751 -0.691275 -0.361278
vn -0.803949 -0.371746 -0.464156
vn -0.464156 -0.371746 -0.803949
vn -0.361278 -0.691275 -0.625751
vn -0.204840 0.912198 -0.354808
vn -0.866024 0.000000 -0.499985
vn -0.499985 0.000000 -0.866024
vn -0.354808 -0.912198 -0.204840
vn -0.204840 -0.912198 -0.354808
vn 0.000000 0.691275 -0.722556
vn 0.000000 0.371746 -0.928312
vn 0.000000 -0.371746 -0.928312
vn 0.000000 -0.691275 -0.722556
vn 0.000000 0.912198 -0.409680
vn 0.000000 0.000000 -1.000000
vn 0.000000 -0.912198 -0.409680
vn 0.361278 0.691275 -0.625751
vn 0.464156 0.371746 -0.803949
vn 0.464156 -0.371746 -0.803949
vn 0.361278 -0.691275 -0.625751
vn 0.204840 0.912198 -0.354808
vn 0.499985 0.000000 -0.866024
vn 0.204840 -0.912198 -0.354808
vn 0.625751 0.691275 -0.361278
vn 0.803949 0.371746 -0.464156
vn 0.803949 -0.371746 -0.464156
vn 0.625751 -0.691275 -0.361278
vn 0.354808 0.912198 -0.204840
vn 0.866024 0.000000 -0.499985
vn 0.354808 -0.912198 -0.204840
vn 0.722556 0.691275 0.000000
vn 0.928312 0.371746 0.000000
vn 0.928312 -0.371746 0.000000
vn 0.722556 -0.691275 0.000000
vn 0.409680 0.912198 0.000000
vn 1.000000 0.000000 0.000000
vn 0.409680 -0.912198 0.000000
vn 0.625751 0.691275 0.361278
vn 0.803949 0.371746 0.464156
vn 0.803949 -0.371746 0.464156
vn 0.625751 -0.691275 0.361278
vn 0.354808 0.912198 0.204840
vn 0.866024 0.000000 0.499985
vn 0.354808 -0.912198 0.204840
vn 0.361278 0.691275 0.625751
vn 0.464156 0.371746 0.803949
vn 0.464156 -0.371746 0.803949
vn 0.361278 -0.691275 0.625751
vn 0.204840 0.912198 0.354808
vn 0.499985 0.000000 0.866024
vn 0.204840 -0.912198 0.354808
vn 0.000000 0.691275 0.722556
vn 0.000000 0.371746 0.928312
vn 0.000000 -0.371746 0.928312
vn 0.000000 -0.691275 0.722556
vn 0.000000 0.912198 0.409680
vn 0.000000 0.000000 1.000000
vn 0.000000 -0.912198 0.409680
vn -0.361278 0.691275 0.625751
vn -0.464156 0.371746 0.803949
vn -0.464156 -0.371746 0.803949
vn -0.361278 -0.691275 0.625751
vn -0.204840 0.912198 0.354808
vn -0.499985 0.000000 0.866024
vn -0.204840 -0.912198 0.354808
vn -0.625751 0.691275 0.361278
vn -0.803949 0.371746 0.464156
vn -0.803949 -0.371746 0.464156
vn -0.625751 -0.691275 0.361278
vn -0.354808 0.912198 0.204840
vn -0.866024 0.000000 0.499985
vn -0.354808 -0.912198 0.204840
vn -1.000000 0.000000 0.000000
vn -0.409680 -0.912198 0.000000
vn -0.722556 -0.691275 0.000000
vn -0.928312 -0.371746 0.000000
vn 0.000000 -1.000000 0.000000
vn 0.000000 1.000000 0.000000
vn -0.899869 0.436110 0.000000
vn -0.651845 0.758324 0.000000
vn -0.564501 0.758324 -0.325907
vn -0.779290 0.436110 -0.449934
vn -0.345103 0.938536 0.000000
vn -0.298868 0.938536 -0.172552
vn -0.325907 0.758324 -0.564501
vn -0.449934 0.436110 -0.779290
vn -0.172552 0.938536 -0.298868
vn -0.859920 0.118381 -0.496475
vn -0.496475 0.118381 -0.859920
vn 0.000000 0.758324 -0.651845
vn 0.000000 0.436110 -0.899869
vn 0.000000 0.938536 -0.345103
vn 0.000000 0.118381 -0.992950
vn 0.325907 0.758324 -0.564501
vn 0.449934 0.436110 -0.779290
vn 0.172552 0.938536 -0.298868
vn 0.496475 0.118381 -0.859920
vn 0.564501 0.758324 -0.325907
vn 0.779290 0.436110 -0.449934
vn 0.298868 0.938536 -0.172552
vn 0.859920 0.118381 -0.496475
vn 0.651845 0.758324 0.000000
vn 0.899869 0.436110 0.000000
vn 0.345103 0.938536 0.000000
vn 0.992950 0.118381 0.000000
vn 0.564501 0.758324 0.325907
vn 0.779290 0.436110 0.449934
vn 0.298868 0.938536 0.172552
vn 0.859920 0.118381 0.496475
vn 0.325907 0.758324 0.564501
vn 0.449934 0.436110 0.779290
vn 0.172552 0.938536 0.298868
vn 0.496475 0.118381 0.859920
vn 0.000000 0.758324 0.651845
vn 0.000000 0.436110 0.899869
vn 0.000000 0.938536 0.345103
vn 0.000000 0.118381 0.992950
vn -0.325907 0.758324 0.564501
vn -0.449934 0.436110 0.779290
vn -0.172552 0.938536 0.298868
vn -0.496475 0.118381 0.859920
vn -0.564501 0.758324 0.325907
vn -0.779290 0.436110 0.449934
vn -0.298868 0.938536 0.172552
vn -0.859920 0.118381 0.496475
vn -0.992950 0.118381 0.000000
vn 0.000000 0.000000 -0.999969
vn 0.000000 0.000000 0.999969
vn -0.999969 0.000000 0.000000
vn 0.999969 0.000000 0.000000
s 1
f 3/1/1 2/2/2 7/3/3 8/4/4
f 2/2/2 1/5/5 6/6/6 7/3/3
f 8/4/4 7/3/3 15/7/7 16/8/8
f 11/9/9 10/10/10 18/11/11 19/12/12
f 7/3/3 6/6/6 14/13/13 15/7/7
f 10/10/10 9/14/14 17/15/15 18/11/11
f 9/14/14 8/4/4 16/8/8 17/15/15
f 12/16/16 11/9/9 19/12/12 20/17/17
f 16/18/8 15/19/7 22/20/18 23/21/19
f 19/22/12 18/23/11 25/24/20 26/25/21
f 15/19/7 14/26/13 21/27/22 22/20/18
f 18/23/11 17/28/15 24/29/23 25/24/20
f 17/28/15 16/18/8 23/21/19 24/29/23
f 20/30/17 19/22/12 26/25/21 27/31/24
f 23/21/19 22/20/18 29/32/25 30/33/26
f 26/25/21 25/24/20 32/34/27 33/35/28
f 22/20/18 21/27/22 28/36/29 29/32/25
f 25/24/20 24/29/23 31/37/30 32/34/27
f 24/29/23 23/21/19 30/33/26 31/37/30
f 27/31/24 26/25/21 33/35/28 34/38/31
f 30/33/26 29/32/25 37/39/32 38/40/33
f 33/35/28 32/34/27 40/41/34 41/42/35
f 29/32/25 28/36/29 36/43/36 37/39/32
f 32/34/27 31/37/30 39/44/37 40/41/34
f 31/37/30 30/33/26 38/40/33 39/44/37
f 34/38/31 33/35/28 41/42/35 42/45/38
f 38/40/33 37/39/32 44/46/39 45/47/40
f 41/42/35 40/41/34 47/48/41 48/49/42
f 37/39/32 36/43/36 43/50/43 44/46/39
f 40/41/34 39/44/37 46/51/44 47/48/41
f 39/44/37 38/40/33 45/47/40 46/51/44
f 42/45/38 41/42/35 48/49/42 49/52/45
f 45/47/40 44/46/39 51/53/46 52/54/47
f 48/49/42 47/48/41 54/55/48 55/56/49
f 44/46/39 43/50/43 50/57/50 51/53/46
f 47/48/41 46/51/44 53/58/51 54/55/48
f 46/51/44 45/47/40 52/54/47 53/58/51
f 49/52/45 48/49/42 55/56/49 56/59/52
f 52/54/47 51/53/46 58/60/53 59/61/54
f 55/56/49 54/55/48 61/62/55 62/63/56
f 51/53/46 50/57/50 57/64/57 58/60/53
f 54/55/48 53/58/51 60/65/58 61/62/55
f 53/58/51 52/54/47 59/61/54 60/65/58
f 56/59/52 55/56/49 62/63/56 63/66/59
f 59/61/54 58/60/53 65/67/60 66/68/61
f 62/63/56 61/62/55 68/69/62 69/70/63
f 58/60/53 57/64/57 64/71/64 65/67/60
f 61/62/55 60/65/58 67/72/65 68/69/62
f 60/65/58 59/61/54 66/68/61 67/72/65
f 63/66/59 62/63/56 69/70/63 70/73/66
f 66/68/61 65/67/60 72/74/67 73/75/68
f 69/70/63 68/69/62 75/76/69 76/77/70
f 65/67/60 64/71/64 71/78/71 72/74/67
f 68/69/62 67/72/65 74/79/72 75/76/69
f 67/72/65 66/68/61 73/75/68 74/79/72
f 70/73/66 69/70/63 76/77/70 77/80/73
f 73/75/68 72/74/67 79/81/74 80/82/75
f 76/77/70 75/76/69 82/83/76 83/84/77
f 72/74/67 71/78/71 78/85/78 79/81/74
f 75/76/69 74/79/72 81/86/79 82/83/76
f 74/79/72 73/75/68 80/82/75 81/86/79
f 77/80/73 76/77/70 83/84/77 84/87/80
f 85/88/81 3/1/1 8/4/4 9/14/14
f 5/89/82 86/90/83 11/9/9 12/16/16
f 86/90/83 4/91/84 10/10/10 11/9/9
f 4/91/84 85/88/81 9/14/14 10/10/10
f 13/92/85 5/93/82 12/94/16
f 1/95/5 35/96/86 6/97/6
f 13/98/85 12/99/16 20/30/17
f 6/97/6 35/96/86 14/26/13
f 13/98/85 20/30/17 27/31/24
f 14/26/13 35/96/86 21/27/22
f 13/98/85 27/31/24 34/38/31
f 21/27/22 35/96/86 28/36/29
f 13/98/85 34/38/31 42/45/38
f 28/36/29 35/96/86 36/43/36
f 13/98/85 42/45/38 49/52/45
f 36/43/36 35/96/86 43/50/43
f 13/98/85 49/52/45 56/59/52
f 43/50/43 35/96/86 50/57/50
f 13/98/85 56/59/52 63/66/59
f 50/57/50 35/96/86 57/64/57
f 13/98/85 63/66/59 70/73/66
f 57/64/57 35/96/86 64/71/64
f 13/98/85 70/73/66 77/100/73
f 64/71/64 35/96/86 71/101/71
f 13/92/85 77/102/73 84/103/80
f 71/101/71 35/96/86 78/104/78
f 80/82/75 79/81/74 2/2/2 3/1/1
f 83/84/77 82/83/76 4/91/84 86/90/83
f 79/81/74 78/85/78 1/5/5 2/2/2
f 82/83/76 81/86/79 85/88/81 4/91/84
f 13/92/85 84/103/80 5/93/82
f 78/104/78 35/96/86 1/95/5
f 81/86/79 80/82/75 3/1/1 85/88/81
f 84/87/80 83/84/77 86/90/83 5/89/82
f 89/105/87 88/106/88 91/107/89 92/108/90
f 88/106/88 87/109/91 90/110/92 91/107/89
f 92/108/90 91/107/89 95/111/93 96/112/94
f 91/107/89 90/110/92 94/113/95 95/111/93
f 93/114/96 92/108/90 96/112/94 97/115/97
f 96/116/94 95/117/93 99/118/98 100/119/99
f 95/117/93 94/120/95 98/121/100 99/118/98
f 97/122/97 96/123/94 100/124/99 101/125/101
f 100/119/99 99/118/98 103/126/102 104/127/103
f 99/118/98 98/121/100 102/128/104 103/126/102
f 101/129/101 100/119/99 104/127/103 105/130/105
f 104/127/103 103/126/102 108/131/106 109/132/107
f 103/126/102 102/128/104 107/133/108 108/131/106
f 105/130/105 104/127/103 109/132/107 110/134/109
f 109/132/107 108/131/106 112/135/110 113/136/111
f 108/131/106 107/133/108 111/137/112 112/135/110
f 110/134/109 109/132/107 113/136/111 114/138/113
f 113/136/111 112/135/110 116/139/114 117/140/115
f 112/135/110 111/137/112 115/141/116 116/139/114
f 114/138/113 113/136/111 117/140/115 118/142/117
f 117/140/115 116/139/114 120/143/118 121/144/119
f 116/139/114 115/141/116 119/145/120 120/143/118
f 118/142/117 117/140/115 121/144/119 122/146/121
f 121/144/119 120/143/118 126/147/122 127/148/123
f 120/143/118 119/145/120 125/149/124 126/147/122
f 122/146/121 121/144/119 127/148/123 128/150/125
f 127/148/123 126/147/122 133/151/126 134/152/127
f 126/147/122 125/149/124 132/153/128 133/151/126
f 128/150/125 127/148/123 134/152/127 135/154/129
f 134/152/127 133/151/126 140/155/130 141/156/131
f 133/151/126 132/153/128 139/157/132 140/155/130
f 135/154/129 134/152/127 141/156/131 142/158/133
f 146/159/134 89/105/87 92/108/90 93/114/96
f 87/160/91 106/161/86 90/162/92
f 90/163/92 106/164/86 94/120/95
f 94/120/95 106/164/86 98/121/100
f 101/129/101 105/130/105 143/165/30 144/166/135
f 98/121/100 106/164/86 102/128/104
f 135/154/129 142/158/133 124/167/79 129/168/72
f 102/128/104 106/164/86 107/133/108
f 97/122/97 101/125/101 144/169/135 145/170/15
f 107/133/108 106/164/86 111/137/112
f 128/150/125 135/154/129 129/168/72 130/171/136
f 111/137/112 106/164/86 115/141/116
f 93/114/96 97/115/97 145/172/15 147/173/14
f 115/141/116 106/164/86 119/145/120
f 122/146/121 128/150/125 130/171/136 131/174/58
f 119/145/120 106/164/86 125/149/124
f 146/159/134 93/114/96 147/173/14 123/175/137
f 125/149/124 106/164/86 132/176/128
f 118/142/117 122/146/121 131/174/58 136/177/51
f 132/178/128 106/161/86 139/179/132
f 141/156/131 140/155/130 88/106/88 89/105/87
f 114/138/113 118/142/117 136/177/51 137/180/138
f 140/155/130 139/157/132 87/109/91 88/106/88
f 142/158/133 146/159/134 123/175/137 124/167/79
f 110/134/109 114/138/113 137/180/138 138/181/37
f 139/179/132 106/161/86 87/160/91
f 142/158/133 141/156/131 89/105/87 146/159/134
f 105/130/105 110/134/109 138/181/37 143/165/30
