# Blender v2.66 (sub 1) OBJ File: 'ground_tile.blend'
# www.blender.org
o Cylinder
v 0.000000 0.000000 -0.100000
v 0.000000 2.000000 -0.100000
v 0.050000 0.000000 -0.086603
v 0.050000 2.000000 -0.086603
v 0.086603 0.000000 -0.050000
v 0.086603 2.000000 -0.050000
v 0.100000 0.000000 0.000000
v 0.100000 2.000000 0.000000
v 0.086603 0.000000 0.050000
v 0.086603 2.000000 0.050000
v 0.050000 0.000000 0.086603
v 0.050000 2.000000 0.086603
v 0.000000 0.000000 0.100000
v 0.000000 2.000000 0.100000
v -0.050000 0.000000 0.086603
v -0.050000 2.000000 0.086603
v -0.086603 0.000000 0.050000
v -0.086603 2.000000 0.050000
v -0.100000 0.000000 0.000000
v -0.100000 2.000000 0.000000
v -0.086603 0.000000 -0.050000
v -0.086603 2.000000 -0.050000
v -0.050000 0.000000 -0.086603
v -0.050000 2.000000 -0.086603
v 0.000000 2.010292 -0.199335
v 0.099668 2.010292 -0.172629
v 0.172629 2.010292 -0.099668
v 0.199335 2.010292 -0.000000
v 0.172629 2.010292 0.099668
v 0.099668 2.010292 0.172629
v 0.000000 2.010292 0.199335
v -0.099668 2.010292 0.172629
v -0.172629 2.010292 0.099668
v -0.199335 2.010292 0.000000
v -0.172629 2.010292 -0.099667
v -0.099668 2.010292 -0.172629
v -0.000000 2.145482 -0.191411
v 0.095706 2.145482 -0.165767
v 0.165767 2.145482 -0.095706
v 0.191411 2.145482 -0.000000
v 0.165767 2.145482 0.095706
v 0.095706 2.145482 0.165767
v 0.000000 2.145482 0.191411
v -0.095706 2.145482 0.165767
v -0.165767 2.145482 0.095706
v -0.191411 2.145482 0.000000
v -0.165767 2.145482 -0.095706
v -0.095706 2.145482 -0.165767
v 0.896461 2.052717 -0.099668
v 0.923167 2.052717 0.000000
v 0.896461 2.052717 0.099668
v 0.889599 2.187907 -0.095706
v 0.915243 2.187907 0.000000
v 0.889599 2.187907 0.095706
vn 0.258819 0.000000 -0.965926
vn 0.707107 0.000000 -0.707107
vn 0.965926 0.000000 -0.258819
vn 0.965926 0.000000 0.258819
vn 0.707107 0.000000 0.707107
vn 0.258819 0.000000 0.965926
vn -0.258819 0.000000 0.965926
vn -0.707107 0.000000 0.707107
vn -0.965926 0.000000 0.258819
vn -0.965926 0.000000 -0.258819
vn 0.103018 -0.994296 0.027604
vn -0.258819 0.000000 -0.965926
vn -0.707107 0.000000 -0.707106
vn 0.000000 -1.000000 0.000000
vn -0.258405 0.056524 0.964382
vn 0.075415 -0.994296 -0.075415
vn 0.027604 -0.994296 -0.103018
vn -0.075415 -0.994296 -0.075415
vn -0.103018 -0.994296 0.027604
vn -0.027604 -0.994296 0.103018
vn 0.075415 -0.994296 0.075415
vn 0.103018 -0.994296 -0.027604
vn -0.027604 -0.994296 -0.103018
vn -0.103018 -0.994296 -0.027604
vn -0.075415 -0.994296 0.075415
vn 0.027604 -0.994296 0.103018
vn 0.000000 1.000000 -0.000001
vn 0.258405 0.056524 -0.964381
vn -0.705976 0.056524 0.705977
vn 0.705976 0.056524 -0.705976
vn -0.964381 0.056524 0.258406
vn -0.001712 0.029207 -0.999572
vn -0.964382 0.056524 -0.258405
vn -0.001712 0.029206 0.999572
vn -0.705977 0.056524 -0.705976
vn 0.705976 0.056524 0.705976
vn -0.258406 0.056524 -0.964381
vn 0.258405 0.056524 0.964381
vn 0.964382 0.056524 -0.258405
vn 0.964382 0.056524 0.258405
vn -0.058504 0.998164 -0.015676
vn 0.058504 -0.998164 0.015676
vn -0.058504 0.998164 0.015676
vn 0.058504 -0.998164 -0.015676
s off
f 1//1 2//1 4//1 3//1
f 3//2 4//2 6//2 5//2
f 5//3 6//3 8//3 7//3
f 7//4 8//4 10//4 9//4
f 9//5 10//5 12//5 11//5
f 11//6 12//6 14//6 13//6
f 13//7 14//7 16//7 15//7
f 15//8 16//8 18//8 17//8
f 17//9 18//9 20//9 19//9
f 19//10 20//10 22//10 21//10
f 10//11 8//11 28//11 29//11
f 23//12 24//12 2//12 1//12
f 21//13 22//13 24//13 23//13
f 1//14 3//14 5//14 7//14 9//14 11//14 13//14 15//14 17//14 19//14 21//14 23//14
f 32//15 31//15 43//15 44//15
f 6//16 4//16 26//16 27//16
f 4//17 2//17 25//17 26//17
f 24//18 22//18 35//18 36//18
f 20//19 18//19 33//19 34//19
f 16//20 14//20 31//20 32//20
f 12//21 10//21 29//21 30//21
f 8//22 6//22 27//22 28//22
f 2//23 24//23 36//23 25//23
f 22//24 20//24 34//24 35//24
f 18//25 16//25 32//25 33//25
f 14//26 12//26 30//26 31//26
f 38//27 37//27 48//27 47//27 46//27 45//27 44//27 43//27 42//27 41//27 40//27 39//27
f 26//28 25//28 37//28 38//28
f 33//29 32//29 44//29 45//29
f 27//30 26//30 38//30 39//30
f 34//31 33//31 45//31 46//31
f 27//32 39//32 52//32 49//32
f 35//33 34//33 46//33 47//33
f 41//34 29//34 51//34 54//34
f 36//35 35//35 47//35 48//35
f 30//36 29//36 41//36 42//36
f 25//37 36//37 48//37 37//37
f 31//38 30//38 42//38 43//38
f 50//39 49//39 52//39 53//39
f 51//40 50//40 53//40 54//40
f 40//41 41//41 54//41 53//41
f 29//42 28//42 50//42 51//42
f 39//43 40//43 53//43 52//43
f 28//44 27//44 49//44 50//44
